<?xml version="1.0" encoding="utf-8" standalone="no"?>
<!DOCTYPE svg PUBLIC "-//W3C//DTD SVG 1.1//EN"
  "http://www.w3.org/Graphics/SVG/1.1/DTD/svg11.dtd">
<svg xmlns:xlink="http://www.w3.org/1999/xlink" width="350.51494pt" height="337.92744pt" viewBox="0 0 350.51494 337.92744" xmlns="http://www.w3.org/2000/svg" version="1.1">
 <metadata>
  <rdf:RDF xmlns:dc="http://purl.org/dc/elements/1.1/" xmlns:cc="http://creativecommons.org/ns#" xmlns:rdf="http://www.w3.org/1999/02/22-rdf-syntax-ns#">
   <cc:Work>
    <dc:type rdf:resource="http://purl.org/dc/dcmitype/StillImage"/>
    <dc:date>2022-06-09T16:34:54.375380</dc:date>
    <dc:format>image/svg+xml</dc:format>
    <dc:creator>
     <cc:Agent>
      <dc:title>Matplotlib v3.5.2, https://matplotlib.org/</dc:title>
     </cc:Agent>
    </dc:creator>
   </cc:Work>
  </rdf:RDF>
 </metadata>
 <defs>
  <style type="text/css">*{stroke-linejoin: round; stroke-linecap: butt}</style>
 </defs>
 <g id="figure_1">
  <g id="patch_1">
   <path d="M 0 337.92744 
L 350.51494 337.92744 
L 350.51494 0 
L 0 0 
z
" style="fill: #ffffff"/>
  </g>
  <g id="axes_1">
   <g id="patch_2">
    <path d="M 36.465625 314.049315 
L 343.31494 314.049315 
L 343.31494 7.2 
L 36.465625 7.2 
z
" style="fill: #ffffff"/>
   </g>
   <g id="patch_3">
    <path d="M 50.413321 439.57858 
C 87.403044 439.57858 122.882743 424.882408 149.038426 398.726724 
C 175.19411 372.571041 189.890283 337.091341 189.890283 300.101619 
C 189.890283 263.111896 175.19411 227.632197 149.038426 201.476514 
C 122.882743 175.32083 87.403044 160.624658 50.413321 160.624658 
C 13.423599 160.624658 -22.0561 175.32083 -48.211784 201.476514 
C -74.367468 227.632197 -89.06364 263.111896 -89.06364 300.101619 
C -89.06364 337.091341 -74.367468 372.571041 -48.211784 398.726724 
C -22.0561 424.882408 13.423599 439.57858 50.413321 439.57858 
" clip-path="url(#p5e9006c279)" style="fill: none; stroke: #bfbfbf; stroke-width: 7; stroke-linejoin: miter"/>
   </g>
   <g id="patch_4">
    <path d="M 50.413321 509.317061 
C 105.897905 509.317061 159.117454 487.272802 198.350979 448.039277 
C 237.584504 408.805751 259.628763 355.586203 259.628763 300.101619 
C 259.628763 244.617035 237.584504 191.397487 198.350979 152.163961 
C 159.117454 112.930436 105.897905 90.886177 50.413321 90.886177 
C -5.071263 90.886177 -58.290811 112.930436 -97.524337 152.163961 
C -136.757862 191.397487 -158.802121 244.617035 -158.802121 300.101619 
C -158.802121 355.586203 -136.757862 408.805751 -97.524337 448.039277 
C -58.290811 487.272802 -5.071263 509.317061 50.413321 509.317061 
" clip-path="url(#p5e9006c279)" style="fill: none; stroke: #bfbfbf; stroke-width: 7; stroke-linejoin: miter"/>
   </g>
   <g id="patch_5">
    <path d="M 50.413321 579.055542 
C 124.392766 579.055542 195.352164 549.663197 247.663532 497.351829 
C 299.974899 445.040462 329.367244 374.081064 329.367244 300.101619 
C 329.367244 226.122174 299.974899 155.162776 247.663532 102.851408 
C 195.352164 50.540041 124.392766 21.147696 50.413321 21.147696 
C -23.566124 21.147696 -94.525522 50.540041 -146.836889 102.851408 
C -199.148257 155.162776 -228.540602 226.122174 -228.540602 300.101619 
C -228.540602 374.081064 -199.148257 445.040462 -146.836889 497.351829 
C -94.525522 549.663197 -23.566124 579.055542 50.413321 579.055542 
" clip-path="url(#p5e9006c279)" style="fill: none; stroke: #bfbfbf; stroke-width: 7; stroke-linejoin: miter"/>
   </g>
   <g id="patch_6">
    <path d="M 177.713974 243.107175 
Q 207.740201 229.663975 239.822355 215.300306 
M 329.367244 300.101619 
Q 294.498004 300.101619 259.628763 300.101619 
M 107.407765 172.800966 
Q 82.706245 161.240818 50.413321 160.624658 
M 239.822355 215.300306 
Q 255.141801 252.28472 259.628763 300.101619 
M 259.628763 300.101619 
Q 224.759523 300.101619 189.890283 300.101619 
M 50.413321 90.886177 
Q 50.413321 56.016936 50.413321 21.147696 
M 149.038426 201.476514 
Q 131.774232 183.979396 107.407765 172.800966 
M 135.214634 110.692585 
Q 172.199049 126.012031 198.350979 152.163961 
M 198.350979 152.163961 
Q 223.007255 127.507685 247.663532 102.851408 
M 164.402208 45.500314 
Q 213.135144 67.857173 247.663532 102.851408 
M 50.413321 160.624658 
Q 50.413321 125.755417 50.413321 90.886177 
M 239.822355 215.300306 
Q 270.362564 201.626988 305.014626 186.112732 
M 177.713974 243.107175 
Q 166.535544 218.740708 149.038426 201.476514 
M 149.038426 201.476514 
Q 173.694703 176.820237 198.350979 152.163961 
M 50.413321 21.147696 
Q 114.999169 22.380016 164.402208 45.500314 
M 107.407765 172.800966 
Q 120.850965 142.774739 135.214634 110.692585 
M 50.413321 90.886177 
Q 98.23022 95.373139 135.214634 110.692585 
M 189.890283 300.101619 
Q 189.274122 267.808695 177.713974 243.107175 
M 247.663532 102.851408 
Q 282.657767 137.379796 305.014626 186.112732 
M 305.014626 186.112732 
Q 328.134924 235.515771 329.367244 300.101619 
M 198.350979 152.163961 
Q 224.502909 178.315891 239.822355 215.300306 
M 135.214634 110.692585 
Q 148.887952 80.152376 164.402208 45.500314 
" style="fill: none; stroke: #2440cd; stroke-width: 2; stroke-linejoin: miter"/>
   </g>
   <g id="matplotlib.axis_1">
    <g id="xtick_1">
     <g id="line2d_1">
      <defs>
       <path id="m2744efdc7e" d="M 0 0 
L 0 3.5 
" style="stroke: #000000; stroke-width: 0.8"/>
      </defs>
      <g>
       <use xlink:href="#m2744efdc7e" x="50.413321" y="314.049315" style="stroke: #000000; stroke-width: 0.8"/>
      </g>
     </g>
     <g id="text_1">
      <!-- 0.00 -->
      <g transform="translate(39.280509 328.647753)scale(0.1 -0.1)">
       <defs>
        <path id="DejaVuSans-30" d="M 2034 4250 
Q 1547 4250 1301 3770 
Q 1056 3291 1056 2328 
Q 1056 1369 1301 889 
Q 1547 409 2034 409 
Q 2525 409 2770 889 
Q 3016 1369 3016 2328 
Q 3016 3291 2770 3770 
Q 2525 4250 2034 4250 
z
M 2034 4750 
Q 2819 4750 3233 4129 
Q 3647 3509 3647 2328 
Q 3647 1150 3233 529 
Q 2819 -91 2034 -91 
Q 1250 -91 836 529 
Q 422 1150 422 2328 
Q 422 3509 836 4129 
Q 1250 4750 2034 4750 
z
" transform="scale(0.015625)"/>
        <path id="DejaVuSans-2e" d="M 684 794 
L 1344 794 
L 1344 0 
L 684 0 
L 684 794 
z
" transform="scale(0.015625)"/>
       </defs>
       <use xlink:href="#DejaVuSans-30"/>
       <use xlink:href="#DejaVuSans-2e" x="63.623047"/>
       <use xlink:href="#DejaVuSans-30" x="95.410156"/>
       <use xlink:href="#DejaVuSans-30" x="159.033203"/>
      </g>
     </g>
    </g>
    <g id="xtick_2">
     <g id="line2d_2">
      <g>
       <use xlink:href="#m2744efdc7e" x="85.282561" y="314.049315" style="stroke: #000000; stroke-width: 0.8"/>
      </g>
     </g>
     <g id="text_2">
      <!-- 0.25 -->
      <g transform="translate(74.149749 328.647753)scale(0.1 -0.1)">
       <defs>
        <path id="DejaVuSans-32" d="M 1228 531 
L 3431 531 
L 3431 0 
L 469 0 
L 469 531 
Q 828 903 1448 1529 
Q 2069 2156 2228 2338 
Q 2531 2678 2651 2914 
Q 2772 3150 2772 3378 
Q 2772 3750 2511 3984 
Q 2250 4219 1831 4219 
Q 1534 4219 1204 4116 
Q 875 4013 500 3803 
L 500 4441 
Q 881 4594 1212 4672 
Q 1544 4750 1819 4750 
Q 2544 4750 2975 4387 
Q 3406 4025 3406 3419 
Q 3406 3131 3298 2873 
Q 3191 2616 2906 2266 
Q 2828 2175 2409 1742 
Q 1991 1309 1228 531 
z
" transform="scale(0.015625)"/>
        <path id="DejaVuSans-35" d="M 691 4666 
L 3169 4666 
L 3169 4134 
L 1269 4134 
L 1269 2991 
Q 1406 3038 1543 3061 
Q 1681 3084 1819 3084 
Q 2600 3084 3056 2656 
Q 3513 2228 3513 1497 
Q 3513 744 3044 326 
Q 2575 -91 1722 -91 
Q 1428 -91 1123 -41 
Q 819 9 494 109 
L 494 744 
Q 775 591 1075 516 
Q 1375 441 1709 441 
Q 2250 441 2565 725 
Q 2881 1009 2881 1497 
Q 2881 1984 2565 2268 
Q 2250 2553 1709 2553 
Q 1456 2553 1204 2497 
Q 953 2441 691 2322 
L 691 4666 
z
" transform="scale(0.015625)"/>
       </defs>
       <use xlink:href="#DejaVuSans-30"/>
       <use xlink:href="#DejaVuSans-2e" x="63.623047"/>
       <use xlink:href="#DejaVuSans-32" x="95.410156"/>
       <use xlink:href="#DejaVuSans-35" x="159.033203"/>
      </g>
     </g>
    </g>
    <g id="xtick_3">
     <g id="line2d_3">
      <g>
       <use xlink:href="#m2744efdc7e" x="120.151802" y="314.049315" style="stroke: #000000; stroke-width: 0.8"/>
      </g>
     </g>
     <g id="text_3">
      <!-- 0.50 -->
      <g transform="translate(109.018989 328.647753)scale(0.1 -0.1)">
       <use xlink:href="#DejaVuSans-30"/>
       <use xlink:href="#DejaVuSans-2e" x="63.623047"/>
       <use xlink:href="#DejaVuSans-35" x="95.410156"/>
       <use xlink:href="#DejaVuSans-30" x="159.033203"/>
      </g>
     </g>
    </g>
    <g id="xtick_4">
     <g id="line2d_4">
      <g>
       <use xlink:href="#m2744efdc7e" x="155.021042" y="314.049315" style="stroke: #000000; stroke-width: 0.8"/>
      </g>
     </g>
     <g id="text_4">
      <!-- 0.75 -->
      <g transform="translate(143.88823 328.647753)scale(0.1 -0.1)">
       <defs>
        <path id="DejaVuSans-37" d="M 525 4666 
L 3525 4666 
L 3525 4397 
L 1831 0 
L 1172 0 
L 2766 4134 
L 525 4134 
L 525 4666 
z
" transform="scale(0.015625)"/>
       </defs>
       <use xlink:href="#DejaVuSans-30"/>
       <use xlink:href="#DejaVuSans-2e" x="63.623047"/>
       <use xlink:href="#DejaVuSans-37" x="95.410156"/>
       <use xlink:href="#DejaVuSans-35" x="159.033203"/>
      </g>
     </g>
    </g>
    <g id="xtick_5">
     <g id="line2d_5">
      <g>
       <use xlink:href="#m2744efdc7e" x="189.890283" y="314.049315" style="stroke: #000000; stroke-width: 0.8"/>
      </g>
     </g>
     <g id="text_5">
      <!-- 1.00 -->
      <g transform="translate(178.75747 328.647753)scale(0.1 -0.1)">
       <defs>
        <path id="DejaVuSans-31" d="M 794 531 
L 1825 531 
L 1825 4091 
L 703 3866 
L 703 4441 
L 1819 4666 
L 2450 4666 
L 2450 531 
L 3481 531 
L 3481 0 
L 794 0 
L 794 531 
z
" transform="scale(0.015625)"/>
       </defs>
       <use xlink:href="#DejaVuSans-31"/>
       <use xlink:href="#DejaVuSans-2e" x="63.623047"/>
       <use xlink:href="#DejaVuSans-30" x="95.410156"/>
       <use xlink:href="#DejaVuSans-30" x="159.033203"/>
      </g>
     </g>
    </g>
    <g id="xtick_6">
     <g id="line2d_6">
      <g>
       <use xlink:href="#m2744efdc7e" x="224.759523" y="314.049315" style="stroke: #000000; stroke-width: 0.8"/>
      </g>
     </g>
     <g id="text_6">
      <!-- 1.25 -->
      <g transform="translate(213.62671 328.647753)scale(0.1 -0.1)">
       <use xlink:href="#DejaVuSans-31"/>
       <use xlink:href="#DejaVuSans-2e" x="63.623047"/>
       <use xlink:href="#DejaVuSans-32" x="95.410156"/>
       <use xlink:href="#DejaVuSans-35" x="159.033203"/>
      </g>
     </g>
    </g>
    <g id="xtick_7">
     <g id="line2d_7">
      <g>
       <use xlink:href="#m2744efdc7e" x="259.628763" y="314.049315" style="stroke: #000000; stroke-width: 0.8"/>
      </g>
     </g>
     <g id="text_7">
      <!-- 1.50 -->
      <g transform="translate(248.495951 328.647753)scale(0.1 -0.1)">
       <use xlink:href="#DejaVuSans-31"/>
       <use xlink:href="#DejaVuSans-2e" x="63.623047"/>
       <use xlink:href="#DejaVuSans-35" x="95.410156"/>
       <use xlink:href="#DejaVuSans-30" x="159.033203"/>
      </g>
     </g>
    </g>
    <g id="xtick_8">
     <g id="line2d_8">
      <g>
       <use xlink:href="#m2744efdc7e" x="294.498004" y="314.049315" style="stroke: #000000; stroke-width: 0.8"/>
      </g>
     </g>
     <g id="text_8">
      <!-- 1.75 -->
      <g transform="translate(283.365191 328.647753)scale(0.1 -0.1)">
       <use xlink:href="#DejaVuSans-31"/>
       <use xlink:href="#DejaVuSans-2e" x="63.623047"/>
       <use xlink:href="#DejaVuSans-37" x="95.410156"/>
       <use xlink:href="#DejaVuSans-35" x="159.033203"/>
      </g>
     </g>
    </g>
    <g id="xtick_9">
     <g id="line2d_9">
      <g>
       <use xlink:href="#m2744efdc7e" x="329.367244" y="314.049315" style="stroke: #000000; stroke-width: 0.8"/>
      </g>
     </g>
     <g id="text_9">
      <!-- 2.00 -->
      <g transform="translate(318.234431 328.647753)scale(0.1 -0.1)">
       <use xlink:href="#DejaVuSans-32"/>
       <use xlink:href="#DejaVuSans-2e" x="63.623047"/>
       <use xlink:href="#DejaVuSans-30" x="95.410156"/>
       <use xlink:href="#DejaVuSans-30" x="159.033203"/>
      </g>
     </g>
    </g>
   </g>
   <g id="matplotlib.axis_2">
    <g id="ytick_1">
     <g id="line2d_10">
      <defs>
       <path id="m1692fe1e35" d="M 0 0 
L -3.5 0 
" style="stroke: #000000; stroke-width: 0.8"/>
      </defs>
      <g>
       <use xlink:href="#m1692fe1e35" x="36.465625" y="300.101619" style="stroke: #000000; stroke-width: 0.8"/>
      </g>
     </g>
     <g id="text_10">
      <!-- 0.00 -->
      <g transform="translate(7.2 303.900838)scale(0.1 -0.1)">
       <use xlink:href="#DejaVuSans-30"/>
       <use xlink:href="#DejaVuSans-2e" x="63.623047"/>
       <use xlink:href="#DejaVuSans-30" x="95.410156"/>
       <use xlink:href="#DejaVuSans-30" x="159.033203"/>
      </g>
     </g>
    </g>
    <g id="ytick_2">
     <g id="line2d_11">
      <g>
       <use xlink:href="#m1692fe1e35" x="36.465625" y="265.232379" style="stroke: #000000; stroke-width: 0.8"/>
      </g>
     </g>
     <g id="text_11">
      <!-- 0.25 -->
      <g transform="translate(7.2 269.031597)scale(0.1 -0.1)">
       <use xlink:href="#DejaVuSans-30"/>
       <use xlink:href="#DejaVuSans-2e" x="63.623047"/>
       <use xlink:href="#DejaVuSans-32" x="95.410156"/>
       <use xlink:href="#DejaVuSans-35" x="159.033203"/>
      </g>
     </g>
    </g>
    <g id="ytick_3">
     <g id="line2d_12">
      <g>
       <use xlink:href="#m1692fe1e35" x="36.465625" y="230.363138" style="stroke: #000000; stroke-width: 0.8"/>
      </g>
     </g>
     <g id="text_12">
      <!-- 0.50 -->
      <g transform="translate(7.2 234.162357)scale(0.1 -0.1)">
       <use xlink:href="#DejaVuSans-30"/>
       <use xlink:href="#DejaVuSans-2e" x="63.623047"/>
       <use xlink:href="#DejaVuSans-35" x="95.410156"/>
       <use xlink:href="#DejaVuSans-30" x="159.033203"/>
      </g>
     </g>
    </g>
    <g id="ytick_4">
     <g id="line2d_13">
      <g>
       <use xlink:href="#m1692fe1e35" x="36.465625" y="195.493898" style="stroke: #000000; stroke-width: 0.8"/>
      </g>
     </g>
     <g id="text_13">
      <!-- 0.75 -->
      <g transform="translate(7.2 199.293117)scale(0.1 -0.1)">
       <use xlink:href="#DejaVuSans-30"/>
       <use xlink:href="#DejaVuSans-2e" x="63.623047"/>
       <use xlink:href="#DejaVuSans-37" x="95.410156"/>
       <use xlink:href="#DejaVuSans-35" x="159.033203"/>
      </g>
     </g>
    </g>
    <g id="ytick_5">
     <g id="line2d_14">
      <g>
       <use xlink:href="#m1692fe1e35" x="36.465625" y="160.624658" style="stroke: #000000; stroke-width: 0.8"/>
      </g>
     </g>
     <g id="text_14">
      <!-- 1.00 -->
      <g transform="translate(7.2 164.423876)scale(0.1 -0.1)">
       <use xlink:href="#DejaVuSans-31"/>
       <use xlink:href="#DejaVuSans-2e" x="63.623047"/>
       <use xlink:href="#DejaVuSans-30" x="95.410156"/>
       <use xlink:href="#DejaVuSans-30" x="159.033203"/>
      </g>
     </g>
    </g>
    <g id="ytick_6">
     <g id="line2d_15">
      <g>
       <use xlink:href="#m1692fe1e35" x="36.465625" y="125.755417" style="stroke: #000000; stroke-width: 0.8"/>
      </g>
     </g>
     <g id="text_15">
      <!-- 1.25 -->
      <g transform="translate(7.2 129.554636)scale(0.1 -0.1)">
       <use xlink:href="#DejaVuSans-31"/>
       <use xlink:href="#DejaVuSans-2e" x="63.623047"/>
       <use xlink:href="#DejaVuSans-32" x="95.410156"/>
       <use xlink:href="#DejaVuSans-35" x="159.033203"/>
      </g>
     </g>
    </g>
    <g id="ytick_7">
     <g id="line2d_16">
      <g>
       <use xlink:href="#m1692fe1e35" x="36.465625" y="90.886177" style="stroke: #000000; stroke-width: 0.8"/>
      </g>
     </g>
     <g id="text_16">
      <!-- 1.50 -->
      <g transform="translate(7.2 94.685396)scale(0.1 -0.1)">
       <use xlink:href="#DejaVuSans-31"/>
       <use xlink:href="#DejaVuSans-2e" x="63.623047"/>
       <use xlink:href="#DejaVuSans-35" x="95.410156"/>
       <use xlink:href="#DejaVuSans-30" x="159.033203"/>
      </g>
     </g>
    </g>
    <g id="ytick_8">
     <g id="line2d_17">
      <g>
       <use xlink:href="#m1692fe1e35" x="36.465625" y="56.016936" style="stroke: #000000; stroke-width: 0.8"/>
      </g>
     </g>
     <g id="text_17">
      <!-- 1.75 -->
      <g transform="translate(7.2 59.816155)scale(0.1 -0.1)">
       <use xlink:href="#DejaVuSans-31"/>
       <use xlink:href="#DejaVuSans-2e" x="63.623047"/>
       <use xlink:href="#DejaVuSans-37" x="95.410156"/>
       <use xlink:href="#DejaVuSans-35" x="159.033203"/>
      </g>
     </g>
    </g>
    <g id="ytick_9">
     <g id="line2d_18">
      <g>
       <use xlink:href="#m1692fe1e35" x="36.465625" y="21.147696" style="stroke: #000000; stroke-width: 0.8"/>
      </g>
     </g>
     <g id="text_18">
      <!-- 2.00 -->
      <g transform="translate(7.2 24.946915)scale(0.1 -0.1)">
       <use xlink:href="#DejaVuSans-32"/>
       <use xlink:href="#DejaVuSans-2e" x="63.623047"/>
       <use xlink:href="#DejaVuSans-30" x="95.410156"/>
       <use xlink:href="#DejaVuSans-30" x="159.033203"/>
      </g>
     </g>
    </g>
   </g>
   <g id="line2d_19">
    <defs>
     <path id="m72c22786aa" d="M 0 3 
C 0.795609 3 1.55874 2.683901 2.12132 2.12132 
C 2.683901 1.55874 3 0.795609 3 0 
C 3 -0.795609 2.683901 -1.55874 2.12132 -2.12132 
C 1.55874 -2.683901 0.795609 -3 0 -3 
C -0.795609 -3 -1.55874 -2.683901 -2.12132 -2.12132 
C -2.683901 -1.55874 -3 -0.795609 -3 0 
C -3 0.795609 -2.683901 1.55874 -2.12132 2.12132 
C -1.55874 2.683901 -0.795609 3 0 3 
z
" style="stroke: #ffffff"/>
    </defs>
    <g>
     <use xlink:href="#m72c22786aa" x="189.890283" y="300.101619" style="fill: #ff0000; stroke: #ffffff"/>
     <use xlink:href="#m72c22786aa" x="259.628763" y="300.101619" style="fill: #ff0000; stroke: #ffffff"/>
     <use xlink:href="#m72c22786aa" x="329.367244" y="300.101619" style="fill: #ff0000; stroke: #ffffff"/>
     <use xlink:href="#m72c22786aa" x="177.713974" y="243.107175" style="fill: #ff0000; stroke: #ffffff"/>
     <use xlink:href="#m72c22786aa" x="239.822355" y="215.300306" style="fill: #ff0000; stroke: #ffffff"/>
     <use xlink:href="#m72c22786aa" x="305.014626" y="186.112732" style="fill: #ff0000; stroke: #ffffff"/>
     <use xlink:href="#m72c22786aa" x="149.038426" y="201.476514" style="fill: #ff0000; stroke: #ffffff"/>
     <use xlink:href="#m72c22786aa" x="198.350979" y="152.163961" style="fill: #ff0000; stroke: #ffffff"/>
     <use xlink:href="#m72c22786aa" x="247.663532" y="102.851408" style="fill: #ff0000; stroke: #ffffff"/>
     <use xlink:href="#m72c22786aa" x="107.407765" y="172.800966" style="fill: #ff0000; stroke: #ffffff"/>
     <use xlink:href="#m72c22786aa" x="135.214634" y="110.692585" style="fill: #ff0000; stroke: #ffffff"/>
     <use xlink:href="#m72c22786aa" x="164.402208" y="45.500314" style="fill: #ff0000; stroke: #ffffff"/>
     <use xlink:href="#m72c22786aa" x="50.413321" y="160.624658" style="fill: #ff0000; stroke: #ffffff"/>
     <use xlink:href="#m72c22786aa" x="50.413321" y="90.886177" style="fill: #ff0000; stroke: #ffffff"/>
     <use xlink:href="#m72c22786aa" x="50.413321" y="21.147696" style="fill: #ff0000; stroke: #ffffff"/>
     <use xlink:href="#m72c22786aa" x="224.759523" y="300.101619" style="fill: #ff0000; stroke: #ffffff"/>
     <use xlink:href="#m72c22786aa" x="294.498004" y="300.101619" style="fill: #ff0000; stroke: #ffffff"/>
     <use xlink:href="#m72c22786aa" x="208.254183" y="229.433858" style="fill: #ff0000; stroke: #ffffff"/>
     <use xlink:href="#m72c22786aa" x="271.390528" y="201.166754" style="fill: #ff0000; stroke: #ffffff"/>
     <use xlink:href="#m72c22786aa" x="173.694703" y="176.820237" style="fill: #ff0000; stroke: #ffffff"/>
     <use xlink:href="#m72c22786aa" x="223.007255" y="127.507685" style="fill: #ff0000; stroke: #ffffff"/>
     <use xlink:href="#m72c22786aa" x="121.081082" y="142.260757" style="fill: #ff0000; stroke: #ffffff"/>
     <use xlink:href="#m72c22786aa" x="149.348186" y="79.124412" style="fill: #ff0000; stroke: #ffffff"/>
     <use xlink:href="#m72c22786aa" x="50.413321" y="125.755417" style="fill: #ff0000; stroke: #ffffff"/>
     <use xlink:href="#m72c22786aa" x="50.413321" y="56.016936" style="fill: #ff0000; stroke: #ffffff"/>
     <use xlink:href="#m72c22786aa" x="186.538125" y="269.706546" style="fill: #ff0000; stroke: #ffffff"/>
     <use xlink:href="#m72c22786aa" x="252.43368" y="254.992841" style="fill: #ff0000; stroke: #ffffff"/>
     <use xlink:href="#m72c22786aa" x="322.662929" y="239.311473" style="fill: #ff0000; stroke: #ffffff"/>
     <use xlink:href="#m72c22786aa" x="164.955872" y="220.516276" style="fill: #ff0000; stroke: #ffffff"/>
     <use xlink:href="#m72c22786aa" x="221.794788" y="181.024012" style="fill: #ff0000; stroke: #ffffff"/>
     <use xlink:href="#m72c22786aa" x="279.498423" y="140.930933" style="fill: #ff0000; stroke: #ffffff"/>
     <use xlink:href="#m72c22786aa" x="129.998664" y="185.559068" style="fill: #ff0000; stroke: #ffffff"/>
     <use xlink:href="#m72c22786aa" x="169.490928" y="128.720152" style="fill: #ff0000; stroke: #ffffff"/>
     <use xlink:href="#m72c22786aa" x="209.584007" y="71.016517" style="fill: #ff0000; stroke: #ffffff"/>
     <use xlink:href="#m72c22786aa" x="80.808394" y="163.976815" style="fill: #ff0000; stroke: #ffffff"/>
     <use xlink:href="#m72c22786aa" x="95.522099" y="98.08126" style="fill: #ff0000; stroke: #ffffff"/>
     <use xlink:href="#m72c22786aa" x="111.203467" y="27.852011" style="fill: #ff0000; stroke: #ffffff"/>
    </g>
   </g>
   <g id="patch_7">
    <path d="M 36.465625 314.049315 
L 36.465625 7.2 
" style="fill: none; stroke: #000000; stroke-width: 0.8; stroke-linejoin: miter; stroke-linecap: square"/>
   </g>
   <g id="patch_8">
    <path d="M 343.31494 314.049315 
L 343.31494 7.2 
" style="fill: none; stroke: #000000; stroke-width: 0.8; stroke-linejoin: miter; stroke-linecap: square"/>
   </g>
   <g id="patch_9">
    <path d="M 36.465625 314.049315 
L 343.31494 314.049315 
" style="fill: none; stroke: #000000; stroke-width: 0.8; stroke-linejoin: miter; stroke-linecap: square"/>
   </g>
   <g id="patch_10">
    <path d="M 36.465625 7.2 
L 343.31494 7.2 
" style="fill: none; stroke: #000000; stroke-width: 0.8; stroke-linejoin: miter; stroke-linecap: square"/>
   </g>
   <g id="text_19">
    <g id="patch_11">
     <path d="M 192.753408 301.451619 
C 194.266433 301.451619 195.717692 300.850488 196.787562 299.780617 
C 197.857433 298.710747 198.458564 297.259488 198.458564 295.746463 
C 198.458564 294.233438 197.857433 292.782178 196.787562 291.712308 
C 195.717692 290.642438 194.266433 290.041306 192.753408 290.041306 
C 191.240382 290.041306 189.789123 290.642438 188.719253 291.712308 
C 187.649383 292.782178 187.048251 294.233438 187.048251 295.746463 
C 187.048251 297.259488 187.649383 298.710747 188.719253 299.780617 
C 189.789123 300.850488 191.240382 301.451619 192.753408 301.451619 
z
" style="opacity: 0.6"/>
    </g>
    <!-- 0 -->
    <g style="fill: #ffd700" transform="translate(189.890283 298.2299)scale(0.09 -0.09)">
     <use xlink:href="#DejaVuSans-30"/>
    </g>
   </g>
   <g id="text_20">
    <g id="patch_12">
     <path d="M 262.491888 301.451619 
C 264.004913 301.451619 265.456173 300.850488 266.526043 299.780617 
C 267.595913 298.710747 268.197044 297.259488 268.197044 295.746463 
C 268.197044 294.233438 267.595913 292.782178 266.526043 291.712308 
C 265.456173 290.642438 264.004913 290.041306 262.491888 290.041306 
C 260.978863 290.041306 259.527604 290.642438 258.457734 291.712308 
C 257.387863 292.782178 256.786732 294.233438 256.786732 295.746463 
C 256.786732 297.259488 257.387863 298.710747 258.457734 299.780617 
C 259.527604 300.850488 260.978863 301.451619 262.491888 301.451619 
z
" style="opacity: 0.6"/>
    </g>
    <!-- 1 -->
    <g style="fill: #ffd700" transform="translate(259.628763 298.2299)scale(0.09 -0.09)">
     <use xlink:href="#DejaVuSans-31"/>
    </g>
   </g>
   <g id="text_21">
    <g id="patch_13">
     <path d="M 332.230369 301.451619 
C 333.743394 301.451619 335.194653 300.850488 336.264524 299.780617 
C 337.334394 298.710747 337.935525 297.259488 337.935525 295.746463 
C 337.935525 294.233438 337.334394 292.782178 336.264524 291.712308 
C 335.194653 290.642438 333.743394 290.041306 332.230369 290.041306 
C 330.717344 290.041306 329.266085 290.642438 328.196214 291.712308 
C 327.126344 292.782178 326.525213 294.233438 326.525213 295.746463 
C 326.525213 297.259488 327.126344 298.710747 328.196214 299.780617 
C 329.266085 300.850488 330.717344 301.451619 332.230369 301.451619 
z
" style="opacity: 0.6"/>
    </g>
    <!-- 2 -->
    <g style="fill: #ffd700" transform="translate(329.367244 298.2299)scale(0.09 -0.09)">
     <use xlink:href="#DejaVuSans-32"/>
    </g>
   </g>
   <g id="text_22">
    <g id="patch_14">
     <path d="M 180.577099 244.457175 
C 182.090124 244.457175 183.541383 243.856044 184.611253 242.786174 
C 185.681124 241.716303 186.282255 240.265044 186.282255 238.752019 
C 186.282255 237.238994 185.681124 235.787735 184.611253 234.717864 
C 183.541383 233.647994 182.090124 233.046863 180.577099 233.046863 
C 179.064074 233.046863 177.612814 233.647994 176.542944 234.717864 
C 175.473074 235.787735 174.871943 237.238994 174.871943 238.752019 
C 174.871943 240.265044 175.473074 241.716303 176.542944 242.786174 
C 177.612814 243.856044 179.064074 244.457175 180.577099 244.457175 
z
" style="opacity: 0.6"/>
    </g>
    <!-- 3 -->
    <g style="fill: #ffd700" transform="translate(177.713974 241.235457)scale(0.09 -0.09)">
     <defs>
      <path id="DejaVuSans-33" d="M 2597 2516 
Q 3050 2419 3304 2112 
Q 3559 1806 3559 1356 
Q 3559 666 3084 287 
Q 2609 -91 1734 -91 
Q 1441 -91 1130 -33 
Q 819 25 488 141 
L 488 750 
Q 750 597 1062 519 
Q 1375 441 1716 441 
Q 2309 441 2620 675 
Q 2931 909 2931 1356 
Q 2931 1769 2642 2001 
Q 2353 2234 1838 2234 
L 1294 2234 
L 1294 2753 
L 1863 2753 
Q 2328 2753 2575 2939 
Q 2822 3125 2822 3475 
Q 2822 3834 2567 4026 
Q 2313 4219 1838 4219 
Q 1578 4219 1281 4162 
Q 984 4106 628 3988 
L 628 4550 
Q 988 4650 1302 4700 
Q 1616 4750 1894 4750 
Q 2613 4750 3031 4423 
Q 3450 4097 3450 3541 
Q 3450 3153 3228 2886 
Q 3006 2619 2597 2516 
z
" transform="scale(0.015625)"/>
     </defs>
     <use xlink:href="#DejaVuSans-33"/>
    </g>
   </g>
   <g id="text_23">
    <g id="patch_15">
     <path d="M 242.68548 216.650306 
C 244.198505 216.650306 245.649765 216.049175 246.719635 214.979304 
C 247.789505 213.909434 248.390637 212.458175 248.390637 210.94515 
C 248.390637 209.432124 247.789505 207.980865 246.719635 206.910995 
C 245.649765 205.841125 244.198505 205.239993 242.68548 205.239993 
C 241.172455 205.239993 239.721196 205.841125 238.651326 206.910995 
C 237.581455 207.980865 236.980324 209.432124 236.980324 210.94515 
C 236.980324 212.458175 237.581455 213.909434 238.651326 214.979304 
C 239.721196 216.049175 241.172455 216.650306 242.68548 216.650306 
z
" style="opacity: 0.6"/>
    </g>
    <!-- 4 -->
    <g style="fill: #ffd700" transform="translate(239.822355 213.428587)scale(0.09 -0.09)">
     <defs>
      <path id="DejaVuSans-34" d="M 2419 4116 
L 825 1625 
L 2419 1625 
L 2419 4116 
z
M 2253 4666 
L 3047 4666 
L 3047 1625 
L 3713 1625 
L 3713 1100 
L 3047 1100 
L 3047 0 
L 2419 0 
L 2419 1100 
L 313 1100 
L 313 1709 
L 2253 4666 
z
" transform="scale(0.015625)"/>
     </defs>
     <use xlink:href="#DejaVuSans-34"/>
    </g>
   </g>
   <g id="text_24">
    <g id="patch_16">
     <path d="M 307.877751 187.462732 
C 309.390777 187.462732 310.842036 186.861601 311.911906 185.79173 
C 312.981776 184.72186 313.582908 183.270601 313.582908 181.757576 
C 313.582908 180.24455 312.981776 178.793291 311.911906 177.723421 
C 310.842036 176.653551 309.390777 176.052419 307.877751 176.052419 
C 306.364726 176.052419 304.913467 176.653551 303.843597 177.723421 
C 302.773726 178.793291 302.172595 180.24455 302.172595 181.757576 
C 302.172595 183.270601 302.773726 184.72186 303.843597 185.79173 
C 304.913467 186.861601 306.364726 187.462732 307.877751 187.462732 
z
" style="opacity: 0.6"/>
    </g>
    <!-- 5 -->
    <g style="fill: #ffd700" transform="translate(305.014626 184.241013)scale(0.09 -0.09)">
     <use xlink:href="#DejaVuSans-35"/>
    </g>
   </g>
   <g id="text_25">
    <g id="patch_17">
     <path d="M 151.901551 202.826514 
C 153.414576 202.826514 154.865836 202.225382 155.935706 201.155512 
C 157.005576 200.085642 157.606708 198.634383 157.606708 197.121357 
C 157.606708 195.608332 157.005576 194.157073 155.935706 193.087203 
C 154.865836 192.017332 153.414576 191.416201 151.901551 191.416201 
C 150.388526 191.416201 148.937267 192.017332 147.867397 193.087203 
C 146.797526 194.157073 146.196395 195.608332 146.196395 197.121357 
C 146.196395 198.634383 146.797526 200.085642 147.867397 201.155512 
C 148.937267 202.225382 150.388526 202.826514 151.901551 202.826514 
z
" style="opacity: 0.6"/>
    </g>
    <!-- 6 -->
    <g style="fill: #ffd700" transform="translate(149.038426 199.604795)scale(0.09 -0.09)">
     <defs>
      <path id="DejaVuSans-36" d="M 2113 2584 
Q 1688 2584 1439 2293 
Q 1191 2003 1191 1497 
Q 1191 994 1439 701 
Q 1688 409 2113 409 
Q 2538 409 2786 701 
Q 3034 994 3034 1497 
Q 3034 2003 2786 2293 
Q 2538 2584 2113 2584 
z
M 3366 4563 
L 3366 3988 
Q 3128 4100 2886 4159 
Q 2644 4219 2406 4219 
Q 1781 4219 1451 3797 
Q 1122 3375 1075 2522 
Q 1259 2794 1537 2939 
Q 1816 3084 2150 3084 
Q 2853 3084 3261 2657 
Q 3669 2231 3669 1497 
Q 3669 778 3244 343 
Q 2819 -91 2113 -91 
Q 1303 -91 875 529 
Q 447 1150 447 2328 
Q 447 3434 972 4092 
Q 1497 4750 2381 4750 
Q 2619 4750 2861 4703 
Q 3103 4656 3366 4563 
z
" transform="scale(0.015625)"/>
     </defs>
     <use xlink:href="#DejaVuSans-36"/>
    </g>
   </g>
   <g id="text_26">
    <g id="patch_18">
     <path d="M 201.214104 153.513961 
C 202.727129 153.513961 204.178388 152.91283 205.248259 151.84296 
C 206.318129 150.773089 206.91926 149.32183 206.91926 147.808805 
C 206.91926 146.29578 206.318129 144.84452 205.248259 143.77465 
C 204.178388 142.70478 202.727129 142.103649 201.214104 142.103649 
C 199.701079 142.103649 198.24982 142.70478 197.179949 143.77465 
C 196.110079 144.84452 195.508948 146.29578 195.508948 147.808805 
C 195.508948 149.32183 196.110079 150.773089 197.179949 151.84296 
C 198.24982 152.91283 199.701079 153.513961 201.214104 153.513961 
z
" style="opacity: 0.6"/>
    </g>
    <!-- 7 -->
    <g style="fill: #ffd700" transform="translate(198.350979 150.292242)scale(0.09 -0.09)">
     <use xlink:href="#DejaVuSans-37"/>
    </g>
   </g>
   <g id="text_27">
    <g id="patch_19">
     <path d="M 250.526657 104.201408 
C 252.039682 104.201408 253.490941 103.600277 254.560811 102.530407 
C 255.630682 101.460537 256.231813 100.009277 256.231813 98.496252 
C 256.231813 96.983227 255.630682 95.531968 254.560811 94.462098 
C 253.490941 93.392227 252.039682 92.791096 250.526657 92.791096 
C 249.013631 92.791096 247.562372 93.392227 246.492502 94.462098 
C 245.422632 95.531968 244.8215 96.983227 244.8215 98.496252 
C 244.8215 100.009277 245.422632 101.460537 246.492502 102.530407 
C 247.562372 103.600277 249.013631 104.201408 250.526657 104.201408 
z
" style="opacity: 0.6"/>
    </g>
    <!-- 8 -->
    <g style="fill: #ffd700" transform="translate(247.663532 100.97969)scale(0.09 -0.09)">
     <defs>
      <path id="DejaVuSans-38" d="M 2034 2216 
Q 1584 2216 1326 1975 
Q 1069 1734 1069 1313 
Q 1069 891 1326 650 
Q 1584 409 2034 409 
Q 2484 409 2743 651 
Q 3003 894 3003 1313 
Q 3003 1734 2745 1975 
Q 2488 2216 2034 2216 
z
M 1403 2484 
Q 997 2584 770 2862 
Q 544 3141 544 3541 
Q 544 4100 942 4425 
Q 1341 4750 2034 4750 
Q 2731 4750 3128 4425 
Q 3525 4100 3525 3541 
Q 3525 3141 3298 2862 
Q 3072 2584 2669 2484 
Q 3125 2378 3379 2068 
Q 3634 1759 3634 1313 
Q 3634 634 3220 271 
Q 2806 -91 2034 -91 
Q 1263 -91 848 271 
Q 434 634 434 1313 
Q 434 1759 690 2068 
Q 947 2378 1403 2484 
z
M 1172 3481 
Q 1172 3119 1398 2916 
Q 1625 2713 2034 2713 
Q 2441 2713 2670 2916 
Q 2900 3119 2900 3481 
Q 2900 3844 2670 4047 
Q 2441 4250 2034 4250 
Q 1625 4250 1398 4047 
Q 1172 3844 1172 3481 
z
" transform="scale(0.015625)"/>
     </defs>
     <use xlink:href="#DejaVuSans-38"/>
    </g>
   </g>
   <g id="text_28">
    <g id="patch_20">
     <path d="M 110.27089 174.150966 
C 111.783915 174.150966 113.235174 173.549835 114.305044 172.479965 
C 115.374915 171.410094 115.976046 169.958835 115.976046 168.44581 
C 115.976046 166.932785 115.374915 165.481526 114.305044 164.411655 
C 113.235174 163.341785 111.783915 162.740654 110.27089 162.740654 
C 108.757865 162.740654 107.306605 163.341785 106.236735 164.411655 
C 105.166865 165.481526 104.565733 166.932785 104.565733 168.44581 
C 104.565733 169.958835 105.166865 171.410094 106.236735 172.479965 
C 107.306605 173.549835 108.757865 174.150966 110.27089 174.150966 
z
" style="opacity: 0.6"/>
    </g>
    <!-- 9 -->
    <g style="fill: #ffd700" transform="translate(107.407765 170.929248)scale(0.09 -0.09)">
     <defs>
      <path id="DejaVuSans-39" d="M 703 97 
L 703 672 
Q 941 559 1184 500 
Q 1428 441 1663 441 
Q 2288 441 2617 861 
Q 2947 1281 2994 2138 
Q 2813 1869 2534 1725 
Q 2256 1581 1919 1581 
Q 1219 1581 811 2004 
Q 403 2428 403 3163 
Q 403 3881 828 4315 
Q 1253 4750 1959 4750 
Q 2769 4750 3195 4129 
Q 3622 3509 3622 2328 
Q 3622 1225 3098 567 
Q 2575 -91 1691 -91 
Q 1453 -91 1209 -44 
Q 966 3 703 97 
z
M 1959 2075 
Q 2384 2075 2632 2365 
Q 2881 2656 2881 3163 
Q 2881 3666 2632 3958 
Q 2384 4250 1959 4250 
Q 1534 4250 1286 3958 
Q 1038 3666 1038 3163 
Q 1038 2656 1286 2365 
Q 1534 2075 1959 2075 
z
" transform="scale(0.015625)"/>
     </defs>
     <use xlink:href="#DejaVuSans-39"/>
    </g>
   </g>
   <g id="text_29">
    <g id="patch_21">
     <path d="M 140.940884 113.413679 
C 142.817528 113.413679 144.617561 112.66808 145.944549 111.341093 
C 147.271536 110.014106 148.017134 108.214072 148.017134 106.337429 
C 148.017134 104.460785 147.271536 102.660751 145.944549 101.333764 
C 144.617561 100.006777 142.817528 99.261179 140.940884 99.261179 
C 139.064241 99.261179 137.264207 100.006777 135.93722 101.333764 
C 134.610233 102.660751 133.864634 104.460785 133.864634 106.337429 
C 133.864634 108.214072 134.610233 110.014106 135.93722 111.341093 
C 137.264207 112.66808 139.064241 113.413679 140.940884 113.413679 
z
" style="opacity: 0.6"/>
    </g>
    <!-- 10 -->
    <g style="fill: #ffd700" transform="translate(135.214634 108.820866)scale(0.09 -0.09)">
     <use xlink:href="#DejaVuSans-31"/>
     <use xlink:href="#DejaVuSans-30" x="63.623047"/>
    </g>
   </g>
   <g id="text_30">
    <g id="patch_22">
     <path d="M 170.128458 48.221407 
C 172.005102 48.221407 173.805135 47.475809 175.132123 46.148822 
C 176.45911 44.821834 177.204708 43.021801 177.204708 41.145157 
C 177.204708 39.268514 176.45911 37.46848 175.132123 36.141493 
C 173.805135 34.814506 172.005102 34.068907 170.128458 34.068907 
C 168.251815 34.068907 166.451781 34.814506 165.124794 36.141493 
C 163.797807 37.46848 163.052208 39.268514 163.052208 41.145157 
C 163.052208 43.021801 163.797807 44.821834 165.124794 46.148822 
C 166.451781 47.475809 168.251815 48.221407 170.128458 48.221407 
z
" style="opacity: 0.6"/>
    </g>
    <!-- 11 -->
    <g style="fill: #ffd700" transform="translate(164.402208 43.628595)scale(0.09 -0.09)">
     <use xlink:href="#DejaVuSans-31"/>
     <use xlink:href="#DejaVuSans-31" x="63.623047"/>
    </g>
   </g>
   <g id="text_31">
    <g id="patch_23">
     <path d="M 56.139571 163.345751 
C 58.016215 163.345751 59.816248 162.600153 61.143235 161.273166 
C 62.470223 159.946178 63.215821 158.146145 63.215821 156.269501 
C 63.215821 154.392858 62.470223 152.592824 61.143235 151.265837 
C 59.816248 149.93885 58.016215 149.193251 56.139571 149.193251 
C 54.262928 149.193251 52.462894 149.93885 51.135907 151.265837 
C 49.808919 152.592824 49.063321 154.392858 49.063321 156.269501 
C 49.063321 158.146145 49.808919 159.946178 51.135907 161.273166 
C 52.462894 162.600153 54.262928 163.345751 56.139571 163.345751 
z
" style="opacity: 0.6"/>
    </g>
    <!-- 12 -->
    <g style="fill: #ffd700" transform="translate(50.413321 158.752939)scale(0.09 -0.09)">
     <use xlink:href="#DejaVuSans-31"/>
     <use xlink:href="#DejaVuSans-32" x="63.623047"/>
    </g>
   </g>
   <g id="text_32">
    <g id="patch_24">
     <path d="M 56.139571 93.607271 
C 58.016215 93.607271 59.816248 92.861672 61.143235 91.534685 
C 62.470223 90.207698 63.215821 88.407664 63.215821 86.531021 
C 63.215821 84.654377 62.470223 82.854344 61.143235 81.527356 
C 59.816248 80.200369 58.016215 79.454771 56.139571 79.454771 
C 54.262928 79.454771 52.462894 80.200369 51.135907 81.527356 
C 49.808919 82.854344 49.063321 84.654377 49.063321 86.531021 
C 49.063321 88.407664 49.808919 90.207698 51.135907 91.534685 
C 52.462894 92.861672 54.262928 93.607271 56.139571 93.607271 
z
" style="opacity: 0.6"/>
    </g>
    <!-- 13 -->
    <g style="fill: #ffd700" transform="translate(50.413321 89.014458)scale(0.09 -0.09)">
     <use xlink:href="#DejaVuSans-31"/>
     <use xlink:href="#DejaVuSans-33" x="63.623047"/>
    </g>
   </g>
   <g id="text_33">
    <g id="patch_25">
     <path d="M 56.139571 23.86879 
C 58.016215 23.86879 59.816248 23.123192 61.143235 21.796204 
C 62.470223 20.469217 63.215821 18.669183 63.215821 16.79254 
C 63.215821 14.915896 62.470223 13.115863 61.143235 11.788876 
C 59.816248 10.461888 58.016215 9.71629 56.139571 9.71629 
C 54.262928 9.71629 52.462894 10.461888 51.135907 11.788876 
C 49.808919 13.115863 49.063321 14.915896 49.063321 16.79254 
C 49.063321 18.669183 49.808919 20.469217 51.135907 21.796204 
C 52.462894 23.123192 54.262928 23.86879 56.139571 23.86879 
z
" style="opacity: 0.6"/>
    </g>
    <!-- 14 -->
    <g style="fill: #ffd700" transform="translate(50.413321 19.275977)scale(0.09 -0.09)">
     <use xlink:href="#DejaVuSans-31"/>
     <use xlink:href="#DejaVuSans-34" x="63.623047"/>
    </g>
   </g>
   <g id="text_34">
    <g id="patch_26">
     <path d="M 230.485773 302.822713 
C 232.362416 302.822713 234.16245 302.077114 235.489437 300.750127 
C 236.816425 299.42314 237.562023 297.623106 237.562023 295.746463 
C 237.562023 293.869819 236.816425 292.069786 235.489437 290.742798 
C 234.16245 289.415811 232.362416 288.670213 230.485773 288.670213 
C 228.609129 288.670213 226.809096 289.415811 225.482109 290.742798 
C 224.155121 292.069786 223.409523 293.869819 223.409523 295.746463 
C 223.409523 297.623106 224.155121 299.42314 225.482109 300.750127 
C 226.809096 302.077114 228.609129 302.822713 230.485773 302.822713 
z
" style="opacity: 0.6"/>
    </g>
    <!-- 15 -->
    <g style="fill: #ffd700" transform="translate(224.759523 298.2299)scale(0.09 -0.09)">
     <use xlink:href="#DejaVuSans-31"/>
     <use xlink:href="#DejaVuSans-35" x="63.623047"/>
    </g>
   </g>
   <g id="text_35">
    <g id="patch_27">
     <path d="M 300.224254 302.822713 
C 302.100897 302.822713 303.900931 302.077114 305.227918 300.750127 
C 306.554905 299.42314 307.300504 297.623106 307.300504 295.746463 
C 307.300504 293.869819 306.554905 292.069786 305.227918 290.742798 
C 303.900931 289.415811 302.100897 288.670213 300.224254 288.670213 
C 298.34761 288.670213 296.547577 289.415811 295.220589 290.742798 
C 293.893602 292.069786 293.148004 293.869819 293.148004 295.746463 
C 293.148004 297.623106 293.893602 299.42314 295.220589 300.750127 
C 296.547577 302.077114 298.34761 302.822713 300.224254 302.822713 
z
" style="opacity: 0.6"/>
    </g>
    <!-- 16 -->
    <g style="fill: #ffd700" transform="translate(294.498004 298.2299)scale(0.09 -0.09)">
     <use xlink:href="#DejaVuSans-31"/>
     <use xlink:href="#DejaVuSans-36" x="63.623047"/>
    </g>
   </g>
   <g id="text_36">
    <g id="patch_28">
     <path d="M 213.980433 232.154952 
C 215.857076 232.154952 217.65711 231.409353 218.984097 230.082366 
C 220.311085 228.755379 221.056683 226.955345 221.056683 225.078702 
C 221.056683 223.202058 220.311085 221.402025 218.984097 220.075037 
C 217.65711 218.74805 215.857076 218.002452 213.980433 218.002452 
C 212.10379 218.002452 210.303756 218.74805 208.976769 220.075037 
C 207.649781 221.402025 206.904183 223.202058 206.904183 225.078702 
C 206.904183 226.955345 207.649781 228.755379 208.976769 230.082366 
C 210.303756 231.409353 212.10379 232.154952 213.980433 232.154952 
z
" style="opacity: 0.6"/>
    </g>
    <!-- 17 -->
    <g style="fill: #ffd700" transform="translate(208.254183 227.562139)scale(0.09 -0.09)">
     <use xlink:href="#DejaVuSans-31"/>
     <use xlink:href="#DejaVuSans-37" x="63.623047"/>
    </g>
   </g>
   <g id="text_37">
    <g id="patch_29">
     <path d="M 277.116778 203.887847 
C 278.993421 203.887847 280.793455 203.142249 282.120442 201.815262 
C 283.447429 200.488274 284.193028 198.688241 284.193028 196.811597 
C 284.193028 194.934954 283.447429 193.13492 282.120442 191.807933 
C 280.793455 190.480946 278.993421 189.735347 277.116778 189.735347 
C 275.240134 189.735347 273.440101 190.480946 272.113113 191.807933 
C 270.786126 193.13492 270.040528 194.934954 270.040528 196.811597 
C 270.040528 198.688241 270.786126 200.488274 272.113113 201.815262 
C 273.440101 203.142249 275.240134 203.887847 277.116778 203.887847 
z
" style="opacity: 0.6"/>
    </g>
    <!-- 18 -->
    <g style="fill: #ffd700" transform="translate(271.390528 199.295035)scale(0.09 -0.09)">
     <use xlink:href="#DejaVuSans-31"/>
     <use xlink:href="#DejaVuSans-38" x="63.623047"/>
    </g>
   </g>
   <g id="text_38">
    <g id="patch_30">
     <path d="M 179.420953 179.541331 
C 181.297596 179.541331 183.09763 178.795733 184.424617 177.468746 
C 185.751604 176.141758 186.497203 174.341725 186.497203 172.465081 
C 186.497203 170.588438 185.751604 168.788404 184.424617 167.461417 
C 183.09763 166.134429 181.297596 165.388831 179.420953 165.388831 
C 177.544309 165.388831 175.744276 166.134429 174.417288 167.461417 
C 173.090301 168.788404 172.344703 170.588438 172.344703 172.465081 
C 172.344703 174.341725 173.090301 176.141758 174.417288 177.468746 
C 175.744276 178.795733 177.544309 179.541331 179.420953 179.541331 
z
" style="opacity: 0.6"/>
    </g>
    <!-- 19 -->
    <g style="fill: #ffd700" transform="translate(173.694703 174.948519)scale(0.09 -0.09)">
     <use xlink:href="#DejaVuSans-31"/>
     <use xlink:href="#DejaVuSans-39" x="63.623047"/>
    </g>
   </g>
   <g id="text_39">
    <g id="patch_31">
     <path d="M 228.733505 130.228779 
C 230.610149 130.228779 232.410182 129.48318 233.73717 128.156193 
C 235.064157 126.829206 235.809755 125.029172 235.809755 123.152529 
C 235.809755 121.275885 235.064157 119.475851 233.73717 118.148864 
C 232.410182 116.821877 230.610149 116.076279 228.733505 116.076279 
C 226.856862 116.076279 225.056828 116.821877 223.729841 118.148864 
C 222.402854 119.475851 221.657255 121.275885 221.657255 123.152529 
C 221.657255 125.029172 222.402854 126.829206 223.729841 128.156193 
C 225.056828 129.48318 226.856862 130.228779 228.733505 130.228779 
z
" style="opacity: 0.6"/>
    </g>
    <!-- 20 -->
    <g style="fill: #ffd700" transform="translate(223.007255 125.635966)scale(0.09 -0.09)">
     <use xlink:href="#DejaVuSans-32"/>
     <use xlink:href="#DejaVuSans-30" x="63.623047"/>
    </g>
   </g>
   <g id="text_40">
    <g id="patch_32">
     <path d="M 126.807332 144.981851 
C 128.683976 144.981851 130.484009 144.236253 131.810996 142.909265 
C 133.137984 141.582278 133.883582 139.782244 133.883582 137.905601 
C 133.883582 136.028957 133.137984 134.228924 131.810996 132.901937 
C 130.484009 131.574949 128.683976 130.829351 126.807332 130.829351 
C 124.930689 130.829351 123.130655 131.574949 121.803668 132.901937 
C 120.47668 134.228924 119.731082 136.028957 119.731082 137.905601 
C 119.731082 139.782244 120.47668 141.582278 121.803668 142.909265 
C 123.130655 144.236253 124.930689 144.981851 126.807332 144.981851 
z
" style="opacity: 0.6"/>
    </g>
    <!-- 21 -->
    <g style="fill: #ffd700" transform="translate(121.081082 140.389038)scale(0.09 -0.09)">
     <use xlink:href="#DejaVuSans-32"/>
     <use xlink:href="#DejaVuSans-31" x="63.623047"/>
    </g>
   </g>
   <g id="text_41">
    <g id="patch_33">
     <path d="M 155.074436 81.845506 
C 156.95108 81.845506 158.751113 81.099908 160.078101 79.772921 
C 161.405088 78.445933 162.150686 76.6459 162.150686 74.769256 
C 162.150686 72.892613 161.405088 71.092579 160.078101 69.765592 
C 158.751113 68.438605 156.95108 67.693006 155.074436 67.693006 
C 153.197793 67.693006 151.397759 68.438605 150.070772 69.765592 
C 148.743785 71.092579 147.998186 72.892613 147.998186 74.769256 
C 147.998186 76.6459 148.743785 78.445933 150.070772 79.772921 
C 151.397759 81.099908 153.197793 81.845506 155.074436 81.845506 
z
" style="opacity: 0.6"/>
    </g>
    <!-- 22 -->
    <g style="fill: #ffd700" transform="translate(149.348186 77.252694)scale(0.09 -0.09)">
     <use xlink:href="#DejaVuSans-32"/>
     <use xlink:href="#DejaVuSans-32" x="63.623047"/>
    </g>
   </g>
   <g id="text_42">
    <g id="patch_34">
     <path d="M 56.139571 128.476511 
C 58.016215 128.476511 59.816248 127.730913 61.143235 126.403925 
C 62.470223 125.076938 63.215821 123.276904 63.215821 121.400261 
C 63.215821 119.523617 62.470223 117.723584 61.143235 116.396597 
C 59.816248 115.069609 58.016215 114.324011 56.139571 114.324011 
C 54.262928 114.324011 52.462894 115.069609 51.135907 116.396597 
C 49.808919 117.723584 49.063321 119.523617 49.063321 121.400261 
C 49.063321 123.276904 49.808919 125.076938 51.135907 126.403925 
C 52.462894 127.730913 54.262928 128.476511 56.139571 128.476511 
z
" style="opacity: 0.6"/>
    </g>
    <!-- 23 -->
    <g style="fill: #ffd700" transform="translate(50.413321 123.883698)scale(0.09 -0.09)">
     <use xlink:href="#DejaVuSans-32"/>
     <use xlink:href="#DejaVuSans-33" x="63.623047"/>
    </g>
   </g>
   <g id="text_43">
    <g id="patch_35">
     <path d="M 56.139571 58.73803 
C 58.016215 58.73803 59.816248 57.992432 61.143235 56.665445 
C 62.470223 55.338457 63.215821 53.538424 63.215821 51.66178 
C 63.215821 49.785137 62.470223 47.985103 61.143235 46.658116 
C 59.816248 45.331129 58.016215 44.58553 56.139571 44.58553 
C 54.262928 44.58553 52.462894 45.331129 51.135907 46.658116 
C 49.808919 47.985103 49.063321 49.785137 49.063321 51.66178 
C 49.063321 53.538424 49.808919 55.338457 51.135907 56.665445 
C 52.462894 57.992432 54.262928 58.73803 56.139571 58.73803 
z
" style="opacity: 0.6"/>
    </g>
    <!-- 24 -->
    <g style="fill: #ffd700" transform="translate(50.413321 54.145218)scale(0.09 -0.09)">
     <use xlink:href="#DejaVuSans-32"/>
     <use xlink:href="#DejaVuSans-34" x="63.623047"/>
    </g>
   </g>
   <g id="text_44">
    <g id="patch_36">
     <path d="M 192.264375 272.42764 
C 194.141019 272.42764 195.941052 271.682042 197.26804 270.355054 
C 198.595027 269.028067 199.340625 267.228033 199.340625 265.35139 
C 199.340625 263.474746 198.595027 261.674713 197.26804 260.347726 
C 195.941052 259.020738 194.141019 258.27514 192.264375 258.27514 
C 190.387732 258.27514 188.587698 259.020738 187.260711 260.347726 
C 185.933724 261.674713 185.188125 263.474746 185.188125 265.35139 
C 185.188125 267.228033 185.933724 269.028067 187.260711 270.355054 
C 188.587698 271.682042 190.387732 272.42764 192.264375 272.42764 
z
" style="opacity: 0.6"/>
    </g>
    <!-- 25 -->
    <g style="fill: #ffd700" transform="translate(186.538125 267.834827)scale(0.09 -0.09)">
     <use xlink:href="#DejaVuSans-32"/>
     <use xlink:href="#DejaVuSans-35" x="63.623047"/>
    </g>
   </g>
   <g id="text_45">
    <g id="patch_37">
     <path d="M 258.15993 257.713935 
C 260.036574 257.713935 261.836607 256.968337 263.163595 255.641349 
C 264.490582 254.314362 265.23618 252.514329 265.23618 250.637685 
C 265.23618 248.761042 264.490582 246.961008 263.163595 245.634021 
C 261.836607 244.307033 260.036574 243.561435 258.15993 243.561435 
C 256.283287 243.561435 254.483253 244.307033 253.156266 245.634021 
C 251.829279 246.961008 251.08368 248.761042 251.08368 250.637685 
C 251.08368 252.514329 251.829279 254.314362 253.156266 255.641349 
C 254.483253 256.968337 256.283287 257.713935 258.15993 257.713935 
z
" style="opacity: 0.6"/>
    </g>
    <!-- 26 -->
    <g style="fill: #ffd700" transform="translate(252.43368 253.121123)scale(0.09 -0.09)">
     <use xlink:href="#DejaVuSans-32"/>
     <use xlink:href="#DejaVuSans-36" x="63.623047"/>
    </g>
   </g>
   <g id="text_46">
    <g id="patch_38">
     <path d="M 328.389179 242.032567 
C 330.265823 242.032567 332.065857 241.286969 333.392844 239.959982 
C 334.719831 238.632994 335.465429 236.832961 335.465429 234.956317 
C 335.465429 233.079674 334.719831 231.27964 333.392844 229.952653 
C 332.065857 228.625665 330.265823 227.880067 328.389179 227.880067 
C 326.512536 227.880067 324.712502 228.625665 323.385515 229.952653 
C 322.058528 231.27964 321.312929 233.079674 321.312929 234.956317 
C 321.312929 236.832961 322.058528 238.632994 323.385515 239.959982 
C 324.712502 241.286969 326.512536 242.032567 328.389179 242.032567 
z
" style="opacity: 0.6"/>
    </g>
    <!-- 27 -->
    <g style="fill: #ffd700" transform="translate(322.662929 237.439755)scale(0.09 -0.09)">
     <use xlink:href="#DejaVuSans-32"/>
     <use xlink:href="#DejaVuSans-37" x="63.623047"/>
    </g>
   </g>
   <g id="text_47">
    <g id="patch_39">
     <path d="M 170.682122 223.23737 
C 172.558765 223.23737 174.358799 222.491772 175.685786 221.164784 
C 177.012774 219.837797 177.758372 218.037763 177.758372 216.16112 
C 177.758372 214.284476 177.012774 212.484443 175.685786 211.157456 
C 174.358799 209.830468 172.558765 209.08487 170.682122 209.08487 
C 168.805479 209.08487 167.005445 209.830468 165.678458 211.157456 
C 164.35147 212.484443 163.605872 214.284476 163.605872 216.16112 
C 163.605872 218.037763 164.35147 219.837797 165.678458 221.164784 
C 167.005445 222.491772 168.805479 223.23737 170.682122 223.23737 
z
" style="opacity: 0.6"/>
    </g>
    <!-- 28 -->
    <g style="fill: #ffd700" transform="translate(164.955872 218.644557)scale(0.09 -0.09)">
     <use xlink:href="#DejaVuSans-32"/>
     <use xlink:href="#DejaVuSans-38" x="63.623047"/>
    </g>
   </g>
   <g id="text_48">
    <g id="patch_40">
     <path d="M 227.521038 183.745106 
C 229.397682 183.745106 231.197715 182.999508 232.524703 181.672521 
C 233.85169 180.345533 234.597288 178.5455 234.597288 176.668856 
C 234.597288 174.792213 233.85169 172.992179 232.524703 171.665192 
C 231.197715 170.338204 229.397682 169.592606 227.521038 169.592606 
C 225.644395 169.592606 223.844361 170.338204 222.517374 171.665192 
C 221.190387 172.992179 220.444788 174.792213 220.444788 176.668856 
C 220.444788 178.5455 221.190387 180.345533 222.517374 181.672521 
C 223.844361 182.999508 225.644395 183.745106 227.521038 183.745106 
z
" style="opacity: 0.6"/>
    </g>
    <!-- 29 -->
    <g style="fill: #ffd700" transform="translate(221.794788 179.152294)scale(0.09 -0.09)">
     <use xlink:href="#DejaVuSans-32"/>
     <use xlink:href="#DejaVuSans-39" x="63.623047"/>
    </g>
   </g>
   <g id="text_49">
    <g id="patch_41">
     <path d="M 285.224673 143.652027 
C 287.101316 143.652027 288.90135 142.906429 290.228337 141.579441 
C 291.555325 140.252454 292.300923 138.45242 292.300923 136.575777 
C 292.300923 134.699134 291.555325 132.8991 290.228337 131.572113 
C 288.90135 130.245125 287.101316 129.499527 285.224673 129.499527 
C 283.34803 129.499527 281.547996 130.245125 280.221009 131.572113 
C 278.894021 132.8991 278.148423 134.699134 278.148423 136.575777 
C 278.148423 138.45242 278.894021 140.252454 280.221009 141.579441 
C 281.547996 142.906429 283.34803 143.652027 285.224673 143.652027 
z
" style="opacity: 0.6"/>
    </g>
    <!-- 30 -->
    <g style="fill: #ffd700" transform="translate(279.498423 139.059215)scale(0.09 -0.09)">
     <use xlink:href="#DejaVuSans-33"/>
     <use xlink:href="#DejaVuSans-30" x="63.623047"/>
    </g>
   </g>
   <g id="text_50">
    <g id="patch_42">
     <path d="M 135.724914 188.280162 
C 137.601557 188.280162 139.401591 187.534563 140.728578 186.207576 
C 142.055566 184.880589 142.801164 183.080555 142.801164 181.203912 
C 142.801164 179.327268 142.055566 177.527235 140.728578 176.200247 
C 139.401591 174.87326 137.601557 174.127662 135.724914 174.127662 
C 133.848271 174.127662 132.048237 174.87326 130.72125 176.200247 
C 129.394262 177.527235 128.648664 179.327268 128.648664 181.203912 
C 128.648664 183.080555 129.394262 184.880589 130.72125 186.207576 
C 132.048237 187.534563 133.848271 188.280162 135.724914 188.280162 
z
" style="opacity: 0.6"/>
    </g>
    <!-- 31 -->
    <g style="fill: #ffd700" transform="translate(129.998664 183.687349)scale(0.09 -0.09)">
     <use xlink:href="#DejaVuSans-33"/>
     <use xlink:href="#DejaVuSans-31" x="63.623047"/>
    </g>
   </g>
   <g id="text_51">
    <g id="patch_43">
     <path d="M 175.217178 131.441246 
C 177.093821 131.441246 178.893855 130.695647 180.220842 129.36866 
C 181.547829 128.041673 182.293428 126.241639 182.293428 124.364996 
C 182.293428 122.488352 181.547829 120.688319 180.220842 119.361331 
C 178.893855 118.034344 177.093821 117.288746 175.217178 117.288746 
C 173.340534 117.288746 171.540501 118.034344 170.213513 119.361331 
C 168.886526 120.688319 168.140928 122.488352 168.140928 124.364996 
C 168.140928 126.241639 168.886526 128.041673 170.213513 129.36866 
C 171.540501 130.695647 173.340534 131.441246 175.217178 131.441246 
z
" style="opacity: 0.6"/>
    </g>
    <!-- 32 -->
    <g style="fill: #ffd700" transform="translate(169.490928 126.848433)scale(0.09 -0.09)">
     <use xlink:href="#DejaVuSans-33"/>
     <use xlink:href="#DejaVuSans-32" x="63.623047"/>
    </g>
   </g>
   <g id="text_52">
    <g id="patch_44">
     <path d="M 215.310257 73.737611 
C 217.1869 73.737611 218.986934 72.992013 220.313921 71.665025 
C 221.640908 70.338038 222.386507 68.538004 222.386507 66.661361 
C 222.386507 64.784717 221.640908 62.984684 220.313921 61.657697 
C 218.986934 60.330709 217.1869 59.585111 215.310257 59.585111 
C 213.433613 59.585111 211.63358 60.330709 210.306592 61.657697 
C 208.979605 62.984684 208.234007 64.784717 208.234007 66.661361 
C 208.234007 68.538004 208.979605 70.338038 210.306592 71.665025 
C 211.63358 72.992013 213.433613 73.737611 215.310257 73.737611 
z
" style="opacity: 0.6"/>
    </g>
    <!-- 33 -->
    <g style="fill: #ffd700" transform="translate(209.584007 69.144798)scale(0.09 -0.09)">
     <use xlink:href="#DejaVuSans-33"/>
     <use xlink:href="#DejaVuSans-33" x="63.623047"/>
    </g>
   </g>
   <g id="text_53">
    <g id="patch_45">
     <path d="M 86.534644 166.697909 
C 88.411287 166.697909 90.211321 165.95231 91.538308 164.625323 
C 92.865296 163.298336 93.610894 161.498302 93.610894 159.621659 
C 93.610894 157.745015 92.865296 155.944981 91.538308 154.617994 
C 90.211321 153.291007 88.411287 152.545409 86.534644 152.545409 
C 84.658 152.545409 82.857967 153.291007 81.53098 154.617994 
C 80.203992 155.944981 79.458394 157.745015 79.458394 159.621659 
C 79.458394 161.498302 80.203992 163.298336 81.53098 164.625323 
C 82.857967 165.95231 84.658 166.697909 86.534644 166.697909 
z
" style="opacity: 0.6"/>
    </g>
    <!-- 34 -->
    <g style="fill: #ffd700" transform="translate(80.808394 162.105096)scale(0.09 -0.09)">
     <use xlink:href="#DejaVuSans-33"/>
     <use xlink:href="#DejaVuSans-34" x="63.623047"/>
    </g>
   </g>
   <g id="text_54">
    <g id="patch_46">
     <path d="M 101.248349 100.802354 
C 103.124992 100.802354 104.925026 100.056755 106.252013 98.729768 
C 107.579 97.402781 108.324599 95.602747 108.324599 93.726104 
C 108.324599 91.84946 107.579 90.049426 106.252013 88.722439 
C 104.925026 87.395452 103.124992 86.649854 101.248349 86.649854 
C 99.371705 86.649854 97.571672 87.395452 96.244684 88.722439 
C 94.917697 90.049426 94.172099 91.84946 94.172099 93.726104 
C 94.172099 95.602747 94.917697 97.402781 96.244684 98.729768 
C 97.571672 100.056755 99.371705 100.802354 101.248349 100.802354 
z
" style="opacity: 0.6"/>
    </g>
    <!-- 35 -->
    <g style="fill: #ffd700" transform="translate(95.522099 96.209541)scale(0.09 -0.09)">
     <use xlink:href="#DejaVuSans-33"/>
     <use xlink:href="#DejaVuSans-35" x="63.623047"/>
    </g>
   </g>
   <g id="text_55">
    <g id="patch_47">
     <path d="M 116.929717 30.573104 
C 118.80636 30.573104 120.606394 29.827506 121.933381 28.500519 
C 123.260368 27.173531 124.005967 25.373498 124.005967 23.496854 
C 124.005967 21.620211 123.260368 19.820177 121.933381 18.49319 
C 120.606394 17.166203 118.80636 16.420604 116.929717 16.420604 
C 115.053073 16.420604 113.25304 17.166203 111.926052 18.49319 
C 110.599065 19.820177 109.853467 21.620211 109.853467 23.496854 
C 109.853467 25.373498 110.599065 27.173531 111.926052 28.500519 
C 113.25304 29.827506 115.053073 30.573104 116.929717 30.573104 
z
" style="opacity: 0.6"/>
    </g>
    <!-- 36 -->
    <g style="fill: #ffd700" transform="translate(111.203467 25.980292)scale(0.09 -0.09)">
     <use xlink:href="#DejaVuSans-33"/>
     <use xlink:href="#DejaVuSans-36" x="63.623047"/>
    </g>
   </g>
   <g id="text_56">
    <g id="patch_48">
     <path d="M 206.792455 269.810854 
L 227.967767 269.810854 
L 227.967767 258.400542 
L 206.792455 258.400542 
z
" style="fill: #ffffff; stroke: #b7b7b7; stroke-linejoin: miter"/>
    </g>
    <!-- 0(1) -->
    <g style="fill: #22971f" transform="translate(208.142455 266.589135)scale(0.09 -0.09)">
     <defs>
      <path id="DejaVuSans-28" d="M 1984 4856 
Q 1566 4138 1362 3434 
Q 1159 2731 1159 2009 
Q 1159 1288 1364 580 
Q 1569 -128 1984 -844 
L 1484 -844 
Q 1016 -109 783 600 
Q 550 1309 550 2009 
Q 550 2706 781 3412 
Q 1013 4119 1484 4856 
L 1984 4856 
z
" transform="scale(0.015625)"/>
      <path id="DejaVuSans-29" d="M 513 4856 
L 1013 4856 
Q 1481 4119 1714 3412 
Q 1947 2706 1947 2009 
Q 1947 1309 1714 600 
Q 1481 -109 1013 -844 
L 513 -844 
Q 928 -128 1133 580 
Q 1338 1288 1338 2009 
Q 1338 2731 1133 3434 
Q 928 4138 513 4856 
z
" transform="scale(0.015625)"/>
     </defs>
     <use xlink:href="#DejaVuSans-30"/>
     <use xlink:href="#DejaVuSans-28" x="63.623047"/>
     <use xlink:href="#DejaVuSans-31" x="102.636719"/>
     <use xlink:href="#DejaVuSans-29" x="166.259766"/>
    </g>
   </g>
   <g id="text_57">
    <g id="patch_49">
     <path d="M 273.76461 255.353777 
L 294.939922 255.353777 
L 294.939922 243.943464 
L 273.76461 243.943464 
z
" style="fill: #ffffff; stroke: #b7b7b7; stroke-linejoin: miter"/>
    </g>
    <!-- 1(1) -->
    <g style="fill: #22971f" transform="translate(275.11461 252.132058)scale(0.09 -0.09)">
     <use xlink:href="#DejaVuSans-31"/>
     <use xlink:href="#DejaVuSans-28" x="63.623047"/>
     <use xlink:href="#DejaVuSans-31" x="102.636719"/>
     <use xlink:href="#DejaVuSans-29" x="166.259766"/>
    </g>
   </g>
   <g id="text_58">
    <g id="patch_50">
     <path d="M 181.115504 208.185449 
L 202.290816 208.185449 
L 202.290816 196.775136 
L 181.115504 196.775136 
z
" style="fill: #ffffff; stroke: #b7b7b7; stroke-linejoin: miter"/>
    </g>
    <!-- 2(1) -->
    <g style="fill: #22971f" transform="translate(182.465504 204.96373)scale(0.09 -0.09)">
     <use xlink:href="#DejaVuSans-32"/>
     <use xlink:href="#DejaVuSans-28" x="63.623047"/>
     <use xlink:href="#DejaVuSans-31" x="102.636719"/>
     <use xlink:href="#DejaVuSans-29" x="166.259766"/>
    </g>
   </g>
   <g id="text_59">
    <g id="patch_51">
     <path d="M 237.730155 169.08738 
L 258.905467 169.08738 
L 258.905467 157.677068 
L 237.730155 157.677068 
z
" style="fill: #ffffff; stroke: #b7b7b7; stroke-linejoin: miter"/>
    </g>
    <!-- 3(1) -->
    <g style="fill: #22971f" transform="translate(239.080155 165.865661)scale(0.09 -0.09)">
     <use xlink:href="#DejaVuSans-33"/>
     <use xlink:href="#DejaVuSans-28" x="63.623047"/>
     <use xlink:href="#DejaVuSans-31" x="102.636719"/>
     <use xlink:href="#DejaVuSans-29" x="166.259766"/>
    </g>
   </g>
   <g id="text_60">
    <g id="patch_52">
     <path d="M 137.446991 164.516936 
L 158.622304 164.516936 
L 158.622304 153.106624 
L 137.446991 153.106624 
z
" style="fill: #ffffff; stroke: #b7b7b7; stroke-linejoin: miter"/>
    </g>
    <!-- 4(1) -->
    <g style="fill: #22971f" transform="translate(138.796991 161.295218)scale(0.09 -0.09)">
     <use xlink:href="#DejaVuSans-34"/>
     <use xlink:href="#DejaVuSans-28" x="63.623047"/>
     <use xlink:href="#DejaVuSans-31" x="102.636719"/>
     <use xlink:href="#DejaVuSans-29" x="166.259766"/>
    </g>
   </g>
   <g id="text_61">
    <g id="patch_53">
     <path d="M 176.54506 107.902286 
L 197.720372 107.902286 
L 197.720372 96.491973 
L 176.54506 96.491973 
z
" style="fill: #ffffff; stroke: #b7b7b7; stroke-linejoin: miter"/>
    </g>
    <!-- 5(1) -->
    <g style="fill: #22971f" transform="translate(177.89506 104.680567)scale(0.09 -0.09)">
     <use xlink:href="#DejaVuSans-35"/>
     <use xlink:href="#DejaVuSans-28" x="63.623047"/>
     <use xlink:href="#DejaVuSans-31" x="102.636719"/>
     <use xlink:href="#DejaVuSans-29" x="166.259766"/>
    </g>
   </g>
   <g id="text_62">
    <g id="patch_54">
     <path d="M 75.821586 138.839986 
L 96.996898 138.839986 
L 96.996898 127.429673 
L 75.821586 127.429673 
z
" style="fill: #ffffff; stroke: #b7b7b7; stroke-linejoin: miter"/>
    </g>
    <!-- 6(1) -->
    <g style="fill: #22971f" transform="translate(77.171586 135.618267)scale(0.09 -0.09)">
     <use xlink:href="#DejaVuSans-36"/>
     <use xlink:href="#DejaVuSans-28" x="63.623047"/>
     <use xlink:href="#DejaVuSans-31" x="102.636719"/>
     <use xlink:href="#DejaVuSans-29" x="166.259766"/>
    </g>
   </g>
   <g id="text_63">
    <g id="patch_55">
     <path d="M 90.278663 71.86783 
L 111.453976 71.86783 
L 111.453976 60.457518 
L 90.278663 60.457518 
z
" style="fill: #ffffff; stroke: #b7b7b7; stroke-linejoin: miter"/>
    </g>
    <!-- 7(1) -->
    <g style="fill: #22971f" transform="translate(91.628663 68.646111)scale(0.09 -0.09)">
     <use xlink:href="#DejaVuSans-37"/>
     <use xlink:href="#DejaVuSans-28" x="63.623047"/>
     <use xlink:href="#DejaVuSans-31" x="102.636719"/>
     <use xlink:href="#DejaVuSans-29" x="166.259766"/>
    </g>
   </g>
  </g>
 </g>
 <defs>
  <clipPath id="p5e9006c279">
   <rect x="36.465625" y="7.2" width="306.849315" height="306.849315"/>
  </clipPath>
 </defs>
</svg>
