<?xml version="1.0" encoding="utf-8" standalone="no"?>
<!DOCTYPE svg PUBLIC "-//W3C//DTD SVG 1.1//EN"
  "http://www.w3.org/Graphics/SVG/1.1/DTD/svg11.dtd">
<svg xmlns:xlink="http://www.w3.org/1999/xlink" width="352.104003pt" height="341.726659pt" viewBox="0 0 352.104003 341.726659" xmlns="http://www.w3.org/2000/svg" version="1.1">
 <metadata>
  <rdf:RDF xmlns:dc="http://purl.org/dc/elements/1.1/" xmlns:cc="http://creativecommons.org/ns#" xmlns:rdf="http://www.w3.org/1999/02/22-rdf-syntax-ns#">
   <cc:Work>
    <dc:type rdf:resource="http://purl.org/dc/dcmitype/StillImage"/>
    <dc:date>2022-06-09T16:37:56.493207</dc:date>
    <dc:format>image/svg+xml</dc:format>
    <dc:creator>
     <cc:Agent>
      <dc:title>Matplotlib v3.5.2, https://matplotlib.org/</dc:title>
     </cc:Agent>
    </dc:creator>
   </cc:Work>
  </rdf:RDF>
 </metadata>
 <defs>
  <style type="text/css">*{stroke-linejoin: round; stroke-linecap: butt}</style>
 </defs>
 <g id="figure_1">
  <g id="patch_1">
   <path d="M 0 341.726659 
L 352.104003 341.726659 
L 352.104003 0 
L 0 0 
z
" style="fill: #ffffff"/>
  </g>
  <g id="axes_1">
   <g id="patch_2">
    <path d="M 30.103125 317.848534 
L 336.95244 317.848534 
L 336.95244 10.999219 
L 30.103125 10.999219 
z
" style="fill: #ffffff"/>
   </g>
   <g id="patch_3">
    <path d="M 336.95244 317.848534 
C 285.810888 317.848534 234.669335 317.848534 183.527783 317.848534 
M 30.103125 164.423876 
C 30.103125 113.282324 30.103125 62.140771 30.103125 10.999219 
M 336.95244 164.423876 
C 336.95244 215.565429 336.95244 266.706981 336.95244 317.848534 
M 30.103125 317.848534 
C 30.103125 266.706981 30.103125 215.565429 30.103125 164.423876 
M 183.527783 10.999219 
C 183.527783 62.140771 183.527783 113.282324 183.527783 164.423876 
M 183.527783 317.848534 
C 132.38623 317.848534 81.244678 317.848534 30.103125 317.848534 
M 30.103125 164.423876 
C 81.244678 164.423876 132.38623 164.423876 183.527783 164.423876 
M 336.95244 10.999219 
C 336.95244 62.140771 336.95244 113.282324 336.95244 164.423876 
M 30.103125 10.999219 
C 81.244678 10.999219 132.38623 10.999219 183.527783 10.999219 
M 183.527783 164.423876 
C 183.527783 215.565429 183.527783 266.706981 183.527783 317.848534 
M 183.527783 164.423876 
C 234.669335 164.423876 285.810888 164.423876 336.95244 164.423876 
M 183.527783 10.999219 
C 234.669335 10.999219 285.810888 10.999219 336.95244 10.999219 
" style="fill: none; stroke: #2440cd; stroke-width: 2; stroke-linejoin: miter"/>
   </g>
   <g id="matplotlib.axis_1">
    <g id="xtick_1">
     <g id="line2d_1">
      <defs>
       <path id="mf254434c74" d="M 0 0 
L 0 3.5 
" style="stroke: #000000; stroke-width: 0.8"/>
      </defs>
      <g>
       <use xlink:href="#mf254434c74" x="30.103125" y="317.848534" style="stroke: #000000; stroke-width: 0.8"/>
      </g>
     </g>
     <g id="text_1">
      <!-- 0.0 -->
      <g transform="translate(22.151563 332.446971)scale(0.1 -0.1)">
       <defs>
        <path id="DejaVuSans-30" d="M 2034 4250 
Q 1547 4250 1301 3770 
Q 1056 3291 1056 2328 
Q 1056 1369 1301 889 
Q 1547 409 2034 409 
Q 2525 409 2770 889 
Q 3016 1369 3016 2328 
Q 3016 3291 2770 3770 
Q 2525 4250 2034 4250 
z
M 2034 4750 
Q 2819 4750 3233 4129 
Q 3647 3509 3647 2328 
Q 3647 1150 3233 529 
Q 2819 -91 2034 -91 
Q 1250 -91 836 529 
Q 422 1150 422 2328 
Q 422 3509 836 4129 
Q 1250 4750 2034 4750 
z
" transform="scale(0.015625)"/>
        <path id="DejaVuSans-2e" d="M 684 794 
L 1344 794 
L 1344 0 
L 684 0 
L 684 794 
z
" transform="scale(0.015625)"/>
       </defs>
       <use xlink:href="#DejaVuSans-30"/>
       <use xlink:href="#DejaVuSans-2e" x="63.623047"/>
       <use xlink:href="#DejaVuSans-30" x="95.410156"/>
      </g>
     </g>
    </g>
    <g id="xtick_2">
     <g id="line2d_2">
      <g>
       <use xlink:href="#mf254434c74" x="81.244678" y="317.848534" style="stroke: #000000; stroke-width: 0.8"/>
      </g>
     </g>
     <g id="text_2">
      <!-- 0.5 -->
      <g transform="translate(73.293115 332.446971)scale(0.1 -0.1)">
       <defs>
        <path id="DejaVuSans-35" d="M 691 4666 
L 3169 4666 
L 3169 4134 
L 1269 4134 
L 1269 2991 
Q 1406 3038 1543 3061 
Q 1681 3084 1819 3084 
Q 2600 3084 3056 2656 
Q 3513 2228 3513 1497 
Q 3513 744 3044 326 
Q 2575 -91 1722 -91 
Q 1428 -91 1123 -41 
Q 819 9 494 109 
L 494 744 
Q 775 591 1075 516 
Q 1375 441 1709 441 
Q 2250 441 2565 725 
Q 2881 1009 2881 1497 
Q 2881 1984 2565 2268 
Q 2250 2553 1709 2553 
Q 1456 2553 1204 2497 
Q 953 2441 691 2322 
L 691 4666 
z
" transform="scale(0.015625)"/>
       </defs>
       <use xlink:href="#DejaVuSans-30"/>
       <use xlink:href="#DejaVuSans-2e" x="63.623047"/>
       <use xlink:href="#DejaVuSans-35" x="95.410156"/>
      </g>
     </g>
    </g>
    <g id="xtick_3">
     <g id="line2d_3">
      <g>
       <use xlink:href="#mf254434c74" x="132.38623" y="317.848534" style="stroke: #000000; stroke-width: 0.8"/>
      </g>
     </g>
     <g id="text_3">
      <!-- 1.0 -->
      <g transform="translate(124.434668 332.446971)scale(0.1 -0.1)">
       <defs>
        <path id="DejaVuSans-31" d="M 794 531 
L 1825 531 
L 1825 4091 
L 703 3866 
L 703 4441 
L 1819 4666 
L 2450 4666 
L 2450 531 
L 3481 531 
L 3481 0 
L 794 0 
L 794 531 
z
" transform="scale(0.015625)"/>
       </defs>
       <use xlink:href="#DejaVuSans-31"/>
       <use xlink:href="#DejaVuSans-2e" x="63.623047"/>
       <use xlink:href="#DejaVuSans-30" x="95.410156"/>
      </g>
     </g>
    </g>
    <g id="xtick_4">
     <g id="line2d_4">
      <g>
       <use xlink:href="#mf254434c74" x="183.527783" y="317.848534" style="stroke: #000000; stroke-width: 0.8"/>
      </g>
     </g>
     <g id="text_4">
      <!-- 1.5 -->
      <g transform="translate(175.57622 332.446971)scale(0.1 -0.1)">
       <use xlink:href="#DejaVuSans-31"/>
       <use xlink:href="#DejaVuSans-2e" x="63.623047"/>
       <use xlink:href="#DejaVuSans-35" x="95.410156"/>
      </g>
     </g>
    </g>
    <g id="xtick_5">
     <g id="line2d_5">
      <g>
       <use xlink:href="#mf254434c74" x="234.669335" y="317.848534" style="stroke: #000000; stroke-width: 0.8"/>
      </g>
     </g>
     <g id="text_5">
      <!-- 2.0 -->
      <g transform="translate(226.717773 332.446971)scale(0.1 -0.1)">
       <defs>
        <path id="DejaVuSans-32" d="M 1228 531 
L 3431 531 
L 3431 0 
L 469 0 
L 469 531 
Q 828 903 1448 1529 
Q 2069 2156 2228 2338 
Q 2531 2678 2651 2914 
Q 2772 3150 2772 3378 
Q 2772 3750 2511 3984 
Q 2250 4219 1831 4219 
Q 1534 4219 1204 4116 
Q 875 4013 500 3803 
L 500 4441 
Q 881 4594 1212 4672 
Q 1544 4750 1819 4750 
Q 2544 4750 2975 4387 
Q 3406 4025 3406 3419 
Q 3406 3131 3298 2873 
Q 3191 2616 2906 2266 
Q 2828 2175 2409 1742 
Q 1991 1309 1228 531 
z
" transform="scale(0.015625)"/>
       </defs>
       <use xlink:href="#DejaVuSans-32"/>
       <use xlink:href="#DejaVuSans-2e" x="63.623047"/>
       <use xlink:href="#DejaVuSans-30" x="95.410156"/>
      </g>
     </g>
    </g>
    <g id="xtick_6">
     <g id="line2d_6">
      <g>
       <use xlink:href="#mf254434c74" x="285.810888" y="317.848534" style="stroke: #000000; stroke-width: 0.8"/>
      </g>
     </g>
     <g id="text_6">
      <!-- 2.5 -->
      <g transform="translate(277.859325 332.446971)scale(0.1 -0.1)">
       <use xlink:href="#DejaVuSans-32"/>
       <use xlink:href="#DejaVuSans-2e" x="63.623047"/>
       <use xlink:href="#DejaVuSans-35" x="95.410156"/>
      </g>
     </g>
    </g>
    <g id="xtick_7">
     <g id="line2d_7">
      <g>
       <use xlink:href="#mf254434c74" x="336.95244" y="317.848534" style="stroke: #000000; stroke-width: 0.8"/>
      </g>
     </g>
     <g id="text_7">
      <!-- 3.0 -->
      <g transform="translate(329.000878 332.446971)scale(0.1 -0.1)">
       <defs>
        <path id="DejaVuSans-33" d="M 2597 2516 
Q 3050 2419 3304 2112 
Q 3559 1806 3559 1356 
Q 3559 666 3084 287 
Q 2609 -91 1734 -91 
Q 1441 -91 1130 -33 
Q 819 25 488 141 
L 488 750 
Q 750 597 1062 519 
Q 1375 441 1716 441 
Q 2309 441 2620 675 
Q 2931 909 2931 1356 
Q 2931 1769 2642 2001 
Q 2353 2234 1838 2234 
L 1294 2234 
L 1294 2753 
L 1863 2753 
Q 2328 2753 2575 2939 
Q 2822 3125 2822 3475 
Q 2822 3834 2567 4026 
Q 2313 4219 1838 4219 
Q 1578 4219 1281 4162 
Q 984 4106 628 3988 
L 628 4550 
Q 988 4650 1302 4700 
Q 1616 4750 1894 4750 
Q 2613 4750 3031 4423 
Q 3450 4097 3450 3541 
Q 3450 3153 3228 2886 
Q 3006 2619 2597 2516 
z
" transform="scale(0.015625)"/>
       </defs>
       <use xlink:href="#DejaVuSans-33"/>
       <use xlink:href="#DejaVuSans-2e" x="63.623047"/>
       <use xlink:href="#DejaVuSans-30" x="95.410156"/>
      </g>
     </g>
    </g>
   </g>
   <g id="matplotlib.axis_2">
    <g id="ytick_1">
     <g id="line2d_8">
      <defs>
       <path id="m950307e331" d="M 0 0 
L -3.5 0 
" style="stroke: #000000; stroke-width: 0.8"/>
      </defs>
      <g>
       <use xlink:href="#m950307e331" x="30.103125" y="317.848534" style="stroke: #000000; stroke-width: 0.8"/>
      </g>
     </g>
     <g id="text_8">
      <!-- 0.0 -->
      <g transform="translate(7.2 321.647753)scale(0.1 -0.1)">
       <use xlink:href="#DejaVuSans-30"/>
       <use xlink:href="#DejaVuSans-2e" x="63.623047"/>
       <use xlink:href="#DejaVuSans-30" x="95.410156"/>
      </g>
     </g>
    </g>
    <g id="ytick_2">
     <g id="line2d_9">
      <g>
       <use xlink:href="#m950307e331" x="30.103125" y="266.706981" style="stroke: #000000; stroke-width: 0.8"/>
      </g>
     </g>
     <g id="text_9">
      <!-- 0.5 -->
      <g transform="translate(7.2 270.5062)scale(0.1 -0.1)">
       <use xlink:href="#DejaVuSans-30"/>
       <use xlink:href="#DejaVuSans-2e" x="63.623047"/>
       <use xlink:href="#DejaVuSans-35" x="95.410156"/>
      </g>
     </g>
    </g>
    <g id="ytick_3">
     <g id="line2d_10">
      <g>
       <use xlink:href="#m950307e331" x="30.103125" y="215.565429" style="stroke: #000000; stroke-width: 0.8"/>
      </g>
     </g>
     <g id="text_10">
      <!-- 1.0 -->
      <g transform="translate(7.2 219.364648)scale(0.1 -0.1)">
       <use xlink:href="#DejaVuSans-31"/>
       <use xlink:href="#DejaVuSans-2e" x="63.623047"/>
       <use xlink:href="#DejaVuSans-30" x="95.410156"/>
      </g>
     </g>
    </g>
    <g id="ytick_4">
     <g id="line2d_11">
      <g>
       <use xlink:href="#m950307e331" x="30.103125" y="164.423876" style="stroke: #000000; stroke-width: 0.8"/>
      </g>
     </g>
     <g id="text_11">
      <!-- 1.5 -->
      <g transform="translate(7.2 168.223095)scale(0.1 -0.1)">
       <use xlink:href="#DejaVuSans-31"/>
       <use xlink:href="#DejaVuSans-2e" x="63.623047"/>
       <use xlink:href="#DejaVuSans-35" x="95.410156"/>
      </g>
     </g>
    </g>
    <g id="ytick_5">
     <g id="line2d_12">
      <g>
       <use xlink:href="#m950307e331" x="30.103125" y="113.282324" style="stroke: #000000; stroke-width: 0.8"/>
      </g>
     </g>
     <g id="text_12">
      <!-- 2.0 -->
      <g transform="translate(7.2 117.081543)scale(0.1 -0.1)">
       <use xlink:href="#DejaVuSans-32"/>
       <use xlink:href="#DejaVuSans-2e" x="63.623047"/>
       <use xlink:href="#DejaVuSans-30" x="95.410156"/>
      </g>
     </g>
    </g>
    <g id="ytick_6">
     <g id="line2d_13">
      <g>
       <use xlink:href="#m950307e331" x="30.103125" y="62.140771" style="stroke: #000000; stroke-width: 0.8"/>
      </g>
     </g>
     <g id="text_13">
      <!-- 2.5 -->
      <g transform="translate(7.2 65.93999)scale(0.1 -0.1)">
       <use xlink:href="#DejaVuSans-32"/>
       <use xlink:href="#DejaVuSans-2e" x="63.623047"/>
       <use xlink:href="#DejaVuSans-35" x="95.410156"/>
      </g>
     </g>
    </g>
    <g id="ytick_7">
     <g id="line2d_14">
      <g>
       <use xlink:href="#m950307e331" x="30.103125" y="10.999219" style="stroke: #000000; stroke-width: 0.8"/>
      </g>
     </g>
     <g id="text_14">
      <!-- 3.0 -->
      <g transform="translate(7.2 14.798438)scale(0.1 -0.1)">
       <use xlink:href="#DejaVuSans-33"/>
       <use xlink:href="#DejaVuSans-2e" x="63.623047"/>
       <use xlink:href="#DejaVuSans-30" x="95.410156"/>
      </g>
     </g>
    </g>
   </g>
   <g id="patch_4">
    <path d="M 30.103125 317.848534 
L 30.103125 10.999219 
" style="fill: none; stroke: #000000; stroke-width: 0.8; stroke-linejoin: miter; stroke-linecap: square"/>
   </g>
   <g id="patch_5">
    <path d="M 336.95244 317.848534 
L 336.95244 10.999219 
" style="fill: none; stroke: #000000; stroke-width: 0.8; stroke-linejoin: miter; stroke-linecap: square"/>
   </g>
   <g id="patch_6">
    <path d="M 30.103125 317.848534 
L 336.95244 317.848534 
" style="fill: none; stroke: #000000; stroke-width: 0.8; stroke-linejoin: miter; stroke-linecap: square"/>
   </g>
   <g id="patch_7">
    <path d="M 30.103125 10.999219 
L 336.95244 10.999219 
" style="fill: none; stroke: #000000; stroke-width: 0.8; stroke-linejoin: miter; stroke-linecap: square"/>
   </g>
   <g id="text_15">
    <g id="patch_8">
     <path d="M 30.103125 322.919784 
C 31.448036 322.919784 32.738044 322.385445 33.68904 321.434449 
C 34.640036 320.483453 35.174375 319.193445 35.174375 317.848534 
C 35.174375 316.503623 34.640036 315.213614 33.68904 314.262619 
C 32.738044 313.311623 31.448036 312.777284 30.103125 312.777284 
C 28.758214 312.777284 27.468206 313.311623 26.51721 314.262619 
C 25.566214 315.213614 25.031875 316.503623 25.031875 317.848534 
C 25.031875 319.193445 25.566214 320.483453 26.51721 321.434449 
C 27.468206 322.385445 28.758214 322.919784 30.103125 322.919784 
z
" style="fill: #ffffff"/>
    </g>
    <!-- 0 -->
    <g style="fill: #ff0000" transform="translate(27.558125 320.056034)scale(0.08 -0.08)">
     <use xlink:href="#DejaVuSans-30"/>
    </g>
   </g>
   <g id="text_16">
    <g id="patch_9">
     <path d="M 183.527783 322.919784 
C 184.872694 322.919784 186.162702 322.385445 187.113698 321.434449 
C 188.064694 320.483453 188.599033 319.193445 188.599033 317.848534 
C 188.599033 316.503623 188.064694 315.213614 187.113698 314.262619 
C 186.162702 313.311623 184.872694 312.777284 183.527783 312.777284 
C 182.182871 312.777284 180.892863 313.311623 179.941867 314.262619 
C 178.990871 315.213614 178.456533 316.503623 178.456533 317.848534 
C 178.456533 319.193445 178.990871 320.483453 179.941867 321.434449 
C 180.892863 322.385445 182.182871 322.919784 183.527783 322.919784 
z
" style="fill: #ffffff"/>
    </g>
    <!-- 1 -->
    <g style="fill: #ff0000" transform="translate(180.982783 320.056034)scale(0.08 -0.08)">
     <use xlink:href="#DejaVuSans-31"/>
    </g>
   </g>
   <g id="text_17">
    <g id="patch_10">
     <path d="M 183.527783 169.495126 
C 184.872694 169.495126 186.162702 168.960787 187.113698 168.009792 
C 188.064694 167.058796 188.599033 165.768788 188.599033 164.423876 
C 188.599033 163.078965 188.064694 161.788957 187.113698 160.837961 
C 186.162702 159.886965 184.872694 159.352626 183.527783 159.352626 
C 182.182871 159.352626 180.892863 159.886965 179.941867 160.837961 
C 178.990871 161.788957 178.456533 163.078965 178.456533 164.423876 
C 178.456533 165.768788 178.990871 167.058796 179.941867 168.009792 
C 180.892863 168.960787 182.182871 169.495126 183.527783 169.495126 
z
" style="fill: #ffffff"/>
    </g>
    <!-- 2 -->
    <g style="fill: #ff0000" transform="translate(180.982783 166.631376)scale(0.08 -0.08)">
     <use xlink:href="#DejaVuSans-32"/>
    </g>
   </g>
   <g id="text_18">
    <g id="patch_11">
     <path d="M 30.103125 169.495126 
C 31.448036 169.495126 32.738044 168.960787 33.68904 168.009792 
C 34.640036 167.058796 35.174375 165.768788 35.174375 164.423876 
C 35.174375 163.078965 34.640036 161.788957 33.68904 160.837961 
C 32.738044 159.886965 31.448036 159.352626 30.103125 159.352626 
C 28.758214 159.352626 27.468206 159.886965 26.51721 160.837961 
C 25.566214 161.788957 25.031875 163.078965 25.031875 164.423876 
C 25.031875 165.768788 25.566214 167.058796 26.51721 168.009792 
C 27.468206 168.960787 28.758214 169.495126 30.103125 169.495126 
z
" style="fill: #ffffff"/>
    </g>
    <!-- 3 -->
    <g style="fill: #ff0000" transform="translate(27.558125 166.631376)scale(0.08 -0.08)">
     <use xlink:href="#DejaVuSans-33"/>
    </g>
   </g>
   <g id="text_19">
    <g id="patch_12">
     <path d="M 81.244678 322.919784 
C 82.589589 322.919784 83.879597 322.385445 84.830593 321.434449 
C 85.781589 320.483453 86.315928 319.193445 86.315928 317.848534 
C 86.315928 316.503623 85.781589 315.213614 84.830593 314.262619 
C 83.879597 313.311623 82.589589 312.777284 81.244678 312.777284 
C 79.899766 312.777284 78.609758 313.311623 77.658762 314.262619 
C 76.707766 315.213614 76.173428 316.503623 76.173428 317.848534 
C 76.173428 319.193445 76.707766 320.483453 77.658762 321.434449 
C 78.609758 322.385445 79.899766 322.919784 81.244678 322.919784 
z
" style="fill: #ffffff"/>
    </g>
    <!-- 4 -->
    <g style="fill: #ff0000" transform="translate(78.699678 320.056034)scale(0.08 -0.08)">
     <defs>
      <path id="DejaVuSans-34" d="M 2419 4116 
L 825 1625 
L 2419 1625 
L 2419 4116 
z
M 2253 4666 
L 3047 4666 
L 3047 1625 
L 3713 1625 
L 3713 1100 
L 3047 1100 
L 3047 0 
L 2419 0 
L 2419 1100 
L 313 1100 
L 313 1709 
L 2253 4666 
z
" transform="scale(0.015625)"/>
     </defs>
     <use xlink:href="#DejaVuSans-34"/>
    </g>
   </g>
   <g id="text_20">
    <g id="patch_13">
     <path d="M 183.527783 271.778231 
C 184.872694 271.778231 186.162702 271.243892 187.113698 270.292897 
C 188.064694 269.341901 188.599033 268.051893 188.599033 266.706981 
C 188.599033 265.36207 188.064694 264.072062 187.113698 263.121066 
C 186.162702 262.17007 184.872694 261.635731 183.527783 261.635731 
C 182.182871 261.635731 180.892863 262.17007 179.941867 263.121066 
C 178.990871 264.072062 178.456533 265.36207 178.456533 266.706981 
C 178.456533 268.051893 178.990871 269.341901 179.941867 270.292897 
C 180.892863 271.243892 182.182871 271.778231 183.527783 271.778231 
z
" style="fill: #ffffff"/>
    </g>
    <!-- 5 -->
    <g style="fill: #ff0000" transform="translate(180.982783 268.914481)scale(0.08 -0.08)">
     <use xlink:href="#DejaVuSans-35"/>
    </g>
   </g>
   <g id="text_21">
    <g id="patch_14">
     <path d="M 132.38623 169.495126 
C 133.731141 169.495126 135.021149 168.960787 135.972145 168.009792 
C 136.923141 167.058796 137.45748 165.768788 137.45748 164.423876 
C 137.45748 163.078965 136.923141 161.788957 135.972145 160.837961 
C 135.021149 159.886965 133.731141 159.352626 132.38623 159.352626 
C 131.041319 159.352626 129.751311 159.886965 128.800315 160.837961 
C 127.849319 161.788957 127.31498 163.078965 127.31498 164.423876 
C 127.31498 165.768788 127.849319 167.058796 128.800315 168.009792 
C 129.751311 168.960787 131.041319 169.495126 132.38623 169.495126 
z
" style="fill: #ffffff"/>
    </g>
    <!-- 6 -->
    <g style="fill: #ff0000" transform="translate(129.84123 166.631376)scale(0.08 -0.08)">
     <defs>
      <path id="DejaVuSans-36" d="M 2113 2584 
Q 1688 2584 1439 2293 
Q 1191 2003 1191 1497 
Q 1191 994 1439 701 
Q 1688 409 2113 409 
Q 2538 409 2786 701 
Q 3034 994 3034 1497 
Q 3034 2003 2786 2293 
Q 2538 2584 2113 2584 
z
M 3366 4563 
L 3366 3988 
Q 3128 4100 2886 4159 
Q 2644 4219 2406 4219 
Q 1781 4219 1451 3797 
Q 1122 3375 1075 2522 
Q 1259 2794 1537 2939 
Q 1816 3084 2150 3084 
Q 2853 3084 3261 2657 
Q 3669 2231 3669 1497 
Q 3669 778 3244 343 
Q 2819 -91 2113 -91 
Q 1303 -91 875 529 
Q 447 1150 447 2328 
Q 447 3434 972 4092 
Q 1497 4750 2381 4750 
Q 2619 4750 2861 4703 
Q 3103 4656 3366 4563 
z
" transform="scale(0.015625)"/>
     </defs>
     <use xlink:href="#DejaVuSans-36"/>
    </g>
   </g>
   <g id="text_22">
    <g id="patch_15">
     <path d="M 30.103125 220.636679 
C 31.448036 220.636679 32.738044 220.10234 33.68904 219.151344 
C 34.640036 218.200348 35.174375 216.91034 35.174375 215.565429 
C 35.174375 214.220518 34.640036 212.930509 33.68904 211.979514 
C 32.738044 211.028518 31.448036 210.494179 30.103125 210.494179 
C 28.758214 210.494179 27.468206 211.028518 26.51721 211.979514 
C 25.566214 212.930509 25.031875 214.220518 25.031875 215.565429 
C 25.031875 216.91034 25.566214 218.200348 26.51721 219.151344 
C 27.468206 220.10234 28.758214 220.636679 30.103125 220.636679 
z
" style="fill: #ffffff"/>
    </g>
    <!-- 7 -->
    <g style="fill: #ff0000" transform="translate(27.558125 217.772929)scale(0.08 -0.08)">
     <defs>
      <path id="DejaVuSans-37" d="M 525 4666 
L 3525 4666 
L 3525 4397 
L 1831 0 
L 1172 0 
L 2766 4134 
L 525 4134 
L 525 4666 
z
" transform="scale(0.015625)"/>
     </defs>
     <use xlink:href="#DejaVuSans-37"/>
    </g>
   </g>
   <g id="text_23">
    <g id="patch_16">
     <path d="M 132.38623 322.919784 
C 133.731141 322.919784 135.021149 322.385445 135.972145 321.434449 
C 136.923141 320.483453 137.45748 319.193445 137.45748 317.848534 
C 137.45748 316.503623 136.923141 315.213614 135.972145 314.262619 
C 135.021149 313.311623 133.731141 312.777284 132.38623 312.777284 
C 131.041319 312.777284 129.751311 313.311623 128.800315 314.262619 
C 127.849319 315.213614 127.31498 316.503623 127.31498 317.848534 
C 127.31498 319.193445 127.849319 320.483453 128.800315 321.434449 
C 129.751311 322.385445 131.041319 322.919784 132.38623 322.919784 
z
" style="fill: #ffffff"/>
    </g>
    <!-- 8 -->
    <g style="fill: #ff0000" transform="translate(129.84123 320.056034)scale(0.08 -0.08)">
     <defs>
      <path id="DejaVuSans-38" d="M 2034 2216 
Q 1584 2216 1326 1975 
Q 1069 1734 1069 1313 
Q 1069 891 1326 650 
Q 1584 409 2034 409 
Q 2484 409 2743 651 
Q 3003 894 3003 1313 
Q 3003 1734 2745 1975 
Q 2488 2216 2034 2216 
z
M 1403 2484 
Q 997 2584 770 2862 
Q 544 3141 544 3541 
Q 544 4100 942 4425 
Q 1341 4750 2034 4750 
Q 2731 4750 3128 4425 
Q 3525 4100 3525 3541 
Q 3525 3141 3298 2862 
Q 3072 2584 2669 2484 
Q 3125 2378 3379 2068 
Q 3634 1759 3634 1313 
Q 3634 634 3220 271 
Q 2806 -91 2034 -91 
Q 1263 -91 848 271 
Q 434 634 434 1313 
Q 434 1759 690 2068 
Q 947 2378 1403 2484 
z
M 1172 3481 
Q 1172 3119 1398 2916 
Q 1625 2713 2034 2713 
Q 2441 2713 2670 2916 
Q 2900 3119 2900 3481 
Q 2900 3844 2670 4047 
Q 2441 4250 2034 4250 
Q 1625 4250 1398 4047 
Q 1172 3844 1172 3481 
z
" transform="scale(0.015625)"/>
     </defs>
     <use xlink:href="#DejaVuSans-38"/>
    </g>
   </g>
   <g id="text_24">
    <g id="patch_17">
     <path d="M 183.527783 220.636679 
C 184.872694 220.636679 186.162702 220.10234 187.113698 219.151344 
C 188.064694 218.200348 188.599033 216.91034 188.599033 215.565429 
C 188.599033 214.220518 188.064694 212.930509 187.113698 211.979514 
C 186.162702 211.028518 184.872694 210.494179 183.527783 210.494179 
C 182.182871 210.494179 180.892863 211.028518 179.941867 211.979514 
C 178.990871 212.930509 178.456533 214.220518 178.456533 215.565429 
C 178.456533 216.91034 178.990871 218.200348 179.941867 219.151344 
C 180.892863 220.10234 182.182871 220.636679 183.527783 220.636679 
z
" style="fill: #ffffff"/>
    </g>
    <!-- 9 -->
    <g style="fill: #ff0000" transform="translate(180.982783 217.772929)scale(0.08 -0.08)">
     <defs>
      <path id="DejaVuSans-39" d="M 703 97 
L 703 672 
Q 941 559 1184 500 
Q 1428 441 1663 441 
Q 2288 441 2617 861 
Q 2947 1281 2994 2138 
Q 2813 1869 2534 1725 
Q 2256 1581 1919 1581 
Q 1219 1581 811 2004 
Q 403 2428 403 3163 
Q 403 3881 828 4315 
Q 1253 4750 1959 4750 
Q 2769 4750 3195 4129 
Q 3622 3509 3622 2328 
Q 3622 1225 3098 567 
Q 2575 -91 1691 -91 
Q 1453 -91 1209 -44 
Q 966 3 703 97 
z
M 1959 2075 
Q 2384 2075 2632 2365 
Q 2881 2656 2881 3163 
Q 2881 3666 2632 3958 
Q 2384 4250 1959 4250 
Q 1534 4250 1286 3958 
Q 1038 3666 1038 3163 
Q 1038 2656 1286 2365 
Q 1534 2075 1959 2075 
z
" transform="scale(0.015625)"/>
     </defs>
     <use xlink:href="#DejaVuSans-39"/>
    </g>
   </g>
   <g id="text_25">
    <g id="patch_18">
     <path d="M 81.244678 170.713876 
C 82.912805 170.713876 84.512835 170.051122 85.692379 168.871578 
C 86.871923 167.692034 87.534678 166.092004 87.534678 164.423876 
C 87.534678 162.755749 86.871923 161.155719 85.692379 159.976175 
C 84.512835 158.79663 82.912805 158.133876 81.244678 158.133876 
C 79.57655 158.133876 77.97652 158.79663 76.796976 159.976175 
C 75.617432 161.155719 74.954678 162.755749 74.954678 164.423876 
C 74.954678 166.092004 75.617432 167.692034 76.796976 168.871578 
C 77.97652 170.051122 79.57655 170.713876 81.244678 170.713876 
z
" style="fill: #ffffff"/>
    </g>
    <!-- 10 -->
    <g style="fill: #ff0000" transform="translate(76.154678 166.631376)scale(0.08 -0.08)">
     <use xlink:href="#DejaVuSans-31"/>
     <use xlink:href="#DejaVuSans-30" x="63.623047"/>
    </g>
   </g>
   <g id="text_26">
    <g id="patch_19">
     <path d="M 30.103125 272.996981 
C 31.771252 272.996981 33.371282 272.334227 34.550827 271.154683 
C 35.730371 269.975139 36.393125 268.375109 36.393125 266.706981 
C 36.393125 265.038854 35.730371 263.438824 34.550827 262.25928 
C 33.371282 261.079735 31.771252 260.416981 30.103125 260.416981 
C 28.434998 260.416981 26.834968 261.079735 25.655423 262.25928 
C 24.475879 263.438824 23.813125 265.038854 23.813125 266.706981 
C 23.813125 268.375109 24.475879 269.975139 25.655423 271.154683 
C 26.834968 272.334227 28.434998 272.996981 30.103125 272.996981 
z
" style="fill: #ffffff"/>
    </g>
    <!-- 11 -->
    <g style="fill: #ff0000" transform="translate(25.013125 268.914481)scale(0.08 -0.08)">
     <use xlink:href="#DejaVuSans-31"/>
     <use xlink:href="#DejaVuSans-31" x="63.623047"/>
    </g>
   </g>
   <g id="text_27">
    <g id="patch_20">
     <path d="M 81.244678 272.996981 
C 82.912805 272.996981 84.512835 272.334227 85.692379 271.154683 
C 86.871923 269.975139 87.534678 268.375109 87.534678 266.706981 
C 87.534678 265.038854 86.871923 263.438824 85.692379 262.25928 
C 84.512835 261.079735 82.912805 260.416981 81.244678 260.416981 
C 79.57655 260.416981 77.97652 261.079735 76.796976 262.25928 
C 75.617432 263.438824 74.954678 265.038854 74.954678 266.706981 
C 74.954678 268.375109 75.617432 269.975139 76.796976 271.154683 
C 77.97652 272.334227 79.57655 272.996981 81.244678 272.996981 
z
" style="fill: #ffffff"/>
    </g>
    <!-- 12 -->
    <g style="fill: #ff0000" transform="translate(76.154678 268.914481)scale(0.08 -0.08)">
     <use xlink:href="#DejaVuSans-31"/>
     <use xlink:href="#DejaVuSans-32" x="63.623047"/>
    </g>
   </g>
   <g id="text_28">
    <g id="patch_21">
     <path d="M 132.38623 272.996981 
C 134.054358 272.996981 135.654387 272.334227 136.833932 271.154683 
C 138.013476 269.975139 138.67623 268.375109 138.67623 266.706981 
C 138.67623 265.038854 138.013476 263.438824 136.833932 262.25928 
C 135.654387 261.079735 134.054358 260.416981 132.38623 260.416981 
C 130.718103 260.416981 129.118073 261.079735 127.938528 262.25928 
C 126.758984 263.438824 126.09623 265.038854 126.09623 266.706981 
C 126.09623 268.375109 126.758984 269.975139 127.938528 271.154683 
C 129.118073 272.334227 130.718103 272.996981 132.38623 272.996981 
z
" style="fill: #ffffff"/>
    </g>
    <!-- 13 -->
    <g style="fill: #ff0000" transform="translate(127.29623 268.914481)scale(0.08 -0.08)">
     <use xlink:href="#DejaVuSans-31"/>
     <use xlink:href="#DejaVuSans-33" x="63.623047"/>
    </g>
   </g>
   <g id="text_29">
    <g id="patch_22">
     <path d="M 132.38623 221.855429 
C 134.054358 221.855429 135.654387 221.192675 136.833932 220.01313 
C 138.013476 218.833586 138.67623 217.233556 138.67623 215.565429 
C 138.67623 213.897301 138.013476 212.297271 136.833932 211.117727 
C 135.654387 209.938183 134.054358 209.275429 132.38623 209.275429 
C 130.718103 209.275429 129.118073 209.938183 127.938528 211.117727 
C 126.758984 212.297271 126.09623 213.897301 126.09623 215.565429 
C 126.09623 217.233556 126.758984 218.833586 127.938528 220.01313 
C 129.118073 221.192675 130.718103 221.855429 132.38623 221.855429 
z
" style="fill: #ffffff"/>
    </g>
    <!-- 14 -->
    <g style="fill: #ff0000" transform="translate(127.29623 217.772929)scale(0.08 -0.08)">
     <use xlink:href="#DejaVuSans-31"/>
     <use xlink:href="#DejaVuSans-34" x="63.623047"/>
    </g>
   </g>
   <g id="text_30">
    <g id="patch_23">
     <path d="M 81.244678 221.855429 
C 82.912805 221.855429 84.512835 221.192675 85.692379 220.01313 
C 86.871923 218.833586 87.534678 217.233556 87.534678 215.565429 
C 87.534678 213.897301 86.871923 212.297271 85.692379 211.117727 
C 84.512835 209.938183 82.912805 209.275429 81.244678 209.275429 
C 79.57655 209.275429 77.97652 209.938183 76.796976 211.117727 
C 75.617432 212.297271 74.954678 213.897301 74.954678 215.565429 
C 74.954678 217.233556 75.617432 218.833586 76.796976 220.01313 
C 77.97652 221.192675 79.57655 221.855429 81.244678 221.855429 
z
" style="fill: #ffffff"/>
    </g>
    <!-- 15 -->
    <g style="fill: #ff0000" transform="translate(76.154678 217.772929)scale(0.08 -0.08)">
     <use xlink:href="#DejaVuSans-31"/>
     <use xlink:href="#DejaVuSans-35" x="63.623047"/>
    </g>
   </g>
   <g id="text_31">
    <g id="patch_24">
     <path d="M 336.95244 324.138534 
C 338.620568 324.138534 340.220597 323.47578 341.400142 322.296235 
C 342.579686 321.116691 343.24244 319.516661 343.24244 317.848534 
C 343.24244 316.180406 342.579686 314.580376 341.400142 313.400832 
C 340.220597 312.221288 338.620568 311.558534 336.95244 311.558534 
C 335.284313 311.558534 333.684283 312.221288 332.504738 313.400832 
C 331.325194 314.580376 330.66244 316.180406 330.66244 317.848534 
C 330.66244 319.516661 331.325194 321.116691 332.504738 322.296235 
C 333.684283 323.47578 335.284313 324.138534 336.95244 324.138534 
z
" style="fill: #ffffff"/>
    </g>
    <!-- 16 -->
    <g style="fill: #ff0000" transform="translate(331.86244 320.056034)scale(0.08 -0.08)">
     <use xlink:href="#DejaVuSans-31"/>
     <use xlink:href="#DejaVuSans-36" x="63.623047"/>
    </g>
   </g>
   <g id="text_32">
    <g id="patch_25">
     <path d="M 336.95244 170.713876 
C 338.620568 170.713876 340.220597 170.051122 341.400142 168.871578 
C 342.579686 167.692034 343.24244 166.092004 343.24244 164.423876 
C 343.24244 162.755749 342.579686 161.155719 341.400142 159.976175 
C 340.220597 158.79663 338.620568 158.133876 336.95244 158.133876 
C 335.284313 158.133876 333.684283 158.79663 332.504738 159.976175 
C 331.325194 161.155719 330.66244 162.755749 330.66244 164.423876 
C 330.66244 166.092004 331.325194 167.692034 332.504738 168.871578 
C 333.684283 170.051122 335.284313 170.713876 336.95244 170.713876 
z
" style="fill: #ffffff"/>
    </g>
    <!-- 17 -->
    <g style="fill: #ff0000" transform="translate(331.86244 166.631376)scale(0.08 -0.08)">
     <use xlink:href="#DejaVuSans-31"/>
     <use xlink:href="#DejaVuSans-37" x="63.623047"/>
    </g>
   </g>
   <g id="text_33">
    <g id="patch_26">
     <path d="M 234.669335 324.138534 
C 236.337463 324.138534 237.937492 323.47578 239.117037 322.296235 
C 240.296581 321.116691 240.959335 319.516661 240.959335 317.848534 
C 240.959335 316.180406 240.296581 314.580376 239.117037 313.400832 
C 237.937492 312.221288 236.337463 311.558534 234.669335 311.558534 
C 233.001208 311.558534 231.401178 312.221288 230.221633 313.400832 
C 229.042089 314.580376 228.379335 316.180406 228.379335 317.848534 
C 228.379335 319.516661 229.042089 321.116691 230.221633 322.296235 
C 231.401178 323.47578 233.001208 324.138534 234.669335 324.138534 
z
" style="fill: #ffffff"/>
    </g>
    <!-- 18 -->
    <g style="fill: #ff0000" transform="translate(229.579335 320.056034)scale(0.08 -0.08)">
     <use xlink:href="#DejaVuSans-31"/>
     <use xlink:href="#DejaVuSans-38" x="63.623047"/>
    </g>
   </g>
   <g id="text_34">
    <g id="patch_27">
     <path d="M 336.95244 272.996981 
C 338.620568 272.996981 340.220597 272.334227 341.400142 271.154683 
C 342.579686 269.975139 343.24244 268.375109 343.24244 266.706981 
C 343.24244 265.038854 342.579686 263.438824 341.400142 262.25928 
C 340.220597 261.079735 338.620568 260.416981 336.95244 260.416981 
C 335.284313 260.416981 333.684283 261.079735 332.504738 262.25928 
C 331.325194 263.438824 330.66244 265.038854 330.66244 266.706981 
C 330.66244 268.375109 331.325194 269.975139 332.504738 271.154683 
C 333.684283 272.334227 335.284313 272.996981 336.95244 272.996981 
z
" style="fill: #ffffff"/>
    </g>
    <!-- 19 -->
    <g style="fill: #ff0000" transform="translate(331.86244 268.914481)scale(0.08 -0.08)">
     <use xlink:href="#DejaVuSans-31"/>
     <use xlink:href="#DejaVuSans-39" x="63.623047"/>
    </g>
   </g>
   <g id="text_35">
    <g id="patch_28">
     <path d="M 285.810888 170.713876 
C 287.479015 170.713876 289.079045 170.051122 290.258589 168.871578 
C 291.438133 167.692034 292.100888 166.092004 292.100888 164.423876 
C 292.100888 162.755749 291.438133 161.155719 290.258589 159.976175 
C 289.079045 158.79663 287.479015 158.133876 285.810888 158.133876 
C 284.14276 158.133876 282.54273 158.79663 281.363186 159.976175 
C 280.183642 161.155719 279.520888 162.755749 279.520888 164.423876 
C 279.520888 166.092004 280.183642 167.692034 281.363186 168.871578 
C 282.54273 170.051122 284.14276 170.713876 285.810888 170.713876 
z
" style="fill: #ffffff"/>
    </g>
    <!-- 20 -->
    <g style="fill: #ff0000" transform="translate(280.720888 166.631376)scale(0.08 -0.08)">
     <use xlink:href="#DejaVuSans-32"/>
     <use xlink:href="#DejaVuSans-30" x="63.623047"/>
    </g>
   </g>
   <g id="text_36">
    <g id="patch_29">
     <path d="M 285.810888 324.138534 
C 287.479015 324.138534 289.079045 323.47578 290.258589 322.296235 
C 291.438133 321.116691 292.100888 319.516661 292.100888 317.848534 
C 292.100888 316.180406 291.438133 314.580376 290.258589 313.400832 
C 289.079045 312.221288 287.479015 311.558534 285.810888 311.558534 
C 284.14276 311.558534 282.54273 312.221288 281.363186 313.400832 
C 280.183642 314.580376 279.520888 316.180406 279.520888 317.848534 
C 279.520888 319.516661 280.183642 321.116691 281.363186 322.296235 
C 282.54273 323.47578 284.14276 324.138534 285.810888 324.138534 
z
" style="fill: #ffffff"/>
    </g>
    <!-- 21 -->
    <g style="fill: #ff0000" transform="translate(280.720888 320.056034)scale(0.08 -0.08)">
     <use xlink:href="#DejaVuSans-32"/>
     <use xlink:href="#DejaVuSans-31" x="63.623047"/>
    </g>
   </g>
   <g id="text_37">
    <g id="patch_30">
     <path d="M 336.95244 221.855429 
C 338.620568 221.855429 340.220597 221.192675 341.400142 220.01313 
C 342.579686 218.833586 343.24244 217.233556 343.24244 215.565429 
C 343.24244 213.897301 342.579686 212.297271 341.400142 211.117727 
C 340.220597 209.938183 338.620568 209.275429 336.95244 209.275429 
C 335.284313 209.275429 333.684283 209.938183 332.504738 211.117727 
C 331.325194 212.297271 330.66244 213.897301 330.66244 215.565429 
C 330.66244 217.233556 331.325194 218.833586 332.504738 220.01313 
C 333.684283 221.192675 335.284313 221.855429 336.95244 221.855429 
z
" style="fill: #ffffff"/>
    </g>
    <!-- 22 -->
    <g style="fill: #ff0000" transform="translate(331.86244 217.772929)scale(0.08 -0.08)">
     <use xlink:href="#DejaVuSans-32"/>
     <use xlink:href="#DejaVuSans-32" x="63.623047"/>
    </g>
   </g>
   <g id="text_38">
    <g id="patch_31">
     <path d="M 234.669335 170.713876 
C 236.337463 170.713876 237.937492 170.051122 239.117037 168.871578 
C 240.296581 167.692034 240.959335 166.092004 240.959335 164.423876 
C 240.959335 162.755749 240.296581 161.155719 239.117037 159.976175 
C 237.937492 158.79663 236.337463 158.133876 234.669335 158.133876 
C 233.001208 158.133876 231.401178 158.79663 230.221633 159.976175 
C 229.042089 161.155719 228.379335 162.755749 228.379335 164.423876 
C 228.379335 166.092004 229.042089 167.692034 230.221633 168.871578 
C 231.401178 170.051122 233.001208 170.713876 234.669335 170.713876 
z
" style="fill: #ffffff"/>
    </g>
    <!-- 23 -->
    <g style="fill: #ff0000" transform="translate(229.579335 166.631376)scale(0.08 -0.08)">
     <use xlink:href="#DejaVuSans-32"/>
     <use xlink:href="#DejaVuSans-33" x="63.623047"/>
    </g>
   </g>
   <g id="text_39">
    <g id="patch_32">
     <path d="M 234.669335 272.996981 
C 236.337463 272.996981 237.937492 272.334227 239.117037 271.154683 
C 240.296581 269.975139 240.959335 268.375109 240.959335 266.706981 
C 240.959335 265.038854 240.296581 263.438824 239.117037 262.25928 
C 237.937492 261.079735 236.337463 260.416981 234.669335 260.416981 
C 233.001208 260.416981 231.401178 261.079735 230.221633 262.25928 
C 229.042089 263.438824 228.379335 265.038854 228.379335 266.706981 
C 228.379335 268.375109 229.042089 269.975139 230.221633 271.154683 
C 231.401178 272.334227 233.001208 272.996981 234.669335 272.996981 
z
" style="fill: #ffffff"/>
    </g>
    <!-- 24 -->
    <g style="fill: #ff0000" transform="translate(229.579335 268.914481)scale(0.08 -0.08)">
     <use xlink:href="#DejaVuSans-32"/>
     <use xlink:href="#DejaVuSans-34" x="63.623047"/>
    </g>
   </g>
   <g id="text_40">
    <g id="patch_33">
     <path d="M 285.810888 272.996981 
C 287.479015 272.996981 289.079045 272.334227 290.258589 271.154683 
C 291.438133 269.975139 292.100888 268.375109 292.100888 266.706981 
C 292.100888 265.038854 291.438133 263.438824 290.258589 262.25928 
C 289.079045 261.079735 287.479015 260.416981 285.810888 260.416981 
C 284.14276 260.416981 282.54273 261.079735 281.363186 262.25928 
C 280.183642 263.438824 279.520888 265.038854 279.520888 266.706981 
C 279.520888 268.375109 280.183642 269.975139 281.363186 271.154683 
C 282.54273 272.334227 284.14276 272.996981 285.810888 272.996981 
z
" style="fill: #ffffff"/>
    </g>
    <!-- 25 -->
    <g style="fill: #ff0000" transform="translate(280.720888 268.914481)scale(0.08 -0.08)">
     <use xlink:href="#DejaVuSans-32"/>
     <use xlink:href="#DejaVuSans-35" x="63.623047"/>
    </g>
   </g>
   <g id="text_41">
    <g id="patch_34">
     <path d="M 285.810888 221.855429 
C 287.479015 221.855429 289.079045 221.192675 290.258589 220.01313 
C 291.438133 218.833586 292.100888 217.233556 292.100888 215.565429 
C 292.100888 213.897301 291.438133 212.297271 290.258589 211.117727 
C 289.079045 209.938183 287.479015 209.275429 285.810888 209.275429 
C 284.14276 209.275429 282.54273 209.938183 281.363186 211.117727 
C 280.183642 212.297271 279.520888 213.897301 279.520888 215.565429 
C 279.520888 217.233556 280.183642 218.833586 281.363186 220.01313 
C 282.54273 221.192675 284.14276 221.855429 285.810888 221.855429 
z
" style="fill: #ffffff"/>
    </g>
    <!-- 26 -->
    <g style="fill: #ff0000" transform="translate(280.720888 217.772929)scale(0.08 -0.08)">
     <use xlink:href="#DejaVuSans-32"/>
     <use xlink:href="#DejaVuSans-36" x="63.623047"/>
    </g>
   </g>
   <g id="text_42">
    <g id="patch_35">
     <path d="M 234.669335 221.855429 
C 236.337463 221.855429 237.937492 221.192675 239.117037 220.01313 
C 240.296581 218.833586 240.959335 217.233556 240.959335 215.565429 
C 240.959335 213.897301 240.296581 212.297271 239.117037 211.117727 
C 237.937492 209.938183 236.337463 209.275429 234.669335 209.275429 
C 233.001208 209.275429 231.401178 209.938183 230.221633 211.117727 
C 229.042089 212.297271 228.379335 213.897301 228.379335 215.565429 
C 228.379335 217.233556 229.042089 218.833586 230.221633 220.01313 
C 231.401178 221.192675 233.001208 221.855429 234.669335 221.855429 
z
" style="fill: #ffffff"/>
    </g>
    <!-- 27 -->
    <g style="fill: #ff0000" transform="translate(229.579335 217.772929)scale(0.08 -0.08)">
     <use xlink:href="#DejaVuSans-32"/>
     <use xlink:href="#DejaVuSans-37" x="63.623047"/>
    </g>
   </g>
   <g id="text_43">
    <g id="patch_36">
     <path d="M 183.527783 17.289219 
C 185.19591 17.289219 186.79594 16.626465 187.975484 15.44692 
C 189.155028 14.267376 189.817783 12.667346 189.817783 10.999219 
C 189.817783 9.331091 189.155028 7.731061 187.975484 6.551517 
C 186.79594 5.371973 185.19591 4.709219 183.527783 4.709219 
C 181.859655 4.709219 180.259625 5.371973 179.080081 6.551517 
C 177.900537 7.731061 177.237783 9.331091 177.237783 10.999219 
C 177.237783 12.667346 177.900537 14.267376 179.080081 15.44692 
C 180.259625 16.626465 181.859655 17.289219 183.527783 17.289219 
z
" style="fill: #ffffff"/>
    </g>
    <!-- 28 -->
    <g style="fill: #ff0000" transform="translate(178.437783 13.206719)scale(0.08 -0.08)">
     <use xlink:href="#DejaVuSans-32"/>
     <use xlink:href="#DejaVuSans-38" x="63.623047"/>
    </g>
   </g>
   <g id="text_44">
    <g id="patch_37">
     <path d="M 30.103125 17.289219 
C 31.771252 17.289219 33.371282 16.626465 34.550827 15.44692 
C 35.730371 14.267376 36.393125 12.667346 36.393125 10.999219 
C 36.393125 9.331091 35.730371 7.731061 34.550827 6.551517 
C 33.371282 5.371973 31.771252 4.709219 30.103125 4.709219 
C 28.434998 4.709219 26.834968 5.371973 25.655423 6.551517 
C 24.475879 7.731061 23.813125 9.331091 23.813125 10.999219 
C 23.813125 12.667346 24.475879 14.267376 25.655423 15.44692 
C 26.834968 16.626465 28.434998 17.289219 30.103125 17.289219 
z
" style="fill: #ffffff"/>
    </g>
    <!-- 29 -->
    <g style="fill: #ff0000" transform="translate(25.013125 13.206719)scale(0.08 -0.08)">
     <use xlink:href="#DejaVuSans-32"/>
     <use xlink:href="#DejaVuSans-39" x="63.623047"/>
    </g>
   </g>
   <g id="text_45">
    <g id="patch_38">
     <path d="M 183.527783 119.572324 
C 185.19591 119.572324 186.79594 118.90957 187.975484 117.730025 
C 189.155028 116.550481 189.817783 114.950451 189.817783 113.282324 
C 189.817783 111.614196 189.155028 110.014166 187.975484 108.834622 
C 186.79594 107.655078 185.19591 106.992324 183.527783 106.992324 
C 181.859655 106.992324 180.259625 107.655078 179.080081 108.834622 
C 177.900537 110.014166 177.237783 111.614196 177.237783 113.282324 
C 177.237783 114.950451 177.900537 116.550481 179.080081 117.730025 
C 180.259625 118.90957 181.859655 119.572324 183.527783 119.572324 
z
" style="fill: #ffffff"/>
    </g>
    <!-- 30 -->
    <g style="fill: #ff0000" transform="translate(178.437783 115.489824)scale(0.08 -0.08)">
     <use xlink:href="#DejaVuSans-33"/>
     <use xlink:href="#DejaVuSans-30" x="63.623047"/>
    </g>
   </g>
   <g id="text_46">
    <g id="patch_39">
     <path d="M 132.38623 17.289219 
C 134.054358 17.289219 135.654387 16.626465 136.833932 15.44692 
C 138.013476 14.267376 138.67623 12.667346 138.67623 10.999219 
C 138.67623 9.331091 138.013476 7.731061 136.833932 6.551517 
C 135.654387 5.371973 134.054358 4.709219 132.38623 4.709219 
C 130.718103 4.709219 129.118073 5.371973 127.938528 6.551517 
C 126.758984 7.731061 126.09623 9.331091 126.09623 10.999219 
C 126.09623 12.667346 126.758984 14.267376 127.938528 15.44692 
C 129.118073 16.626465 130.718103 17.289219 132.38623 17.289219 
z
" style="fill: #ffffff"/>
    </g>
    <!-- 31 -->
    <g style="fill: #ff0000" transform="translate(127.29623 13.206719)scale(0.08 -0.08)">
     <use xlink:href="#DejaVuSans-33"/>
     <use xlink:href="#DejaVuSans-31" x="63.623047"/>
    </g>
   </g>
   <g id="text_47">
    <g id="patch_40">
     <path d="M 30.103125 68.430771 
C 31.771252 68.430771 33.371282 67.768017 34.550827 66.588473 
C 35.730371 65.408929 36.393125 63.808899 36.393125 62.140771 
C 36.393125 60.472644 35.730371 58.872614 34.550827 57.69307 
C 33.371282 56.513525 31.771252 55.850771 30.103125 55.850771 
C 28.434998 55.850771 26.834968 56.513525 25.655423 57.69307 
C 24.475879 58.872614 23.813125 60.472644 23.813125 62.140771 
C 23.813125 63.808899 24.475879 65.408929 25.655423 66.588473 
C 26.834968 67.768017 28.434998 68.430771 30.103125 68.430771 
z
" style="fill: #ffffff"/>
    </g>
    <!-- 32 -->
    <g style="fill: #ff0000" transform="translate(25.013125 64.348271)scale(0.08 -0.08)">
     <use xlink:href="#DejaVuSans-33"/>
     <use xlink:href="#DejaVuSans-32" x="63.623047"/>
    </g>
   </g>
   <g id="text_48">
    <g id="patch_41">
     <path d="M 183.527783 68.430771 
C 185.19591 68.430771 186.79594 67.768017 187.975484 66.588473 
C 189.155028 65.408929 189.817783 63.808899 189.817783 62.140771 
C 189.817783 60.472644 189.155028 58.872614 187.975484 57.69307 
C 186.79594 56.513525 185.19591 55.850771 183.527783 55.850771 
C 181.859655 55.850771 180.259625 56.513525 179.080081 57.69307 
C 177.900537 58.872614 177.237783 60.472644 177.237783 62.140771 
C 177.237783 63.808899 177.900537 65.408929 179.080081 66.588473 
C 180.259625 67.768017 181.859655 68.430771 183.527783 68.430771 
z
" style="fill: #ffffff"/>
    </g>
    <!-- 33 -->
    <g style="fill: #ff0000" transform="translate(178.437783 64.348271)scale(0.08 -0.08)">
     <use xlink:href="#DejaVuSans-33"/>
     <use xlink:href="#DejaVuSans-33" x="63.623047"/>
    </g>
   </g>
   <g id="text_49">
    <g id="patch_42">
     <path d="M 81.244678 17.289219 
C 82.912805 17.289219 84.512835 16.626465 85.692379 15.44692 
C 86.871923 14.267376 87.534678 12.667346 87.534678 10.999219 
C 87.534678 9.331091 86.871923 7.731061 85.692379 6.551517 
C 84.512835 5.371973 82.912805 4.709219 81.244678 4.709219 
C 79.57655 4.709219 77.97652 5.371973 76.796976 6.551517 
C 75.617432 7.731061 74.954678 9.331091 74.954678 10.999219 
C 74.954678 12.667346 75.617432 14.267376 76.796976 15.44692 
C 77.97652 16.626465 79.57655 17.289219 81.244678 17.289219 
z
" style="fill: #ffffff"/>
    </g>
    <!-- 34 -->
    <g style="fill: #ff0000" transform="translate(76.154678 13.206719)scale(0.08 -0.08)">
     <use xlink:href="#DejaVuSans-33"/>
     <use xlink:href="#DejaVuSans-34" x="63.623047"/>
    </g>
   </g>
   <g id="text_50">
    <g id="patch_43">
     <path d="M 30.103125 119.572324 
C 31.771252 119.572324 33.371282 118.90957 34.550827 117.730025 
C 35.730371 116.550481 36.393125 114.950451 36.393125 113.282324 
C 36.393125 111.614196 35.730371 110.014166 34.550827 108.834622 
C 33.371282 107.655078 31.771252 106.992324 30.103125 106.992324 
C 28.434998 106.992324 26.834968 107.655078 25.655423 108.834622 
C 24.475879 110.014166 23.813125 111.614196 23.813125 113.282324 
C 23.813125 114.950451 24.475879 116.550481 25.655423 117.730025 
C 26.834968 118.90957 28.434998 119.572324 30.103125 119.572324 
z
" style="fill: #ffffff"/>
    </g>
    <!-- 35 -->
    <g style="fill: #ff0000" transform="translate(25.013125 115.489824)scale(0.08 -0.08)">
     <use xlink:href="#DejaVuSans-33"/>
     <use xlink:href="#DejaVuSans-35" x="63.623047"/>
    </g>
   </g>
   <g id="text_51">
    <g id="patch_44">
     <path d="M 81.244678 119.572324 
C 82.912805 119.572324 84.512835 118.90957 85.692379 117.730025 
C 86.871923 116.550481 87.534678 114.950451 87.534678 113.282324 
C 87.534678 111.614196 86.871923 110.014166 85.692379 108.834622 
C 84.512835 107.655078 82.912805 106.992324 81.244678 106.992324 
C 79.57655 106.992324 77.97652 107.655078 76.796976 108.834622 
C 75.617432 110.014166 74.954678 111.614196 74.954678 113.282324 
C 74.954678 114.950451 75.617432 116.550481 76.796976 117.730025 
C 77.97652 118.90957 79.57655 119.572324 81.244678 119.572324 
z
" style="fill: #ffffff"/>
    </g>
    <!-- 36 -->
    <g style="fill: #ff0000" transform="translate(76.154678 115.489824)scale(0.08 -0.08)">
     <use xlink:href="#DejaVuSans-33"/>
     <use xlink:href="#DejaVuSans-36" x="63.623047"/>
    </g>
   </g>
   <g id="text_52">
    <g id="patch_45">
     <path d="M 132.38623 119.572324 
C 134.054358 119.572324 135.654387 118.90957 136.833932 117.730025 
C 138.013476 116.550481 138.67623 114.950451 138.67623 113.282324 
C 138.67623 111.614196 138.013476 110.014166 136.833932 108.834622 
C 135.654387 107.655078 134.054358 106.992324 132.38623 106.992324 
C 130.718103 106.992324 129.118073 107.655078 127.938528 108.834622 
C 126.758984 110.014166 126.09623 111.614196 126.09623 113.282324 
C 126.09623 114.950451 126.758984 116.550481 127.938528 117.730025 
C 129.118073 118.90957 130.718103 119.572324 132.38623 119.572324 
z
" style="fill: #ffffff"/>
    </g>
    <!-- 37 -->
    <g style="fill: #ff0000" transform="translate(127.29623 115.489824)scale(0.08 -0.08)">
     <use xlink:href="#DejaVuSans-33"/>
     <use xlink:href="#DejaVuSans-37" x="63.623047"/>
    </g>
   </g>
   <g id="text_53">
    <g id="patch_46">
     <path d="M 132.38623 68.430771 
C 134.054358 68.430771 135.654387 67.768017 136.833932 66.588473 
C 138.013476 65.408929 138.67623 63.808899 138.67623 62.140771 
C 138.67623 60.472644 138.013476 58.872614 136.833932 57.69307 
C 135.654387 56.513525 134.054358 55.850771 132.38623 55.850771 
C 130.718103 55.850771 129.118073 56.513525 127.938528 57.69307 
C 126.758984 58.872614 126.09623 60.472644 126.09623 62.140771 
C 126.09623 63.808899 126.758984 65.408929 127.938528 66.588473 
C 129.118073 67.768017 130.718103 68.430771 132.38623 68.430771 
z
" style="fill: #ffffff"/>
    </g>
    <!-- 38 -->
    <g style="fill: #ff0000" transform="translate(127.29623 64.348271)scale(0.08 -0.08)">
     <use xlink:href="#DejaVuSans-33"/>
     <use xlink:href="#DejaVuSans-38" x="63.623047"/>
    </g>
   </g>
   <g id="text_54">
    <g id="patch_47">
     <path d="M 81.244678 68.430771 
C 82.912805 68.430771 84.512835 67.768017 85.692379 66.588473 
C 86.871923 65.408929 87.534678 63.808899 87.534678 62.140771 
C 87.534678 60.472644 86.871923 58.872614 85.692379 57.69307 
C 84.512835 56.513525 82.912805 55.850771 81.244678 55.850771 
C 79.57655 55.850771 77.97652 56.513525 76.796976 57.69307 
C 75.617432 58.872614 74.954678 60.472644 74.954678 62.140771 
C 74.954678 63.808899 75.617432 65.408929 76.796976 66.588473 
C 77.97652 67.768017 79.57655 68.430771 81.244678 68.430771 
z
" style="fill: #ffffff"/>
    </g>
    <!-- 39 -->
    <g style="fill: #ff0000" transform="translate(76.154678 64.348271)scale(0.08 -0.08)">
     <use xlink:href="#DejaVuSans-33"/>
     <use xlink:href="#DejaVuSans-39" x="63.623047"/>
    </g>
   </g>
   <g id="text_55">
    <g id="patch_48">
     <path d="M 336.95244 17.289219 
C 338.620568 17.289219 340.220597 16.626465 341.400142 15.44692 
C 342.579686 14.267376 343.24244 12.667346 343.24244 10.999219 
C 343.24244 9.331091 342.579686 7.731061 341.400142 6.551517 
C 340.220597 5.371973 338.620568 4.709219 336.95244 4.709219 
C 335.284313 4.709219 333.684283 5.371973 332.504738 6.551517 
C 331.325194 7.731061 330.66244 9.331091 330.66244 10.999219 
C 330.66244 12.667346 331.325194 14.267376 332.504738 15.44692 
C 333.684283 16.626465 335.284313 17.289219 336.95244 17.289219 
z
" style="fill: #ffffff"/>
    </g>
    <!-- 40 -->
    <g style="fill: #ff0000" transform="translate(331.86244 13.206719)scale(0.08 -0.08)">
     <use xlink:href="#DejaVuSans-34"/>
     <use xlink:href="#DejaVuSans-30" x="63.623047"/>
    </g>
   </g>
   <g id="text_56">
    <g id="patch_49">
     <path d="M 336.95244 119.572324 
C 338.620568 119.572324 340.220597 118.90957 341.400142 117.730025 
C 342.579686 116.550481 343.24244 114.950451 343.24244 113.282324 
C 343.24244 111.614196 342.579686 110.014166 341.400142 108.834622 
C 340.220597 107.655078 338.620568 106.992324 336.95244 106.992324 
C 335.284313 106.992324 333.684283 107.655078 332.504738 108.834622 
C 331.325194 110.014166 330.66244 111.614196 330.66244 113.282324 
C 330.66244 114.950451 331.325194 116.550481 332.504738 117.730025 
C 333.684283 118.90957 335.284313 119.572324 336.95244 119.572324 
z
" style="fill: #ffffff"/>
    </g>
    <!-- 41 -->
    <g style="fill: #ff0000" transform="translate(331.86244 115.489824)scale(0.08 -0.08)">
     <use xlink:href="#DejaVuSans-34"/>
     <use xlink:href="#DejaVuSans-31" x="63.623047"/>
    </g>
   </g>
   <g id="text_57">
    <g id="patch_50">
     <path d="M 285.810888 17.289219 
C 287.479015 17.289219 289.079045 16.626465 290.258589 15.44692 
C 291.438133 14.267376 292.100888 12.667346 292.100888 10.999219 
C 292.100888 9.331091 291.438133 7.731061 290.258589 6.551517 
C 289.079045 5.371973 287.479015 4.709219 285.810888 4.709219 
C 284.14276 4.709219 282.54273 5.371973 281.363186 6.551517 
C 280.183642 7.731061 279.520888 9.331091 279.520888 10.999219 
C 279.520888 12.667346 280.183642 14.267376 281.363186 15.44692 
C 282.54273 16.626465 284.14276 17.289219 285.810888 17.289219 
z
" style="fill: #ffffff"/>
    </g>
    <!-- 42 -->
    <g style="fill: #ff0000" transform="translate(280.720888 13.206719)scale(0.08 -0.08)">
     <use xlink:href="#DejaVuSans-34"/>
     <use xlink:href="#DejaVuSans-32" x="63.623047"/>
    </g>
   </g>
   <g id="text_58">
    <g id="patch_51">
     <path d="M 336.95244 68.430771 
C 338.620568 68.430771 340.220597 67.768017 341.400142 66.588473 
C 342.579686 65.408929 343.24244 63.808899 343.24244 62.140771 
C 343.24244 60.472644 342.579686 58.872614 341.400142 57.69307 
C 340.220597 56.513525 338.620568 55.850771 336.95244 55.850771 
C 335.284313 55.850771 333.684283 56.513525 332.504738 57.69307 
C 331.325194 58.872614 330.66244 60.472644 330.66244 62.140771 
C 330.66244 63.808899 331.325194 65.408929 332.504738 66.588473 
C 333.684283 67.768017 335.284313 68.430771 336.95244 68.430771 
z
" style="fill: #ffffff"/>
    </g>
    <!-- 43 -->
    <g style="fill: #ff0000" transform="translate(331.86244 64.348271)scale(0.08 -0.08)">
     <use xlink:href="#DejaVuSans-34"/>
     <use xlink:href="#DejaVuSans-33" x="63.623047"/>
    </g>
   </g>
   <g id="text_59">
    <g id="patch_52">
     <path d="M 234.669335 17.289219 
C 236.337463 17.289219 237.937492 16.626465 239.117037 15.44692 
C 240.296581 14.267376 240.959335 12.667346 240.959335 10.999219 
C 240.959335 9.331091 240.296581 7.731061 239.117037 6.551517 
C 237.937492 5.371973 236.337463 4.709219 234.669335 4.709219 
C 233.001208 4.709219 231.401178 5.371973 230.221633 6.551517 
C 229.042089 7.731061 228.379335 9.331091 228.379335 10.999219 
C 228.379335 12.667346 229.042089 14.267376 230.221633 15.44692 
C 231.401178 16.626465 233.001208 17.289219 234.669335 17.289219 
z
" style="fill: #ffffff"/>
    </g>
    <!-- 44 -->
    <g style="fill: #ff0000" transform="translate(229.579335 13.206719)scale(0.08 -0.08)">
     <use xlink:href="#DejaVuSans-34"/>
     <use xlink:href="#DejaVuSans-34" x="63.623047"/>
    </g>
   </g>
   <g id="text_60">
    <g id="patch_53">
     <path d="M 234.669335 119.572324 
C 236.337463 119.572324 237.937492 118.90957 239.117037 117.730025 
C 240.296581 116.550481 240.959335 114.950451 240.959335 113.282324 
C 240.959335 111.614196 240.296581 110.014166 239.117037 108.834622 
C 237.937492 107.655078 236.337463 106.992324 234.669335 106.992324 
C 233.001208 106.992324 231.401178 107.655078 230.221633 108.834622 
C 229.042089 110.014166 228.379335 111.614196 228.379335 113.282324 
C 228.379335 114.950451 229.042089 116.550481 230.221633 117.730025 
C 231.401178 118.90957 233.001208 119.572324 234.669335 119.572324 
z
" style="fill: #ffffff"/>
    </g>
    <!-- 45 -->
    <g style="fill: #ff0000" transform="translate(229.579335 115.489824)scale(0.08 -0.08)">
     <use xlink:href="#DejaVuSans-34"/>
     <use xlink:href="#DejaVuSans-35" x="63.623047"/>
    </g>
   </g>
   <g id="text_61">
    <g id="patch_54">
     <path d="M 285.810888 119.572324 
C 287.479015 119.572324 289.079045 118.90957 290.258589 117.730025 
C 291.438133 116.550481 292.100888 114.950451 292.100888 113.282324 
C 292.100888 111.614196 291.438133 110.014166 290.258589 108.834622 
C 289.079045 107.655078 287.479015 106.992324 285.810888 106.992324 
C 284.14276 106.992324 282.54273 107.655078 281.363186 108.834622 
C 280.183642 110.014166 279.520888 111.614196 279.520888 113.282324 
C 279.520888 114.950451 280.183642 116.550481 281.363186 117.730025 
C 282.54273 118.90957 284.14276 119.572324 285.810888 119.572324 
z
" style="fill: #ffffff"/>
    </g>
    <!-- 46 -->
    <g style="fill: #ff0000" transform="translate(280.720888 115.489824)scale(0.08 -0.08)">
     <use xlink:href="#DejaVuSans-34"/>
     <use xlink:href="#DejaVuSans-36" x="63.623047"/>
    </g>
   </g>
   <g id="text_62">
    <g id="patch_55">
     <path d="M 285.810888 68.430771 
C 287.479015 68.430771 289.079045 67.768017 290.258589 66.588473 
C 291.438133 65.408929 292.100888 63.808899 292.100888 62.140771 
C 292.100888 60.472644 291.438133 58.872614 290.258589 57.69307 
C 289.079045 56.513525 287.479015 55.850771 285.810888 55.850771 
C 284.14276 55.850771 282.54273 56.513525 281.363186 57.69307 
C 280.183642 58.872614 279.520888 60.472644 279.520888 62.140771 
C 279.520888 63.808899 280.183642 65.408929 281.363186 66.588473 
C 282.54273 67.768017 284.14276 68.430771 285.810888 68.430771 
z
" style="fill: #ffffff"/>
    </g>
    <!-- 47 -->
    <g style="fill: #ff0000" transform="translate(280.720888 64.348271)scale(0.08 -0.08)">
     <use xlink:href="#DejaVuSans-34"/>
     <use xlink:href="#DejaVuSans-37" x="63.623047"/>
    </g>
   </g>
   <g id="text_63">
    <g id="patch_56">
     <path d="M 234.669335 68.430771 
C 236.337463 68.430771 237.937492 67.768017 239.117037 66.588473 
C 240.296581 65.408929 240.959335 63.808899 240.959335 62.140771 
C 240.959335 60.472644 240.296581 58.872614 239.117037 57.69307 
C 237.937492 56.513525 236.337463 55.850771 234.669335 55.850771 
C 233.001208 55.850771 231.401178 56.513525 230.221633 57.69307 
C 229.042089 58.872614 228.379335 60.472644 228.379335 62.140771 
C 228.379335 63.808899 229.042089 65.408929 230.221633 66.588473 
C 231.401178 67.768017 233.001208 68.430771 234.669335 68.430771 
z
" style="fill: #ffffff"/>
    </g>
    <!-- 48 -->
    <g style="fill: #ff0000" transform="translate(229.579335 64.348271)scale(0.08 -0.08)">
     <use xlink:href="#DejaVuSans-34"/>
     <use xlink:href="#DejaVuSans-38" x="63.623047"/>
    </g>
   </g>
   <g id="text_64">
    <g id="patch_57">
     <path d="M 96.227798 246.841361 
L 117.40311 246.841361 
L 117.40311 235.431049 
L 96.227798 235.431049 
z
" style="fill: #ffffff; stroke: #b7b7b7; stroke-linejoin: miter"/>
    </g>
    <!-- 0(1) -->
    <g style="fill: #22971f" transform="translate(97.577798 243.619643)scale(0.09 -0.09)">
     <defs>
      <path id="DejaVuSans-28" d="M 1984 4856 
Q 1566 4138 1362 3434 
Q 1159 2731 1159 2009 
Q 1159 1288 1364 580 
Q 1569 -128 1984 -844 
L 1484 -844 
Q 1016 -109 783 600 
Q 550 1309 550 2009 
Q 550 2706 781 3412 
Q 1013 4119 1484 4856 
L 1984 4856 
z
" transform="scale(0.015625)"/>
      <path id="DejaVuSans-29" d="M 513 4856 
L 1013 4856 
Q 1481 4119 1714 3412 
Q 1947 2706 1947 2009 
Q 1947 1309 1714 600 
Q 1481 -109 1013 -844 
L 513 -844 
Q 928 -128 1133 580 
Q 1338 1288 1338 2009 
Q 1338 2731 1133 3434 
Q 928 4138 513 4856 
z
" transform="scale(0.015625)"/>
     </defs>
     <use xlink:href="#DejaVuSans-30"/>
     <use xlink:href="#DejaVuSans-28" x="63.623047"/>
     <use xlink:href="#DejaVuSans-31" x="102.636719"/>
     <use xlink:href="#DejaVuSans-29" x="166.259766"/>
    </g>
   </g>
   <g id="text_65">
    <g id="patch_58">
     <path d="M 249.652455 246.841361 
L 270.827768 246.841361 
L 270.827768 235.431049 
L 249.652455 235.431049 
z
" style="fill: #ffffff; stroke: #b7b7b7; stroke-linejoin: miter"/>
    </g>
    <!-- 1(1) -->
    <g style="fill: #22971f" transform="translate(251.002455 243.619643)scale(0.09 -0.09)">
     <use xlink:href="#DejaVuSans-31"/>
     <use xlink:href="#DejaVuSans-28" x="63.623047"/>
     <use xlink:href="#DejaVuSans-31" x="102.636719"/>
     <use xlink:href="#DejaVuSans-29" x="166.259766"/>
    </g>
   </g>
   <g id="text_66">
    <g id="patch_59">
     <path d="M 96.227798 93.416704 
L 117.40311 93.416704 
L 117.40311 82.006391 
L 96.227798 82.006391 
z
" style="fill: #ffffff; stroke: #b7b7b7; stroke-linejoin: miter"/>
    </g>
    <!-- 2(1) -->
    <g style="fill: #22971f" transform="translate(97.577798 90.194985)scale(0.09 -0.09)">
     <use xlink:href="#DejaVuSans-32"/>
     <use xlink:href="#DejaVuSans-28" x="63.623047"/>
     <use xlink:href="#DejaVuSans-31" x="102.636719"/>
     <use xlink:href="#DejaVuSans-29" x="166.259766"/>
    </g>
   </g>
   <g id="text_67">
    <g id="patch_60">
     <path d="M 249.652455 93.416704 
L 270.827768 93.416704 
L 270.827768 82.006391 
L 249.652455 82.006391 
z
" style="fill: #ffffff; stroke: #b7b7b7; stroke-linejoin: miter"/>
    </g>
    <!-- 3(1) -->
    <g style="fill: #22971f" transform="translate(251.002455 90.194985)scale(0.09 -0.09)">
     <use xlink:href="#DejaVuSans-33"/>
     <use xlink:href="#DejaVuSans-28" x="63.623047"/>
     <use xlink:href="#DejaVuSans-31" x="102.636719"/>
     <use xlink:href="#DejaVuSans-29" x="166.259766"/>
    </g>
   </g>
  </g>
 </g>
</svg>
