<?xml version="1.0" encoding="utf-8" standalone="no"?>
<!DOCTYPE svg PUBLIC "-//W3C//DTD SVG 1.1//EN"
  "http://www.w3.org/Graphics/SVG/1.1/DTD/svg11.dtd">
<svg xmlns:xlink="http://www.w3.org/1999/xlink" width="352.104003pt" height="341.726659pt" viewBox="0 0 352.104003 341.726659" xmlns="http://www.w3.org/2000/svg" version="1.1">
 <metadata>
  <rdf:RDF xmlns:dc="http://purl.org/dc/elements/1.1/" xmlns:cc="http://creativecommons.org/ns#" xmlns:rdf="http://www.w3.org/1999/02/22-rdf-syntax-ns#">
   <cc:Work>
    <dc:type rdf:resource="http://purl.org/dc/dcmitype/StillImage"/>
    <dc:date>2022-06-09T16:38:48.242679</dc:date>
    <dc:format>image/svg+xml</dc:format>
    <dc:creator>
     <cc:Agent>
      <dc:title>Matplotlib v3.5.2, https://matplotlib.org/</dc:title>
     </cc:Agent>
    </dc:creator>
   </cc:Work>
  </rdf:RDF>
 </metadata>
 <defs>
  <style type="text/css">*{stroke-linejoin: round; stroke-linecap: butt}</style>
 </defs>
 <g id="figure_1">
  <g id="patch_1">
   <path d="M 0 341.726659 
L 352.104003 341.726659 
L 352.104003 0 
L 0 0 
z
" style="fill: #ffffff"/>
  </g>
  <g id="axes_1">
   <g id="patch_2">
    <path d="M 30.103125 317.848534 
L 336.95244 317.848534 
L 336.95244 10.999219 
L 30.103125 10.999219 
z
" style="fill: #ffffff"/>
   </g>
   <g id="patch_3">
    <path d="M 30.103125 164.423876 
C 30.103125 113.282324 30.103125 62.140771 30.103125 10.999219 
M 183.527783 10.999219 
C 234.669335 10.999219 285.810888 10.999219 336.95244 10.999219 
M 183.527783 10.999219 
C 183.527783 62.140771 183.527783 113.282324 183.527783 164.423876 
M 30.103125 164.423876 
C 81.244678 164.423876 132.38623 164.423876 183.527783 164.423876 
M 336.95244 317.848534 
C 285.810888 317.848534 234.669335 317.848534 183.527783 317.848534 
M 336.95244 10.999219 
C 336.95244 62.140771 336.95244 113.282324 336.95244 164.423876 
M 183.527783 317.848534 
C 132.38623 317.848534 81.244678 317.848534 30.103125 317.848534 
M 336.95244 164.423876 
C 336.95244 215.565429 336.95244 266.706981 336.95244 317.848534 
M 183.527783 164.423876 
C 234.669335 164.423876 285.810888 164.423876 336.95244 164.423876 
M 30.103125 317.848534 
C 30.103125 266.706981 30.103125 215.565429 30.103125 164.423876 
M 30.103125 10.999219 
C 81.244678 10.999219 132.38623 10.999219 183.527783 10.999219 
M 183.527783 164.423876 
C 183.527783 215.565429 183.527783 266.706981 183.527783 317.848534 
" style="fill: none; stroke: #2440cd; stroke-width: 2; stroke-linejoin: miter"/>
   </g>
   <g id="matplotlib.axis_1">
    <g id="xtick_1">
     <g id="line2d_1">
      <defs>
       <path id="m50e569159c" d="M 0 0 
L 0 3.5 
" style="stroke: #000000; stroke-width: 0.8"/>
      </defs>
      <g>
       <use xlink:href="#m50e569159c" x="30.103125" y="317.848534" style="stroke: #000000; stroke-width: 0.8"/>
      </g>
     </g>
     <g id="text_1">
      <!-- 0.0 -->
      <g transform="translate(22.151563 332.446971)scale(0.1 -0.1)">
       <defs>
        <path id="DejaVuSans-30" d="M 2034 4250 
Q 1547 4250 1301 3770 
Q 1056 3291 1056 2328 
Q 1056 1369 1301 889 
Q 1547 409 2034 409 
Q 2525 409 2770 889 
Q 3016 1369 3016 2328 
Q 3016 3291 2770 3770 
Q 2525 4250 2034 4250 
z
M 2034 4750 
Q 2819 4750 3233 4129 
Q 3647 3509 3647 2328 
Q 3647 1150 3233 529 
Q 2819 -91 2034 -91 
Q 1250 -91 836 529 
Q 422 1150 422 2328 
Q 422 3509 836 4129 
Q 1250 4750 2034 4750 
z
" transform="scale(0.015625)"/>
        <path id="DejaVuSans-2e" d="M 684 794 
L 1344 794 
L 1344 0 
L 684 0 
L 684 794 
z
" transform="scale(0.015625)"/>
       </defs>
       <use xlink:href="#DejaVuSans-30"/>
       <use xlink:href="#DejaVuSans-2e" x="63.623047"/>
       <use xlink:href="#DejaVuSans-30" x="95.410156"/>
      </g>
     </g>
    </g>
    <g id="xtick_2">
     <g id="line2d_2">
      <g>
       <use xlink:href="#m50e569159c" x="68.459289" y="317.848534" style="stroke: #000000; stroke-width: 0.8"/>
      </g>
     </g>
     <g id="text_2">
      <!-- 0.5 -->
      <g transform="translate(60.507727 332.446971)scale(0.1 -0.1)">
       <defs>
        <path id="DejaVuSans-35" d="M 691 4666 
L 3169 4666 
L 3169 4134 
L 1269 4134 
L 1269 2991 
Q 1406 3038 1543 3061 
Q 1681 3084 1819 3084 
Q 2600 3084 3056 2656 
Q 3513 2228 3513 1497 
Q 3513 744 3044 326 
Q 2575 -91 1722 -91 
Q 1428 -91 1123 -41 
Q 819 9 494 109 
L 494 744 
Q 775 591 1075 516 
Q 1375 441 1709 441 
Q 2250 441 2565 725 
Q 2881 1009 2881 1497 
Q 2881 1984 2565 2268 
Q 2250 2553 1709 2553 
Q 1456 2553 1204 2497 
Q 953 2441 691 2322 
L 691 4666 
z
" transform="scale(0.015625)"/>
       </defs>
       <use xlink:href="#DejaVuSans-30"/>
       <use xlink:href="#DejaVuSans-2e" x="63.623047"/>
       <use xlink:href="#DejaVuSans-35" x="95.410156"/>
      </g>
     </g>
    </g>
    <g id="xtick_3">
     <g id="line2d_3">
      <g>
       <use xlink:href="#m50e569159c" x="106.815454" y="317.848534" style="stroke: #000000; stroke-width: 0.8"/>
      </g>
     </g>
     <g id="text_3">
      <!-- 1.0 -->
      <g transform="translate(98.863891 332.446971)scale(0.1 -0.1)">
       <defs>
        <path id="DejaVuSans-31" d="M 794 531 
L 1825 531 
L 1825 4091 
L 703 3866 
L 703 4441 
L 1819 4666 
L 2450 4666 
L 2450 531 
L 3481 531 
L 3481 0 
L 794 0 
L 794 531 
z
" transform="scale(0.015625)"/>
       </defs>
       <use xlink:href="#DejaVuSans-31"/>
       <use xlink:href="#DejaVuSans-2e" x="63.623047"/>
       <use xlink:href="#DejaVuSans-30" x="95.410156"/>
      </g>
     </g>
    </g>
    <g id="xtick_4">
     <g id="line2d_4">
      <g>
       <use xlink:href="#m50e569159c" x="145.171618" y="317.848534" style="stroke: #000000; stroke-width: 0.8"/>
      </g>
     </g>
     <g id="text_4">
      <!-- 1.5 -->
      <g transform="translate(137.220056 332.446971)scale(0.1 -0.1)">
       <use xlink:href="#DejaVuSans-31"/>
       <use xlink:href="#DejaVuSans-2e" x="63.623047"/>
       <use xlink:href="#DejaVuSans-35" x="95.410156"/>
      </g>
     </g>
    </g>
    <g id="xtick_5">
     <g id="line2d_5">
      <g>
       <use xlink:href="#m50e569159c" x="183.527783" y="317.848534" style="stroke: #000000; stroke-width: 0.8"/>
      </g>
     </g>
     <g id="text_5">
      <!-- 2.0 -->
      <g transform="translate(175.57622 332.446971)scale(0.1 -0.1)">
       <defs>
        <path id="DejaVuSans-32" d="M 1228 531 
L 3431 531 
L 3431 0 
L 469 0 
L 469 531 
Q 828 903 1448 1529 
Q 2069 2156 2228 2338 
Q 2531 2678 2651 2914 
Q 2772 3150 2772 3378 
Q 2772 3750 2511 3984 
Q 2250 4219 1831 4219 
Q 1534 4219 1204 4116 
Q 875 4013 500 3803 
L 500 4441 
Q 881 4594 1212 4672 
Q 1544 4750 1819 4750 
Q 2544 4750 2975 4387 
Q 3406 4025 3406 3419 
Q 3406 3131 3298 2873 
Q 3191 2616 2906 2266 
Q 2828 2175 2409 1742 
Q 1991 1309 1228 531 
z
" transform="scale(0.015625)"/>
       </defs>
       <use xlink:href="#DejaVuSans-32"/>
       <use xlink:href="#DejaVuSans-2e" x="63.623047"/>
       <use xlink:href="#DejaVuSans-30" x="95.410156"/>
      </g>
     </g>
    </g>
    <g id="xtick_6">
     <g id="line2d_6">
      <g>
       <use xlink:href="#m50e569159c" x="221.883947" y="317.848534" style="stroke: #000000; stroke-width: 0.8"/>
      </g>
     </g>
     <g id="text_6">
      <!-- 2.5 -->
      <g transform="translate(213.932384 332.446971)scale(0.1 -0.1)">
       <use xlink:href="#DejaVuSans-32"/>
       <use xlink:href="#DejaVuSans-2e" x="63.623047"/>
       <use xlink:href="#DejaVuSans-35" x="95.410156"/>
      </g>
     </g>
    </g>
    <g id="xtick_7">
     <g id="line2d_7">
      <g>
       <use xlink:href="#m50e569159c" x="260.240111" y="317.848534" style="stroke: #000000; stroke-width: 0.8"/>
      </g>
     </g>
     <g id="text_7">
      <!-- 3.0 -->
      <g transform="translate(252.288549 332.446971)scale(0.1 -0.1)">
       <defs>
        <path id="DejaVuSans-33" d="M 2597 2516 
Q 3050 2419 3304 2112 
Q 3559 1806 3559 1356 
Q 3559 666 3084 287 
Q 2609 -91 1734 -91 
Q 1441 -91 1130 -33 
Q 819 25 488 141 
L 488 750 
Q 750 597 1062 519 
Q 1375 441 1716 441 
Q 2309 441 2620 675 
Q 2931 909 2931 1356 
Q 2931 1769 2642 2001 
Q 2353 2234 1838 2234 
L 1294 2234 
L 1294 2753 
L 1863 2753 
Q 2328 2753 2575 2939 
Q 2822 3125 2822 3475 
Q 2822 3834 2567 4026 
Q 2313 4219 1838 4219 
Q 1578 4219 1281 4162 
Q 984 4106 628 3988 
L 628 4550 
Q 988 4650 1302 4700 
Q 1616 4750 1894 4750 
Q 2613 4750 3031 4423 
Q 3450 4097 3450 3541 
Q 3450 3153 3228 2886 
Q 3006 2619 2597 2516 
z
" transform="scale(0.015625)"/>
       </defs>
       <use xlink:href="#DejaVuSans-33"/>
       <use xlink:href="#DejaVuSans-2e" x="63.623047"/>
       <use xlink:href="#DejaVuSans-30" x="95.410156"/>
      </g>
     </g>
    </g>
    <g id="xtick_8">
     <g id="line2d_8">
      <g>
       <use xlink:href="#m50e569159c" x="298.596276" y="317.848534" style="stroke: #000000; stroke-width: 0.8"/>
      </g>
     </g>
     <g id="text_8">
      <!-- 3.5 -->
      <g transform="translate(290.644713 332.446971)scale(0.1 -0.1)">
       <use xlink:href="#DejaVuSans-33"/>
       <use xlink:href="#DejaVuSans-2e" x="63.623047"/>
       <use xlink:href="#DejaVuSans-35" x="95.410156"/>
      </g>
     </g>
    </g>
    <g id="xtick_9">
     <g id="line2d_9">
      <g>
       <use xlink:href="#m50e569159c" x="336.95244" y="317.848534" style="stroke: #000000; stroke-width: 0.8"/>
      </g>
     </g>
     <g id="text_9">
      <!-- 4.0 -->
      <g transform="translate(329.000878 332.446971)scale(0.1 -0.1)">
       <defs>
        <path id="DejaVuSans-34" d="M 2419 4116 
L 825 1625 
L 2419 1625 
L 2419 4116 
z
M 2253 4666 
L 3047 4666 
L 3047 1625 
L 3713 1625 
L 3713 1100 
L 3047 1100 
L 3047 0 
L 2419 0 
L 2419 1100 
L 313 1100 
L 313 1709 
L 2253 4666 
z
" transform="scale(0.015625)"/>
       </defs>
       <use xlink:href="#DejaVuSans-34"/>
       <use xlink:href="#DejaVuSans-2e" x="63.623047"/>
       <use xlink:href="#DejaVuSans-30" x="95.410156"/>
      </g>
     </g>
    </g>
   </g>
   <g id="matplotlib.axis_2">
    <g id="ytick_1">
     <g id="line2d_10">
      <defs>
       <path id="me2e0b6a404" d="M 0 0 
L -3.5 0 
" style="stroke: #000000; stroke-width: 0.8"/>
      </defs>
      <g>
       <use xlink:href="#me2e0b6a404" x="30.103125" y="317.848534" style="stroke: #000000; stroke-width: 0.8"/>
      </g>
     </g>
     <g id="text_10">
      <!-- 0.0 -->
      <g transform="translate(7.2 321.647753)scale(0.1 -0.1)">
       <use xlink:href="#DejaVuSans-30"/>
       <use xlink:href="#DejaVuSans-2e" x="63.623047"/>
       <use xlink:href="#DejaVuSans-30" x="95.410156"/>
      </g>
     </g>
    </g>
    <g id="ytick_2">
     <g id="line2d_11">
      <g>
       <use xlink:href="#me2e0b6a404" x="30.103125" y="279.492369" style="stroke: #000000; stroke-width: 0.8"/>
      </g>
     </g>
     <g id="text_11">
      <!-- 0.5 -->
      <g transform="translate(7.2 283.291588)scale(0.1 -0.1)">
       <use xlink:href="#DejaVuSans-30"/>
       <use xlink:href="#DejaVuSans-2e" x="63.623047"/>
       <use xlink:href="#DejaVuSans-35" x="95.410156"/>
      </g>
     </g>
    </g>
    <g id="ytick_3">
     <g id="line2d_12">
      <g>
       <use xlink:href="#me2e0b6a404" x="30.103125" y="241.136205" style="stroke: #000000; stroke-width: 0.8"/>
      </g>
     </g>
     <g id="text_12">
      <!-- 1.0 -->
      <g transform="translate(7.2 244.935424)scale(0.1 -0.1)">
       <use xlink:href="#DejaVuSans-31"/>
       <use xlink:href="#DejaVuSans-2e" x="63.623047"/>
       <use xlink:href="#DejaVuSans-30" x="95.410156"/>
      </g>
     </g>
    </g>
    <g id="ytick_4">
     <g id="line2d_13">
      <g>
       <use xlink:href="#me2e0b6a404" x="30.103125" y="202.780041" style="stroke: #000000; stroke-width: 0.8"/>
      </g>
     </g>
     <g id="text_13">
      <!-- 1.5 -->
      <g transform="translate(7.2 206.579259)scale(0.1 -0.1)">
       <use xlink:href="#DejaVuSans-31"/>
       <use xlink:href="#DejaVuSans-2e" x="63.623047"/>
       <use xlink:href="#DejaVuSans-35" x="95.410156"/>
      </g>
     </g>
    </g>
    <g id="ytick_5">
     <g id="line2d_14">
      <g>
       <use xlink:href="#me2e0b6a404" x="30.103125" y="164.423876" style="stroke: #000000; stroke-width: 0.8"/>
      </g>
     </g>
     <g id="text_14">
      <!-- 2.0 -->
      <g transform="translate(7.2 168.223095)scale(0.1 -0.1)">
       <use xlink:href="#DejaVuSans-32"/>
       <use xlink:href="#DejaVuSans-2e" x="63.623047"/>
       <use xlink:href="#DejaVuSans-30" x="95.410156"/>
      </g>
     </g>
    </g>
    <g id="ytick_6">
     <g id="line2d_15">
      <g>
       <use xlink:href="#me2e0b6a404" x="30.103125" y="126.067712" style="stroke: #000000; stroke-width: 0.8"/>
      </g>
     </g>
     <g id="text_15">
      <!-- 2.5 -->
      <g transform="translate(7.2 129.866931)scale(0.1 -0.1)">
       <use xlink:href="#DejaVuSans-32"/>
       <use xlink:href="#DejaVuSans-2e" x="63.623047"/>
       <use xlink:href="#DejaVuSans-35" x="95.410156"/>
      </g>
     </g>
    </g>
    <g id="ytick_7">
     <g id="line2d_16">
      <g>
       <use xlink:href="#me2e0b6a404" x="30.103125" y="87.711548" style="stroke: #000000; stroke-width: 0.8"/>
      </g>
     </g>
     <g id="text_16">
      <!-- 3.0 -->
      <g transform="translate(7.2 91.510766)scale(0.1 -0.1)">
       <use xlink:href="#DejaVuSans-33"/>
       <use xlink:href="#DejaVuSans-2e" x="63.623047"/>
       <use xlink:href="#DejaVuSans-30" x="95.410156"/>
      </g>
     </g>
    </g>
    <g id="ytick_8">
     <g id="line2d_17">
      <g>
       <use xlink:href="#me2e0b6a404" x="30.103125" y="49.355383" style="stroke: #000000; stroke-width: 0.8"/>
      </g>
     </g>
     <g id="text_17">
      <!-- 3.5 -->
      <g transform="translate(7.2 53.154602)scale(0.1 -0.1)">
       <use xlink:href="#DejaVuSans-33"/>
       <use xlink:href="#DejaVuSans-2e" x="63.623047"/>
       <use xlink:href="#DejaVuSans-35" x="95.410156"/>
      </g>
     </g>
    </g>
    <g id="ytick_9">
     <g id="line2d_18">
      <g>
       <use xlink:href="#me2e0b6a404" x="30.103125" y="10.999219" style="stroke: #000000; stroke-width: 0.8"/>
      </g>
     </g>
     <g id="text_18">
      <!-- 4.0 -->
      <g transform="translate(7.2 14.798438)scale(0.1 -0.1)">
       <use xlink:href="#DejaVuSans-34"/>
       <use xlink:href="#DejaVuSans-2e" x="63.623047"/>
       <use xlink:href="#DejaVuSans-30" x="95.410156"/>
      </g>
     </g>
    </g>
   </g>
   <g id="patch_4">
    <path d="M 30.103125 317.848534 
L 30.103125 10.999219 
" style="fill: none; stroke: #000000; stroke-width: 0.8; stroke-linejoin: miter; stroke-linecap: square"/>
   </g>
   <g id="patch_5">
    <path d="M 336.95244 317.848534 
L 336.95244 10.999219 
" style="fill: none; stroke: #000000; stroke-width: 0.8; stroke-linejoin: miter; stroke-linecap: square"/>
   </g>
   <g id="patch_6">
    <path d="M 30.103125 317.848534 
L 336.95244 317.848534 
" style="fill: none; stroke: #000000; stroke-width: 0.8; stroke-linejoin: miter; stroke-linecap: square"/>
   </g>
   <g id="patch_7">
    <path d="M 30.103125 10.999219 
L 336.95244 10.999219 
" style="fill: none; stroke: #000000; stroke-width: 0.8; stroke-linejoin: miter; stroke-linecap: square"/>
   </g>
   <g id="text_19">
    <g id="patch_8">
     <path d="M 30.103125 322.919784 
C 31.448036 322.919784 32.738044 322.385445 33.68904 321.434449 
C 34.640036 320.483453 35.174375 319.193445 35.174375 317.848534 
C 35.174375 316.503623 34.640036 315.213614 33.68904 314.262619 
C 32.738044 313.311623 31.448036 312.777284 30.103125 312.777284 
C 28.758214 312.777284 27.468206 313.311623 26.51721 314.262619 
C 25.566214 315.213614 25.031875 316.503623 25.031875 317.848534 
C 25.031875 319.193445 25.566214 320.483453 26.51721 321.434449 
C 27.468206 322.385445 28.758214 322.919784 30.103125 322.919784 
z
" style="fill: #ffffff"/>
    </g>
    <!-- 0 -->
    <g style="fill: #ff0000" transform="translate(27.558125 320.056034)scale(0.08 -0.08)">
     <use xlink:href="#DejaVuSans-30"/>
    </g>
   </g>
   <g id="text_20">
    <g id="patch_9">
     <path d="M 183.527783 322.919784 
C 184.872694 322.919784 186.162702 322.385445 187.113698 321.434449 
C 188.064694 320.483453 188.599033 319.193445 188.599033 317.848534 
C 188.599033 316.503623 188.064694 315.213614 187.113698 314.262619 
C 186.162702 313.311623 184.872694 312.777284 183.527783 312.777284 
C 182.182871 312.777284 180.892863 313.311623 179.941867 314.262619 
C 178.990871 315.213614 178.456533 316.503623 178.456533 317.848534 
C 178.456533 319.193445 178.990871 320.483453 179.941867 321.434449 
C 180.892863 322.385445 182.182871 322.919784 183.527783 322.919784 
z
" style="fill: #ffffff"/>
    </g>
    <!-- 1 -->
    <g style="fill: #ff0000" transform="translate(180.982783 320.056034)scale(0.08 -0.08)">
     <use xlink:href="#DejaVuSans-31"/>
    </g>
   </g>
   <g id="text_21">
    <g id="patch_10">
     <path d="M 183.527783 169.495126 
C 184.872694 169.495126 186.162702 168.960787 187.113698 168.009792 
C 188.064694 167.058796 188.599033 165.768788 188.599033 164.423876 
C 188.599033 163.078965 188.064694 161.788957 187.113698 160.837961 
C 186.162702 159.886965 184.872694 159.352626 183.527783 159.352626 
C 182.182871 159.352626 180.892863 159.886965 179.941867 160.837961 
C 178.990871 161.788957 178.456533 163.078965 178.456533 164.423876 
C 178.456533 165.768788 178.990871 167.058796 179.941867 168.009792 
C 180.892863 168.960787 182.182871 169.495126 183.527783 169.495126 
z
" style="fill: #ffffff"/>
    </g>
    <!-- 2 -->
    <g style="fill: #ff0000" transform="translate(180.982783 166.631376)scale(0.08 -0.08)">
     <use xlink:href="#DejaVuSans-32"/>
    </g>
   </g>
   <g id="text_22">
    <g id="patch_11">
     <path d="M 30.103125 169.495126 
C 31.448036 169.495126 32.738044 168.960787 33.68904 168.009792 
C 34.640036 167.058796 35.174375 165.768788 35.174375 164.423876 
C 35.174375 163.078965 34.640036 161.788957 33.68904 160.837961 
C 32.738044 159.886965 31.448036 159.352626 30.103125 159.352626 
C 28.758214 159.352626 27.468206 159.886965 26.51721 160.837961 
C 25.566214 161.788957 25.031875 163.078965 25.031875 164.423876 
C 25.031875 165.768788 25.566214 167.058796 26.51721 168.009792 
C 27.468206 168.960787 28.758214 169.495126 30.103125 169.495126 
z
" style="fill: #ffffff"/>
    </g>
    <!-- 3 -->
    <g style="fill: #ff0000" transform="translate(27.558125 166.631376)scale(0.08 -0.08)">
     <use xlink:href="#DejaVuSans-33"/>
    </g>
   </g>
   <g id="text_23">
    <g id="patch_12">
     <path d="M 68.459289 322.919784 
C 69.804201 322.919784 71.094209 322.385445 72.045205 321.434449 
C 72.9962 320.483453 73.530539 319.193445 73.530539 317.848534 
C 73.530539 316.503623 72.9962 315.213614 72.045205 314.262619 
C 71.094209 313.311623 69.804201 312.777284 68.459289 312.777284 
C 67.114378 312.777284 65.82437 313.311623 64.873374 314.262619 
C 63.922378 315.213614 63.388039 316.503623 63.388039 317.848534 
C 63.388039 319.193445 63.922378 320.483453 64.873374 321.434449 
C 65.82437 322.385445 67.114378 322.919784 68.459289 322.919784 
z
" style="fill: #ffffff"/>
    </g>
    <!-- 4 -->
    <g style="fill: #ff0000" transform="translate(65.914289 320.056034)scale(0.08 -0.08)">
     <use xlink:href="#DejaVuSans-34"/>
    </g>
   </g>
   <g id="text_24">
    <g id="patch_13">
     <path d="M 183.527783 284.563619 
C 184.872694 284.563619 186.162702 284.029281 187.113698 283.078285 
C 188.064694 282.127289 188.599033 280.837281 188.599033 279.492369 
C 188.599033 278.147458 188.064694 276.85745 187.113698 275.906454 
C 186.162702 274.955458 184.872694 274.421119 183.527783 274.421119 
C 182.182871 274.421119 180.892863 274.955458 179.941867 275.906454 
C 178.990871 276.85745 178.456533 278.147458 178.456533 279.492369 
C 178.456533 280.837281 178.990871 282.127289 179.941867 283.078285 
C 180.892863 284.029281 182.182871 284.563619 183.527783 284.563619 
z
" style="fill: #ffffff"/>
    </g>
    <!-- 5 -->
    <g style="fill: #ff0000" transform="translate(180.982783 281.699869)scale(0.08 -0.08)">
     <use xlink:href="#DejaVuSans-35"/>
    </g>
   </g>
   <g id="text_25">
    <g id="patch_14">
     <path d="M 145.171618 169.495126 
C 146.516529 169.495126 147.806538 168.960787 148.757533 168.009792 
C 149.708529 167.058796 150.242868 165.768788 150.242868 164.423876 
C 150.242868 163.078965 149.708529 161.788957 148.757533 160.837961 
C 147.806538 159.886965 146.516529 159.352626 145.171618 159.352626 
C 143.826707 159.352626 142.536699 159.886965 141.585703 160.837961 
C 140.634707 161.788957 140.100368 163.078965 140.100368 164.423876 
C 140.100368 165.768788 140.634707 167.058796 141.585703 168.009792 
C 142.536699 168.960787 143.826707 169.495126 145.171618 169.495126 
z
" style="fill: #ffffff"/>
    </g>
    <!-- 6 -->
    <g style="fill: #ff0000" transform="translate(142.626618 166.631376)scale(0.08 -0.08)">
     <defs>
      <path id="DejaVuSans-36" d="M 2113 2584 
Q 1688 2584 1439 2293 
Q 1191 2003 1191 1497 
Q 1191 994 1439 701 
Q 1688 409 2113 409 
Q 2538 409 2786 701 
Q 3034 994 3034 1497 
Q 3034 2003 2786 2293 
Q 2538 2584 2113 2584 
z
M 3366 4563 
L 3366 3988 
Q 3128 4100 2886 4159 
Q 2644 4219 2406 4219 
Q 1781 4219 1451 3797 
Q 1122 3375 1075 2522 
Q 1259 2794 1537 2939 
Q 1816 3084 2150 3084 
Q 2853 3084 3261 2657 
Q 3669 2231 3669 1497 
Q 3669 778 3244 343 
Q 2819 -91 2113 -91 
Q 1303 -91 875 529 
Q 447 1150 447 2328 
Q 447 3434 972 4092 
Q 1497 4750 2381 4750 
Q 2619 4750 2861 4703 
Q 3103 4656 3366 4563 
z
" transform="scale(0.015625)"/>
     </defs>
     <use xlink:href="#DejaVuSans-36"/>
    </g>
   </g>
   <g id="text_26">
    <g id="patch_15">
     <path d="M 30.103125 207.851291 
C 31.448036 207.851291 32.738044 207.316952 33.68904 206.365956 
C 34.640036 205.41496 35.174375 204.124952 35.174375 202.780041 
C 35.174375 201.435129 34.640036 200.145121 33.68904 199.194125 
C 32.738044 198.24313 31.448036 197.708791 30.103125 197.708791 
C 28.758214 197.708791 27.468206 198.24313 26.51721 199.194125 
C 25.566214 200.145121 25.031875 201.435129 25.031875 202.780041 
C 25.031875 204.124952 25.566214 205.41496 26.51721 206.365956 
C 27.468206 207.316952 28.758214 207.851291 30.103125 207.851291 
z
" style="fill: #ffffff"/>
    </g>
    <!-- 7 -->
    <g style="fill: #ff0000" transform="translate(27.558125 204.987541)scale(0.08 -0.08)">
     <defs>
      <path id="DejaVuSans-37" d="M 525 4666 
L 3525 4666 
L 3525 4397 
L 1831 0 
L 1172 0 
L 2766 4134 
L 525 4134 
L 525 4666 
z
" transform="scale(0.015625)"/>
     </defs>
     <use xlink:href="#DejaVuSans-37"/>
    </g>
   </g>
   <g id="text_27">
    <g id="patch_16">
     <path d="M 106.815454 322.919784 
C 108.160365 322.919784 109.450373 322.385445 110.401369 321.434449 
C 111.352365 320.483453 111.886704 319.193445 111.886704 317.848534 
C 111.886704 316.503623 111.352365 315.213614 110.401369 314.262619 
C 109.450373 313.311623 108.160365 312.777284 106.815454 312.777284 
C 105.470543 312.777284 104.180534 313.311623 103.229539 314.262619 
C 102.278543 315.213614 101.744204 316.503623 101.744204 317.848534 
C 101.744204 319.193445 102.278543 320.483453 103.229539 321.434449 
C 104.180534 322.385445 105.470543 322.919784 106.815454 322.919784 
z
" style="fill: #ffffff"/>
    </g>
    <!-- 8 -->
    <g style="fill: #ff0000" transform="translate(104.270454 320.056034)scale(0.08 -0.08)">
     <defs>
      <path id="DejaVuSans-38" d="M 2034 2216 
Q 1584 2216 1326 1975 
Q 1069 1734 1069 1313 
Q 1069 891 1326 650 
Q 1584 409 2034 409 
Q 2484 409 2743 651 
Q 3003 894 3003 1313 
Q 3003 1734 2745 1975 
Q 2488 2216 2034 2216 
z
M 1403 2484 
Q 997 2584 770 2862 
Q 544 3141 544 3541 
Q 544 4100 942 4425 
Q 1341 4750 2034 4750 
Q 2731 4750 3128 4425 
Q 3525 4100 3525 3541 
Q 3525 3141 3298 2862 
Q 3072 2584 2669 2484 
Q 3125 2378 3379 2068 
Q 3634 1759 3634 1313 
Q 3634 634 3220 271 
Q 2806 -91 2034 -91 
Q 1263 -91 848 271 
Q 434 634 434 1313 
Q 434 1759 690 2068 
Q 947 2378 1403 2484 
z
M 1172 3481 
Q 1172 3119 1398 2916 
Q 1625 2713 2034 2713 
Q 2441 2713 2670 2916 
Q 2900 3119 2900 3481 
Q 2900 3844 2670 4047 
Q 2441 4250 2034 4250 
Q 1625 4250 1398 4047 
Q 1172 3844 1172 3481 
z
" transform="scale(0.015625)"/>
     </defs>
     <use xlink:href="#DejaVuSans-38"/>
    </g>
   </g>
   <g id="text_28">
    <g id="patch_17">
     <path d="M 183.527783 246.207455 
C 184.872694 246.207455 186.162702 245.673116 187.113698 244.72212 
C 188.064694 243.771124 188.599033 242.481116 188.599033 241.136205 
C 188.599033 239.791294 188.064694 238.501286 187.113698 237.55029 
C 186.162702 236.599294 184.872694 236.064955 183.527783 236.064955 
C 182.182871 236.064955 180.892863 236.599294 179.941867 237.55029 
C 178.990871 238.501286 178.456533 239.791294 178.456533 241.136205 
C 178.456533 242.481116 178.990871 243.771124 179.941867 244.72212 
C 180.892863 245.673116 182.182871 246.207455 183.527783 246.207455 
z
" style="fill: #ffffff"/>
    </g>
    <!-- 9 -->
    <g style="fill: #ff0000" transform="translate(180.982783 243.343705)scale(0.08 -0.08)">
     <defs>
      <path id="DejaVuSans-39" d="M 703 97 
L 703 672 
Q 941 559 1184 500 
Q 1428 441 1663 441 
Q 2288 441 2617 861 
Q 2947 1281 2994 2138 
Q 2813 1869 2534 1725 
Q 2256 1581 1919 1581 
Q 1219 1581 811 2004 
Q 403 2428 403 3163 
Q 403 3881 828 4315 
Q 1253 4750 1959 4750 
Q 2769 4750 3195 4129 
Q 3622 3509 3622 2328 
Q 3622 1225 3098 567 
Q 2575 -91 1691 -91 
Q 1453 -91 1209 -44 
Q 966 3 703 97 
z
M 1959 2075 
Q 2384 2075 2632 2365 
Q 2881 2656 2881 3163 
Q 2881 3666 2632 3958 
Q 2384 4250 1959 4250 
Q 1534 4250 1286 3958 
Q 1038 3666 1038 3163 
Q 1038 2656 1286 2365 
Q 1534 2075 1959 2075 
z
" transform="scale(0.015625)"/>
     </defs>
     <use xlink:href="#DejaVuSans-39"/>
    </g>
   </g>
   <g id="text_29">
    <g id="patch_18">
     <path d="M 106.815454 170.713876 
C 108.483581 170.713876 110.083611 170.051122 111.263155 168.871578 
C 112.4427 167.692034 113.105454 166.092004 113.105454 164.423876 
C 113.105454 162.755749 112.4427 161.155719 111.263155 159.976175 
C 110.083611 158.79663 108.483581 158.133876 106.815454 158.133876 
C 105.147326 158.133876 103.547296 158.79663 102.367752 159.976175 
C 101.188208 161.155719 100.525454 162.755749 100.525454 164.423876 
C 100.525454 166.092004 101.188208 167.692034 102.367752 168.871578 
C 103.547296 170.051122 105.147326 170.713876 106.815454 170.713876 
z
" style="fill: #ffffff"/>
    </g>
    <!-- 10 -->
    <g style="fill: #ff0000" transform="translate(101.725454 166.631376)scale(0.08 -0.08)">
     <use xlink:href="#DejaVuSans-31"/>
     <use xlink:href="#DejaVuSans-30" x="63.623047"/>
    </g>
   </g>
   <g id="text_30">
    <g id="patch_19">
     <path d="M 30.103125 247.426205 
C 31.771252 247.426205 33.371282 246.763451 34.550827 245.583907 
C 35.730371 244.404362 36.393125 242.804333 36.393125 241.136205 
C 36.393125 239.468078 35.730371 237.868048 34.550827 236.688503 
C 33.371282 235.508959 31.771252 234.846205 30.103125 234.846205 
C 28.434998 234.846205 26.834968 235.508959 25.655423 236.688503 
C 24.475879 237.868048 23.813125 239.468078 23.813125 241.136205 
C 23.813125 242.804333 24.475879 244.404362 25.655423 245.583907 
C 26.834968 246.763451 28.434998 247.426205 30.103125 247.426205 
z
" style="fill: #ffffff"/>
    </g>
    <!-- 11 -->
    <g style="fill: #ff0000" transform="translate(25.013125 243.343705)scale(0.08 -0.08)">
     <use xlink:href="#DejaVuSans-31"/>
     <use xlink:href="#DejaVuSans-31" x="63.623047"/>
    </g>
   </g>
   <g id="text_31">
    <g id="patch_20">
     <path d="M 145.171618 324.138534 
C 146.839746 324.138534 148.439776 323.47578 149.61932 322.296235 
C 150.798864 321.116691 151.461618 319.516661 151.461618 317.848534 
C 151.461618 316.180406 150.798864 314.580376 149.61932 313.400832 
C 148.439776 312.221288 146.839746 311.558534 145.171618 311.558534 
C 143.503491 311.558534 141.903461 312.221288 140.723916 313.400832 
C 139.544372 314.580376 138.881618 316.180406 138.881618 317.848534 
C 138.881618 319.516661 139.544372 321.116691 140.723916 322.296235 
C 141.903461 323.47578 143.503491 324.138534 145.171618 324.138534 
z
" style="fill: #ffffff"/>
    </g>
    <!-- 12 -->
    <g style="fill: #ff0000" transform="translate(140.081618 320.056034)scale(0.08 -0.08)">
     <use xlink:href="#DejaVuSans-31"/>
     <use xlink:href="#DejaVuSans-32" x="63.623047"/>
    </g>
   </g>
   <g id="text_32">
    <g id="patch_21">
     <path d="M 183.527783 209.070041 
C 185.19591 209.070041 186.79594 208.407287 187.975484 207.227742 
C 189.155028 206.048198 189.817783 204.448168 189.817783 202.780041 
C 189.817783 201.111913 189.155028 199.511883 187.975484 198.332339 
C 186.79594 197.152795 185.19591 196.490041 183.527783 196.490041 
C 181.859655 196.490041 180.259625 197.152795 179.080081 198.332339 
C 177.900537 199.511883 177.237783 201.111913 177.237783 202.780041 
C 177.237783 204.448168 177.900537 206.048198 179.080081 207.227742 
C 180.259625 208.407287 181.859655 209.070041 183.527783 209.070041 
z
" style="fill: #ffffff"/>
    </g>
    <!-- 13 -->
    <g style="fill: #ff0000" transform="translate(178.437783 204.987541)scale(0.08 -0.08)">
     <use xlink:href="#DejaVuSans-31"/>
     <use xlink:href="#DejaVuSans-33" x="63.623047"/>
    </g>
   </g>
   <g id="text_33">
    <g id="patch_22">
     <path d="M 68.459289 170.713876 
C 70.127417 170.713876 71.727447 170.051122 72.906991 168.871578 
C 74.086535 167.692034 74.749289 166.092004 74.749289 164.423876 
C 74.749289 162.755749 74.086535 161.155719 72.906991 159.976175 
C 71.727447 158.79663 70.127417 158.133876 68.459289 158.133876 
C 66.791162 158.133876 65.191132 158.79663 64.011588 159.976175 
C 62.832043 161.155719 62.169289 162.755749 62.169289 164.423876 
C 62.169289 166.092004 62.832043 167.692034 64.011588 168.871578 
C 65.191132 170.051122 66.791162 170.713876 68.459289 170.713876 
z
" style="fill: #ffffff"/>
    </g>
    <!-- 14 -->
    <g style="fill: #ff0000" transform="translate(63.369289 166.631376)scale(0.08 -0.08)">
     <use xlink:href="#DejaVuSans-31"/>
     <use xlink:href="#DejaVuSans-34" x="63.623047"/>
    </g>
   </g>
   <g id="text_34">
    <g id="patch_23">
     <path d="M 30.103125 285.782369 
C 31.771252 285.782369 33.371282 285.119615 34.550827 283.940071 
C 35.730371 282.760527 36.393125 281.160497 36.393125 279.492369 
C 36.393125 277.824242 35.730371 276.224212 34.550827 275.044668 
C 33.371282 273.865124 31.771252 273.202369 30.103125 273.202369 
C 28.434998 273.202369 26.834968 273.865124 25.655423 275.044668 
C 24.475879 276.224212 23.813125 277.824242 23.813125 279.492369 
C 23.813125 281.160497 24.475879 282.760527 25.655423 283.940071 
C 26.834968 285.119615 28.434998 285.782369 30.103125 285.782369 
z
" style="fill: #ffffff"/>
    </g>
    <!-- 15 -->
    <g style="fill: #ff0000" transform="translate(25.013125 281.699869)scale(0.08 -0.08)">
     <use xlink:href="#DejaVuSans-31"/>
     <use xlink:href="#DejaVuSans-35" x="63.623047"/>
    </g>
   </g>
   <g id="text_35">
    <g id="patch_24">
     <path d="M 106.815454 247.426205 
C 108.483581 247.426205 110.083611 246.763451 111.263155 245.583907 
C 112.4427 244.404362 113.105454 242.804333 113.105454 241.136205 
C 113.105454 239.468078 112.4427 237.868048 111.263155 236.688503 
C 110.083611 235.508959 108.483581 234.846205 106.815454 234.846205 
C 105.147326 234.846205 103.547296 235.508959 102.367752 236.688503 
C 101.188208 237.868048 100.525454 239.468078 100.525454 241.136205 
C 100.525454 242.804333 101.188208 244.404362 102.367752 245.583907 
C 103.547296 246.763451 105.147326 247.426205 106.815454 247.426205 
z
" style="fill: #ffffff"/>
    </g>
    <!-- 16 -->
    <g style="fill: #ff0000" transform="translate(101.725454 243.343705)scale(0.08 -0.08)">
     <use xlink:href="#DejaVuSans-31"/>
     <use xlink:href="#DejaVuSans-36" x="63.623047"/>
    </g>
   </g>
   <g id="text_36">
    <g id="patch_25">
     <path d="M 336.95244 324.138534 
C 338.620568 324.138534 340.220597 323.47578 341.400142 322.296235 
C 342.579686 321.116691 343.24244 319.516661 343.24244 317.848534 
C 343.24244 316.180406 342.579686 314.580376 341.400142 313.400832 
C 340.220597 312.221288 338.620568 311.558534 336.95244 311.558534 
C 335.284313 311.558534 333.684283 312.221288 332.504738 313.400832 
C 331.325194 314.580376 330.66244 316.180406 330.66244 317.848534 
C 330.66244 319.516661 331.325194 321.116691 332.504738 322.296235 
C 333.684283 323.47578 335.284313 324.138534 336.95244 324.138534 
z
" style="fill: #ffffff"/>
    </g>
    <!-- 17 -->
    <g style="fill: #ff0000" transform="translate(331.86244 320.056034)scale(0.08 -0.08)">
     <use xlink:href="#DejaVuSans-31"/>
     <use xlink:href="#DejaVuSans-37" x="63.623047"/>
    </g>
   </g>
   <g id="text_37">
    <g id="patch_26">
     <path d="M 336.95244 170.713876 
C 338.620568 170.713876 340.220597 170.051122 341.400142 168.871578 
C 342.579686 167.692034 343.24244 166.092004 343.24244 164.423876 
C 343.24244 162.755749 342.579686 161.155719 341.400142 159.976175 
C 340.220597 158.79663 338.620568 158.133876 336.95244 158.133876 
C 335.284313 158.133876 333.684283 158.79663 332.504738 159.976175 
C 331.325194 161.155719 330.66244 162.755749 330.66244 164.423876 
C 330.66244 166.092004 331.325194 167.692034 332.504738 168.871578 
C 333.684283 170.051122 335.284313 170.713876 336.95244 170.713876 
z
" style="fill: #ffffff"/>
    </g>
    <!-- 18 -->
    <g style="fill: #ff0000" transform="translate(331.86244 166.631376)scale(0.08 -0.08)">
     <use xlink:href="#DejaVuSans-31"/>
     <use xlink:href="#DejaVuSans-38" x="63.623047"/>
    </g>
   </g>
   <g id="text_38">
    <g id="patch_27">
     <path d="M 221.883947 324.138534 
C 223.552074 324.138534 225.152104 323.47578 226.331649 322.296235 
C 227.511193 321.116691 228.173947 319.516661 228.173947 317.848534 
C 228.173947 316.180406 227.511193 314.580376 226.331649 313.400832 
C 225.152104 312.221288 223.552074 311.558534 221.883947 311.558534 
C 220.215819 311.558534 218.61579 312.221288 217.436245 313.400832 
C 216.256701 314.580376 215.593947 316.180406 215.593947 317.848534 
C 215.593947 319.516661 216.256701 321.116691 217.436245 322.296235 
C 218.61579 323.47578 220.215819 324.138534 221.883947 324.138534 
z
" style="fill: #ffffff"/>
    </g>
    <!-- 19 -->
    <g style="fill: #ff0000" transform="translate(216.793947 320.056034)scale(0.08 -0.08)">
     <use xlink:href="#DejaVuSans-31"/>
     <use xlink:href="#DejaVuSans-39" x="63.623047"/>
    </g>
   </g>
   <g id="text_39">
    <g id="patch_28">
     <path d="M 336.95244 285.782369 
C 338.620568 285.782369 340.220597 285.119615 341.400142 283.940071 
C 342.579686 282.760527 343.24244 281.160497 343.24244 279.492369 
C 343.24244 277.824242 342.579686 276.224212 341.400142 275.044668 
C 340.220597 273.865124 338.620568 273.202369 336.95244 273.202369 
C 335.284313 273.202369 333.684283 273.865124 332.504738 275.044668 
C 331.325194 276.224212 330.66244 277.824242 330.66244 279.492369 
C 330.66244 281.160497 331.325194 282.760527 332.504738 283.940071 
C 333.684283 285.119615 335.284313 285.782369 336.95244 285.782369 
z
" style="fill: #ffffff"/>
    </g>
    <!-- 20 -->
    <g style="fill: #ff0000" transform="translate(331.86244 281.699869)scale(0.08 -0.08)">
     <use xlink:href="#DejaVuSans-32"/>
     <use xlink:href="#DejaVuSans-30" x="63.623047"/>
    </g>
   </g>
   <g id="text_40">
    <g id="patch_29">
     <path d="M 298.596276 170.713876 
C 300.264403 170.713876 301.864433 170.051122 303.043977 168.871578 
C 304.223522 167.692034 304.886276 166.092004 304.886276 164.423876 
C 304.886276 162.755749 304.223522 161.155719 303.043977 159.976175 
C 301.864433 158.79663 300.264403 158.133876 298.596276 158.133876 
C 296.928148 158.133876 295.328118 158.79663 294.148574 159.976175 
C 292.96903 161.155719 292.306276 162.755749 292.306276 164.423876 
C 292.306276 166.092004 292.96903 167.692034 294.148574 168.871578 
C 295.328118 170.051122 296.928148 170.713876 298.596276 170.713876 
z
" style="fill: #ffffff"/>
    </g>
    <!-- 21 -->
    <g style="fill: #ff0000" transform="translate(293.506276 166.631376)scale(0.08 -0.08)">
     <use xlink:href="#DejaVuSans-32"/>
     <use xlink:href="#DejaVuSans-31" x="63.623047"/>
    </g>
   </g>
   <g id="text_41">
    <g id="patch_30">
     <path d="M 260.240111 324.138534 
C 261.908239 324.138534 263.508269 323.47578 264.687813 322.296235 
C 265.867357 321.116691 266.530111 319.516661 266.530111 317.848534 
C 266.530111 316.180406 265.867357 314.580376 264.687813 313.400832 
C 263.508269 312.221288 261.908239 311.558534 260.240111 311.558534 
C 258.571984 311.558534 256.971954 312.221288 255.79241 313.400832 
C 254.612865 314.580376 253.950111 316.180406 253.950111 317.848534 
C 253.950111 319.516661 254.612865 321.116691 255.79241 322.296235 
C 256.971954 323.47578 258.571984 324.138534 260.240111 324.138534 
z
" style="fill: #ffffff"/>
    </g>
    <!-- 22 -->
    <g style="fill: #ff0000" transform="translate(255.150111 320.056034)scale(0.08 -0.08)">
     <use xlink:href="#DejaVuSans-32"/>
     <use xlink:href="#DejaVuSans-32" x="63.623047"/>
    </g>
   </g>
   <g id="text_42">
    <g id="patch_31">
     <path d="M 336.95244 247.426205 
C 338.620568 247.426205 340.220597 246.763451 341.400142 245.583907 
C 342.579686 244.404362 343.24244 242.804333 343.24244 241.136205 
C 343.24244 239.468078 342.579686 237.868048 341.400142 236.688503 
C 340.220597 235.508959 338.620568 234.846205 336.95244 234.846205 
C 335.284313 234.846205 333.684283 235.508959 332.504738 236.688503 
C 331.325194 237.868048 330.66244 239.468078 330.66244 241.136205 
C 330.66244 242.804333 331.325194 244.404362 332.504738 245.583907 
C 333.684283 246.763451 335.284313 247.426205 336.95244 247.426205 
z
" style="fill: #ffffff"/>
    </g>
    <!-- 23 -->
    <g style="fill: #ff0000" transform="translate(331.86244 243.343705)scale(0.08 -0.08)">
     <use xlink:href="#DejaVuSans-32"/>
     <use xlink:href="#DejaVuSans-33" x="63.623047"/>
    </g>
   </g>
   <g id="text_43">
    <g id="patch_32">
     <path d="M 260.240111 170.713876 
C 261.908239 170.713876 263.508269 170.051122 264.687813 168.871578 
C 265.867357 167.692034 266.530111 166.092004 266.530111 164.423876 
C 266.530111 162.755749 265.867357 161.155719 264.687813 159.976175 
C 263.508269 158.79663 261.908239 158.133876 260.240111 158.133876 
C 258.571984 158.133876 256.971954 158.79663 255.79241 159.976175 
C 254.612865 161.155719 253.950111 162.755749 253.950111 164.423876 
C 253.950111 166.092004 254.612865 167.692034 255.79241 168.871578 
C 256.971954 170.051122 258.571984 170.713876 260.240111 170.713876 
z
" style="fill: #ffffff"/>
    </g>
    <!-- 24 -->
    <g style="fill: #ff0000" transform="translate(255.150111 166.631376)scale(0.08 -0.08)">
     <use xlink:href="#DejaVuSans-32"/>
     <use xlink:href="#DejaVuSans-34" x="63.623047"/>
    </g>
   </g>
   <g id="text_44">
    <g id="patch_33">
     <path d="M 298.596276 324.138534 
C 300.264403 324.138534 301.864433 323.47578 303.043977 322.296235 
C 304.223522 321.116691 304.886276 319.516661 304.886276 317.848534 
C 304.886276 316.180406 304.223522 314.580376 303.043977 313.400832 
C 301.864433 312.221288 300.264403 311.558534 298.596276 311.558534 
C 296.928148 311.558534 295.328118 312.221288 294.148574 313.400832 
C 292.96903 314.580376 292.306276 316.180406 292.306276 317.848534 
C 292.306276 319.516661 292.96903 321.116691 294.148574 322.296235 
C 295.328118 323.47578 296.928148 324.138534 298.596276 324.138534 
z
" style="fill: #ffffff"/>
    </g>
    <!-- 25 -->
    <g style="fill: #ff0000" transform="translate(293.506276 320.056034)scale(0.08 -0.08)">
     <use xlink:href="#DejaVuSans-32"/>
     <use xlink:href="#DejaVuSans-35" x="63.623047"/>
    </g>
   </g>
   <g id="text_45">
    <g id="patch_34">
     <path d="M 336.95244 209.070041 
C 338.620568 209.070041 340.220597 208.407287 341.400142 207.227742 
C 342.579686 206.048198 343.24244 204.448168 343.24244 202.780041 
C 343.24244 201.111913 342.579686 199.511883 341.400142 198.332339 
C 340.220597 197.152795 338.620568 196.490041 336.95244 196.490041 
C 335.284313 196.490041 333.684283 197.152795 332.504738 198.332339 
C 331.325194 199.511883 330.66244 201.111913 330.66244 202.780041 
C 330.66244 204.448168 331.325194 206.048198 332.504738 207.227742 
C 333.684283 208.407287 335.284313 209.070041 336.95244 209.070041 
z
" style="fill: #ffffff"/>
    </g>
    <!-- 26 -->
    <g style="fill: #ff0000" transform="translate(331.86244 204.987541)scale(0.08 -0.08)">
     <use xlink:href="#DejaVuSans-32"/>
     <use xlink:href="#DejaVuSans-36" x="63.623047"/>
    </g>
   </g>
   <g id="text_46">
    <g id="patch_35">
     <path d="M 221.883947 170.713876 
C 223.552074 170.713876 225.152104 170.051122 226.331649 168.871578 
C 227.511193 167.692034 228.173947 166.092004 228.173947 164.423876 
C 228.173947 162.755749 227.511193 161.155719 226.331649 159.976175 
C 225.152104 158.79663 223.552074 158.133876 221.883947 158.133876 
C 220.215819 158.133876 218.61579 158.79663 217.436245 159.976175 
C 216.256701 161.155719 215.593947 162.755749 215.593947 164.423876 
C 215.593947 166.092004 216.256701 167.692034 217.436245 168.871578 
C 218.61579 170.051122 220.215819 170.713876 221.883947 170.713876 
z
" style="fill: #ffffff"/>
    </g>
    <!-- 27 -->
    <g style="fill: #ff0000" transform="translate(216.793947 166.631376)scale(0.08 -0.08)">
     <use xlink:href="#DejaVuSans-32"/>
     <use xlink:href="#DejaVuSans-37" x="63.623047"/>
    </g>
   </g>
   <g id="text_47">
    <g id="patch_36">
     <path d="M 260.240111 247.426205 
C 261.908239 247.426205 263.508269 246.763451 264.687813 245.583907 
C 265.867357 244.404362 266.530111 242.804333 266.530111 241.136205 
C 266.530111 239.468078 265.867357 237.868048 264.687813 236.688503 
C 263.508269 235.508959 261.908239 234.846205 260.240111 234.846205 
C 258.571984 234.846205 256.971954 235.508959 255.79241 236.688503 
C 254.612865 237.868048 253.950111 239.468078 253.950111 241.136205 
C 253.950111 242.804333 254.612865 244.404362 255.79241 245.583907 
C 256.971954 246.763451 258.571984 247.426205 260.240111 247.426205 
z
" style="fill: #ffffff"/>
    </g>
    <!-- 28 -->
    <g style="fill: #ff0000" transform="translate(255.150111 243.343705)scale(0.08 -0.08)">
     <use xlink:href="#DejaVuSans-32"/>
     <use xlink:href="#DejaVuSans-38" x="63.623047"/>
    </g>
   </g>
   <g id="text_48">
    <g id="patch_37">
     <path d="M 183.527783 17.289219 
C 185.19591 17.289219 186.79594 16.626465 187.975484 15.44692 
C 189.155028 14.267376 189.817783 12.667346 189.817783 10.999219 
C 189.817783 9.331091 189.155028 7.731061 187.975484 6.551517 
C 186.79594 5.371973 185.19591 4.709219 183.527783 4.709219 
C 181.859655 4.709219 180.259625 5.371973 179.080081 6.551517 
C 177.900537 7.731061 177.237783 9.331091 177.237783 10.999219 
C 177.237783 12.667346 177.900537 14.267376 179.080081 15.44692 
C 180.259625 16.626465 181.859655 17.289219 183.527783 17.289219 
z
" style="fill: #ffffff"/>
    </g>
    <!-- 29 -->
    <g style="fill: #ff0000" transform="translate(178.437783 13.206719)scale(0.08 -0.08)">
     <use xlink:href="#DejaVuSans-32"/>
     <use xlink:href="#DejaVuSans-39" x="63.623047"/>
    </g>
   </g>
   <g id="text_49">
    <g id="patch_38">
     <path d="M 30.103125 17.289219 
C 31.771252 17.289219 33.371282 16.626465 34.550827 15.44692 
C 35.730371 14.267376 36.393125 12.667346 36.393125 10.999219 
C 36.393125 9.331091 35.730371 7.731061 34.550827 6.551517 
C 33.371282 5.371973 31.771252 4.709219 30.103125 4.709219 
C 28.434998 4.709219 26.834968 5.371973 25.655423 6.551517 
C 24.475879 7.731061 23.813125 9.331091 23.813125 10.999219 
C 23.813125 12.667346 24.475879 14.267376 25.655423 15.44692 
C 26.834968 16.626465 28.434998 17.289219 30.103125 17.289219 
z
" style="fill: #ffffff"/>
    </g>
    <!-- 30 -->
    <g style="fill: #ff0000" transform="translate(25.013125 13.206719)scale(0.08 -0.08)">
     <use xlink:href="#DejaVuSans-33"/>
     <use xlink:href="#DejaVuSans-30" x="63.623047"/>
    </g>
   </g>
   <g id="text_50">
    <g id="patch_39">
     <path d="M 183.527783 132.357712 
C 185.19591 132.357712 186.79594 131.694958 187.975484 130.515414 
C 189.155028 129.335869 189.817783 127.735839 189.817783 126.067712 
C 189.817783 124.399584 189.155028 122.799555 187.975484 121.62001 
C 186.79594 120.440466 185.19591 119.777712 183.527783 119.777712 
C 181.859655 119.777712 180.259625 120.440466 179.080081 121.62001 
C 177.900537 122.799555 177.237783 124.399584 177.237783 126.067712 
C 177.237783 127.735839 177.900537 129.335869 179.080081 130.515414 
C 180.259625 131.694958 181.859655 132.357712 183.527783 132.357712 
z
" style="fill: #ffffff"/>
    </g>
    <!-- 31 -->
    <g style="fill: #ff0000" transform="translate(178.437783 128.275212)scale(0.08 -0.08)">
     <use xlink:href="#DejaVuSans-33"/>
     <use xlink:href="#DejaVuSans-31" x="63.623047"/>
    </g>
   </g>
   <g id="text_51">
    <g id="patch_40">
     <path d="M 145.171618 17.289219 
C 146.839746 17.289219 148.439776 16.626465 149.61932 15.44692 
C 150.798864 14.267376 151.461618 12.667346 151.461618 10.999219 
C 151.461618 9.331091 150.798864 7.731061 149.61932 6.551517 
C 148.439776 5.371973 146.839746 4.709219 145.171618 4.709219 
C 143.503491 4.709219 141.903461 5.371973 140.723916 6.551517 
C 139.544372 7.731061 138.881618 9.331091 138.881618 10.999219 
C 138.881618 12.667346 139.544372 14.267376 140.723916 15.44692 
C 141.903461 16.626465 143.503491 17.289219 145.171618 17.289219 
z
" style="fill: #ffffff"/>
    </g>
    <!-- 32 -->
    <g style="fill: #ff0000" transform="translate(140.081618 13.206719)scale(0.08 -0.08)">
     <use xlink:href="#DejaVuSans-33"/>
     <use xlink:href="#DejaVuSans-32" x="63.623047"/>
    </g>
   </g>
   <g id="text_52">
    <g id="patch_41">
     <path d="M 30.103125 55.645383 
C 31.771252 55.645383 33.371282 54.982629 34.550827 53.803085 
C 35.730371 52.623541 36.393125 51.023511 36.393125 49.355383 
C 36.393125 47.687256 35.730371 46.087226 34.550827 44.907681 
C 33.371282 43.728137 31.771252 43.065383 30.103125 43.065383 
C 28.434998 43.065383 26.834968 43.728137 25.655423 44.907681 
C 24.475879 46.087226 23.813125 47.687256 23.813125 49.355383 
C 23.813125 51.023511 24.475879 52.623541 25.655423 53.803085 
C 26.834968 54.982629 28.434998 55.645383 30.103125 55.645383 
z
" style="fill: #ffffff"/>
    </g>
    <!-- 33 -->
    <g style="fill: #ff0000" transform="translate(25.013125 51.562883)scale(0.08 -0.08)">
     <use xlink:href="#DejaVuSans-33"/>
     <use xlink:href="#DejaVuSans-33" x="63.623047"/>
    </g>
   </g>
   <g id="text_53">
    <g id="patch_42">
     <path d="M 183.527783 94.001548 
C 185.19591 94.001548 186.79594 93.338793 187.975484 92.159249 
C 189.155028 90.979705 189.817783 89.379675 189.817783 87.711548 
C 189.817783 86.04342 189.155028 84.44339 187.975484 83.263846 
C 186.79594 82.084302 185.19591 81.421548 183.527783 81.421548 
C 181.859655 81.421548 180.259625 82.084302 179.080081 83.263846 
C 177.900537 84.44339 177.237783 86.04342 177.237783 87.711548 
C 177.237783 89.379675 177.900537 90.979705 179.080081 92.159249 
C 180.259625 93.338793 181.859655 94.001548 183.527783 94.001548 
z
" style="fill: #ffffff"/>
    </g>
    <!-- 34 -->
    <g style="fill: #ff0000" transform="translate(178.437783 89.919048)scale(0.08 -0.08)">
     <use xlink:href="#DejaVuSans-33"/>
     <use xlink:href="#DejaVuSans-34" x="63.623047"/>
    </g>
   </g>
   <g id="text_54">
    <g id="patch_43">
     <path d="M 106.815454 17.289219 
C 108.483581 17.289219 110.083611 16.626465 111.263155 15.44692 
C 112.4427 14.267376 113.105454 12.667346 113.105454 10.999219 
C 113.105454 9.331091 112.4427 7.731061 111.263155 6.551517 
C 110.083611 5.371973 108.483581 4.709219 106.815454 4.709219 
C 105.147326 4.709219 103.547296 5.371973 102.367752 6.551517 
C 101.188208 7.731061 100.525454 9.331091 100.525454 10.999219 
C 100.525454 12.667346 101.188208 14.267376 102.367752 15.44692 
C 103.547296 16.626465 105.147326 17.289219 106.815454 17.289219 
z
" style="fill: #ffffff"/>
    </g>
    <!-- 35 -->
    <g style="fill: #ff0000" transform="translate(101.725454 13.206719)scale(0.08 -0.08)">
     <use xlink:href="#DejaVuSans-33"/>
     <use xlink:href="#DejaVuSans-35" x="63.623047"/>
    </g>
   </g>
   <g id="text_55">
    <g id="patch_44">
     <path d="M 30.103125 94.001548 
C 31.771252 94.001548 33.371282 93.338793 34.550827 92.159249 
C 35.730371 90.979705 36.393125 89.379675 36.393125 87.711548 
C 36.393125 86.04342 35.730371 84.44339 34.550827 83.263846 
C 33.371282 82.084302 31.771252 81.421548 30.103125 81.421548 
C 28.434998 81.421548 26.834968 82.084302 25.655423 83.263846 
C 24.475879 84.44339 23.813125 86.04342 23.813125 87.711548 
C 23.813125 89.379675 24.475879 90.979705 25.655423 92.159249 
C 26.834968 93.338793 28.434998 94.001548 30.103125 94.001548 
z
" style="fill: #ffffff"/>
    </g>
    <!-- 36 -->
    <g style="fill: #ff0000" transform="translate(25.013125 89.919048)scale(0.08 -0.08)">
     <use xlink:href="#DejaVuSans-33"/>
     <use xlink:href="#DejaVuSans-36" x="63.623047"/>
    </g>
   </g>
   <g id="text_56">
    <g id="patch_45">
     <path d="M 183.527783 55.645383 
C 185.19591 55.645383 186.79594 54.982629 187.975484 53.803085 
C 189.155028 52.623541 189.817783 51.023511 189.817783 49.355383 
C 189.817783 47.687256 189.155028 46.087226 187.975484 44.907681 
C 186.79594 43.728137 185.19591 43.065383 183.527783 43.065383 
C 181.859655 43.065383 180.259625 43.728137 179.080081 44.907681 
C 177.900537 46.087226 177.237783 47.687256 177.237783 49.355383 
C 177.237783 51.023511 177.900537 52.623541 179.080081 53.803085 
C 180.259625 54.982629 181.859655 55.645383 183.527783 55.645383 
z
" style="fill: #ffffff"/>
    </g>
    <!-- 37 -->
    <g style="fill: #ff0000" transform="translate(178.437783 51.562883)scale(0.08 -0.08)">
     <use xlink:href="#DejaVuSans-33"/>
     <use xlink:href="#DejaVuSans-37" x="63.623047"/>
    </g>
   </g>
   <g id="text_57">
    <g id="patch_46">
     <path d="M 68.459289 17.289219 
C 70.127417 17.289219 71.727447 16.626465 72.906991 15.44692 
C 74.086535 14.267376 74.749289 12.667346 74.749289 10.999219 
C 74.749289 9.331091 74.086535 7.731061 72.906991 6.551517 
C 71.727447 5.371973 70.127417 4.709219 68.459289 4.709219 
C 66.791162 4.709219 65.191132 5.371973 64.011588 6.551517 
C 62.832043 7.731061 62.169289 9.331091 62.169289 10.999219 
C 62.169289 12.667346 62.832043 14.267376 64.011588 15.44692 
C 65.191132 16.626465 66.791162 17.289219 68.459289 17.289219 
z
" style="fill: #ffffff"/>
    </g>
    <!-- 38 -->
    <g style="fill: #ff0000" transform="translate(63.369289 13.206719)scale(0.08 -0.08)">
     <use xlink:href="#DejaVuSans-33"/>
     <use xlink:href="#DejaVuSans-38" x="63.623047"/>
    </g>
   </g>
   <g id="text_58">
    <g id="patch_47">
     <path d="M 30.103125 132.357712 
C 31.771252 132.357712 33.371282 131.694958 34.550827 130.515414 
C 35.730371 129.335869 36.393125 127.735839 36.393125 126.067712 
C 36.393125 124.399584 35.730371 122.799555 34.550827 121.62001 
C 33.371282 120.440466 31.771252 119.777712 30.103125 119.777712 
C 28.434998 119.777712 26.834968 120.440466 25.655423 121.62001 
C 24.475879 122.799555 23.813125 124.399584 23.813125 126.067712 
C 23.813125 127.735839 24.475879 129.335869 25.655423 130.515414 
C 26.834968 131.694958 28.434998 132.357712 30.103125 132.357712 
z
" style="fill: #ffffff"/>
    </g>
    <!-- 39 -->
    <g style="fill: #ff0000" transform="translate(25.013125 128.275212)scale(0.08 -0.08)">
     <use xlink:href="#DejaVuSans-33"/>
     <use xlink:href="#DejaVuSans-39" x="63.623047"/>
    </g>
   </g>
   <g id="text_59">
    <g id="patch_48">
     <path d="M 106.815454 94.001548 
C 108.483581 94.001548 110.083611 93.338793 111.263155 92.159249 
C 112.4427 90.979705 113.105454 89.379675 113.105454 87.711548 
C 113.105454 86.04342 112.4427 84.44339 111.263155 83.263846 
C 110.083611 82.084302 108.483581 81.421548 106.815454 81.421548 
C 105.147326 81.421548 103.547296 82.084302 102.367752 83.263846 
C 101.188208 84.44339 100.525454 86.04342 100.525454 87.711548 
C 100.525454 89.379675 101.188208 90.979705 102.367752 92.159249 
C 103.547296 93.338793 105.147326 94.001548 106.815454 94.001548 
z
" style="fill: #ffffff"/>
    </g>
    <!-- 40 -->
    <g style="fill: #ff0000" transform="translate(101.725454 89.919048)scale(0.08 -0.08)">
     <use xlink:href="#DejaVuSans-34"/>
     <use xlink:href="#DejaVuSans-30" x="63.623047"/>
    </g>
   </g>
   <g id="text_60">
    <g id="patch_49">
     <path d="M 336.95244 17.289219 
C 338.620568 17.289219 340.220597 16.626465 341.400142 15.44692 
C 342.579686 14.267376 343.24244 12.667346 343.24244 10.999219 
C 343.24244 9.331091 342.579686 7.731061 341.400142 6.551517 
C 340.220597 5.371973 338.620568 4.709219 336.95244 4.709219 
C 335.284313 4.709219 333.684283 5.371973 332.504738 6.551517 
C 331.325194 7.731061 330.66244 9.331091 330.66244 10.999219 
C 330.66244 12.667346 331.325194 14.267376 332.504738 15.44692 
C 333.684283 16.626465 335.284313 17.289219 336.95244 17.289219 
z
" style="fill: #ffffff"/>
    </g>
    <!-- 41 -->
    <g style="fill: #ff0000" transform="translate(331.86244 13.206719)scale(0.08 -0.08)">
     <use xlink:href="#DejaVuSans-34"/>
     <use xlink:href="#DejaVuSans-31" x="63.623047"/>
    </g>
   </g>
   <g id="text_61">
    <g id="patch_50">
     <path d="M 336.95244 132.357712 
C 338.620568 132.357712 340.220597 131.694958 341.400142 130.515414 
C 342.579686 129.335869 343.24244 127.735839 343.24244 126.067712 
C 343.24244 124.399584 342.579686 122.799555 341.400142 121.62001 
C 340.220597 120.440466 338.620568 119.777712 336.95244 119.777712 
C 335.284313 119.777712 333.684283 120.440466 332.504738 121.62001 
C 331.325194 122.799555 330.66244 124.399584 330.66244 126.067712 
C 330.66244 127.735839 331.325194 129.335869 332.504738 130.515414 
C 333.684283 131.694958 335.284313 132.357712 336.95244 132.357712 
z
" style="fill: #ffffff"/>
    </g>
    <!-- 42 -->
    <g style="fill: #ff0000" transform="translate(331.86244 128.275212)scale(0.08 -0.08)">
     <use xlink:href="#DejaVuSans-34"/>
     <use xlink:href="#DejaVuSans-32" x="63.623047"/>
    </g>
   </g>
   <g id="text_62">
    <g id="patch_51">
     <path d="M 298.596276 17.289219 
C 300.264403 17.289219 301.864433 16.626465 303.043977 15.44692 
C 304.223522 14.267376 304.886276 12.667346 304.886276 10.999219 
C 304.886276 9.331091 304.223522 7.731061 303.043977 6.551517 
C 301.864433 5.371973 300.264403 4.709219 298.596276 4.709219 
C 296.928148 4.709219 295.328118 5.371973 294.148574 6.551517 
C 292.96903 7.731061 292.306276 9.331091 292.306276 10.999219 
C 292.306276 12.667346 292.96903 14.267376 294.148574 15.44692 
C 295.328118 16.626465 296.928148 17.289219 298.596276 17.289219 
z
" style="fill: #ffffff"/>
    </g>
    <!-- 43 -->
    <g style="fill: #ff0000" transform="translate(293.506276 13.206719)scale(0.08 -0.08)">
     <use xlink:href="#DejaVuSans-34"/>
     <use xlink:href="#DejaVuSans-33" x="63.623047"/>
    </g>
   </g>
   <g id="text_63">
    <g id="patch_52">
     <path d="M 336.95244 94.001548 
C 338.620568 94.001548 340.220597 93.338793 341.400142 92.159249 
C 342.579686 90.979705 343.24244 89.379675 343.24244 87.711548 
C 343.24244 86.04342 342.579686 84.44339 341.400142 83.263846 
C 340.220597 82.084302 338.620568 81.421548 336.95244 81.421548 
C 335.284313 81.421548 333.684283 82.084302 332.504738 83.263846 
C 331.325194 84.44339 330.66244 86.04342 330.66244 87.711548 
C 330.66244 89.379675 331.325194 90.979705 332.504738 92.159249 
C 333.684283 93.338793 335.284313 94.001548 336.95244 94.001548 
z
" style="fill: #ffffff"/>
    </g>
    <!-- 44 -->
    <g style="fill: #ff0000" transform="translate(331.86244 89.919048)scale(0.08 -0.08)">
     <use xlink:href="#DejaVuSans-34"/>
     <use xlink:href="#DejaVuSans-34" x="63.623047"/>
    </g>
   </g>
   <g id="text_64">
    <g id="patch_53">
     <path d="M 260.240111 17.289219 
C 261.908239 17.289219 263.508269 16.626465 264.687813 15.44692 
C 265.867357 14.267376 266.530111 12.667346 266.530111 10.999219 
C 266.530111 9.331091 265.867357 7.731061 264.687813 6.551517 
C 263.508269 5.371973 261.908239 4.709219 260.240111 4.709219 
C 258.571984 4.709219 256.971954 5.371973 255.79241 6.551517 
C 254.612865 7.731061 253.950111 9.331091 253.950111 10.999219 
C 253.950111 12.667346 254.612865 14.267376 255.79241 15.44692 
C 256.971954 16.626465 258.571984 17.289219 260.240111 17.289219 
z
" style="fill: #ffffff"/>
    </g>
    <!-- 45 -->
    <g style="fill: #ff0000" transform="translate(255.150111 13.206719)scale(0.08 -0.08)">
     <use xlink:href="#DejaVuSans-34"/>
     <use xlink:href="#DejaVuSans-35" x="63.623047"/>
    </g>
   </g>
   <g id="text_65">
    <g id="patch_54">
     <path d="M 336.95244 55.645383 
C 338.620568 55.645383 340.220597 54.982629 341.400142 53.803085 
C 342.579686 52.623541 343.24244 51.023511 343.24244 49.355383 
C 343.24244 47.687256 342.579686 46.087226 341.400142 44.907681 
C 340.220597 43.728137 338.620568 43.065383 336.95244 43.065383 
C 335.284313 43.065383 333.684283 43.728137 332.504738 44.907681 
C 331.325194 46.087226 330.66244 47.687256 330.66244 49.355383 
C 330.66244 51.023511 331.325194 52.623541 332.504738 53.803085 
C 333.684283 54.982629 335.284313 55.645383 336.95244 55.645383 
z
" style="fill: #ffffff"/>
    </g>
    <!-- 46 -->
    <g style="fill: #ff0000" transform="translate(331.86244 51.562883)scale(0.08 -0.08)">
     <use xlink:href="#DejaVuSans-34"/>
     <use xlink:href="#DejaVuSans-36" x="63.623047"/>
    </g>
   </g>
   <g id="text_66">
    <g id="patch_55">
     <path d="M 221.883947 17.289219 
C 223.552074 17.289219 225.152104 16.626465 226.331649 15.44692 
C 227.511193 14.267376 228.173947 12.667346 228.173947 10.999219 
C 228.173947 9.331091 227.511193 7.731061 226.331649 6.551517 
C 225.152104 5.371973 223.552074 4.709219 221.883947 4.709219 
C 220.215819 4.709219 218.61579 5.371973 217.436245 6.551517 
C 216.256701 7.731061 215.593947 9.331091 215.593947 10.999219 
C 215.593947 12.667346 216.256701 14.267376 217.436245 15.44692 
C 218.61579 16.626465 220.215819 17.289219 221.883947 17.289219 
z
" style="fill: #ffffff"/>
    </g>
    <!-- 47 -->
    <g style="fill: #ff0000" transform="translate(216.793947 13.206719)scale(0.08 -0.08)">
     <use xlink:href="#DejaVuSans-34"/>
     <use xlink:href="#DejaVuSans-37" x="63.623047"/>
    </g>
   </g>
   <g id="text_67">
    <g id="patch_56">
     <path d="M 260.240111 94.001548 
C 261.908239 94.001548 263.508269 93.338793 264.687813 92.159249 
C 265.867357 90.979705 266.530111 89.379675 266.530111 87.711548 
C 266.530111 86.04342 265.867357 84.44339 264.687813 83.263846 
C 263.508269 82.084302 261.908239 81.421548 260.240111 81.421548 
C 258.571984 81.421548 256.971954 82.084302 255.79241 83.263846 
C 254.612865 84.44339 253.950111 86.04342 253.950111 87.711548 
C 253.950111 89.379675 254.612865 90.979705 255.79241 92.159249 
C 256.971954 93.338793 258.571984 94.001548 260.240111 94.001548 
z
" style="fill: #ffffff"/>
    </g>
    <!-- 48 -->
    <g style="fill: #ff0000" transform="translate(255.150111 89.919048)scale(0.08 -0.08)">
     <use xlink:href="#DejaVuSans-34"/>
     <use xlink:href="#DejaVuSans-38" x="63.623047"/>
    </g>
   </g>
  </g>
 </g>
</svg>
