<?xml version="1.0" encoding="utf-8" standalone="no"?>
<!DOCTYPE svg PUBLIC "-//W3C//DTD SVG 1.1//EN"
  "http://www.w3.org/Graphics/SVG/1.1/DTD/svg11.dtd">
<svg xmlns:xlink="http://www.w3.org/1999/xlink" width="505.52866pt" height="495.151316pt" viewBox="0 0 505.52866 495.151316" xmlns="http://www.w3.org/2000/svg" version="1.1">
 <metadata>
  <rdf:RDF xmlns:dc="http://purl.org/dc/elements/1.1/" xmlns:cc="http://creativecommons.org/ns#" xmlns:rdf="http://www.w3.org/1999/02/22-rdf-syntax-ns#">
   <cc:Work>
    <dc:type rdf:resource="http://purl.org/dc/dcmitype/StillImage"/>
    <dc:date>2022-06-12T18:41:22.020426</dc:date>
    <dc:format>image/svg+xml</dc:format>
    <dc:creator>
     <cc:Agent>
      <dc:title>Matplotlib v3.5.2, https://matplotlib.org/</dc:title>
     </cc:Agent>
    </dc:creator>
   </cc:Work>
  </rdf:RDF>
 </metadata>
 <defs>
  <style type="text/css">*{stroke-linejoin: round; stroke-linecap: butt}</style>
 </defs>
 <g id="figure_1">
  <g id="patch_1">
   <path d="M 0 495.151316 
L 505.52866 495.151316 
L 505.52866 0 
L 0 0 
z
" style="fill: #ffffff"/>
  </g>
  <g id="axes_1">
   <g id="patch_2">
    <path d="M 30.103125 471.273191 
L 490.377098 471.273191 
L 490.377098 10.999219 
L 30.103125 10.999219 
z
" style="fill: #ffffff"/>
   </g>
   <g id="patch_3">
    <path d="M 406.294739 396.444027 
C 431.37418 391.455416 456.453621 386.466805 481.533062 381.478194 
M 30.103125 164.423876 
C 30.103125 138.8531 30.103125 113.282324 30.103125 87.711548 
M 221.455036 343.415932 
C 229.824196 355.939373 236.958772 369.287226 242.721976 383.20358 
M 301.322164 200.054152 
C 319.07475 217.804259 335.077291 237.303411 349.022976 258.17776 
M 255.818094 426.375693 
C 258.757676 441.148582 260.241163 456.210675 260.240111 471.273191 
M 60.034791 320.796546 
C 65.023402 295.717105 70.012013 270.637664 75.000624 245.558223 
M 104.93229 95.081577 
C 129.554456 99.977443 153.693231 107.299861 176.885811 116.908439 
M 406.294739 396.444027 
C 411.194044 421.065509 413.666522 446.168997 413.664769 471.273191 
M 384.467877 324.490505 
C 394.076456 347.683085 401.398873 371.821861 406.294739 396.444027 
M 157.960384 279.921281 
C 170.484993 288.288692 182.184485 297.890217 192.834549 308.541768 
M 115.341298 343.705251 
C 129.54766 322.443927 143.754022 301.182604 157.960384 279.921281 
M 313.594927 353.847042 
C 321.28179 372.401107 327.139724 391.712127 331.056417 411.40986 
M 455.340828 295.133968 
C 466.871122 322.965064 475.658023 351.931594 481.533062 381.478194 
M 30.103125 10.999219 
C 60.228158 10.997115 90.352344 13.964089 119.898123 19.843254 
M 138.590741 362.785576 
C 156.67201 344.704306 174.753279 326.623037 192.834549 308.541768 
M 349.022976 258.17776 
C 362.971577 279.05016 374.862537 301.296583 384.467877 324.490505 
M 412.806947 215.558673 
C 429.545267 240.605554 443.81442 267.301261 455.340828 295.133968 
M 118.172737 258.65434 
C 132.08909 264.417544 145.436944 271.55212 157.960384 279.921281 
M 157.671066 386.035019 
C 178.932389 371.828656 200.193712 357.622294 221.455036 343.415932 
M 413.664769 471.273191 
C 388.093993 471.273191 362.523216 471.273191 336.95244 471.273191 
M 157.960384 279.921281 
C 172.166746 258.659957 186.373108 237.398634 200.57947 216.13731 
M 247.078356 254.29796 
C 265.159626 236.216691 283.240895 218.135421 301.322164 200.054152 
M 104.93229 95.081577 
C 109.920901 70.002136 114.909512 44.922695 119.898123 19.843254 
M 147.529274 187.78139 
C 166.084412 195.465661 183.88155 204.97843 200.57947 216.13731 
M 30.103125 317.848534 
C 30.103125 292.277758 30.103125 266.706981 30.103125 241.136205 
M 180.579771 441.341526 
C 205.659212 436.352915 230.738653 431.364304 255.818094 426.375693 
M 176.885811 116.908439 
C 186.671324 93.284122 196.456836 69.659806 206.242349 46.035489 
M 285.239006 300.796846 
C 296.397886 317.494767 305.910655 335.291905 313.594927 353.847042 
M 349.022976 258.17776 
C 370.2843 243.971397 391.545623 229.765035 412.806947 215.558673 
M 30.103125 164.423876 
C 50.18648 164.422474 70.269271 166.400456 89.966457 170.3199 
M 285.817643 88.56937 
C 310.866861 105.304193 334.265844 124.507242 355.565972 145.810344 
M 89.966457 170.3199 
C 94.955068 145.240459 99.943679 120.161018 104.93229 95.081577 
M 30.103125 87.711548 
C 55.207319 87.709795 80.310807 90.182273 104.93229 95.081577 
M 192.834549 308.541768 
C 210.915818 290.460498 228.997087 272.379229 247.078356 254.29796 
M 30.103125 241.136205 
C 45.165642 241.135153 60.227734 242.61864 75.000624 245.558223 
M 183.527783 471.273191 
C 183.528484 461.231514 182.539493 451.190118 180.579771 441.341526 
M 243.198557 152.35334 
C 257.404919 131.092017 271.611281 109.830693 285.817643 88.56937 
M 171.849026 412.560117 
C 195.473343 402.774604 219.09766 392.989092 242.721976 383.20358 
M 384.467877 324.490505 
C 408.092194 314.704993 431.716511 304.91948 455.340828 295.133968 
M 30.103125 241.136205 
C 30.103125 215.565429 30.103125 189.994653 30.103125 164.423876 
M 157.671066 386.035019 
C 152.092791 377.685279 145.691775 369.885618 138.590741 362.785576 
M 313.594927 353.847042 
C 337.219244 344.06153 360.84356 334.276017 384.467877 324.490505 
M 221.455036 343.415932 
C 242.716359 329.20957 263.977683 315.003208 285.239006 300.796846 
M 88.8162 329.52729 
C 98.601712 305.902974 108.387224 282.278657 118.172737 258.65434 
M 147.529274 187.78139 
C 157.314787 164.157073 167.100299 140.532756 176.885811 116.908439 
M 30.103125 87.711548 
C 30.103125 62.140771 30.103125 36.569995 30.103125 10.999219 
M 243.198557 152.35334 
C 264.072905 166.299026 283.572058 182.301567 301.322164 200.054152 
M 331.056417 411.40986 
C 334.97586 431.107045 336.953842 451.189836 336.95244 471.273191 
M 200.57947 216.13731 
C 214.785833 194.875987 228.992195 173.614663 243.198557 152.35334 
M 88.8162 329.52729 
C 79.539167 325.683859 69.883657 322.754892 60.034791 320.796546 
M 255.818094 426.375693 
C 280.897535 421.387082 305.976976 416.398471 331.056417 411.40986 
M 60.034791 320.796546 
C 50.186198 318.836824 40.144803 317.847833 30.103125 317.848534 
M 118.172737 258.65434 
C 127.958249 235.030023 137.743762 211.405706 147.529274 187.78139 
M 301.322164 200.054152 
C 319.403434 181.972883 337.484703 163.891613 355.565972 145.810344 
M 260.240111 471.273191 
C 234.669335 471.273191 209.098559 471.273191 183.527783 471.273191 
M 89.966457 170.3199 
C 109.66419 174.236593 128.97521 180.094527 147.529274 187.78139 
M 331.056417 411.40986 
C 356.135857 406.421249 381.215298 401.432638 406.294739 396.444027 
M 138.590741 362.785576 
C 131.490698 355.684541 123.691037 349.283525 115.341298 343.705251 
M 75.000624 245.558223 
C 89.773923 248.495742 104.257189 252.889193 118.172737 258.65434 
M 336.95244 471.273191 
C 311.381664 471.273191 285.810888 471.273191 260.240111 471.273191 
M 206.242349 46.035489 
C 234.075055 57.561897 260.770762 71.831049 285.817643 88.56937 
M 119.898123 19.843254 
C 149.444722 25.718294 178.411252 34.505194 206.242349 46.035489 
M 285.239006 300.796846 
C 306.500329 286.590484 327.761653 272.384122 349.022976 258.17776 
M 176.885811 116.908439 
C 200.079733 126.513779 222.326156 138.40474 243.198557 152.35334 
M 200.57947 216.13731 
C 217.278949 227.293859 232.878271 240.095892 247.078356 254.29796 
M 242.721976 383.20358 
C 266.346293 373.418067 289.97061 363.632555 313.594927 353.847042 
M 192.834549 308.541768 
C 203.4861 319.191832 213.087624 330.891323 221.455036 343.415932 
M 171.849026 412.560117 
C 168.00689 403.282548 163.250506 394.383979 157.671066 386.035019 
M 490.377098 471.273191 
C 464.806321 471.273191 439.235545 471.273191 413.664769 471.273191 
M 115.341298 343.705251 
C 106.992337 338.125811 98.093768 333.369426 88.8162 329.52729 
M 242.721976 383.20358 
C 248.487123 397.119128 252.880574 411.602393 255.818094 426.375693 
M 355.565972 145.810344 
C 376.869075 167.110472 396.072124 190.509455 412.806947 215.558673 
M 180.579771 441.341526 
C 178.621424 431.492659 175.692457 421.837149 171.849026 412.560117 
M 75.000624 245.558223 
C 79.989235 220.478782 84.977846 195.399341 89.966457 170.3199 
M 247.078356 254.29796 
C 261.280425 268.498045 274.082458 284.097367 285.239006 300.796846 
M 481.533062 381.478194 
C 487.412228 411.023973 490.379201 441.148158 490.377098 471.273191 
" style="fill: none; stroke: #2440cd; stroke-width: 2; stroke-linejoin: miter"/>
   </g>
   <g id="matplotlib.axis_1">
    <g id="xtick_1">
     <g id="line2d_1">
      <defs>
       <path id="m66bd4949f2" d="M 0 0 
L 0 3.5 
" style="stroke: #000000; stroke-width: 0.8"/>
      </defs>
      <g>
       <use xlink:href="#m66bd4949f2" x="30.103125" y="471.273191" style="stroke: #000000; stroke-width: 0.8"/>
      </g>
     </g>
     <g id="text_1">
      <!-- 0.0 -->
      <g transform="translate(22.151562 485.871629)scale(0.1 -0.1)">
       <defs>
        <path id="DejaVuSans-30" d="M 2034 4250 
Q 1547 4250 1301 3770 
Q 1056 3291 1056 2328 
Q 1056 1369 1301 889 
Q 1547 409 2034 409 
Q 2525 409 2770 889 
Q 3016 1369 3016 2328 
Q 3016 3291 2770 3770 
Q 2525 4250 2034 4250 
z
M 2034 4750 
Q 2819 4750 3233 4129 
Q 3647 3509 3647 2328 
Q 3647 1150 3233 529 
Q 2819 -91 2034 -91 
Q 1250 -91 836 529 
Q 422 1150 422 2328 
Q 422 3509 836 4129 
Q 1250 4750 2034 4750 
z
" transform="scale(0.015625)"/>
        <path id="DejaVuSans-2e" d="M 684 794 
L 1344 794 
L 1344 0 
L 684 0 
L 684 794 
z
" transform="scale(0.015625)"/>
       </defs>
       <use xlink:href="#DejaVuSans-30"/>
       <use xlink:href="#DejaVuSans-2e" x="63.623047"/>
       <use xlink:href="#DejaVuSans-30" x="95.410156"/>
      </g>
     </g>
    </g>
    <g id="xtick_2">
     <g id="line2d_2">
      <g>
       <use xlink:href="#m66bd4949f2" x="106.815454" y="471.273191" style="stroke: #000000; stroke-width: 0.8"/>
      </g>
     </g>
     <g id="text_2">
      <!-- 0.5 -->
      <g transform="translate(98.863891 485.871629)scale(0.1 -0.1)">
       <defs>
        <path id="DejaVuSans-35" d="M 691 4666 
L 3169 4666 
L 3169 4134 
L 1269 4134 
L 1269 2991 
Q 1406 3038 1543 3061 
Q 1681 3084 1819 3084 
Q 2600 3084 3056 2656 
Q 3513 2228 3513 1497 
Q 3513 744 3044 326 
Q 2575 -91 1722 -91 
Q 1428 -91 1123 -41 
Q 819 9 494 109 
L 494 744 
Q 775 591 1075 516 
Q 1375 441 1709 441 
Q 2250 441 2565 725 
Q 2881 1009 2881 1497 
Q 2881 1984 2565 2268 
Q 2250 2553 1709 2553 
Q 1456 2553 1204 2497 
Q 953 2441 691 2322 
L 691 4666 
z
" transform="scale(0.015625)"/>
       </defs>
       <use xlink:href="#DejaVuSans-30"/>
       <use xlink:href="#DejaVuSans-2e" x="63.623047"/>
       <use xlink:href="#DejaVuSans-35" x="95.410156"/>
      </g>
     </g>
    </g>
    <g id="xtick_3">
     <g id="line2d_3">
      <g>
       <use xlink:href="#m66bd4949f2" x="183.527783" y="471.273191" style="stroke: #000000; stroke-width: 0.8"/>
      </g>
     </g>
     <g id="text_3">
      <!-- 1.0 -->
      <g transform="translate(175.57622 485.871629)scale(0.1 -0.1)">
       <defs>
        <path id="DejaVuSans-31" d="M 794 531 
L 1825 531 
L 1825 4091 
L 703 3866 
L 703 4441 
L 1819 4666 
L 2450 4666 
L 2450 531 
L 3481 531 
L 3481 0 
L 794 0 
L 794 531 
z
" transform="scale(0.015625)"/>
       </defs>
       <use xlink:href="#DejaVuSans-31"/>
       <use xlink:href="#DejaVuSans-2e" x="63.623047"/>
       <use xlink:href="#DejaVuSans-30" x="95.410156"/>
      </g>
     </g>
    </g>
    <g id="xtick_4">
     <g id="line2d_4">
      <g>
       <use xlink:href="#m66bd4949f2" x="260.240111" y="471.273191" style="stroke: #000000; stroke-width: 0.8"/>
      </g>
     </g>
     <g id="text_4">
      <!-- 1.5 -->
      <g transform="translate(252.288549 485.871629)scale(0.1 -0.1)">
       <use xlink:href="#DejaVuSans-31"/>
       <use xlink:href="#DejaVuSans-2e" x="63.623047"/>
       <use xlink:href="#DejaVuSans-35" x="95.410156"/>
      </g>
     </g>
    </g>
    <g id="xtick_5">
     <g id="line2d_5">
      <g>
       <use xlink:href="#m66bd4949f2" x="336.95244" y="471.273191" style="stroke: #000000; stroke-width: 0.8"/>
      </g>
     </g>
     <g id="text_5">
      <!-- 2.0 -->
      <g transform="translate(329.000878 485.871629)scale(0.1 -0.1)">
       <defs>
        <path id="DejaVuSans-32" d="M 1228 531 
L 3431 531 
L 3431 0 
L 469 0 
L 469 531 
Q 828 903 1448 1529 
Q 2069 2156 2228 2338 
Q 2531 2678 2651 2914 
Q 2772 3150 2772 3378 
Q 2772 3750 2511 3984 
Q 2250 4219 1831 4219 
Q 1534 4219 1204 4116 
Q 875 4013 500 3803 
L 500 4441 
Q 881 4594 1212 4672 
Q 1544 4750 1819 4750 
Q 2544 4750 2975 4387 
Q 3406 4025 3406 3419 
Q 3406 3131 3298 2873 
Q 3191 2616 2906 2266 
Q 2828 2175 2409 1742 
Q 1991 1309 1228 531 
z
" transform="scale(0.015625)"/>
       </defs>
       <use xlink:href="#DejaVuSans-32"/>
       <use xlink:href="#DejaVuSans-2e" x="63.623047"/>
       <use xlink:href="#DejaVuSans-30" x="95.410156"/>
      </g>
     </g>
    </g>
    <g id="xtick_6">
     <g id="line2d_6">
      <g>
       <use xlink:href="#m66bd4949f2" x="413.664769" y="471.273191" style="stroke: #000000; stroke-width: 0.8"/>
      </g>
     </g>
     <g id="text_6">
      <!-- 2.5 -->
      <g transform="translate(405.713206 485.871629)scale(0.1 -0.1)">
       <use xlink:href="#DejaVuSans-32"/>
       <use xlink:href="#DejaVuSans-2e" x="63.623047"/>
       <use xlink:href="#DejaVuSans-35" x="95.410156"/>
      </g>
     </g>
    </g>
    <g id="xtick_7">
     <g id="line2d_7">
      <g>
       <use xlink:href="#m66bd4949f2" x="490.377098" y="471.273191" style="stroke: #000000; stroke-width: 0.8"/>
      </g>
     </g>
     <g id="text_7">
      <!-- 3.0 -->
      <g transform="translate(482.425535 485.871629)scale(0.1 -0.1)">
       <defs>
        <path id="DejaVuSans-33" d="M 2597 2516 
Q 3050 2419 3304 2112 
Q 3559 1806 3559 1356 
Q 3559 666 3084 287 
Q 2609 -91 1734 -91 
Q 1441 -91 1130 -33 
Q 819 25 488 141 
L 488 750 
Q 750 597 1062 519 
Q 1375 441 1716 441 
Q 2309 441 2620 675 
Q 2931 909 2931 1356 
Q 2931 1769 2642 2001 
Q 2353 2234 1838 2234 
L 1294 2234 
L 1294 2753 
L 1863 2753 
Q 2328 2753 2575 2939 
Q 2822 3125 2822 3475 
Q 2822 3834 2567 4026 
Q 2313 4219 1838 4219 
Q 1578 4219 1281 4162 
Q 984 4106 628 3988 
L 628 4550 
Q 988 4650 1302 4700 
Q 1616 4750 1894 4750 
Q 2613 4750 3031 4423 
Q 3450 4097 3450 3541 
Q 3450 3153 3228 2886 
Q 3006 2619 2597 2516 
z
" transform="scale(0.015625)"/>
       </defs>
       <use xlink:href="#DejaVuSans-33"/>
       <use xlink:href="#DejaVuSans-2e" x="63.623047"/>
       <use xlink:href="#DejaVuSans-30" x="95.410156"/>
      </g>
     </g>
    </g>
   </g>
   <g id="matplotlib.axis_2">
    <g id="ytick_1">
     <g id="line2d_8">
      <defs>
       <path id="m9d50a8c610" d="M 0 0 
L -3.5 0 
" style="stroke: #000000; stroke-width: 0.8"/>
      </defs>
      <g>
       <use xlink:href="#m9d50a8c610" x="30.103125" y="471.273191" style="stroke: #000000; stroke-width: 0.8"/>
      </g>
     </g>
     <g id="text_8">
      <!-- 0.0 -->
      <g transform="translate(7.2 475.07241)scale(0.1 -0.1)">
       <use xlink:href="#DejaVuSans-30"/>
       <use xlink:href="#DejaVuSans-2e" x="63.623047"/>
       <use xlink:href="#DejaVuSans-30" x="95.410156"/>
      </g>
     </g>
    </g>
    <g id="ytick_2">
     <g id="line2d_9">
      <g>
       <use xlink:href="#m9d50a8c610" x="30.103125" y="394.560863" style="stroke: #000000; stroke-width: 0.8"/>
      </g>
     </g>
     <g id="text_9">
      <!-- 0.5 -->
      <g transform="translate(7.2 398.360081)scale(0.1 -0.1)">
       <use xlink:href="#DejaVuSans-30"/>
       <use xlink:href="#DejaVuSans-2e" x="63.623047"/>
       <use xlink:href="#DejaVuSans-35" x="95.410156"/>
      </g>
     </g>
    </g>
    <g id="ytick_3">
     <g id="line2d_10">
      <g>
       <use xlink:href="#m9d50a8c610" x="30.103125" y="317.848534" style="stroke: #000000; stroke-width: 0.8"/>
      </g>
     </g>
     <g id="text_10">
      <!-- 1.0 -->
      <g transform="translate(7.2 321.647753)scale(0.1 -0.1)">
       <use xlink:href="#DejaVuSans-31"/>
       <use xlink:href="#DejaVuSans-2e" x="63.623047"/>
       <use xlink:href="#DejaVuSans-30" x="95.410156"/>
      </g>
     </g>
    </g>
    <g id="ytick_4">
     <g id="line2d_11">
      <g>
       <use xlink:href="#m9d50a8c610" x="30.103125" y="241.136205" style="stroke: #000000; stroke-width: 0.8"/>
      </g>
     </g>
     <g id="text_11">
      <!-- 1.5 -->
      <g transform="translate(7.2 244.935424)scale(0.1 -0.1)">
       <use xlink:href="#DejaVuSans-31"/>
       <use xlink:href="#DejaVuSans-2e" x="63.623047"/>
       <use xlink:href="#DejaVuSans-35" x="95.410156"/>
      </g>
     </g>
    </g>
    <g id="ytick_5">
     <g id="line2d_12">
      <g>
       <use xlink:href="#m9d50a8c610" x="30.103125" y="164.423876" style="stroke: #000000; stroke-width: 0.8"/>
      </g>
     </g>
     <g id="text_12">
      <!-- 2.0 -->
      <g transform="translate(7.2 168.223095)scale(0.1 -0.1)">
       <use xlink:href="#DejaVuSans-32"/>
       <use xlink:href="#DejaVuSans-2e" x="63.623047"/>
       <use xlink:href="#DejaVuSans-30" x="95.410156"/>
      </g>
     </g>
    </g>
    <g id="ytick_6">
     <g id="line2d_13">
      <g>
       <use xlink:href="#m9d50a8c610" x="30.103125" y="87.711548" style="stroke: #000000; stroke-width: 0.8"/>
      </g>
     </g>
     <g id="text_13">
      <!-- 2.5 -->
      <g transform="translate(7.2 91.510766)scale(0.1 -0.1)">
       <use xlink:href="#DejaVuSans-32"/>
       <use xlink:href="#DejaVuSans-2e" x="63.623047"/>
       <use xlink:href="#DejaVuSans-35" x="95.410156"/>
      </g>
     </g>
    </g>
    <g id="ytick_7">
     <g id="line2d_14">
      <g>
       <use xlink:href="#m9d50a8c610" x="30.103125" y="10.999219" style="stroke: #000000; stroke-width: 0.8"/>
      </g>
     </g>
     <g id="text_14">
      <!-- 3.0 -->
      <g transform="translate(7.2 14.798437)scale(0.1 -0.1)">
       <use xlink:href="#DejaVuSans-33"/>
       <use xlink:href="#DejaVuSans-2e" x="63.623047"/>
       <use xlink:href="#DejaVuSans-30" x="95.410156"/>
      </g>
     </g>
    </g>
   </g>
   <g id="patch_4">
    <path d="M 30.103125 471.273191 
L 30.103125 10.999219 
" style="fill: none; stroke: #000000; stroke-width: 0.8; stroke-linejoin: miter; stroke-linecap: square"/>
   </g>
   <g id="patch_5">
    <path d="M 490.377098 471.273191 
L 490.377098 10.999219 
" style="fill: none; stroke: #000000; stroke-width: 0.8; stroke-linejoin: miter; stroke-linecap: square"/>
   </g>
   <g id="patch_6">
    <path d="M 30.103125 471.273191 
L 490.377098 471.273191 
" style="fill: none; stroke: #000000; stroke-width: 0.8; stroke-linejoin: miter; stroke-linecap: square"/>
   </g>
   <g id="patch_7">
    <path d="M 30.103125 10.999219 
L 490.377098 10.999219 
" style="fill: none; stroke: #000000; stroke-width: 0.8; stroke-linejoin: miter; stroke-linecap: square"/>
   </g>
  </g>
 </g>
</svg>
