<?xml version="1.0" encoding="utf-8" standalone="no"?>
<!DOCTYPE svg PUBLIC "-//W3C//DTD SVG 1.1//EN"
  "http://www.w3.org/Graphics/SVG/1.1/DTD/svg11.dtd">
<svg xmlns:xlink="http://www.w3.org/1999/xlink" width="519.206785pt" height="508.829441pt" viewBox="0 0 519.206785 508.829441" xmlns="http://www.w3.org/2000/svg" version="1.1">
 <metadata>
  <rdf:RDF xmlns:dc="http://purl.org/dc/elements/1.1/" xmlns:cc="http://creativecommons.org/ns#" xmlns:rdf="http://www.w3.org/1999/02/22-rdf-syntax-ns#">
   <cc:Work>
    <dc:type rdf:resource="http://purl.org/dc/dcmitype/StillImage"/>
    <dc:date>2022-06-29T15:56:13.501020</dc:date>
    <dc:format>image/svg+xml</dc:format>
    <dc:creator>
     <cc:Agent>
      <dc:title>Matplotlib v3.5.2, https://matplotlib.org/</dc:title>
     </cc:Agent>
    </dc:creator>
   </cc:Work>
  </rdf:RDF>
 </metadata>
 <defs>
  <style type="text/css">*{stroke-linejoin: round; stroke-linecap: butt}</style>
 </defs>
 <g id="figure_1">
  <g id="patch_1">
   <path d="M 0 508.829441 
L 519.206785 508.829441 
L 519.206785 0 
L 0 0 
z
" style="fill: #ffffff"/>
  </g>
  <g id="axes_1">
   <g id="patch_2">
    <path d="M 43.78125 471.273191 
L 504.055223 471.273191 
L 504.055223 10.999219 
L 43.78125 10.999219 
z
" style="fill: #ffffff"/>
   </g>
   <g id="matplotlib.axis_1">
    <g id="xtick_1">
     <g id="line2d_1">
      <path d="M 43.78125 471.273191 
L 43.78125 10.999219 
" clip-path="url(#pd90c84101d)" style="fill: none; stroke-dasharray: 2.96,1.28; stroke-dashoffset: 0; stroke: #808080; stroke-width: 0.8"/>
     </g>
     <g id="line2d_2">
      <defs>
       <path id="m1711b6eaac" d="M 0 0 
L 0 3.5 
" style="stroke: #000000; stroke-width: 0.8"/>
      </defs>
      <g>
       <use xlink:href="#m1711b6eaac" x="43.78125" y="471.273191" style="stroke: #000000; stroke-width: 0.8"/>
      </g>
     </g>
     <g id="text_1">
      <!-- 0.0 -->
      <g transform="translate(35.829687 485.871629)scale(0.1 -0.1)">
       <defs>
        <path id="DejaVuSans-30" d="M 2034 4250 
Q 1547 4250 1301 3770 
Q 1056 3291 1056 2328 
Q 1056 1369 1301 889 
Q 1547 409 2034 409 
Q 2525 409 2770 889 
Q 3016 1369 3016 2328 
Q 3016 3291 2770 3770 
Q 2525 4250 2034 4250 
z
M 2034 4750 
Q 2819 4750 3233 4129 
Q 3647 3509 3647 2328 
Q 3647 1150 3233 529 
Q 2819 -91 2034 -91 
Q 1250 -91 836 529 
Q 422 1150 422 2328 
Q 422 3509 836 4129 
Q 1250 4750 2034 4750 
z
" transform="scale(0.015625)"/>
        <path id="DejaVuSans-2e" d="M 684 794 
L 1344 794 
L 1344 0 
L 684 0 
L 684 794 
z
" transform="scale(0.015625)"/>
       </defs>
       <use xlink:href="#DejaVuSans-30"/>
       <use xlink:href="#DejaVuSans-2e" x="63.623047"/>
       <use xlink:href="#DejaVuSans-30" x="95.410156"/>
      </g>
     </g>
    </g>
    <g id="xtick_2">
     <g id="line2d_3">
      <path d="M 120.493579 471.273191 
L 120.493579 10.999219 
" clip-path="url(#pd90c84101d)" style="fill: none; stroke-dasharray: 2.96,1.28; stroke-dashoffset: 0; stroke: #808080; stroke-width: 0.8"/>
     </g>
     <g id="line2d_4">
      <g>
       <use xlink:href="#m1711b6eaac" x="120.493579" y="471.273191" style="stroke: #000000; stroke-width: 0.8"/>
      </g>
     </g>
     <g id="text_2">
      <!-- 0.5 -->
      <g transform="translate(112.542016 485.871629)scale(0.1 -0.1)">
       <defs>
        <path id="DejaVuSans-35" d="M 691 4666 
L 3169 4666 
L 3169 4134 
L 1269 4134 
L 1269 2991 
Q 1406 3038 1543 3061 
Q 1681 3084 1819 3084 
Q 2600 3084 3056 2656 
Q 3513 2228 3513 1497 
Q 3513 744 3044 326 
Q 2575 -91 1722 -91 
Q 1428 -91 1123 -41 
Q 819 9 494 109 
L 494 744 
Q 775 591 1075 516 
Q 1375 441 1709 441 
Q 2250 441 2565 725 
Q 2881 1009 2881 1497 
Q 2881 1984 2565 2268 
Q 2250 2553 1709 2553 
Q 1456 2553 1204 2497 
Q 953 2441 691 2322 
L 691 4666 
z
" transform="scale(0.015625)"/>
       </defs>
       <use xlink:href="#DejaVuSans-30"/>
       <use xlink:href="#DejaVuSans-2e" x="63.623047"/>
       <use xlink:href="#DejaVuSans-35" x="95.410156"/>
      </g>
     </g>
    </g>
    <g id="xtick_3">
     <g id="line2d_5">
      <path d="M 197.205908 471.273191 
L 197.205908 10.999219 
" clip-path="url(#pd90c84101d)" style="fill: none; stroke-dasharray: 2.96,1.28; stroke-dashoffset: 0; stroke: #808080; stroke-width: 0.8"/>
     </g>
     <g id="line2d_6">
      <g>
       <use xlink:href="#m1711b6eaac" x="197.205908" y="471.273191" style="stroke: #000000; stroke-width: 0.8"/>
      </g>
     </g>
     <g id="text_3">
      <!-- 1.0 -->
      <g transform="translate(189.254345 485.871629)scale(0.1 -0.1)">
       <defs>
        <path id="DejaVuSans-31" d="M 794 531 
L 1825 531 
L 1825 4091 
L 703 3866 
L 703 4441 
L 1819 4666 
L 2450 4666 
L 2450 531 
L 3481 531 
L 3481 0 
L 794 0 
L 794 531 
z
" transform="scale(0.015625)"/>
       </defs>
       <use xlink:href="#DejaVuSans-31"/>
       <use xlink:href="#DejaVuSans-2e" x="63.623047"/>
       <use xlink:href="#DejaVuSans-30" x="95.410156"/>
      </g>
     </g>
    </g>
    <g id="xtick_4">
     <g id="line2d_7">
      <path d="M 273.918236 471.273191 
L 273.918236 10.999219 
" clip-path="url(#pd90c84101d)" style="fill: none; stroke-dasharray: 2.96,1.28; stroke-dashoffset: 0; stroke: #808080; stroke-width: 0.8"/>
     </g>
     <g id="line2d_8">
      <g>
       <use xlink:href="#m1711b6eaac" x="273.918236" y="471.273191" style="stroke: #000000; stroke-width: 0.8"/>
      </g>
     </g>
     <g id="text_4">
      <!-- 1.5 -->
      <g transform="translate(265.966674 485.871629)scale(0.1 -0.1)">
       <use xlink:href="#DejaVuSans-31"/>
       <use xlink:href="#DejaVuSans-2e" x="63.623047"/>
       <use xlink:href="#DejaVuSans-35" x="95.410156"/>
      </g>
     </g>
    </g>
    <g id="xtick_5">
     <g id="line2d_9">
      <path d="M 350.630565 471.273191 
L 350.630565 10.999219 
" clip-path="url(#pd90c84101d)" style="fill: none; stroke-dasharray: 2.96,1.28; stroke-dashoffset: 0; stroke: #808080; stroke-width: 0.8"/>
     </g>
     <g id="line2d_10">
      <g>
       <use xlink:href="#m1711b6eaac" x="350.630565" y="471.273191" style="stroke: #000000; stroke-width: 0.8"/>
      </g>
     </g>
     <g id="text_5">
      <!-- 2.0 -->
      <g transform="translate(342.679003 485.871629)scale(0.1 -0.1)">
       <defs>
        <path id="DejaVuSans-32" d="M 1228 531 
L 3431 531 
L 3431 0 
L 469 0 
L 469 531 
Q 828 903 1448 1529 
Q 2069 2156 2228 2338 
Q 2531 2678 2651 2914 
Q 2772 3150 2772 3378 
Q 2772 3750 2511 3984 
Q 2250 4219 1831 4219 
Q 1534 4219 1204 4116 
Q 875 4013 500 3803 
L 500 4441 
Q 881 4594 1212 4672 
Q 1544 4750 1819 4750 
Q 2544 4750 2975 4387 
Q 3406 4025 3406 3419 
Q 3406 3131 3298 2873 
Q 3191 2616 2906 2266 
Q 2828 2175 2409 1742 
Q 1991 1309 1228 531 
z
" transform="scale(0.015625)"/>
       </defs>
       <use xlink:href="#DejaVuSans-32"/>
       <use xlink:href="#DejaVuSans-2e" x="63.623047"/>
       <use xlink:href="#DejaVuSans-30" x="95.410156"/>
      </g>
     </g>
    </g>
    <g id="xtick_6">
     <g id="line2d_11">
      <path d="M 427.342894 471.273191 
L 427.342894 10.999219 
" clip-path="url(#pd90c84101d)" style="fill: none; stroke-dasharray: 2.96,1.28; stroke-dashoffset: 0; stroke: #808080; stroke-width: 0.8"/>
     </g>
     <g id="line2d_12">
      <g>
       <use xlink:href="#m1711b6eaac" x="427.342894" y="471.273191" style="stroke: #000000; stroke-width: 0.8"/>
      </g>
     </g>
     <g id="text_6">
      <!-- 2.5 -->
      <g transform="translate(419.391331 485.871629)scale(0.1 -0.1)">
       <use xlink:href="#DejaVuSans-32"/>
       <use xlink:href="#DejaVuSans-2e" x="63.623047"/>
       <use xlink:href="#DejaVuSans-35" x="95.410156"/>
      </g>
     </g>
    </g>
    <g id="xtick_7">
     <g id="line2d_13">
      <path d="M 504.055223 471.273191 
L 504.055223 10.999219 
" clip-path="url(#pd90c84101d)" style="fill: none; stroke-dasharray: 2.96,1.28; stroke-dashoffset: 0; stroke: #808080; stroke-width: 0.8"/>
     </g>
     <g id="line2d_14">
      <g>
       <use xlink:href="#m1711b6eaac" x="504.055223" y="471.273191" style="stroke: #000000; stroke-width: 0.8"/>
      </g>
     </g>
     <g id="text_7">
      <!-- 3.0 -->
      <g transform="translate(496.10366 485.871629)scale(0.1 -0.1)">
       <defs>
        <path id="DejaVuSans-33" d="M 2597 2516 
Q 3050 2419 3304 2112 
Q 3559 1806 3559 1356 
Q 3559 666 3084 287 
Q 2609 -91 1734 -91 
Q 1441 -91 1130 -33 
Q 819 25 488 141 
L 488 750 
Q 750 597 1062 519 
Q 1375 441 1716 441 
Q 2309 441 2620 675 
Q 2931 909 2931 1356 
Q 2931 1769 2642 2001 
Q 2353 2234 1838 2234 
L 1294 2234 
L 1294 2753 
L 1863 2753 
Q 2328 2753 2575 2939 
Q 2822 3125 2822 3475 
Q 2822 3834 2567 4026 
Q 2313 4219 1838 4219 
Q 1578 4219 1281 4162 
Q 984 4106 628 3988 
L 628 4550 
Q 988 4650 1302 4700 
Q 1616 4750 1894 4750 
Q 2613 4750 3031 4423 
Q 3450 4097 3450 3541 
Q 3450 3153 3228 2886 
Q 3006 2619 2597 2516 
z
" transform="scale(0.015625)"/>
       </defs>
       <use xlink:href="#DejaVuSans-33"/>
       <use xlink:href="#DejaVuSans-2e" x="63.623047"/>
       <use xlink:href="#DejaVuSans-30" x="95.410156"/>
      </g>
     </g>
    </g>
    <g id="text_8">
     <!-- x -->
     <g transform="translate(270.958861 499.549754)scale(0.1 -0.1)">
      <defs>
       <path id="DejaVuSans-78" d="M 3513 3500 
L 2247 1797 
L 3578 0 
L 2900 0 
L 1881 1375 
L 863 0 
L 184 0 
L 1544 1831 
L 300 3500 
L 978 3500 
L 1906 2253 
L 2834 3500 
L 3513 3500 
z
" transform="scale(0.015625)"/>
      </defs>
      <use xlink:href="#DejaVuSans-78"/>
     </g>
    </g>
   </g>
   <g id="matplotlib.axis_2">
    <g id="ytick_1">
     <g id="line2d_15">
      <path d="M 43.78125 471.273191 
L 504.055223 471.273191 
" clip-path="url(#pd90c84101d)" style="fill: none; stroke-dasharray: 2.96,1.28; stroke-dashoffset: 0; stroke: #808080; stroke-width: 0.8"/>
     </g>
     <g id="line2d_16">
      <defs>
       <path id="m95e8032f8b" d="M 0 0 
L -3.5 0 
" style="stroke: #000000; stroke-width: 0.8"/>
      </defs>
      <g>
       <use xlink:href="#m95e8032f8b" x="43.78125" y="471.273191" style="stroke: #000000; stroke-width: 0.8"/>
      </g>
     </g>
     <g id="text_9">
      <!-- 0.0 -->
      <g transform="translate(20.878125 475.07241)scale(0.1 -0.1)">
       <use xlink:href="#DejaVuSans-30"/>
       <use xlink:href="#DejaVuSans-2e" x="63.623047"/>
       <use xlink:href="#DejaVuSans-30" x="95.410156"/>
      </g>
     </g>
    </g>
    <g id="ytick_2">
     <g id="line2d_17">
      <path d="M 43.78125 394.560863 
L 504.055223 394.560863 
" clip-path="url(#pd90c84101d)" style="fill: none; stroke-dasharray: 2.96,1.28; stroke-dashoffset: 0; stroke: #808080; stroke-width: 0.8"/>
     </g>
     <g id="line2d_18">
      <g>
       <use xlink:href="#m95e8032f8b" x="43.78125" y="394.560863" style="stroke: #000000; stroke-width: 0.8"/>
      </g>
     </g>
     <g id="text_10">
      <!-- 0.5 -->
      <g transform="translate(20.878125 398.360081)scale(0.1 -0.1)">
       <use xlink:href="#DejaVuSans-30"/>
       <use xlink:href="#DejaVuSans-2e" x="63.623047"/>
       <use xlink:href="#DejaVuSans-35" x="95.410156"/>
      </g>
     </g>
    </g>
    <g id="ytick_3">
     <g id="line2d_19">
      <path d="M 43.78125 317.848534 
L 504.055223 317.848534 
" clip-path="url(#pd90c84101d)" style="fill: none; stroke-dasharray: 2.96,1.28; stroke-dashoffset: 0; stroke: #808080; stroke-width: 0.8"/>
     </g>
     <g id="line2d_20">
      <g>
       <use xlink:href="#m95e8032f8b" x="43.78125" y="317.848534" style="stroke: #000000; stroke-width: 0.8"/>
      </g>
     </g>
     <g id="text_11">
      <!-- 1.0 -->
      <g transform="translate(20.878125 321.647753)scale(0.1 -0.1)">
       <use xlink:href="#DejaVuSans-31"/>
       <use xlink:href="#DejaVuSans-2e" x="63.623047"/>
       <use xlink:href="#DejaVuSans-30" x="95.410156"/>
      </g>
     </g>
    </g>
    <g id="ytick_4">
     <g id="line2d_21">
      <path d="M 43.78125 241.136205 
L 504.055223 241.136205 
" clip-path="url(#pd90c84101d)" style="fill: none; stroke-dasharray: 2.96,1.28; stroke-dashoffset: 0; stroke: #808080; stroke-width: 0.8"/>
     </g>
     <g id="line2d_22">
      <g>
       <use xlink:href="#m95e8032f8b" x="43.78125" y="241.136205" style="stroke: #000000; stroke-width: 0.8"/>
      </g>
     </g>
     <g id="text_12">
      <!-- 1.5 -->
      <g transform="translate(20.878125 244.935424)scale(0.1 -0.1)">
       <use xlink:href="#DejaVuSans-31"/>
       <use xlink:href="#DejaVuSans-2e" x="63.623047"/>
       <use xlink:href="#DejaVuSans-35" x="95.410156"/>
      </g>
     </g>
    </g>
    <g id="ytick_5">
     <g id="line2d_23">
      <path d="M 43.78125 164.423876 
L 504.055223 164.423876 
" clip-path="url(#pd90c84101d)" style="fill: none; stroke-dasharray: 2.96,1.28; stroke-dashoffset: 0; stroke: #808080; stroke-width: 0.8"/>
     </g>
     <g id="line2d_24">
      <g>
       <use xlink:href="#m95e8032f8b" x="43.78125" y="164.423876" style="stroke: #000000; stroke-width: 0.8"/>
      </g>
     </g>
     <g id="text_13">
      <!-- 2.0 -->
      <g transform="translate(20.878125 168.223095)scale(0.1 -0.1)">
       <use xlink:href="#DejaVuSans-32"/>
       <use xlink:href="#DejaVuSans-2e" x="63.623047"/>
       <use xlink:href="#DejaVuSans-30" x="95.410156"/>
      </g>
     </g>
    </g>
    <g id="ytick_6">
     <g id="line2d_25">
      <path d="M 43.78125 87.711548 
L 504.055223 87.711548 
" clip-path="url(#pd90c84101d)" style="fill: none; stroke-dasharray: 2.96,1.28; stroke-dashoffset: 0; stroke: #808080; stroke-width: 0.8"/>
     </g>
     <g id="line2d_26">
      <g>
       <use xlink:href="#m95e8032f8b" x="43.78125" y="87.711548" style="stroke: #000000; stroke-width: 0.8"/>
      </g>
     </g>
     <g id="text_14">
      <!-- 2.5 -->
      <g transform="translate(20.878125 91.510766)scale(0.1 -0.1)">
       <use xlink:href="#DejaVuSans-32"/>
       <use xlink:href="#DejaVuSans-2e" x="63.623047"/>
       <use xlink:href="#DejaVuSans-35" x="95.410156"/>
      </g>
     </g>
    </g>
    <g id="ytick_7">
     <g id="line2d_27">
      <path d="M 43.78125 10.999219 
L 504.055223 10.999219 
" clip-path="url(#pd90c84101d)" style="fill: none; stroke-dasharray: 2.96,1.28; stroke-dashoffset: 0; stroke: #808080; stroke-width: 0.8"/>
     </g>
     <g id="line2d_28">
      <g>
       <use xlink:href="#m95e8032f8b" x="43.78125" y="10.999219" style="stroke: #000000; stroke-width: 0.8"/>
      </g>
     </g>
     <g id="text_15">
      <!-- 3.0 -->
      <g transform="translate(20.878125 14.798437)scale(0.1 -0.1)">
       <use xlink:href="#DejaVuSans-33"/>
       <use xlink:href="#DejaVuSans-2e" x="63.623047"/>
       <use xlink:href="#DejaVuSans-30" x="95.410156"/>
      </g>
     </g>
    </g>
    <g id="text_16">
     <!-- y -->
     <g transform="translate(14.798437 244.09558)rotate(-90)scale(0.1 -0.1)">
      <defs>
       <path id="DejaVuSans-79" d="M 2059 -325 
Q 1816 -950 1584 -1140 
Q 1353 -1331 966 -1331 
L 506 -1331 
L 506 -850 
L 844 -850 
Q 1081 -850 1212 -737 
Q 1344 -625 1503 -206 
L 1606 56 
L 191 3500 
L 800 3500 
L 1894 763 
L 2988 3500 
L 3597 3500 
L 2059 -325 
z
" transform="scale(0.015625)"/>
      </defs>
      <use xlink:href="#DejaVuSans-79"/>
     </g>
    </g>
   </g>
   <g id="patch_3">
    <path d="M 160.103867 25.940531 
C 152.369173 58.109318 144.63448 90.278105 136.899787 122.446892 
M 323.136861 191.917581 
C 334.715309 222.957093 346.293757 253.996605 357.872205 285.036118 
M 115.716262 399.338179 
C 117.308701 423.316517 118.90114 447.294854 120.493579 471.273191 
M 357.872205 285.036118 
C 385.558638 269.566731 413.245072 254.097345 440.931505 238.627958 
M 489.113911 354.950575 
C 499.671084 395.223218 504.09471 435.164707 504.055223 471.273191 
M 230.018324 157.182236 
C 219.772271 175.951881 209.526218 194.721526 199.280166 213.49117 
M 230.922387 284.132054 
C 235.699704 304.925514 240.47702 325.718974 245.254337 346.512433 
M 350.630565 471.273191 
C 325.059789 471.273191 299.489013 471.273191 273.918236 471.273191 
M 106.161629 255.468155 
C 107.754068 279.446492 109.346507 303.42483 110.938946 327.403167 
M 199.280166 213.49117 
C 189.034113 232.260815 178.788061 251.03046 168.542008 269.800104 
M 199.280166 213.49117 
C 225.196652 221.669053 251.113138 229.846935 277.029624 238.024818 
M 43.78125 471.273191 
C 43.78125 445.702415 43.78125 420.131639 43.78125 394.560863 
M 168.542008 269.800104 
C 189.335468 274.577421 210.128927 279.354738 230.922387 284.132054 
M 276.426483 74.122936 
C 260.957097 101.809369 245.48771 129.495803 230.018324 157.182236 
M 178.096641 336.9578 
C 181.281519 359.343699 184.466397 381.729597 187.651274 404.115496 
M 120.493579 471.273191 
C 94.922803 471.273191 69.352026 471.273191 43.78125 471.273191 
M 121.530708 188.957523 
C 147.447194 197.135406 173.36368 205.313288 199.280166 213.49117 
M 427.342894 471.273191 
C 401.772118 471.273191 376.201341 471.273191 350.630565 471.273191 
M 440.931505 238.627958 
C 462.008566 274.465512 478.676666 314.705864 489.113911 354.950575 
M 277.029624 238.024818 
C 292.398703 222.655739 307.767782 207.28666 323.136861 191.917581 
M 43.78125 241.136205 
C 64.57471 245.913522 85.368169 250.690838 106.161629 255.468155 
M 187.651274 404.115496 
C 190.836152 426.501394 194.02103 448.887293 197.205908 471.273191 
M 392.607549 378.154655 
C 424.776337 370.419961 456.945124 362.685268 489.113911 354.950575 
M 187.651274 404.115496 
C 211.629612 405.707935 235.607949 407.300373 259.586287 408.892812 
M 245.254337 346.512433 
C 250.031653 367.305893 254.80897 388.099353 259.586287 408.892812 
M 259.586287 408.892812 
C 264.363603 429.686272 269.14092 450.479732 273.918236 471.273191 
M 43.78125 164.423876 
C 69.697736 172.601759 95.614222 180.779641 121.530708 188.957523 
M 43.78125 87.711548 
C 43.78125 62.140771 43.78125 36.569995 43.78125 10.999219 
M 160.103867 25.940531 
C 200.348577 36.377775 240.588929 53.045875 276.426483 74.122936 
M 326.096918 393.523733 
C 348.267128 388.400707 370.437339 383.277681 392.607549 378.154655 
M 392.607549 378.154655 
C 404.185998 409.194167 415.764446 440.233679 427.342894 471.273191 
M 110.938946 327.403167 
C 133.324844 330.588045 155.710743 333.772922 178.096641 336.9578 
M 43.78125 164.423876 
C 43.78125 138.8531 43.78125 113.282324 43.78125 87.711548 
M 369.244097 145.810344 
C 394.804573 171.314976 419.919495 202.685851 440.931505 238.627958 
M 301.563271 315.774275 
C 320.332916 305.528223 339.10256 295.28217 357.872205 285.036118 
M 273.918236 471.273191 
C 248.34746 471.273191 222.776684 471.273191 197.205908 471.273191 
M 43.78125 10.999219 
C 79.889734 10.959731 119.831224 15.383358 160.103867 25.940531 
M 357.872205 285.036118 
C 369.450653 316.07563 381.029101 347.115142 392.607549 378.154655 
M 276.426483 74.122936 
C 312.368591 95.134947 343.739465 120.249868 369.244097 145.810344 
M 43.78125 394.560863 
C 43.78125 368.990086 43.78125 343.41931 43.78125 317.848534 
M 230.922387 284.132054 
C 246.291466 268.762975 261.660545 253.393896 277.029624 238.024818 
M 43.78125 317.848534 
C 66.167149 321.033412 88.553047 324.218289 110.938946 327.403167 
M 110.938946 327.403167 
C 112.531384 351.381504 114.123823 375.359842 115.716262 399.338179 
M 43.78125 317.848534 
C 43.78125 292.277758 43.78125 266.706981 43.78125 241.136205 
M 43.78125 394.560863 
C 67.759587 396.153301 91.737925 397.74574 115.716262 399.338179 
M 136.899787 122.446892 
C 167.939299 134.02534 198.978811 145.603788 230.018324 157.182236 
M 197.205908 471.273191 
C 171.635131 471.273191 146.064355 471.273191 120.493579 471.273191 
M 259.586287 408.892812 
C 281.756497 403.769786 303.926708 398.64676 326.096918 393.523733 
M 178.096641 336.9578 
C 200.48254 340.142678 222.868438 343.327556 245.254337 346.512433 
M 301.563271 315.774275 
C 309.741153 341.690761 317.919036 367.607247 326.096918 393.523733 
M 121.530708 188.957523 
C 116.407682 211.127734 111.284655 233.297944 106.161629 255.468155 
M 323.136861 191.917581 
C 338.505939 176.548502 353.875018 161.179423 369.244097 145.810344 
M 106.161629 255.468155 
C 126.955089 260.245471 147.748548 265.022788 168.542008 269.800104 
M 277.029624 238.024818 
C 285.207506 263.941303 293.385389 289.857789 301.563271 315.774275 
M 245.254337 346.512433 
C 264.023982 336.266381 282.793626 326.020328 301.563271 315.774275 
M 326.096918 393.523733 
C 334.2748 419.440219 342.452683 445.356705 350.630565 471.273191 
M 43.78125 87.711548 
C 74.820762 99.289996 105.860275 110.868444 136.899787 122.446892 
M 230.018324 157.182236 
C 261.057836 168.760685 292.097348 180.339133 323.136861 191.917581 
M 136.899787 122.446892 
C 131.776761 144.617102 126.653734 166.787313 121.530708 188.957523 
M 168.542008 269.800104 
C 171.726886 292.186003 174.911764 314.571902 178.096641 336.9578 
M 504.055223 471.273191 
C 478.484446 471.273191 452.91367 471.273191 427.342894 471.273191 
M 43.78125 241.136205 
C 43.78125 215.565429 43.78125 189.994653 43.78125 164.423876 
M 115.716262 399.338179 
C 139.6946 400.930618 163.672937 402.523057 187.651274 404.115496 
" style="fill: none; stroke: #2440cd; stroke-width: 2; stroke-linejoin: miter"/>
   </g>
   <g id="line2d_29">
    <defs>
     <path id="m63940c3769" d="M 0 3 
C 0.795609 3 1.55874 2.683901 2.12132 2.12132 
C 2.683901 1.55874 3 0.795609 3 0 
C 3 -0.795609 2.683901 -1.55874 2.12132 -2.12132 
C 1.55874 -2.683901 0.795609 -3 0 -3 
C -0.795609 -3 -1.55874 -2.683901 -2.12132 -2.12132 
C -2.683901 -1.55874 -3 -0.795609 -3 0 
C -3 0.795609 -2.683901 1.55874 -2.12132 2.12132 
C -1.55874 2.683901 -0.795609 3 0 3 
z
" style="stroke: #ffffff"/>
    </defs>
    <g>
     <use xlink:href="#m63940c3769" x="43.78125" y="471.273191" style="stroke: #ffffff"/>
     <use xlink:href="#m63940c3769" x="120.493579" y="471.273191" style="stroke: #ffffff"/>
     <use xlink:href="#m63940c3769" x="115.716262" y="399.338179" style="stroke: #ffffff"/>
     <use xlink:href="#m63940c3769" x="43.78125" y="394.560863" style="stroke: #ffffff"/>
     <use xlink:href="#m63940c3769" x="62.959332" y="471.273191" style="stroke: #ffffff"/>
     <use xlink:href="#m63940c3769" x="119.29925" y="453.289438" style="stroke: #ffffff"/>
     <use xlink:href="#m63940c3769" x="97.732509" y="398.14385" style="stroke: #ffffff"/>
     <use xlink:href="#m63940c3769" x="43.78125" y="413.738945" style="stroke: #ffffff"/>
     <use xlink:href="#m63940c3769" x="82.137414" y="471.273191" style="stroke: #ffffff"/>
     <use xlink:href="#m63940c3769" x="118.10492" y="435.305685" style="stroke: #ffffff"/>
     <use xlink:href="#m63940c3769" x="79.748756" y="396.949521" style="stroke: #ffffff"/>
     <use xlink:href="#m63940c3769" x="43.78125" y="432.917027" style="stroke: #ffffff"/>
     <use xlink:href="#m63940c3769" x="101.315497" y="471.273191" style="stroke: #ffffff"/>
     <use xlink:href="#m63940c3769" x="116.910591" y="417.321932" style="stroke: #ffffff"/>
     <use xlink:href="#m63940c3769" x="61.765003" y="395.755192" style="stroke: #ffffff"/>
     <use xlink:href="#m63940c3769" x="43.78125" y="452.095109" style="stroke: #ffffff"/>
     <use xlink:href="#m63940c3769" x="80.943085" y="434.111356" style="stroke: #ffffff"/>
     <use xlink:href="#m63940c3769" x="197.205908" y="471.273191" style="stroke: #ffffff"/>
     <use xlink:href="#m63940c3769" x="187.651274" y="404.115496" style="stroke: #ffffff"/>
     <use xlink:href="#m63940c3769" x="139.671661" y="471.273191" style="stroke: #ffffff"/>
     <use xlink:href="#m63940c3769" x="194.817249" y="454.483767" style="stroke: #ffffff"/>
     <use xlink:href="#m63940c3769" x="169.667521" y="402.921167" style="stroke: #ffffff"/>
     <use xlink:href="#m63940c3769" x="158.849743" y="471.273191" style="stroke: #ffffff"/>
     <use xlink:href="#m63940c3769" x="192.428591" y="437.694344" style="stroke: #ffffff"/>
     <use xlink:href="#m63940c3769" x="151.683768" y="401.726837" style="stroke: #ffffff"/>
     <use xlink:href="#m63940c3769" x="178.027825" y="471.273191" style="stroke: #ffffff"/>
     <use xlink:href="#m63940c3769" x="190.039933" y="420.90492" style="stroke: #ffffff"/>
     <use xlink:href="#m63940c3769" x="133.700015" y="400.532508" style="stroke: #ffffff"/>
     <use xlink:href="#m63940c3769" x="155.266756" y="436.500014" style="stroke: #ffffff"/>
     <use xlink:href="#m63940c3769" x="273.918236" y="471.273191" style="stroke: #ffffff"/>
     <use xlink:href="#m63940c3769" x="259.586287" y="408.892812" style="stroke: #ffffff"/>
     <use xlink:href="#m63940c3769" x="216.38399" y="471.273191" style="stroke: #ffffff"/>
     <use xlink:href="#m63940c3769" x="270.335249" y="455.678097" style="stroke: #ffffff"/>
     <use xlink:href="#m63940c3769" x="241.602534" y="407.698483" style="stroke: #ffffff"/>
     <use xlink:href="#m63940c3769" x="235.562072" y="471.273191" style="stroke: #ffffff"/>
     <use xlink:href="#m63940c3769" x="266.752261" y="440.083002" style="stroke: #ffffff"/>
     <use xlink:href="#m63940c3769" x="223.61878" y="406.504154" style="stroke: #ffffff"/>
     <use xlink:href="#m63940c3769" x="254.740154" y="471.273191" style="stroke: #ffffff"/>
     <use xlink:href="#m63940c3769" x="263.169274" y="424.487907" style="stroke: #ffffff"/>
     <use xlink:href="#m63940c3769" x="205.635027" y="405.309825" style="stroke: #ffffff"/>
     <use xlink:href="#m63940c3769" x="229.590426" y="438.888673" style="stroke: #ffffff"/>
     <use xlink:href="#m63940c3769" x="110.938946" y="327.403167" style="stroke: #ffffff"/>
     <use xlink:href="#m63940c3769" x="43.78125" y="317.848534" style="stroke: #ffffff"/>
     <use xlink:href="#m63940c3769" x="114.521933" y="381.354426" style="stroke: #ffffff"/>
     <use xlink:href="#m63940c3769" x="94.149522" y="325.014509" style="stroke: #ffffff"/>
     <use xlink:href="#m63940c3769" x="43.78125" y="337.026616" style="stroke: #ffffff"/>
     <use xlink:href="#m63940c3769" x="113.327604" y="363.370673" style="stroke: #ffffff"/>
     <use xlink:href="#m63940c3769" x="77.360098" y="322.62585" style="stroke: #ffffff"/>
     <use xlink:href="#m63940c3769" x="43.78125" y="356.204698" style="stroke: #ffffff"/>
     <use xlink:href="#m63940c3769" x="112.133275" y="345.38692" style="stroke: #ffffff"/>
     <use xlink:href="#m63940c3769" x="60.570674" y="320.237192" style="stroke: #ffffff"/>
     <use xlink:href="#m63940c3769" x="43.78125" y="375.38278" style="stroke: #ffffff"/>
     <use xlink:href="#m63940c3769" x="78.554427" y="359.787686" style="stroke: #ffffff"/>
     <use xlink:href="#m63940c3769" x="178.096641" y="336.9578" style="stroke: #ffffff"/>
     <use xlink:href="#m63940c3769" x="185.262616" y="387.326072" style="stroke: #ffffff"/>
     <use xlink:href="#m63940c3769" x="161.307217" y="334.569142" style="stroke: #ffffff"/>
     <use xlink:href="#m63940c3769" x="182.873958" y="370.536648" style="stroke: #ffffff"/>
     <use xlink:href="#m63940c3769" x="144.517793" y="332.180484" style="stroke: #ffffff"/>
     <use xlink:href="#m63940c3769" x="180.4853" y="353.747224" style="stroke: #ffffff"/>
     <use xlink:href="#m63940c3769" x="127.72837" y="329.791825" style="stroke: #ffffff"/>
     <use xlink:href="#m63940c3769" x="148.100781" y="366.95366" style="stroke: #ffffff"/>
     <use xlink:href="#m63940c3769" x="245.254337" y="346.512433" style="stroke: #ffffff"/>
     <use xlink:href="#m63940c3769" x="256.003299" y="393.297718" style="stroke: #ffffff"/>
     <use xlink:href="#m63940c3769" x="228.464913" y="344.123775" style="stroke: #ffffff"/>
     <use xlink:href="#m63940c3769" x="252.420312" y="377.702623" style="stroke: #ffffff"/>
     <use xlink:href="#m63940c3769" x="211.675489" y="341.735117" style="stroke: #ffffff"/>
     <use xlink:href="#m63940c3769" x="248.837324" y="362.107528" style="stroke: #ffffff"/>
     <use xlink:href="#m63940c3769" x="194.886065" y="339.346458" style="stroke: #ffffff"/>
     <use xlink:href="#m63940c3769" x="217.647135" y="374.119635" style="stroke: #ffffff"/>
     <use xlink:href="#m63940c3769" x="106.161629" y="255.468155" style="stroke: #ffffff"/>
     <use xlink:href="#m63940c3769" x="43.78125" y="241.136205" style="stroke: #ffffff"/>
     <use xlink:href="#m63940c3769" x="109.744616" y="309.419414" style="stroke: #ffffff"/>
     <use xlink:href="#m63940c3769" x="90.566534" y="251.885167" style="stroke: #ffffff"/>
     <use xlink:href="#m63940c3769" x="43.78125" y="260.314287" style="stroke: #ffffff"/>
     <use xlink:href="#m63940c3769" x="108.550287" y="291.435661" style="stroke: #ffffff"/>
     <use xlink:href="#m63940c3769" x="74.97144" y="248.30218" style="stroke: #ffffff"/>
     <use xlink:href="#m63940c3769" x="43.78125" y="279.492369" style="stroke: #ffffff"/>
     <use xlink:href="#m63940c3769" x="107.355958" y="273.451908" style="stroke: #ffffff"/>
     <use xlink:href="#m63940c3769" x="59.376345" y="244.719192" style="stroke: #ffffff"/>
     <use xlink:href="#m63940c3769" x="43.78125" y="298.670452" style="stroke: #ffffff"/>
     <use xlink:href="#m63940c3769" x="76.165769" y="285.464015" style="stroke: #ffffff"/>
     <use xlink:href="#m63940c3769" x="168.542008" y="269.800104" style="stroke: #ffffff"/>
     <use xlink:href="#m63940c3769" x="175.707983" y="320.168376" style="stroke: #ffffff"/>
     <use xlink:href="#m63940c3769" x="152.946913" y="266.217117" style="stroke: #ffffff"/>
     <use xlink:href="#m63940c3769" x="173.319325" y="303.378952" style="stroke: #ffffff"/>
     <use xlink:href="#m63940c3769" x="137.351819" y="262.63413" style="stroke: #ffffff"/>
     <use xlink:href="#m63940c3769" x="170.930666" y="286.589528" style="stroke: #ffffff"/>
     <use xlink:href="#m63940c3769" x="121.756724" y="259.051142" style="stroke: #ffffff"/>
     <use xlink:href="#m63940c3769" x="140.934806" y="297.407307" style="stroke: #ffffff"/>
     <use xlink:href="#m63940c3769" x="230.922387" y="284.132054" style="stroke: #ffffff"/>
     <use xlink:href="#m63940c3769" x="241.671349" y="330.917338" style="stroke: #ffffff"/>
     <use xlink:href="#m63940c3769" x="215.327292" y="280.549067" style="stroke: #ffffff"/>
     <use xlink:href="#m63940c3769" x="238.088362" y="315.322244" style="stroke: #ffffff"/>
     <use xlink:href="#m63940c3769" x="199.732198" y="276.966079" style="stroke: #ffffff"/>
     <use xlink:href="#m63940c3769" x="234.505375" y="299.727149" style="stroke: #ffffff"/>
     <use xlink:href="#m63940c3769" x="184.137103" y="273.383092" style="stroke: #ffffff"/>
     <use xlink:href="#m63940c3769" x="205.703843" y="309.350598" style="stroke: #ffffff"/>
     <use xlink:href="#m63940c3769" x="350.630565" y="471.273191" style="stroke: #ffffff"/>
     <use xlink:href="#m63940c3769" x="326.096918" y="393.523733" style="stroke: #ffffff"/>
     <use xlink:href="#m63940c3769" x="293.096318" y="471.273191" style="stroke: #ffffff"/>
     <use xlink:href="#m63940c3769" x="344.497153" y="451.835827" style="stroke: #ffffff"/>
     <use xlink:href="#m63940c3769" x="309.46926" y="397.366003" style="stroke: #ffffff"/>
     <use xlink:href="#m63940c3769" x="312.274401" y="471.273191" style="stroke: #ffffff"/>
     <use xlink:href="#m63940c3769" x="338.363742" y="432.398462" style="stroke: #ffffff"/>
     <use xlink:href="#m63940c3769" x="292.841602" y="401.208273" style="stroke: #ffffff"/>
     <use xlink:href="#m63940c3769" x="331.452483" y="471.273191" style="stroke: #ffffff"/>
     <use xlink:href="#m63940c3769" x="332.23033" y="412.961098" style="stroke: #ffffff"/>
     <use xlink:href="#m63940c3769" x="276.213944" y="405.050543" style="stroke: #ffffff"/>
     <use xlink:href="#m63940c3769" x="302.558001" y="436.240732" style="stroke: #ffffff"/>
     <use xlink:href="#m63940c3769" x="427.342894" y="471.273191" style="stroke: #ffffff"/>
     <use xlink:href="#m63940c3769" x="392.607549" y="378.154655" style="stroke: #ffffff"/>
     <use xlink:href="#m63940c3769" x="369.808647" y="471.273191" style="stroke: #ffffff"/>
     <use xlink:href="#m63940c3769" x="418.659058" y="447.993557" style="stroke: #ffffff"/>
     <use xlink:href="#m63940c3769" x="375.979892" y="381.996924" style="stroke: #ffffff"/>
     <use xlink:href="#m63940c3769" x="388.986729" y="471.273191" style="stroke: #ffffff"/>
     <use xlink:href="#m63940c3769" x="409.975222" y="424.713923" style="stroke: #ffffff"/>
     <use xlink:href="#m63940c3769" x="359.352234" y="385.839194" style="stroke: #ffffff"/>
     <use xlink:href="#m63940c3769" x="408.164812" y="471.273191" style="stroke: #ffffff"/>
     <use xlink:href="#m63940c3769" x="401.291386" y="401.434289" style="stroke: #ffffff"/>
     <use xlink:href="#m63940c3769" x="342.724576" y="389.681464" style="stroke: #ffffff"/>
     <use xlink:href="#m63940c3769" x="374.169482" y="428.556193" style="stroke: #ffffff"/>
     <use xlink:href="#m63940c3769" x="504.055223" y="471.273191" style="stroke: #ffffff"/>
     <use xlink:href="#m63940c3769" x="489.113911" y="354.950575" style="stroke: #ffffff"/>
     <use xlink:href="#m63940c3769" x="446.520976" y="471.273191" style="stroke: #ffffff"/>
     <use xlink:href="#m63940c3769" x="503.217942" y="443.523312" style="stroke: #ffffff"/>
     <use xlink:href="#m63940c3769" x="464.98732" y="360.751595" style="stroke: #ffffff"/>
     <use xlink:href="#m63940c3769" x="465.699058" y="471.273191" style="stroke: #ffffff"/>
     <use xlink:href="#m63940c3769" x="500.56254" y="414.67829" style="stroke: #ffffff"/>
     <use xlink:href="#m63940c3769" x="440.86073" y="366.552615" style="stroke: #ffffff"/>
     <use xlink:href="#m63940c3769" x="484.87714" y="471.273191" style="stroke: #ffffff"/>
     <use xlink:href="#m63940c3769" x="495.903889" y="385.033705" style="stroke: #ffffff"/>
     <use xlink:href="#m63940c3769" x="416.73414" y="372.353635" style="stroke: #ffffff"/>
     <use xlink:href="#m63940c3769" x="455.268881" y="419.696106" style="stroke: #ffffff"/>
     <use xlink:href="#m63940c3769" x="301.563271" y="315.774275" style="stroke: #ffffff"/>
     <use xlink:href="#m63940c3769" x="319.963506" y="374.086369" style="stroke: #ffffff"/>
     <use xlink:href="#m63940c3769" x="287.486037" y="323.458815" style="stroke: #ffffff"/>
     <use xlink:href="#m63940c3769" x="313.830094" y="354.649004" style="stroke: #ffffff"/>
     <use xlink:href="#m63940c3769" x="273.408804" y="331.143354" style="stroke: #ffffff"/>
     <use xlink:href="#m63940c3769" x="307.696683" y="335.21164" style="stroke: #ffffff"/>
     <use xlink:href="#m63940c3769" x="259.33157" y="338.827894" style="stroke: #ffffff"/>
     <use xlink:href="#m63940c3769" x="283.125203" y="366.175814" style="stroke: #ffffff"/>
     <use xlink:href="#m63940c3769" x="357.872205" y="285.036118" style="stroke: #ffffff"/>
     <use xlink:href="#m63940c3769" x="383.923713" y="354.87502" style="stroke: #ffffff"/>
     <use xlink:href="#m63940c3769" x="343.794971" y="292.720657" style="stroke: #ffffff"/>
     <use xlink:href="#m63940c3769" x="375.239877" y="331.595386" style="stroke: #ffffff"/>
     <use xlink:href="#m63940c3769" x="329.717738" y="300.405197" style="stroke: #ffffff"/>
     <use xlink:href="#m63940c3769" x="366.556041" y="308.315752" style="stroke: #ffffff"/>
     <use xlink:href="#m63940c3769" x="315.640504" y="308.089736" style="stroke: #ffffff"/>
     <use xlink:href="#m63940c3769" x="344.534986" y="343.122195" style="stroke: #ffffff"/>
     <use xlink:href="#m63940c3769" x="440.931505" y="238.627958" style="stroke: #ffffff"/>
     <use xlink:href="#m63940c3769" x="480.14024" y="324.839036" style="stroke: #ffffff"/>
     <use xlink:href="#m63940c3769" x="420.16668" y="250.229998" style="stroke: #ffffff"/>
     <use xlink:href="#m63940c3769" x="469.018953" y="295.133968" style="stroke: #ffffff"/>
     <use xlink:href="#m63940c3769" x="399.401855" y="261.832038" style="stroke: #ffffff"/>
     <use xlink:href="#m63940c3769" x="455.878235" y="266.265374" style="stroke: #ffffff"/>
     <use xlink:href="#m63940c3769" x="378.63703" y="273.434078" style="stroke: #ffffff"/>
     <use xlink:href="#m63940c3769" x="422.129415" y="313.364677" style="stroke: #ffffff"/>
     <use xlink:href="#m63940c3769" x="277.029624" y="238.024818" style="stroke: #ffffff"/>
     <use xlink:href="#m63940c3769" x="295.429859" y="296.336911" style="stroke: #ffffff"/>
     <use xlink:href="#m63940c3769" x="265.502815" y="249.551627" style="stroke: #ffffff"/>
     <use xlink:href="#m63940c3769" x="289.296447" y="276.899546" style="stroke: #ffffff"/>
     <use xlink:href="#m63940c3769" x="253.976006" y="261.078436" style="stroke: #ffffff"/>
     <use xlink:href="#m63940c3769" x="283.163036" y="257.462182" style="stroke: #ffffff"/>
     <use xlink:href="#m63940c3769" x="242.449196" y="272.605245" style="stroke: #ffffff"/>
     <use xlink:href="#m63940c3769" x="263.692405" y="296.110895" style="stroke: #ffffff"/>
     <use xlink:href="#m63940c3769" x="323.136861" y="191.917581" style="stroke: #ffffff"/>
     <use xlink:href="#m63940c3769" x="349.188369" y="261.756483" style="stroke: #ffffff"/>
     <use xlink:href="#m63940c3769" x="311.610051" y="203.44439" style="stroke: #ffffff"/>
     <use xlink:href="#m63940c3769" x="340.504533" y="238.476849" style="stroke: #ffffff"/>
     <use xlink:href="#m63940c3769" x="300.083242" y="214.971199" style="stroke: #ffffff"/>
     <use xlink:href="#m63940c3769" x="331.820697" y="215.197215" style="stroke: #ffffff"/>
     <use xlink:href="#m63940c3769" x="288.556433" y="226.498008" style="stroke: #ffffff"/>
     <use xlink:href="#m63940c3769" x="314.90049" y="257.688198" style="stroke: #ffffff"/>
     <use xlink:href="#m63940c3769" x="369.244097" y="145.810344" style="stroke: #ffffff"/>
     <use xlink:href="#m63940c3769" x="424.46076" y="212.554733" style="stroke: #ffffff"/>
     <use xlink:href="#m63940c3769" x="357.717288" y="157.337153" style="stroke: #ffffff"/>
     <use xlink:href="#m63940c3769" x="406.793037" y="188.298682" style="stroke: #ffffff"/>
     <use xlink:href="#m63940c3769" x="346.190479" y="168.863962" style="stroke: #ffffff"/>
     <use xlink:href="#m63940c3769" x="388.274178" y="166.024519" style="stroke: #ffffff"/>
     <use xlink:href="#m63940c3769" x="334.66367" y="180.390772" style="stroke: #ffffff"/>
     <use xlink:href="#m63940c3769" x="373.648785" y="213.387766" style="stroke: #ffffff"/>
     <use xlink:href="#m63940c3769" x="121.530708" y="188.957523" style="stroke: #ffffff"/>
     <use xlink:href="#m63940c3769" x="43.78125" y="164.423876" style="stroke: #ffffff"/>
     <use xlink:href="#m63940c3769" x="110.003899" y="238.840497" style="stroke: #ffffff"/>
     <use xlink:href="#m63940c3769" x="102.093343" y="182.824112" style="stroke: #ffffff"/>
     <use xlink:href="#m63940c3769" x="43.78125" y="183.601958" style="stroke: #ffffff"/>
     <use xlink:href="#m63940c3769" x="113.846169" y="222.212839" style="stroke: #ffffff"/>
     <use xlink:href="#m63940c3769" x="82.655979" y="176.6907" style="stroke: #ffffff"/>
     <use xlink:href="#m63940c3769" x="43.78125" y="202.780041" style="stroke: #ffffff"/>
     <use xlink:href="#m63940c3769" x="117.688438" y="205.585181" style="stroke: #ffffff"/>
     <use xlink:href="#m63940c3769" x="63.218614" y="170.557288" style="stroke: #ffffff"/>
     <use xlink:href="#m63940c3769" x="43.78125" y="221.958123" style="stroke: #ffffff"/>
     <use xlink:href="#m63940c3769" x="78.813709" y="212.49644" style="stroke: #ffffff"/>
     <use xlink:href="#m63940c3769" x="199.280166" y="213.49117" style="stroke: #ffffff"/>
     <use xlink:href="#m63940c3769" x="176.226548" y="255.722871" style="stroke: #ffffff"/>
     <use xlink:href="#m63940c3769" x="179.842801" y="207.357759" style="stroke: #ffffff"/>
     <use xlink:href="#m63940c3769" x="183.911087" y="241.645637" style="stroke: #ffffff"/>
     <use xlink:href="#m63940c3769" x="160.405437" y="201.224347" style="stroke: #ffffff"/>
     <use xlink:href="#m63940c3769" x="191.595626" y="227.568404" style="stroke: #ffffff"/>
     <use xlink:href="#m63940c3769" x="140.968072" y="195.090935" style="stroke: #ffffff"/>
     <use xlink:href="#m63940c3769" x="148.878628" y="231.929238" style="stroke: #ffffff"/>
     <use xlink:href="#m63940c3769" x="257.592259" y="231.891406" style="stroke: #ffffff"/>
     <use xlink:href="#m63940c3769" x="238.154895" y="225.757994" style="stroke: #ffffff"/>
     <use xlink:href="#m63940c3769" x="218.71753" y="219.624582" style="stroke: #ffffff"/>
     <use xlink:href="#m63940c3769" x="218.943546" y="251.362037" style="stroke: #ffffff"/>
     <use xlink:href="#m63940c3769" x="136.899787" y="122.446892" style="stroke: #ffffff"/>
     <use xlink:href="#m63940c3769" x="43.78125" y="87.711548" style="stroke: #ffffff"/>
     <use xlink:href="#m63940c3769" x="125.372978" y="172.329866" style="stroke: #ffffff"/>
     <use xlink:href="#m63940c3769" x="113.620153" y="113.763056" style="stroke: #ffffff"/>
     <use xlink:href="#m63940c3769" x="43.78125" y="106.88963" style="stroke: #ffffff"/>
     <use xlink:href="#m63940c3769" x="129.215247" y="155.702208" style="stroke: #ffffff"/>
     <use xlink:href="#m63940c3769" x="90.340518" y="105.07922" style="stroke: #ffffff"/>
     <use xlink:href="#m63940c3769" x="43.78125" y="126.067712" style="stroke: #ffffff"/>
     <use xlink:href="#m63940c3769" x="133.057517" y="139.07455" style="stroke: #ffffff"/>
     <use xlink:href="#m63940c3769" x="67.060884" y="96.395384" style="stroke: #ffffff"/>
     <use xlink:href="#m63940c3769" x="43.78125" y="145.245794" style="stroke: #ffffff"/>
     <use xlink:href="#m63940c3769" x="86.498249" y="140.88496" style="stroke: #ffffff"/>
     <use xlink:href="#m63940c3769" x="230.018324" y="157.182236" style="stroke: #ffffff"/>
     <use xlink:href="#m63940c3769" x="206.964705" y="199.413937" style="stroke: #ffffff"/>
     <use xlink:href="#m63940c3769" x="206.738689" y="148.4984" style="stroke: #ffffff"/>
     <use xlink:href="#m63940c3769" x="214.649245" y="185.336703" style="stroke: #ffffff"/>
     <use xlink:href="#m63940c3769" x="183.459055" y="139.814564" style="stroke: #ffffff"/>
     <use xlink:href="#m63940c3769" x="222.333784" y="171.25947" style="stroke: #ffffff"/>
     <use xlink:href="#m63940c3769" x="160.179421" y="131.130728" style="stroke: #ffffff"/>
     <use xlink:href="#m63940c3769" x="171.932246" y="170.519456" style="stroke: #ffffff"/>
     <use xlink:href="#m63940c3769" x="299.857226" y="183.233745" style="stroke: #ffffff"/>
     <use xlink:href="#m63940c3769" x="276.577592" y="174.549909" style="stroke: #ffffff"/>
     <use xlink:href="#m63940c3769" x="253.297958" y="165.866072" style="stroke: #ffffff"/>
     <use xlink:href="#m63940c3769" x="257.366243" y="200.153951" style="stroke: #ffffff"/>
     <use xlink:href="#m63940c3769" x="160.103867" y="25.940531" style="stroke: #ffffff"/>
     <use xlink:href="#m63940c3769" x="43.78125" y="10.999219" style="stroke: #ffffff"/>
     <use xlink:href="#m63940c3769" x="142.700807" y="98.320302" style="stroke: #ffffff"/>
     <use xlink:href="#m63940c3769" x="130.020736" y="19.150552" style="stroke: #ffffff"/>
     <use xlink:href="#m63940c3769" x="43.78125" y="30.177301" style="stroke: #ffffff"/>
     <use xlink:href="#m63940c3769" x="148.501827" y="74.193711" style="stroke: #ffffff"/>
     <use xlink:href="#m63940c3769" x="100.376152" y="14.491901" style="stroke: #ffffff"/>
     <use xlink:href="#m63940c3769" x="43.78125" y="49.355383" style="stroke: #ffffff"/>
     <use xlink:href="#m63940c3769" x="154.302847" y="50.067121" style="stroke: #ffffff"/>
     <use xlink:href="#m63940c3769" x="71.531129" y="11.836499" style="stroke: #ffffff"/>
     <use xlink:href="#m63940c3769" x="43.78125" y="68.533465" style="stroke: #ffffff"/>
     <use xlink:href="#m63940c3769" x="95.358335" y="59.785561" style="stroke: #ffffff"/>
     <use xlink:href="#m63940c3769" x="276.426483" y="74.122936" style="stroke: #ffffff"/>
     <use xlink:href="#m63940c3769" x="241.620364" y="136.417411" style="stroke: #ffffff"/>
     <use xlink:href="#m63940c3769" x="248.789067" y="59.176207" style="stroke: #ffffff"/>
     <use xlink:href="#m63940c3769" x="253.222403" y="115.652586" style="stroke: #ffffff"/>
     <use xlink:href="#m63940c3769" x="219.920474" y="46.035489" style="stroke: #ffffff"/>
     <use xlink:href="#m63940c3769" x="264.824443" y="94.887761" style="stroke: #ffffff"/>
     <use xlink:href="#m63940c3769" x="190.215405" y="34.914201" style="stroke: #ffffff"/>
     <use xlink:href="#m63940c3769" x="201.689764" y="92.925026" style="stroke: #ffffff"/>
     <use xlink:href="#m63940c3769" x="349.029923" y="126.780263" style="stroke: #ffffff"/>
     <use xlink:href="#m63940c3769" x="326.755759" y="108.261405" style="stroke: #ffffff"/>
     <use xlink:href="#m63940c3769" x="302.499709" y="90.593682" style="stroke: #ffffff"/>
     <use xlink:href="#m63940c3769" x="301.666676" y="141.405657" style="stroke: #ffffff"/>
    </g>
   </g>
   <g id="patch_4">
    <path d="M 43.78125 471.273191 
L 43.78125 10.999219 
" style="fill: none; stroke: #000000; stroke-width: 0.8; stroke-linejoin: miter; stroke-linecap: square"/>
   </g>
   <g id="patch_5">
    <path d="M 504.055223 471.273191 
L 504.055223 10.999219 
" style="fill: none; stroke: #000000; stroke-width: 0.8; stroke-linejoin: miter; stroke-linecap: square"/>
   </g>
   <g id="patch_6">
    <path d="M 43.78125 471.273191 
L 504.055223 471.273191 
" style="fill: none; stroke: #000000; stroke-width: 0.8; stroke-linejoin: miter; stroke-linecap: square"/>
   </g>
   <g id="patch_7">
    <path d="M 43.78125 10.999219 
L 504.055223 10.999219 
" style="fill: none; stroke: #000000; stroke-width: 0.8; stroke-linejoin: miter; stroke-linecap: square"/>
   </g>
  </g>
 </g>
 <defs>
  <clipPath id="pd90c84101d">
   <rect x="43.78125" y="10.999219" width="460.273973" height="460.273973"/>
  </clipPath>
 </defs>
</svg>
