<?xml version="1.0" encoding="utf-8" standalone="no"?>
<!DOCTYPE svg PUBLIC "-//W3C//DTD SVG 1.1//EN"
  "http://www.w3.org/Graphics/SVG/1.1/DTD/svg11.dtd">
<svg xmlns:xlink="http://www.w3.org/1999/xlink" width="449.306956pt" height="449.306956pt" viewBox="0 0 449.306956 449.306956" xmlns="http://www.w3.org/2000/svg" version="1.1">
 <metadata>
  <rdf:RDF xmlns:dc="http://purl.org/dc/elements/1.1/" xmlns:cc="http://creativecommons.org/ns#" xmlns:rdf="http://www.w3.org/1999/02/22-rdf-syntax-ns#">
   <cc:Work>
    <dc:type rdf:resource="http://purl.org/dc/dcmitype/StillImage"/>
    <dc:date>2026-04-09T15:51:47.718891</dc:date>
    <dc:format>image/svg+xml</dc:format>
    <dc:creator>
     <cc:Agent>
      <dc:title>Matplotlib v3.6.3, https://matplotlib.org/</dc:title>
     </cc:Agent>
    </dc:creator>
   </cc:Work>
  </rdf:RDF>
 </metadata>
 <defs>
  <style type="text/css">*{stroke-linejoin: round; stroke-linecap: butt}</style>
 </defs>
 <g id="figure_1">
  <g id="patch_1">
   <path d="M 0 449.306956 
L 449.306956 449.306956 
L 449.306956 0 
L 0 0 
z
" style="fill: #ffffff"/>
  </g>
  <g id="axes_1">
   <g id="patch_2">
    <path d="M 58.545313 390.761644 
L 442.106956 390.761644 
L 442.106956 7.2 
L 58.545313 7.2 
z
" style="fill: #ffffff"/>
   </g>
   <g id="matplotlib.axis_1">
    <g id="xtick_1">
     <g id="line2d_1">
      <path d="M 75.979933 390.761644 
L 75.979933 7.2 
" clip-path="url(#pcd6091b092)" style="fill: none; stroke-dasharray: 2.96,1.28; stroke-dashoffset: 0; stroke: #808080; stroke-width: 0.8"/>
     </g>
     <g id="line2d_2">
      <defs>
       <path id="md6b57417dd" d="M 0 0 
L 0 3.5 
" style="stroke: #000000; stroke-width: 0.8"/>
      </defs>
      <g>
       <use xlink:href="#md6b57417dd" x="75.979933" y="390.761644" style="stroke: #000000; stroke-width: 0.8"/>
      </g>
     </g>
     <g id="text_1">
      <!-- −1.00 -->
      <g transform="translate(78.739308 428.406956) rotate(-90) scale(0.1 -0.1)">
       <defs>
        <path id="DejaVuSans-2212" d="M 678 2272 
L 4684 2272 
L 4684 1741 
L 678 1741 
L 678 2272 
z
" transform="scale(0.015625)"/>
        <path id="DejaVuSans-31" d="M 794 531 
L 1825 531 
L 1825 4091 
L 703 3866 
L 703 4441 
L 1819 4666 
L 2450 4666 
L 2450 531 
L 3481 531 
L 3481 0 
L 794 0 
L 794 531 
z
" transform="scale(0.015625)"/>
        <path id="DejaVuSans-2e" d="M 684 794 
L 1344 794 
L 1344 0 
L 684 0 
L 684 794 
z
" transform="scale(0.015625)"/>
        <path id="DejaVuSans-30" d="M 2034 4250 
Q 1547 4250 1301 3770 
Q 1056 3291 1056 2328 
Q 1056 1369 1301 889 
Q 1547 409 2034 409 
Q 2525 409 2770 889 
Q 3016 1369 3016 2328 
Q 3016 3291 2770 3770 
Q 2525 4250 2034 4250 
z
M 2034 4750 
Q 2819 4750 3233 4129 
Q 3647 3509 3647 2328 
Q 3647 1150 3233 529 
Q 2819 -91 2034 -91 
Q 1250 -91 836 529 
Q 422 1150 422 2328 
Q 422 3509 836 4129 
Q 1250 4750 2034 4750 
z
" transform="scale(0.015625)"/>
       </defs>
       <use xlink:href="#DejaVuSans-2212"/>
       <use xlink:href="#DejaVuSans-31" x="83.789062"/>
       <use xlink:href="#DejaVuSans-2e" x="147.412109"/>
       <use xlink:href="#DejaVuSans-30" x="179.199219"/>
       <use xlink:href="#DejaVuSans-30" x="242.822266"/>
      </g>
     </g>
    </g>
    <g id="xtick_2">
     <g id="line2d_3">
      <path d="M 119.566483 390.761644 
L 119.566483 7.2 
" clip-path="url(#pcd6091b092)" style="fill: none; stroke-dasharray: 2.96,1.28; stroke-dashoffset: 0; stroke: #808080; stroke-width: 0.8"/>
     </g>
     <g id="line2d_4">
      <g>
       <use xlink:href="#md6b57417dd" x="119.566483" y="390.761644" style="stroke: #000000; stroke-width: 0.8"/>
      </g>
     </g>
     <g id="text_2">
      <!-- −0.75 -->
      <g transform="translate(122.325858 428.406956) rotate(-90) scale(0.1 -0.1)">
       <defs>
        <path id="DejaVuSans-37" d="M 525 4666 
L 3525 4666 
L 3525 4397 
L 1831 0 
L 1172 0 
L 2766 4134 
L 525 4134 
L 525 4666 
z
" transform="scale(0.015625)"/>
        <path id="DejaVuSans-35" d="M 691 4666 
L 3169 4666 
L 3169 4134 
L 1269 4134 
L 1269 2991 
Q 1406 3038 1543 3061 
Q 1681 3084 1819 3084 
Q 2600 3084 3056 2656 
Q 3513 2228 3513 1497 
Q 3513 744 3044 326 
Q 2575 -91 1722 -91 
Q 1428 -91 1123 -41 
Q 819 9 494 109 
L 494 744 
Q 775 591 1075 516 
Q 1375 441 1709 441 
Q 2250 441 2565 725 
Q 2881 1009 2881 1497 
Q 2881 1984 2565 2268 
Q 2250 2553 1709 2553 
Q 1456 2553 1204 2497 
Q 953 2441 691 2322 
L 691 4666 
z
" transform="scale(0.015625)"/>
       </defs>
       <use xlink:href="#DejaVuSans-2212"/>
       <use xlink:href="#DejaVuSans-30" x="83.789062"/>
       <use xlink:href="#DejaVuSans-2e" x="147.412109"/>
       <use xlink:href="#DejaVuSans-37" x="179.199219"/>
       <use xlink:href="#DejaVuSans-35" x="242.822266"/>
      </g>
     </g>
    </g>
    <g id="xtick_3">
     <g id="line2d_5">
      <path d="M 163.153034 390.761644 
L 163.153034 7.2 
" clip-path="url(#pcd6091b092)" style="fill: none; stroke-dasharray: 2.96,1.28; stroke-dashoffset: 0; stroke: #808080; stroke-width: 0.8"/>
     </g>
     <g id="line2d_6">
      <g>
       <use xlink:href="#md6b57417dd" x="163.153034" y="390.761644" style="stroke: #000000; stroke-width: 0.8"/>
      </g>
     </g>
     <g id="text_3">
      <!-- −0.50 -->
      <g transform="translate(165.912409 428.406956) rotate(-90) scale(0.1 -0.1)">
       <use xlink:href="#DejaVuSans-2212"/>
       <use xlink:href="#DejaVuSans-30" x="83.789062"/>
       <use xlink:href="#DejaVuSans-2e" x="147.412109"/>
       <use xlink:href="#DejaVuSans-35" x="179.199219"/>
       <use xlink:href="#DejaVuSans-30" x="242.822266"/>
      </g>
     </g>
    </g>
    <g id="xtick_4">
     <g id="line2d_7">
      <path d="M 206.739584 390.761644 
L 206.739584 7.2 
" clip-path="url(#pcd6091b092)" style="fill: none; stroke-dasharray: 2.96,1.28; stroke-dashoffset: 0; stroke: #808080; stroke-width: 0.8"/>
     </g>
     <g id="line2d_8">
      <g>
       <use xlink:href="#md6b57417dd" x="206.739584" y="390.761644" style="stroke: #000000; stroke-width: 0.8"/>
      </g>
     </g>
     <g id="text_4">
      <!-- −0.25 -->
      <g transform="translate(209.498959 428.406956) rotate(-90) scale(0.1 -0.1)">
       <defs>
        <path id="DejaVuSans-32" d="M 1228 531 
L 3431 531 
L 3431 0 
L 469 0 
L 469 531 
Q 828 903 1448 1529 
Q 2069 2156 2228 2338 
Q 2531 2678 2651 2914 
Q 2772 3150 2772 3378 
Q 2772 3750 2511 3984 
Q 2250 4219 1831 4219 
Q 1534 4219 1204 4116 
Q 875 4013 500 3803 
L 500 4441 
Q 881 4594 1212 4672 
Q 1544 4750 1819 4750 
Q 2544 4750 2975 4387 
Q 3406 4025 3406 3419 
Q 3406 3131 3298 2873 
Q 3191 2616 2906 2266 
Q 2828 2175 2409 1742 
Q 1991 1309 1228 531 
z
" transform="scale(0.015625)"/>
       </defs>
       <use xlink:href="#DejaVuSans-2212"/>
       <use xlink:href="#DejaVuSans-30" x="83.789062"/>
       <use xlink:href="#DejaVuSans-2e" x="147.412109"/>
       <use xlink:href="#DejaVuSans-32" x="179.199219"/>
       <use xlink:href="#DejaVuSans-35" x="242.822266"/>
      </g>
     </g>
    </g>
    <g id="xtick_5">
     <g id="line2d_9">
      <path d="M 250.326134 390.761644 
L 250.326134 7.2 
" clip-path="url(#pcd6091b092)" style="fill: none; stroke-dasharray: 2.96,1.28; stroke-dashoffset: 0; stroke: #808080; stroke-width: 0.8"/>
     </g>
     <g id="line2d_10">
      <g>
       <use xlink:href="#md6b57417dd" x="250.326134" y="390.761644" style="stroke: #000000; stroke-width: 0.8"/>
      </g>
     </g>
     <g id="text_5">
      <!-- 0.00 -->
      <g transform="translate(253.085509 420.027269) rotate(-90) scale(0.1 -0.1)">
       <use xlink:href="#DejaVuSans-30"/>
       <use xlink:href="#DejaVuSans-2e" x="63.623047"/>
       <use xlink:href="#DejaVuSans-30" x="95.410156"/>
       <use xlink:href="#DejaVuSans-30" x="159.033203"/>
      </g>
     </g>
    </g>
    <g id="xtick_6">
     <g id="line2d_11">
      <path d="M 293.912685 390.761644 
L 293.912685 7.2 
" clip-path="url(#pcd6091b092)" style="fill: none; stroke-dasharray: 2.96,1.28; stroke-dashoffset: 0; stroke: #808080; stroke-width: 0.8"/>
     </g>
     <g id="line2d_12">
      <g>
       <use xlink:href="#md6b57417dd" x="293.912685" y="390.761644" style="stroke: #000000; stroke-width: 0.8"/>
      </g>
     </g>
     <g id="text_6">
      <!-- 0.25 -->
      <g transform="translate(296.67206 420.027269) rotate(-90) scale(0.1 -0.1)">
       <use xlink:href="#DejaVuSans-30"/>
       <use xlink:href="#DejaVuSans-2e" x="63.623047"/>
       <use xlink:href="#DejaVuSans-32" x="95.410156"/>
       <use xlink:href="#DejaVuSans-35" x="159.033203"/>
      </g>
     </g>
    </g>
    <g id="xtick_7">
     <g id="line2d_13">
      <path d="M 337.499235 390.761644 
L 337.499235 7.2 
" clip-path="url(#pcd6091b092)" style="fill: none; stroke-dasharray: 2.96,1.28; stroke-dashoffset: 0; stroke: #808080; stroke-width: 0.8"/>
     </g>
     <g id="line2d_14">
      <g>
       <use xlink:href="#md6b57417dd" x="337.499235" y="390.761644" style="stroke: #000000; stroke-width: 0.8"/>
      </g>
     </g>
     <g id="text_7">
      <!-- 0.50 -->
      <g transform="translate(340.25861 420.027269) rotate(-90) scale(0.1 -0.1)">
       <use xlink:href="#DejaVuSans-30"/>
       <use xlink:href="#DejaVuSans-2e" x="63.623047"/>
       <use xlink:href="#DejaVuSans-35" x="95.410156"/>
       <use xlink:href="#DejaVuSans-30" x="159.033203"/>
      </g>
     </g>
    </g>
    <g id="xtick_8">
     <g id="line2d_15">
      <path d="M 381.085786 390.761644 
L 381.085786 7.2 
" clip-path="url(#pcd6091b092)" style="fill: none; stroke-dasharray: 2.96,1.28; stroke-dashoffset: 0; stroke: #808080; stroke-width: 0.8"/>
     </g>
     <g id="line2d_16">
      <g>
       <use xlink:href="#md6b57417dd" x="381.085786" y="390.761644" style="stroke: #000000; stroke-width: 0.8"/>
      </g>
     </g>
     <g id="text_8">
      <!-- 0.75 -->
      <g transform="translate(383.845161 420.027269) rotate(-90) scale(0.1 -0.1)">
       <use xlink:href="#DejaVuSans-30"/>
       <use xlink:href="#DejaVuSans-2e" x="63.623047"/>
       <use xlink:href="#DejaVuSans-37" x="95.410156"/>
       <use xlink:href="#DejaVuSans-35" x="159.033203"/>
      </g>
     </g>
    </g>
    <g id="xtick_9">
     <g id="line2d_17">
      <path d="M 424.672336 390.761644 
L 424.672336 7.2 
" clip-path="url(#pcd6091b092)" style="fill: none; stroke-dasharray: 2.96,1.28; stroke-dashoffset: 0; stroke: #808080; stroke-width: 0.8"/>
     </g>
     <g id="line2d_18">
      <g>
       <use xlink:href="#md6b57417dd" x="424.672336" y="390.761644" style="stroke: #000000; stroke-width: 0.8"/>
      </g>
     </g>
     <g id="text_9">
      <!-- 1.00 -->
      <g transform="translate(427.431711 420.027269) rotate(-90) scale(0.1 -0.1)">
       <use xlink:href="#DejaVuSans-31"/>
       <use xlink:href="#DejaVuSans-2e" x="63.623047"/>
       <use xlink:href="#DejaVuSans-30" x="95.410156"/>
       <use xlink:href="#DejaVuSans-30" x="159.033203"/>
      </g>
     </g>
    </g>
    <g id="text_10">
     <!-- $\xi_1$ -->
     <g transform="translate(245.126134 440.006956) scale(0.1 -0.1)">
      <defs>
       <path id="DejaVuSans-Oblique-3be" d="M 2016 397 
Q 2428 394 2628 159 
Q 2844 -88 2772 -463 
Q 2700 -822 2422 -1072 
Q 2119 -1344 1609 -1344 
Q 1656 -1109 1700 -872 
Q 1913 -888 2072 -750 
Q 2194 -641 2216 -525 
Q 2247 -359 2175 -222 
Q 2100 -91 1922 -91 
Q -25 -91 241 1275 
Q 422 2213 1516 2488 
Q 663 2600 822 3413 
Q 941 4028 1678 4284 
L 1028 4284 
L 1141 4863 
L 3606 4863 
L 3494 4284 
Q 1528 4284 1350 3375 
Q 1234 2778 2881 2750 
L 2778 2219 
Q 1009 2288 819 1275 
Q 659 428 2016 397 
z
" transform="scale(0.015625)"/>
      </defs>
      <use xlink:href="#DejaVuSans-Oblique-3be" transform="translate(0 0.015625)"/>
      <use xlink:href="#DejaVuSans-31" transform="translate(55.761719 -16.390625) scale(0.7)"/>
     </g>
    </g>
   </g>
   <g id="matplotlib.axis_2">
    <g id="ytick_1">
     <g id="line2d_19">
      <path d="M 58.545313 373.327024 
L 442.106956 373.327024 
" clip-path="url(#pcd6091b092)" style="fill: none; stroke-dasharray: 2.96,1.28; stroke-dashoffset: 0; stroke: #808080; stroke-width: 0.8"/>
     </g>
     <g id="line2d_20">
      <defs>
       <path id="m1c3a01f75f" d="M 0 0 
L -3.5 0 
" style="stroke: #000000; stroke-width: 0.8"/>
      </defs>
      <g>
       <use xlink:href="#m1c3a01f75f" x="58.545313" y="373.327024" style="stroke: #000000; stroke-width: 0.8"/>
      </g>
     </g>
     <g id="text_11">
      <!-- −1.00 -->
      <g transform="translate(20.9 377.126242) scale(0.1 -0.1)">
       <use xlink:href="#DejaVuSans-2212"/>
       <use xlink:href="#DejaVuSans-31" x="83.789062"/>
       <use xlink:href="#DejaVuSans-2e" x="147.412109"/>
       <use xlink:href="#DejaVuSans-30" x="179.199219"/>
       <use xlink:href="#DejaVuSans-30" x="242.822266"/>
      </g>
     </g>
    </g>
    <g id="ytick_2">
     <g id="line2d_21">
      <path d="M 58.545313 329.740473 
L 442.106956 329.740473 
" clip-path="url(#pcd6091b092)" style="fill: none; stroke-dasharray: 2.96,1.28; stroke-dashoffset: 0; stroke: #808080; stroke-width: 0.8"/>
     </g>
     <g id="line2d_22">
      <g>
       <use xlink:href="#m1c3a01f75f" x="58.545313" y="329.740473" style="stroke: #000000; stroke-width: 0.8"/>
      </g>
     </g>
     <g id="text_12">
      <!-- −0.75 -->
      <g transform="translate(20.9 333.539692) scale(0.1 -0.1)">
       <use xlink:href="#DejaVuSans-2212"/>
       <use xlink:href="#DejaVuSans-30" x="83.789062"/>
       <use xlink:href="#DejaVuSans-2e" x="147.412109"/>
       <use xlink:href="#DejaVuSans-37" x="179.199219"/>
       <use xlink:href="#DejaVuSans-35" x="242.822266"/>
      </g>
     </g>
    </g>
    <g id="ytick_3">
     <g id="line2d_23">
      <path d="M 58.545313 286.153923 
L 442.106956 286.153923 
" clip-path="url(#pcd6091b092)" style="fill: none; stroke-dasharray: 2.96,1.28; stroke-dashoffset: 0; stroke: #808080; stroke-width: 0.8"/>
     </g>
     <g id="line2d_24">
      <g>
       <use xlink:href="#m1c3a01f75f" x="58.545313" y="286.153923" style="stroke: #000000; stroke-width: 0.8"/>
      </g>
     </g>
     <g id="text_13">
      <!-- −0.50 -->
      <g transform="translate(20.9 289.953142) scale(0.1 -0.1)">
       <use xlink:href="#DejaVuSans-2212"/>
       <use xlink:href="#DejaVuSans-30" x="83.789062"/>
       <use xlink:href="#DejaVuSans-2e" x="147.412109"/>
       <use xlink:href="#DejaVuSans-35" x="179.199219"/>
       <use xlink:href="#DejaVuSans-30" x="242.822266"/>
      </g>
     </g>
    </g>
    <g id="ytick_4">
     <g id="line2d_25">
      <path d="M 58.545313 242.567372 
L 442.106956 242.567372 
" clip-path="url(#pcd6091b092)" style="fill: none; stroke-dasharray: 2.96,1.28; stroke-dashoffset: 0; stroke: #808080; stroke-width: 0.8"/>
     </g>
     <g id="line2d_26">
      <g>
       <use xlink:href="#m1c3a01f75f" x="58.545313" y="242.567372" style="stroke: #000000; stroke-width: 0.8"/>
      </g>
     </g>
     <g id="text_14">
      <!-- −0.25 -->
      <g transform="translate(20.9 246.366591) scale(0.1 -0.1)">
       <use xlink:href="#DejaVuSans-2212"/>
       <use xlink:href="#DejaVuSans-30" x="83.789062"/>
       <use xlink:href="#DejaVuSans-2e" x="147.412109"/>
       <use xlink:href="#DejaVuSans-32" x="179.199219"/>
       <use xlink:href="#DejaVuSans-35" x="242.822266"/>
      </g>
     </g>
    </g>
    <g id="ytick_5">
     <g id="line2d_27">
      <path d="M 58.545313 198.980822 
L 442.106956 198.980822 
" clip-path="url(#pcd6091b092)" style="fill: none; stroke-dasharray: 2.96,1.28; stroke-dashoffset: 0; stroke: #808080; stroke-width: 0.8"/>
     </g>
     <g id="line2d_28">
      <g>
       <use xlink:href="#m1c3a01f75f" x="58.545313" y="198.980822" style="stroke: #000000; stroke-width: 0.8"/>
      </g>
     </g>
     <g id="text_15">
      <!-- 0.00 -->
      <g transform="translate(29.279688 202.780041) scale(0.1 -0.1)">
       <use xlink:href="#DejaVuSans-30"/>
       <use xlink:href="#DejaVuSans-2e" x="63.623047"/>
       <use xlink:href="#DejaVuSans-30" x="95.410156"/>
       <use xlink:href="#DejaVuSans-30" x="159.033203"/>
      </g>
     </g>
    </g>
    <g id="ytick_6">
     <g id="line2d_29">
      <path d="M 58.545313 155.394271 
L 442.106956 155.394271 
" clip-path="url(#pcd6091b092)" style="fill: none; stroke-dasharray: 2.96,1.28; stroke-dashoffset: 0; stroke: #808080; stroke-width: 0.8"/>
     </g>
     <g id="line2d_30">
      <g>
       <use xlink:href="#m1c3a01f75f" x="58.545313" y="155.394271" style="stroke: #000000; stroke-width: 0.8"/>
      </g>
     </g>
     <g id="text_16">
      <!-- 0.25 -->
      <g transform="translate(29.279688 159.19349) scale(0.1 -0.1)">
       <use xlink:href="#DejaVuSans-30"/>
       <use xlink:href="#DejaVuSans-2e" x="63.623047"/>
       <use xlink:href="#DejaVuSans-32" x="95.410156"/>
       <use xlink:href="#DejaVuSans-35" x="159.033203"/>
      </g>
     </g>
    </g>
    <g id="ytick_7">
     <g id="line2d_31">
      <path d="M 58.545313 111.807721 
L 442.106956 111.807721 
" clip-path="url(#pcd6091b092)" style="fill: none; stroke-dasharray: 2.96,1.28; stroke-dashoffset: 0; stroke: #808080; stroke-width: 0.8"/>
     </g>
     <g id="line2d_32">
      <g>
       <use xlink:href="#m1c3a01f75f" x="58.545313" y="111.807721" style="stroke: #000000; stroke-width: 0.8"/>
      </g>
     </g>
     <g id="text_17">
      <!-- 0.50 -->
      <g transform="translate(29.279688 115.60694) scale(0.1 -0.1)">
       <use xlink:href="#DejaVuSans-30"/>
       <use xlink:href="#DejaVuSans-2e" x="63.623047"/>
       <use xlink:href="#DejaVuSans-35" x="95.410156"/>
       <use xlink:href="#DejaVuSans-30" x="159.033203"/>
      </g>
     </g>
    </g>
    <g id="ytick_8">
     <g id="line2d_33">
      <path d="M 58.545313 68.221171 
L 442.106956 68.221171 
" clip-path="url(#pcd6091b092)" style="fill: none; stroke-dasharray: 2.96,1.28; stroke-dashoffset: 0; stroke: #808080; stroke-width: 0.8"/>
     </g>
     <g id="line2d_34">
      <g>
       <use xlink:href="#m1c3a01f75f" x="58.545313" y="68.221171" style="stroke: #000000; stroke-width: 0.8"/>
      </g>
     </g>
     <g id="text_18">
      <!-- 0.75 -->
      <g transform="translate(29.279688 72.020389) scale(0.1 -0.1)">
       <use xlink:href="#DejaVuSans-30"/>
       <use xlink:href="#DejaVuSans-2e" x="63.623047"/>
       <use xlink:href="#DejaVuSans-37" x="95.410156"/>
       <use xlink:href="#DejaVuSans-35" x="159.033203"/>
      </g>
     </g>
    </g>
    <g id="ytick_9">
     <g id="line2d_35">
      <path d="M 58.545313 24.63462 
L 442.106956 24.63462 
" clip-path="url(#pcd6091b092)" style="fill: none; stroke-dasharray: 2.96,1.28; stroke-dashoffset: 0; stroke: #808080; stroke-width: 0.8"/>
     </g>
     <g id="line2d_36">
      <g>
       <use xlink:href="#m1c3a01f75f" x="58.545313" y="24.63462" style="stroke: #000000; stroke-width: 0.8"/>
      </g>
     </g>
     <g id="text_19">
      <!-- 1.00 -->
      <g transform="translate(29.279688 28.433839) scale(0.1 -0.1)">
       <use xlink:href="#DejaVuSans-31"/>
       <use xlink:href="#DejaVuSans-2e" x="63.623047"/>
       <use xlink:href="#DejaVuSans-30" x="95.410156"/>
       <use xlink:href="#DejaVuSans-30" x="159.033203"/>
      </g>
     </g>
    </g>
    <g id="text_20">
     <!-- $\xi_2$ -->
     <g transform="translate(14.8 204.180822) rotate(-90) scale(0.1 -0.1)">
      <use xlink:href="#DejaVuSans-Oblique-3be" transform="translate(0 0.015625)"/>
      <use xlink:href="#DejaVuSans-32" transform="translate(55.761719 -16.390625) scale(0.7)"/>
     </g>
    </g>
   </g>
   <g id="patch_3">
    <path d="M 75.979933 373.327024 
L 424.672336 373.327024 
L 424.672336 24.63462 
L 75.979933 24.63462 
L 75.979933 373.327024 
z
" clip-path="url(#pcd6091b092)" style="fill: none; stroke: #427ce5; stroke-width: 2; stroke-linejoin: miter"/>
   </g>
   <g id="patch_4">
    <path d="M 75.979933 373.327024 
L 424.672336 373.327024 
L 424.672336 24.63462 
L 75.979933 24.63462 
L 75.979933 373.327024 
z
" clip-path="url(#pcd6091b092)" style="fill: none; stroke: #427ce5; stroke-width: 2; stroke-linejoin: miter"/>
   </g>
   <g id="patch_5">
    <path d="M 250.326134 203.339477 
C 251.482063 203.339477 252.590804 202.880222 253.408169 202.062856 
C 254.225534 201.245491 254.684789 200.136751 254.684789 198.980822 
C 254.684789 197.824893 254.225534 196.716152 253.408169 195.898787 
C 252.590804 195.081422 251.482063 194.622167 250.326134 194.622167 
C 249.170206 194.622167 248.061465 195.081422 247.2441 195.898787 
C 246.426735 196.716152 245.967479 197.824893 245.967479 198.980822 
C 245.967479 200.136751 246.426735 201.245491 247.2441 202.062856 
C 248.061465 202.880222 249.170206 203.339477 250.326134 203.339477 
z
" clip-path="url(#pcd6091b092)" style="stroke: #000000; stroke-width: 2; stroke-linejoin: miter"/>
   </g>
   <g id="patch_6">
    <path d="M 58.545313 390.761644 
L 58.545313 7.2 
" style="fill: none; stroke: #000000; stroke-width: 0.8; stroke-linejoin: miter; stroke-linecap: square"/>
   </g>
   <g id="patch_7">
    <path d="M 442.106956 390.761644 
L 442.106956 7.2 
" style="fill: none; stroke: #000000; stroke-width: 0.8; stroke-linejoin: miter; stroke-linecap: square"/>
   </g>
   <g id="patch_8">
    <path d="M 58.545312 390.761644 
L 442.106956 390.761644 
" style="fill: none; stroke: #000000; stroke-width: 0.8; stroke-linejoin: miter; stroke-linecap: square"/>
   </g>
   <g id="patch_9">
    <path d="M 58.545312 7.2 
L 442.106956 7.2 
" style="fill: none; stroke: #000000; stroke-width: 0.8; stroke-linejoin: miter; stroke-linecap: square"/>
   </g>
   <g id="text_21">
    <!-- 1 -->
    <g style="fill: #eb0707" transform="translate(246.508634 191.254811) scale(0.12 -0.12)">
     <use xlink:href="#DejaVuSans-31"/>
    </g>
   </g>
   <g id="text_22">
    <!-- (0.000, 0.000) -->
    <g transform="translate(214.618322 211.809645) scale(0.1 -0.1)">
     <defs>
      <path id="DejaVuSans-28" d="M 1984 4856 
Q 1566 4138 1362 3434 
Q 1159 2731 1159 2009 
Q 1159 1288 1364 580 
Q 1569 -128 1984 -844 
L 1484 -844 
Q 1016 -109 783 600 
Q 550 1309 550 2009 
Q 550 2706 781 3412 
Q 1013 4119 1484 4856 
L 1984 4856 
z
" transform="scale(0.015625)"/>
      <path id="DejaVuSans-2c" d="M 750 794 
L 1409 794 
L 1409 256 
L 897 -744 
L 494 -744 
L 750 256 
L 750 794 
z
" transform="scale(0.015625)"/>
      <path id="DejaVuSans-20" transform="scale(0.015625)"/>
      <path id="DejaVuSans-29" d="M 513 4856 
L 1013 4856 
Q 1481 4119 1714 3412 
Q 1947 2706 1947 2009 
Q 1947 1309 1714 600 
Q 1481 -109 1013 -844 
L 513 -844 
Q 928 -128 1133 580 
Q 1338 1288 1338 2009 
Q 1338 2731 1133 3434 
Q 928 4138 513 4856 
z
" transform="scale(0.015625)"/>
     </defs>
     <use xlink:href="#DejaVuSans-28"/>
     <use xlink:href="#DejaVuSans-30" x="39.013672"/>
     <use xlink:href="#DejaVuSans-2e" x="102.636719"/>
     <use xlink:href="#DejaVuSans-30" x="134.423828"/>
     <use xlink:href="#DejaVuSans-30" x="198.046875"/>
     <use xlink:href="#DejaVuSans-30" x="261.669922"/>
     <use xlink:href="#DejaVuSans-2c" x="325.292969"/>
     <use xlink:href="#DejaVuSans-20" x="357.080078"/>
     <use xlink:href="#DejaVuSans-30" x="388.867188"/>
     <use xlink:href="#DejaVuSans-2e" x="452.490234"/>
     <use xlink:href="#DejaVuSans-30" x="484.277344"/>
     <use xlink:href="#DejaVuSans-30" x="547.900391"/>
     <use xlink:href="#DejaVuSans-30" x="611.523438"/>
     <use xlink:href="#DejaVuSans-29" x="675.146484"/>
    </g>
   </g>
  </g>
 </g>
 <defs>
  <clipPath id="pcd6091b092">
   <rect x="58.545313" y="7.2" width="383.561644" height="383.561644"/>
  </clipPath>
 </defs>
</svg>
