<?xml version="1.0" encoding="utf-8" standalone="no"?>
<!DOCTYPE svg PUBLIC "-//W3C//DTD SVG 1.1//EN"
  "http://www.w3.org/Graphics/SVG/1.1/DTD/svg11.dtd">
<svg xmlns:xlink="http://www.w3.org/1999/xlink" width="449.306956pt" height="449.306956pt" viewBox="0 0 449.306956 449.306956" xmlns="http://www.w3.org/2000/svg" version="1.1">
 <metadata>
  <rdf:RDF xmlns:dc="http://purl.org/dc/elements/1.1/" xmlns:cc="http://creativecommons.org/ns#" xmlns:rdf="http://www.w3.org/1999/02/22-rdf-syntax-ns#">
   <cc:Work>
    <dc:type rdf:resource="http://purl.org/dc/dcmitype/StillImage"/>
    <dc:date>2026-04-09T15:51:49.762398</dc:date>
    <dc:format>image/svg+xml</dc:format>
    <dc:creator>
     <cc:Agent>
      <dc:title>Matplotlib v3.6.3, https://matplotlib.org/</dc:title>
     </cc:Agent>
    </dc:creator>
   </cc:Work>
  </rdf:RDF>
 </metadata>
 <defs>
  <style type="text/css">*{stroke-linejoin: round; stroke-linecap: butt}</style>
 </defs>
 <g id="figure_1">
  <g id="patch_1">
   <path d="M 0 449.306956 
L 449.306956 449.306956 
L 449.306956 0 
L 0 0 
z
" style="fill: #ffffff"/>
  </g>
  <g id="axes_1">
   <g id="patch_2">
    <path d="M 58.545313 390.761644 
L 442.106956 390.761644 
L 442.106956 7.2 
L 58.545313 7.2 
z
" style="fill: #ffffff"/>
   </g>
   <g id="matplotlib.axis_1">
    <g id="xtick_1">
     <g id="line2d_1">
      <path d="M 75.979933 390.761644 
L 75.979933 7.2 
" clip-path="url(#pbf7c5ff098)" style="fill: none; stroke-dasharray: 2.96,1.28; stroke-dashoffset: 0; stroke: #808080; stroke-width: 0.8"/>
     </g>
     <g id="line2d_2">
      <defs>
       <path id="med9dbb2de6" d="M 0 0 
L 0 3.5 
" style="stroke: #000000; stroke-width: 0.8"/>
      </defs>
      <g>
       <use xlink:href="#med9dbb2de6" x="75.979933" y="390.761644" style="stroke: #000000; stroke-width: 0.8"/>
      </g>
     </g>
     <g id="text_1">
      <!-- −1.00 -->
      <g transform="translate(78.739308 428.406956) rotate(-90) scale(0.1 -0.1)">
       <defs>
        <path id="DejaVuSans-2212" d="M 678 2272 
L 4684 2272 
L 4684 1741 
L 678 1741 
L 678 2272 
z
" transform="scale(0.015625)"/>
        <path id="DejaVuSans-31" d="M 794 531 
L 1825 531 
L 1825 4091 
L 703 3866 
L 703 4441 
L 1819 4666 
L 2450 4666 
L 2450 531 
L 3481 531 
L 3481 0 
L 794 0 
L 794 531 
z
" transform="scale(0.015625)"/>
        <path id="DejaVuSans-2e" d="M 684 794 
L 1344 794 
L 1344 0 
L 684 0 
L 684 794 
z
" transform="scale(0.015625)"/>
        <path id="DejaVuSans-30" d="M 2034 4250 
Q 1547 4250 1301 3770 
Q 1056 3291 1056 2328 
Q 1056 1369 1301 889 
Q 1547 409 2034 409 
Q 2525 409 2770 889 
Q 3016 1369 3016 2328 
Q 3016 3291 2770 3770 
Q 2525 4250 2034 4250 
z
M 2034 4750 
Q 2819 4750 3233 4129 
Q 3647 3509 3647 2328 
Q 3647 1150 3233 529 
Q 2819 -91 2034 -91 
Q 1250 -91 836 529 
Q 422 1150 422 2328 
Q 422 3509 836 4129 
Q 1250 4750 2034 4750 
z
" transform="scale(0.015625)"/>
       </defs>
       <use xlink:href="#DejaVuSans-2212"/>
       <use xlink:href="#DejaVuSans-31" x="83.789062"/>
       <use xlink:href="#DejaVuSans-2e" x="147.412109"/>
       <use xlink:href="#DejaVuSans-30" x="179.199219"/>
       <use xlink:href="#DejaVuSans-30" x="242.822266"/>
      </g>
     </g>
    </g>
    <g id="xtick_2">
     <g id="line2d_3">
      <path d="M 119.566483 390.761644 
L 119.566483 7.2 
" clip-path="url(#pbf7c5ff098)" style="fill: none; stroke-dasharray: 2.96,1.28; stroke-dashoffset: 0; stroke: #808080; stroke-width: 0.8"/>
     </g>
     <g id="line2d_4">
      <g>
       <use xlink:href="#med9dbb2de6" x="119.566483" y="390.761644" style="stroke: #000000; stroke-width: 0.8"/>
      </g>
     </g>
     <g id="text_2">
      <!-- −0.75 -->
      <g transform="translate(122.325858 428.406956) rotate(-90) scale(0.1 -0.1)">
       <defs>
        <path id="DejaVuSans-37" d="M 525 4666 
L 3525 4666 
L 3525 4397 
L 1831 0 
L 1172 0 
L 2766 4134 
L 525 4134 
L 525 4666 
z
" transform="scale(0.015625)"/>
        <path id="DejaVuSans-35" d="M 691 4666 
L 3169 4666 
L 3169 4134 
L 1269 4134 
L 1269 2991 
Q 1406 3038 1543 3061 
Q 1681 3084 1819 3084 
Q 2600 3084 3056 2656 
Q 3513 2228 3513 1497 
Q 3513 744 3044 326 
Q 2575 -91 1722 -91 
Q 1428 -91 1123 -41 
Q 819 9 494 109 
L 494 744 
Q 775 591 1075 516 
Q 1375 441 1709 441 
Q 2250 441 2565 725 
Q 2881 1009 2881 1497 
Q 2881 1984 2565 2268 
Q 2250 2553 1709 2553 
Q 1456 2553 1204 2497 
Q 953 2441 691 2322 
L 691 4666 
z
" transform="scale(0.015625)"/>
       </defs>
       <use xlink:href="#DejaVuSans-2212"/>
       <use xlink:href="#DejaVuSans-30" x="83.789062"/>
       <use xlink:href="#DejaVuSans-2e" x="147.412109"/>
       <use xlink:href="#DejaVuSans-37" x="179.199219"/>
       <use xlink:href="#DejaVuSans-35" x="242.822266"/>
      </g>
     </g>
    </g>
    <g id="xtick_3">
     <g id="line2d_5">
      <path d="M 163.153034 390.761644 
L 163.153034 7.2 
" clip-path="url(#pbf7c5ff098)" style="fill: none; stroke-dasharray: 2.96,1.28; stroke-dashoffset: 0; stroke: #808080; stroke-width: 0.8"/>
     </g>
     <g id="line2d_6">
      <g>
       <use xlink:href="#med9dbb2de6" x="163.153034" y="390.761644" style="stroke: #000000; stroke-width: 0.8"/>
      </g>
     </g>
     <g id="text_3">
      <!-- −0.50 -->
      <g transform="translate(165.912409 428.406956) rotate(-90) scale(0.1 -0.1)">
       <use xlink:href="#DejaVuSans-2212"/>
       <use xlink:href="#DejaVuSans-30" x="83.789062"/>
       <use xlink:href="#DejaVuSans-2e" x="147.412109"/>
       <use xlink:href="#DejaVuSans-35" x="179.199219"/>
       <use xlink:href="#DejaVuSans-30" x="242.822266"/>
      </g>
     </g>
    </g>
    <g id="xtick_4">
     <g id="line2d_7">
      <path d="M 206.739584 390.761644 
L 206.739584 7.2 
" clip-path="url(#pbf7c5ff098)" style="fill: none; stroke-dasharray: 2.96,1.28; stroke-dashoffset: 0; stroke: #808080; stroke-width: 0.8"/>
     </g>
     <g id="line2d_8">
      <g>
       <use xlink:href="#med9dbb2de6" x="206.739584" y="390.761644" style="stroke: #000000; stroke-width: 0.8"/>
      </g>
     </g>
     <g id="text_4">
      <!-- −0.25 -->
      <g transform="translate(209.498959 428.406956) rotate(-90) scale(0.1 -0.1)">
       <defs>
        <path id="DejaVuSans-32" d="M 1228 531 
L 3431 531 
L 3431 0 
L 469 0 
L 469 531 
Q 828 903 1448 1529 
Q 2069 2156 2228 2338 
Q 2531 2678 2651 2914 
Q 2772 3150 2772 3378 
Q 2772 3750 2511 3984 
Q 2250 4219 1831 4219 
Q 1534 4219 1204 4116 
Q 875 4013 500 3803 
L 500 4441 
Q 881 4594 1212 4672 
Q 1544 4750 1819 4750 
Q 2544 4750 2975 4387 
Q 3406 4025 3406 3419 
Q 3406 3131 3298 2873 
Q 3191 2616 2906 2266 
Q 2828 2175 2409 1742 
Q 1991 1309 1228 531 
z
" transform="scale(0.015625)"/>
       </defs>
       <use xlink:href="#DejaVuSans-2212"/>
       <use xlink:href="#DejaVuSans-30" x="83.789062"/>
       <use xlink:href="#DejaVuSans-2e" x="147.412109"/>
       <use xlink:href="#DejaVuSans-32" x="179.199219"/>
       <use xlink:href="#DejaVuSans-35" x="242.822266"/>
      </g>
     </g>
    </g>
    <g id="xtick_5">
     <g id="line2d_9">
      <path d="M 250.326134 390.761644 
L 250.326134 7.2 
" clip-path="url(#pbf7c5ff098)" style="fill: none; stroke-dasharray: 2.96,1.28; stroke-dashoffset: 0; stroke: #808080; stroke-width: 0.8"/>
     </g>
     <g id="line2d_10">
      <g>
       <use xlink:href="#med9dbb2de6" x="250.326134" y="390.761644" style="stroke: #000000; stroke-width: 0.8"/>
      </g>
     </g>
     <g id="text_5">
      <!-- 0.00 -->
      <g transform="translate(253.085509 420.027269) rotate(-90) scale(0.1 -0.1)">
       <use xlink:href="#DejaVuSans-30"/>
       <use xlink:href="#DejaVuSans-2e" x="63.623047"/>
       <use xlink:href="#DejaVuSans-30" x="95.410156"/>
       <use xlink:href="#DejaVuSans-30" x="159.033203"/>
      </g>
     </g>
    </g>
    <g id="xtick_6">
     <g id="line2d_11">
      <path d="M 293.912685 390.761644 
L 293.912685 7.2 
" clip-path="url(#pbf7c5ff098)" style="fill: none; stroke-dasharray: 2.96,1.28; stroke-dashoffset: 0; stroke: #808080; stroke-width: 0.8"/>
     </g>
     <g id="line2d_12">
      <g>
       <use xlink:href="#med9dbb2de6" x="293.912685" y="390.761644" style="stroke: #000000; stroke-width: 0.8"/>
      </g>
     </g>
     <g id="text_6">
      <!-- 0.25 -->
      <g transform="translate(296.67206 420.027269) rotate(-90) scale(0.1 -0.1)">
       <use xlink:href="#DejaVuSans-30"/>
       <use xlink:href="#DejaVuSans-2e" x="63.623047"/>
       <use xlink:href="#DejaVuSans-32" x="95.410156"/>
       <use xlink:href="#DejaVuSans-35" x="159.033203"/>
      </g>
     </g>
    </g>
    <g id="xtick_7">
     <g id="line2d_13">
      <path d="M 337.499235 390.761644 
L 337.499235 7.2 
" clip-path="url(#pbf7c5ff098)" style="fill: none; stroke-dasharray: 2.96,1.28; stroke-dashoffset: 0; stroke: #808080; stroke-width: 0.8"/>
     </g>
     <g id="line2d_14">
      <g>
       <use xlink:href="#med9dbb2de6" x="337.499235" y="390.761644" style="stroke: #000000; stroke-width: 0.8"/>
      </g>
     </g>
     <g id="text_7">
      <!-- 0.50 -->
      <g transform="translate(340.25861 420.027269) rotate(-90) scale(0.1 -0.1)">
       <use xlink:href="#DejaVuSans-30"/>
       <use xlink:href="#DejaVuSans-2e" x="63.623047"/>
       <use xlink:href="#DejaVuSans-35" x="95.410156"/>
       <use xlink:href="#DejaVuSans-30" x="159.033203"/>
      </g>
     </g>
    </g>
    <g id="xtick_8">
     <g id="line2d_15">
      <path d="M 381.085786 390.761644 
L 381.085786 7.2 
" clip-path="url(#pbf7c5ff098)" style="fill: none; stroke-dasharray: 2.96,1.28; stroke-dashoffset: 0; stroke: #808080; stroke-width: 0.8"/>
     </g>
     <g id="line2d_16">
      <g>
       <use xlink:href="#med9dbb2de6" x="381.085786" y="390.761644" style="stroke: #000000; stroke-width: 0.8"/>
      </g>
     </g>
     <g id="text_8">
      <!-- 0.75 -->
      <g transform="translate(383.845161 420.027269) rotate(-90) scale(0.1 -0.1)">
       <use xlink:href="#DejaVuSans-30"/>
       <use xlink:href="#DejaVuSans-2e" x="63.623047"/>
       <use xlink:href="#DejaVuSans-37" x="95.410156"/>
       <use xlink:href="#DejaVuSans-35" x="159.033203"/>
      </g>
     </g>
    </g>
    <g id="xtick_9">
     <g id="line2d_17">
      <path d="M 424.672336 390.761644 
L 424.672336 7.2 
" clip-path="url(#pbf7c5ff098)" style="fill: none; stroke-dasharray: 2.96,1.28; stroke-dashoffset: 0; stroke: #808080; stroke-width: 0.8"/>
     </g>
     <g id="line2d_18">
      <g>
       <use xlink:href="#med9dbb2de6" x="424.672336" y="390.761644" style="stroke: #000000; stroke-width: 0.8"/>
      </g>
     </g>
     <g id="text_9">
      <!-- 1.00 -->
      <g transform="translate(427.431711 420.027269) rotate(-90) scale(0.1 -0.1)">
       <use xlink:href="#DejaVuSans-31"/>
       <use xlink:href="#DejaVuSans-2e" x="63.623047"/>
       <use xlink:href="#DejaVuSans-30" x="95.410156"/>
       <use xlink:href="#DejaVuSans-30" x="159.033203"/>
      </g>
     </g>
    </g>
    <g id="text_10">
     <!-- $\xi_1$ -->
     <g transform="translate(245.126134 440.006956) scale(0.1 -0.1)">
      <defs>
       <path id="DejaVuSans-Oblique-3be" d="M 2016 397 
Q 2428 394 2628 159 
Q 2844 -88 2772 -463 
Q 2700 -822 2422 -1072 
Q 2119 -1344 1609 -1344 
Q 1656 -1109 1700 -872 
Q 1913 -888 2072 -750 
Q 2194 -641 2216 -525 
Q 2247 -359 2175 -222 
Q 2100 -91 1922 -91 
Q -25 -91 241 1275 
Q 422 2213 1516 2488 
Q 663 2600 822 3413 
Q 941 4028 1678 4284 
L 1028 4284 
L 1141 4863 
L 3606 4863 
L 3494 4284 
Q 1528 4284 1350 3375 
Q 1234 2778 2881 2750 
L 2778 2219 
Q 1009 2288 819 1275 
Q 659 428 2016 397 
z
" transform="scale(0.015625)"/>
      </defs>
      <use xlink:href="#DejaVuSans-Oblique-3be" transform="translate(0 0.015625)"/>
      <use xlink:href="#DejaVuSans-31" transform="translate(55.761719 -16.390625) scale(0.7)"/>
     </g>
    </g>
   </g>
   <g id="matplotlib.axis_2">
    <g id="ytick_1">
     <g id="line2d_19">
      <path d="M 58.545313 373.327024 
L 442.106956 373.327024 
" clip-path="url(#pbf7c5ff098)" style="fill: none; stroke-dasharray: 2.96,1.28; stroke-dashoffset: 0; stroke: #808080; stroke-width: 0.8"/>
     </g>
     <g id="line2d_20">
      <defs>
       <path id="mc292a84f7b" d="M 0 0 
L -3.5 0 
" style="stroke: #000000; stroke-width: 0.8"/>
      </defs>
      <g>
       <use xlink:href="#mc292a84f7b" x="58.545313" y="373.327024" style="stroke: #000000; stroke-width: 0.8"/>
      </g>
     </g>
     <g id="text_11">
      <!-- −1.00 -->
      <g transform="translate(20.9 377.126242) scale(0.1 -0.1)">
       <use xlink:href="#DejaVuSans-2212"/>
       <use xlink:href="#DejaVuSans-31" x="83.789062"/>
       <use xlink:href="#DejaVuSans-2e" x="147.412109"/>
       <use xlink:href="#DejaVuSans-30" x="179.199219"/>
       <use xlink:href="#DejaVuSans-30" x="242.822266"/>
      </g>
     </g>
    </g>
    <g id="ytick_2">
     <g id="line2d_21">
      <path d="M 58.545313 329.740473 
L 442.106956 329.740473 
" clip-path="url(#pbf7c5ff098)" style="fill: none; stroke-dasharray: 2.96,1.28; stroke-dashoffset: 0; stroke: #808080; stroke-width: 0.8"/>
     </g>
     <g id="line2d_22">
      <g>
       <use xlink:href="#mc292a84f7b" x="58.545313" y="329.740473" style="stroke: #000000; stroke-width: 0.8"/>
      </g>
     </g>
     <g id="text_12">
      <!-- −0.75 -->
      <g transform="translate(20.9 333.539692) scale(0.1 -0.1)">
       <use xlink:href="#DejaVuSans-2212"/>
       <use xlink:href="#DejaVuSans-30" x="83.789062"/>
       <use xlink:href="#DejaVuSans-2e" x="147.412109"/>
       <use xlink:href="#DejaVuSans-37" x="179.199219"/>
       <use xlink:href="#DejaVuSans-35" x="242.822266"/>
      </g>
     </g>
    </g>
    <g id="ytick_3">
     <g id="line2d_23">
      <path d="M 58.545313 286.153923 
L 442.106956 286.153923 
" clip-path="url(#pbf7c5ff098)" style="fill: none; stroke-dasharray: 2.96,1.28; stroke-dashoffset: 0; stroke: #808080; stroke-width: 0.8"/>
     </g>
     <g id="line2d_24">
      <g>
       <use xlink:href="#mc292a84f7b" x="58.545313" y="286.153923" style="stroke: #000000; stroke-width: 0.8"/>
      </g>
     </g>
     <g id="text_13">
      <!-- −0.50 -->
      <g transform="translate(20.9 289.953142) scale(0.1 -0.1)">
       <use xlink:href="#DejaVuSans-2212"/>
       <use xlink:href="#DejaVuSans-30" x="83.789062"/>
       <use xlink:href="#DejaVuSans-2e" x="147.412109"/>
       <use xlink:href="#DejaVuSans-35" x="179.199219"/>
       <use xlink:href="#DejaVuSans-30" x="242.822266"/>
      </g>
     </g>
    </g>
    <g id="ytick_4">
     <g id="line2d_25">
      <path d="M 58.545313 242.567372 
L 442.106956 242.567372 
" clip-path="url(#pbf7c5ff098)" style="fill: none; stroke-dasharray: 2.96,1.28; stroke-dashoffset: 0; stroke: #808080; stroke-width: 0.8"/>
     </g>
     <g id="line2d_26">
      <g>
       <use xlink:href="#mc292a84f7b" x="58.545313" y="242.567372" style="stroke: #000000; stroke-width: 0.8"/>
      </g>
     </g>
     <g id="text_14">
      <!-- −0.25 -->
      <g transform="translate(20.9 246.366591) scale(0.1 -0.1)">
       <use xlink:href="#DejaVuSans-2212"/>
       <use xlink:href="#DejaVuSans-30" x="83.789062"/>
       <use xlink:href="#DejaVuSans-2e" x="147.412109"/>
       <use xlink:href="#DejaVuSans-32" x="179.199219"/>
       <use xlink:href="#DejaVuSans-35" x="242.822266"/>
      </g>
     </g>
    </g>
    <g id="ytick_5">
     <g id="line2d_27">
      <path d="M 58.545313 198.980822 
L 442.106956 198.980822 
" clip-path="url(#pbf7c5ff098)" style="fill: none; stroke-dasharray: 2.96,1.28; stroke-dashoffset: 0; stroke: #808080; stroke-width: 0.8"/>
     </g>
     <g id="line2d_28">
      <g>
       <use xlink:href="#mc292a84f7b" x="58.545313" y="198.980822" style="stroke: #000000; stroke-width: 0.8"/>
      </g>
     </g>
     <g id="text_15">
      <!-- 0.00 -->
      <g transform="translate(29.279688 202.780041) scale(0.1 -0.1)">
       <use xlink:href="#DejaVuSans-30"/>
       <use xlink:href="#DejaVuSans-2e" x="63.623047"/>
       <use xlink:href="#DejaVuSans-30" x="95.410156"/>
       <use xlink:href="#DejaVuSans-30" x="159.033203"/>
      </g>
     </g>
    </g>
    <g id="ytick_6">
     <g id="line2d_29">
      <path d="M 58.545313 155.394271 
L 442.106956 155.394271 
" clip-path="url(#pbf7c5ff098)" style="fill: none; stroke-dasharray: 2.96,1.28; stroke-dashoffset: 0; stroke: #808080; stroke-width: 0.8"/>
     </g>
     <g id="line2d_30">
      <g>
       <use xlink:href="#mc292a84f7b" x="58.545313" y="155.394271" style="stroke: #000000; stroke-width: 0.8"/>
      </g>
     </g>
     <g id="text_16">
      <!-- 0.25 -->
      <g transform="translate(29.279688 159.19349) scale(0.1 -0.1)">
       <use xlink:href="#DejaVuSans-30"/>
       <use xlink:href="#DejaVuSans-2e" x="63.623047"/>
       <use xlink:href="#DejaVuSans-32" x="95.410156"/>
       <use xlink:href="#DejaVuSans-35" x="159.033203"/>
      </g>
     </g>
    </g>
    <g id="ytick_7">
     <g id="line2d_31">
      <path d="M 58.545313 111.807721 
L 442.106956 111.807721 
" clip-path="url(#pbf7c5ff098)" style="fill: none; stroke-dasharray: 2.96,1.28; stroke-dashoffset: 0; stroke: #808080; stroke-width: 0.8"/>
     </g>
     <g id="line2d_32">
      <g>
       <use xlink:href="#mc292a84f7b" x="58.545313" y="111.807721" style="stroke: #000000; stroke-width: 0.8"/>
      </g>
     </g>
     <g id="text_17">
      <!-- 0.50 -->
      <g transform="translate(29.279688 115.60694) scale(0.1 -0.1)">
       <use xlink:href="#DejaVuSans-30"/>
       <use xlink:href="#DejaVuSans-2e" x="63.623047"/>
       <use xlink:href="#DejaVuSans-35" x="95.410156"/>
       <use xlink:href="#DejaVuSans-30" x="159.033203"/>
      </g>
     </g>
    </g>
    <g id="ytick_8">
     <g id="line2d_33">
      <path d="M 58.545313 68.221171 
L 442.106956 68.221171 
" clip-path="url(#pbf7c5ff098)" style="fill: none; stroke-dasharray: 2.96,1.28; stroke-dashoffset: 0; stroke: #808080; stroke-width: 0.8"/>
     </g>
     <g id="line2d_34">
      <g>
       <use xlink:href="#mc292a84f7b" x="58.545313" y="68.221171" style="stroke: #000000; stroke-width: 0.8"/>
      </g>
     </g>
     <g id="text_18">
      <!-- 0.75 -->
      <g transform="translate(29.279688 72.020389) scale(0.1 -0.1)">
       <use xlink:href="#DejaVuSans-30"/>
       <use xlink:href="#DejaVuSans-2e" x="63.623047"/>
       <use xlink:href="#DejaVuSans-37" x="95.410156"/>
       <use xlink:href="#DejaVuSans-35" x="159.033203"/>
      </g>
     </g>
    </g>
    <g id="ytick_9">
     <g id="line2d_35">
      <path d="M 58.545313 24.63462 
L 442.106956 24.63462 
" clip-path="url(#pbf7c5ff098)" style="fill: none; stroke-dasharray: 2.96,1.28; stroke-dashoffset: 0; stroke: #808080; stroke-width: 0.8"/>
     </g>
     <g id="line2d_36">
      <g>
       <use xlink:href="#mc292a84f7b" x="58.545313" y="24.63462" style="stroke: #000000; stroke-width: 0.8"/>
      </g>
     </g>
     <g id="text_19">
      <!-- 1.00 -->
      <g transform="translate(29.279688 28.433839) scale(0.1 -0.1)">
       <use xlink:href="#DejaVuSans-31"/>
       <use xlink:href="#DejaVuSans-2e" x="63.623047"/>
       <use xlink:href="#DejaVuSans-30" x="95.410156"/>
       <use xlink:href="#DejaVuSans-30" x="159.033203"/>
      </g>
     </g>
    </g>
    <g id="text_20">
     <!-- $\xi_2$ -->
     <g transform="translate(14.8 204.180822) rotate(-90) scale(0.1 -0.1)">
      <use xlink:href="#DejaVuSans-Oblique-3be" transform="translate(0 0.015625)"/>
      <use xlink:href="#DejaVuSans-32" transform="translate(55.761719 -16.390625) scale(0.7)"/>
     </g>
    </g>
   </g>
   <g id="patch_3">
    <path d="M 75.979933 373.327024 
L 424.672336 373.327024 
L 424.672336 24.63462 
L 75.979933 24.63462 
L 75.979933 373.327024 
z
" clip-path="url(#pbf7c5ff098)" style="fill: none; stroke: #427ce5; stroke-width: 2; stroke-linejoin: miter"/>
   </g>
   <g id="patch_4">
    <path d="M 75.979933 373.327024 
L 424.672336 373.327024 
L 424.672336 24.63462 
L 75.979933 24.63462 
L 75.979933 373.327024 
z
" clip-path="url(#pbf7c5ff098)" style="fill: none; stroke: #427ce5; stroke-width: 2; stroke-linejoin: miter"/>
   </g>
   <g id="patch_5">
    <path d="M 100.190289 353.475322 
C 101.346218 353.475322 102.454959 353.016067 103.272324 352.198702 
C 104.089689 351.381336 104.548944 350.272596 104.548944 349.116667 
C 104.548944 347.960738 104.089689 346.851998 103.272324 346.034632 
C 102.454959 345.217267 101.346218 344.758012 100.190289 344.758012 
C 99.03436 344.758012 97.92562 345.217267 97.108255 346.034632 
C 96.29089 346.851998 95.831634 347.960738 95.831634 349.116667 
C 95.831634 350.272596 96.29089 351.381336 97.108255 352.198702 
C 97.92562 353.016067 99.03436 353.475322 100.190289 353.475322 
z
" clip-path="url(#pbf7c5ff098)" style="stroke: #000000; stroke-width: 2; stroke-linejoin: miter"/>
   </g>
   <g id="patch_6">
    <path d="M 191.051731 353.475322 
C 192.20766 353.475322 193.3164 353.016067 194.133765 352.198702 
C 194.95113 351.381336 195.410386 350.272596 195.410386 349.116667 
C 195.410386 347.960738 194.95113 346.851998 194.133765 346.034632 
C 193.3164 345.217267 192.20766 344.758012 191.051731 344.758012 
C 189.895802 344.758012 188.787061 345.217267 187.969696 346.034632 
C 187.152331 346.851998 186.693076 347.960738 186.693076 349.116667 
C 186.693076 350.272596 187.152331 351.381336 187.969696 352.198702 
C 188.787061 353.016067 189.895802 353.475322 191.051731 353.475322 
z
" clip-path="url(#pbf7c5ff098)" style="stroke: #000000; stroke-width: 2; stroke-linejoin: miter"/>
   </g>
   <g id="patch_7">
    <path d="M 309.600538 353.475322 
C 310.756467 353.475322 311.865207 353.016067 312.682573 352.198702 
C 313.499938 351.381336 313.959193 350.272596 313.959193 349.116667 
C 313.959193 347.960738 313.499938 346.851998 312.682573 346.034632 
C 311.865207 345.217267 310.756467 344.758012 309.600538 344.758012 
C 308.444609 344.758012 307.335869 345.217267 306.518503 346.034632 
C 305.701138 346.851998 305.241883 347.960738 305.241883 349.116667 
C 305.241883 350.272596 305.701138 351.381336 306.518503 352.198702 
C 307.335869 353.016067 308.444609 353.475322 309.600538 353.475322 
z
" clip-path="url(#pbf7c5ff098)" style="stroke: #000000; stroke-width: 2; stroke-linejoin: miter"/>
   </g>
   <g id="patch_8">
    <path d="M 400.46198 353.475322 
C 401.617908 353.475322 402.726649 353.016067 403.544014 352.198702 
C 404.361379 351.381336 404.820635 350.272596 404.820635 349.116667 
C 404.820635 347.960738 404.361379 346.851998 403.544014 346.034632 
C 402.726649 345.217267 401.617908 344.758012 400.46198 344.758012 
C 399.306051 344.758012 398.19731 345.217267 397.379945 346.034632 
C 396.56258 346.851998 396.103324 347.960738 396.103324 349.116667 
C 396.103324 350.272596 396.56258 351.381336 397.379945 352.198702 
C 398.19731 353.016067 399.306051 353.475322 400.46198 353.475322 
z
" clip-path="url(#pbf7c5ff098)" style="stroke: #000000; stroke-width: 2; stroke-linejoin: miter"/>
   </g>
   <g id="patch_9">
    <path d="M 100.190289 262.613881 
C 101.346218 262.613881 102.454959 262.154625 103.272324 261.33726 
C 104.089689 260.519895 104.548944 259.411154 104.548944 258.255226 
C 104.548944 257.099297 104.089689 255.990556 103.272324 255.173191 
C 102.454959 254.355826 101.346218 253.89657 100.190289 253.89657 
C 99.03436 253.89657 97.92562 254.355826 97.108255 255.173191 
C 96.29089 255.990556 95.831634 257.099297 95.831634 258.255226 
C 95.831634 259.411154 96.29089 260.519895 97.108255 261.33726 
C 97.92562 262.154625 99.03436 262.613881 100.190289 262.613881 
z
" clip-path="url(#pbf7c5ff098)" style="stroke: #000000; stroke-width: 2; stroke-linejoin: miter"/>
   </g>
   <g id="patch_10">
    <path d="M 191.051731 262.613881 
C 192.20766 262.613881 193.3164 262.154625 194.133765 261.33726 
C 194.95113 260.519895 195.410386 259.411154 195.410386 258.255226 
C 195.410386 257.099297 194.95113 255.990556 194.133765 255.173191 
C 193.3164 254.355826 192.20766 253.89657 191.051731 253.89657 
C 189.895802 253.89657 188.787061 254.355826 187.969696 255.173191 
C 187.152331 255.990556 186.693076 257.099297 186.693076 258.255226 
C 186.693076 259.411154 187.152331 260.519895 187.969696 261.33726 
C 188.787061 262.154625 189.895802 262.613881 191.051731 262.613881 
z
" clip-path="url(#pbf7c5ff098)" style="stroke: #000000; stroke-width: 2; stroke-linejoin: miter"/>
   </g>
   <g id="patch_11">
    <path d="M 309.600538 262.613881 
C 310.756467 262.613881 311.865207 262.154625 312.682573 261.33726 
C 313.499938 260.519895 313.959193 259.411154 313.959193 258.255226 
C 313.959193 257.099297 313.499938 255.990556 312.682573 255.173191 
C 311.865207 254.355826 310.756467 253.89657 309.600538 253.89657 
C 308.444609 253.89657 307.335869 254.355826 306.518503 255.173191 
C 305.701138 255.990556 305.241883 257.099297 305.241883 258.255226 
C 305.241883 259.411154 305.701138 260.519895 306.518503 261.33726 
C 307.335869 262.154625 308.444609 262.613881 309.600538 262.613881 
z
" clip-path="url(#pbf7c5ff098)" style="stroke: #000000; stroke-width: 2; stroke-linejoin: miter"/>
   </g>
   <g id="patch_12">
    <path d="M 400.46198 262.613881 
C 401.617908 262.613881 402.726649 262.154625 403.544014 261.33726 
C 404.361379 260.519895 404.820635 259.411154 404.820635 258.255226 
C 404.820635 257.099297 404.361379 255.990556 403.544014 255.173191 
C 402.726649 254.355826 401.617908 253.89657 400.46198 253.89657 
C 399.306051 253.89657 398.19731 254.355826 397.379945 255.173191 
C 396.56258 255.990556 396.103324 257.099297 396.103324 258.255226 
C 396.103324 259.411154 396.56258 260.519895 397.379945 261.33726 
C 398.19731 262.154625 399.306051 262.613881 400.46198 262.613881 
z
" clip-path="url(#pbf7c5ff098)" style="stroke: #000000; stroke-width: 2; stroke-linejoin: miter"/>
   </g>
   <g id="patch_13">
    <path d="M 100.190289 144.065073 
C 101.346218 144.065073 102.454959 143.605818 103.272324 142.788453 
C 104.089689 141.971088 104.548944 140.862347 104.548944 139.706418 
C 104.548944 138.550489 104.089689 137.441749 103.272324 136.624384 
C 102.454959 135.807019 101.346218 135.347763 100.190289 135.347763 
C 99.03436 135.347763 97.92562 135.807019 97.108255 136.624384 
C 96.29089 137.441749 95.831634 138.550489 95.831634 139.706418 
C 95.831634 140.862347 96.29089 141.971088 97.108255 142.788453 
C 97.92562 143.605818 99.03436 144.065073 100.190289 144.065073 
z
" clip-path="url(#pbf7c5ff098)" style="stroke: #000000; stroke-width: 2; stroke-linejoin: miter"/>
   </g>
   <g id="patch_14">
    <path d="M 191.051731 144.065073 
C 192.20766 144.065073 193.3164 143.605818 194.133765 142.788453 
C 194.95113 141.971088 195.410386 140.862347 195.410386 139.706418 
C 195.410386 138.550489 194.95113 137.441749 194.133765 136.624384 
C 193.3164 135.807019 192.20766 135.347763 191.051731 135.347763 
C 189.895802 135.347763 188.787061 135.807019 187.969696 136.624384 
C 187.152331 137.441749 186.693076 138.550489 186.693076 139.706418 
C 186.693076 140.862347 187.152331 141.971088 187.969696 142.788453 
C 188.787061 143.605818 189.895802 144.065073 191.051731 144.065073 
z
" clip-path="url(#pbf7c5ff098)" style="stroke: #000000; stroke-width: 2; stroke-linejoin: miter"/>
   </g>
   <g id="patch_15">
    <path d="M 309.600538 144.065073 
C 310.756467 144.065073 311.865207 143.605818 312.682573 142.788453 
C 313.499938 141.971088 313.959193 140.862347 313.959193 139.706418 
C 313.959193 138.550489 313.499938 137.441749 312.682573 136.624384 
C 311.865207 135.807019 310.756467 135.347763 309.600538 135.347763 
C 308.444609 135.347763 307.335869 135.807019 306.518503 136.624384 
C 305.701138 137.441749 305.241883 138.550489 305.241883 139.706418 
C 305.241883 140.862347 305.701138 141.971088 306.518503 142.788453 
C 307.335869 143.605818 308.444609 144.065073 309.600538 144.065073 
z
" clip-path="url(#pbf7c5ff098)" style="stroke: #000000; stroke-width: 2; stroke-linejoin: miter"/>
   </g>
   <g id="patch_16">
    <path d="M 400.46198 144.065073 
C 401.617908 144.065073 402.726649 143.605818 403.544014 142.788453 
C 404.361379 141.971088 404.820635 140.862347 404.820635 139.706418 
C 404.820635 138.550489 404.361379 137.441749 403.544014 136.624384 
C 402.726649 135.807019 401.617908 135.347763 400.46198 135.347763 
C 399.306051 135.347763 398.19731 135.807019 397.379945 136.624384 
C 396.56258 137.441749 396.103324 138.550489 396.103324 139.706418 
C 396.103324 140.862347 396.56258 141.971088 397.379945 142.788453 
C 398.19731 143.605818 399.306051 144.065073 400.46198 144.065073 
z
" clip-path="url(#pbf7c5ff098)" style="stroke: #000000; stroke-width: 2; stroke-linejoin: miter"/>
   </g>
   <g id="patch_17">
    <path d="M 100.190289 53.203632 
C 101.346218 53.203632 102.454959 52.744376 103.272324 51.927011 
C 104.089689 51.109646 104.548944 50.000906 104.548944 48.844977 
C 104.548944 47.689048 104.089689 46.580307 103.272324 45.762942 
C 102.454959 44.945577 101.346218 44.486322 100.190289 44.486322 
C 99.03436 44.486322 97.92562 44.945577 97.108255 45.762942 
C 96.29089 46.580307 95.831634 47.689048 95.831634 48.844977 
C 95.831634 50.000906 96.29089 51.109646 97.108255 51.927011 
C 97.92562 52.744376 99.03436 53.203632 100.190289 53.203632 
z
" clip-path="url(#pbf7c5ff098)" style="stroke: #000000; stroke-width: 2; stroke-linejoin: miter"/>
   </g>
   <g id="patch_18">
    <path d="M 191.051731 53.203632 
C 192.20766 53.203632 193.3164 52.744376 194.133765 51.927011 
C 194.95113 51.109646 195.410386 50.000906 195.410386 48.844977 
C 195.410386 47.689048 194.95113 46.580307 194.133765 45.762942 
C 193.3164 44.945577 192.20766 44.486322 191.051731 44.486322 
C 189.895802 44.486322 188.787061 44.945577 187.969696 45.762942 
C 187.152331 46.580307 186.693076 47.689048 186.693076 48.844977 
C 186.693076 50.000906 187.152331 51.109646 187.969696 51.927011 
C 188.787061 52.744376 189.895802 53.203632 191.051731 53.203632 
z
" clip-path="url(#pbf7c5ff098)" style="stroke: #000000; stroke-width: 2; stroke-linejoin: miter"/>
   </g>
   <g id="patch_19">
    <path d="M 309.600538 53.203632 
C 310.756467 53.203632 311.865207 52.744376 312.682573 51.927011 
C 313.499938 51.109646 313.959193 50.000906 313.959193 48.844977 
C 313.959193 47.689048 313.499938 46.580307 312.682573 45.762942 
C 311.865207 44.945577 310.756467 44.486322 309.600538 44.486322 
C 308.444609 44.486322 307.335869 44.945577 306.518503 45.762942 
C 305.701138 46.580307 305.241883 47.689048 305.241883 48.844977 
C 305.241883 50.000906 305.701138 51.109646 306.518503 51.927011 
C 307.335869 52.744376 308.444609 53.203632 309.600538 53.203632 
z
" clip-path="url(#pbf7c5ff098)" style="stroke: #000000; stroke-width: 2; stroke-linejoin: miter"/>
   </g>
   <g id="patch_20">
    <path d="M 400.46198 53.203632 
C 401.617908 53.203632 402.726649 52.744376 403.544014 51.927011 
C 404.361379 51.109646 404.820635 50.000906 404.820635 48.844977 
C 404.820635 47.689048 404.361379 46.580307 403.544014 45.762942 
C 402.726649 44.945577 401.617908 44.486322 400.46198 44.486322 
C 399.306051 44.486322 398.19731 44.945577 397.379945 45.762942 
C 396.56258 46.580307 396.103324 47.689048 396.103324 48.844977 
C 396.103324 50.000906 396.56258 51.109646 397.379945 51.927011 
C 398.19731 52.744376 399.306051 53.203632 400.46198 53.203632 
z
" clip-path="url(#pbf7c5ff098)" style="stroke: #000000; stroke-width: 2; stroke-linejoin: miter"/>
   </g>
   <g id="patch_21">
    <path d="M 58.545313 390.761644 
L 58.545313 7.2 
" style="fill: none; stroke: #000000; stroke-width: 0.8; stroke-linejoin: miter; stroke-linecap: square"/>
   </g>
   <g id="patch_22">
    <path d="M 442.106956 390.761644 
L 442.106956 7.2 
" style="fill: none; stroke: #000000; stroke-width: 0.8; stroke-linejoin: miter; stroke-linecap: square"/>
   </g>
   <g id="patch_23">
    <path d="M 58.545312 390.761644 
L 442.106956 390.761644 
" style="fill: none; stroke: #000000; stroke-width: 0.8; stroke-linejoin: miter; stroke-linecap: square"/>
   </g>
   <g id="patch_24">
    <path d="M 58.545312 7.2 
L 442.106956 7.2 
" style="fill: none; stroke: #000000; stroke-width: 0.8; stroke-linejoin: miter; stroke-linecap: square"/>
   </g>
   <g id="text_21">
    <!-- 1 -->
    <g style="fill: #eb0707" transform="translate(96.372789 341.390656) scale(0.12 -0.12)">
     <use xlink:href="#DejaVuSans-31"/>
    </g>
   </g>
   <g id="text_22">
    <!-- 2 -->
    <g style="fill: #eb0707" transform="translate(187.234231 341.390656) scale(0.12 -0.12)">
     <use xlink:href="#DejaVuSans-32"/>
    </g>
   </g>
   <g id="text_23">
    <!-- 3 -->
    <g style="fill: #eb0707" transform="translate(305.783038 341.390656) scale(0.12 -0.12)">
     <defs>
      <path id="DejaVuSans-33" d="M 2597 2516 
Q 3050 2419 3304 2112 
Q 3559 1806 3559 1356 
Q 3559 666 3084 287 
Q 2609 -91 1734 -91 
Q 1441 -91 1130 -33 
Q 819 25 488 141 
L 488 750 
Q 750 597 1062 519 
Q 1375 441 1716 441 
Q 2309 441 2620 675 
Q 2931 909 2931 1356 
Q 2931 1769 2642 2001 
Q 2353 2234 1838 2234 
L 1294 2234 
L 1294 2753 
L 1863 2753 
Q 2328 2753 2575 2939 
Q 2822 3125 2822 3475 
Q 2822 3834 2567 4026 
Q 2313 4219 1838 4219 
Q 1578 4219 1281 4162 
Q 984 4106 628 3988 
L 628 4550 
Q 988 4650 1302 4700 
Q 1616 4750 1894 4750 
Q 2613 4750 3031 4423 
Q 3450 4097 3450 3541 
Q 3450 3153 3228 2886 
Q 3006 2619 2597 2516 
z
" transform="scale(0.015625)"/>
     </defs>
     <use xlink:href="#DejaVuSans-33"/>
    </g>
   </g>
   <g id="text_24">
    <!-- 4 -->
    <g style="fill: #eb0707" transform="translate(396.64448 341.390656) scale(0.12 -0.12)">
     <defs>
      <path id="DejaVuSans-34" d="M 2419 4116 
L 825 1625 
L 2419 1625 
L 2419 4116 
z
M 2253 4666 
L 3047 4666 
L 3047 1625 
L 3713 1625 
L 3713 1100 
L 3047 1100 
L 3047 0 
L 2419 0 
L 2419 1100 
L 313 1100 
L 313 1709 
L 2253 4666 
z
" transform="scale(0.015625)"/>
     </defs>
     <use xlink:href="#DejaVuSans-34"/>
    </g>
   </g>
   <g id="text_25">
    <!-- 5 -->
    <g style="fill: #eb0707" transform="translate(96.372789 250.529214) scale(0.12 -0.12)">
     <use xlink:href="#DejaVuSans-35"/>
    </g>
   </g>
   <g id="text_26">
    <!-- 6 -->
    <g style="fill: #eb0707" transform="translate(187.234231 250.529214) scale(0.12 -0.12)">
     <defs>
      <path id="DejaVuSans-36" d="M 2113 2584 
Q 1688 2584 1439 2293 
Q 1191 2003 1191 1497 
Q 1191 994 1439 701 
Q 1688 409 2113 409 
Q 2538 409 2786 701 
Q 3034 994 3034 1497 
Q 3034 2003 2786 2293 
Q 2538 2584 2113 2584 
z
M 3366 4563 
L 3366 3988 
Q 3128 4100 2886 4159 
Q 2644 4219 2406 4219 
Q 1781 4219 1451 3797 
Q 1122 3375 1075 2522 
Q 1259 2794 1537 2939 
Q 1816 3084 2150 3084 
Q 2853 3084 3261 2657 
Q 3669 2231 3669 1497 
Q 3669 778 3244 343 
Q 2819 -91 2113 -91 
Q 1303 -91 875 529 
Q 447 1150 447 2328 
Q 447 3434 972 4092 
Q 1497 4750 2381 4750 
Q 2619 4750 2861 4703 
Q 3103 4656 3366 4563 
z
" transform="scale(0.015625)"/>
     </defs>
     <use xlink:href="#DejaVuSans-36"/>
    </g>
   </g>
   <g id="text_27">
    <!-- 7 -->
    <g style="fill: #eb0707" transform="translate(305.783038 250.529214) scale(0.12 -0.12)">
     <use xlink:href="#DejaVuSans-37"/>
    </g>
   </g>
   <g id="text_28">
    <!-- 8 -->
    <g style="fill: #eb0707" transform="translate(396.64448 250.529214) scale(0.12 -0.12)">
     <defs>
      <path id="DejaVuSans-38" d="M 2034 2216 
Q 1584 2216 1326 1975 
Q 1069 1734 1069 1313 
Q 1069 891 1326 650 
Q 1584 409 2034 409 
Q 2484 409 2743 651 
Q 3003 894 3003 1313 
Q 3003 1734 2745 1975 
Q 2488 2216 2034 2216 
z
M 1403 2484 
Q 997 2584 770 2862 
Q 544 3141 544 3541 
Q 544 4100 942 4425 
Q 1341 4750 2034 4750 
Q 2731 4750 3128 4425 
Q 3525 4100 3525 3541 
Q 3525 3141 3298 2862 
Q 3072 2584 2669 2484 
Q 3125 2378 3379 2068 
Q 3634 1759 3634 1313 
Q 3634 634 3220 271 
Q 2806 -91 2034 -91 
Q 1263 -91 848 271 
Q 434 634 434 1313 
Q 434 1759 690 2068 
Q 947 2378 1403 2484 
z
M 1172 3481 
Q 1172 3119 1398 2916 
Q 1625 2713 2034 2713 
Q 2441 2713 2670 2916 
Q 2900 3119 2900 3481 
Q 2900 3844 2670 4047 
Q 2441 4250 2034 4250 
Q 1625 4250 1398 4047 
Q 1172 3844 1172 3481 
z
" transform="scale(0.015625)"/>
     </defs>
     <use xlink:href="#DejaVuSans-38"/>
    </g>
   </g>
   <g id="text_29">
    <!-- 9 -->
    <g style="fill: #eb0707" transform="translate(96.372789 131.980407) scale(0.12 -0.12)">
     <defs>
      <path id="DejaVuSans-39" d="M 703 97 
L 703 672 
Q 941 559 1184 500 
Q 1428 441 1663 441 
Q 2288 441 2617 861 
Q 2947 1281 2994 2138 
Q 2813 1869 2534 1725 
Q 2256 1581 1919 1581 
Q 1219 1581 811 2004 
Q 403 2428 403 3163 
Q 403 3881 828 4315 
Q 1253 4750 1959 4750 
Q 2769 4750 3195 4129 
Q 3622 3509 3622 2328 
Q 3622 1225 3098 567 
Q 2575 -91 1691 -91 
Q 1453 -91 1209 -44 
Q 966 3 703 97 
z
M 1959 2075 
Q 2384 2075 2632 2365 
Q 2881 2656 2881 3163 
Q 2881 3666 2632 3958 
Q 2384 4250 1959 4250 
Q 1534 4250 1286 3958 
Q 1038 3666 1038 3163 
Q 1038 2656 1286 2365 
Q 1534 2075 1959 2075 
z
" transform="scale(0.015625)"/>
     </defs>
     <use xlink:href="#DejaVuSans-39"/>
    </g>
   </g>
   <g id="text_30">
    <!-- 10 -->
    <g style="fill: #eb0707" transform="translate(183.416731 131.980407) scale(0.12 -0.12)">
     <use xlink:href="#DejaVuSans-31"/>
     <use xlink:href="#DejaVuSans-30" x="63.623047"/>
    </g>
   </g>
   <g id="text_31">
    <!-- 11 -->
    <g style="fill: #eb0707" transform="translate(301.965538 131.980407) scale(0.12 -0.12)">
     <use xlink:href="#DejaVuSans-31"/>
     <use xlink:href="#DejaVuSans-31" x="63.623047"/>
    </g>
   </g>
   <g id="text_32">
    <!-- 12 -->
    <g style="fill: #eb0707" transform="translate(392.82698 131.980407) scale(0.12 -0.12)">
     <use xlink:href="#DejaVuSans-31"/>
     <use xlink:href="#DejaVuSans-32" x="63.623047"/>
    </g>
   </g>
   <g id="text_33">
    <!-- 13 -->
    <g style="fill: #eb0707" transform="translate(92.555289 41.118966) scale(0.12 -0.12)">
     <use xlink:href="#DejaVuSans-31"/>
     <use xlink:href="#DejaVuSans-33" x="63.623047"/>
    </g>
   </g>
   <g id="text_34">
    <!-- 14 -->
    <g style="fill: #eb0707" transform="translate(183.416731 41.118966) scale(0.12 -0.12)">
     <use xlink:href="#DejaVuSans-31"/>
     <use xlink:href="#DejaVuSans-34" x="63.623047"/>
    </g>
   </g>
   <g id="text_35">
    <!-- 15 -->
    <g style="fill: #eb0707" transform="translate(301.965538 41.118966) scale(0.12 -0.12)">
     <use xlink:href="#DejaVuSans-31"/>
     <use xlink:href="#DejaVuSans-35" x="63.623047"/>
    </g>
   </g>
   <g id="text_36">
    <!-- 16 -->
    <g style="fill: #eb0707" transform="translate(392.82698 41.118966) scale(0.12 -0.12)">
     <use xlink:href="#DejaVuSans-31"/>
     <use xlink:href="#DejaVuSans-36" x="63.623047"/>
    </g>
   </g>
   <g id="text_37">
    <!-- (-0.861, -0.861) -->
    <g transform="translate(60.874664 361.945491) scale(0.1 -0.1)">
     <defs>
      <path id="DejaVuSans-28" d="M 1984 4856 
Q 1566 4138 1362 3434 
Q 1159 2731 1159 2009 
Q 1159 1288 1364 580 
Q 1569 -128 1984 -844 
L 1484 -844 
Q 1016 -109 783 600 
Q 550 1309 550 2009 
Q 550 2706 781 3412 
Q 1013 4119 1484 4856 
L 1984 4856 
z
" transform="scale(0.015625)"/>
      <path id="DejaVuSans-2d" d="M 313 2009 
L 1997 2009 
L 1997 1497 
L 313 1497 
L 313 2009 
z
" transform="scale(0.015625)"/>
      <path id="DejaVuSans-2c" d="M 750 794 
L 1409 794 
L 1409 256 
L 897 -744 
L 494 -744 
L 750 256 
L 750 794 
z
" transform="scale(0.015625)"/>
      <path id="DejaVuSans-20" transform="scale(0.015625)"/>
      <path id="DejaVuSans-29" d="M 513 4856 
L 1013 4856 
Q 1481 4119 1714 3412 
Q 1947 2706 1947 2009 
Q 1947 1309 1714 600 
Q 1481 -109 1013 -844 
L 513 -844 
Q 928 -128 1133 580 
Q 1338 1288 1338 2009 
Q 1338 2731 1133 3434 
Q 928 4138 513 4856 
z
" transform="scale(0.015625)"/>
     </defs>
     <use xlink:href="#DejaVuSans-28"/>
     <use xlink:href="#DejaVuSans-2d" x="39.013672"/>
     <use xlink:href="#DejaVuSans-30" x="75.097656"/>
     <use xlink:href="#DejaVuSans-2e" x="138.720703"/>
     <use xlink:href="#DejaVuSans-38" x="170.507812"/>
     <use xlink:href="#DejaVuSans-36" x="234.130859"/>
     <use xlink:href="#DejaVuSans-31" x="297.753906"/>
     <use xlink:href="#DejaVuSans-2c" x="361.376953"/>
     <use xlink:href="#DejaVuSans-20" x="393.164062"/>
     <use xlink:href="#DejaVuSans-2d" x="424.951172"/>
     <use xlink:href="#DejaVuSans-30" x="461.035156"/>
     <use xlink:href="#DejaVuSans-2e" x="524.658203"/>
     <use xlink:href="#DejaVuSans-38" x="556.445312"/>
     <use xlink:href="#DejaVuSans-36" x="620.068359"/>
     <use xlink:href="#DejaVuSans-31" x="683.691406"/>
     <use xlink:href="#DejaVuSans-29" x="747.314453"/>
    </g>
   </g>
   <g id="text_38">
    <!-- (-0.340, -0.861) -->
    <g transform="translate(151.736106 361.945491) scale(0.1 -0.1)">
     <use xlink:href="#DejaVuSans-28"/>
     <use xlink:href="#DejaVuSans-2d" x="39.013672"/>
     <use xlink:href="#DejaVuSans-30" x="75.097656"/>
     <use xlink:href="#DejaVuSans-2e" x="138.720703"/>
     <use xlink:href="#DejaVuSans-33" x="170.507812"/>
     <use xlink:href="#DejaVuSans-34" x="234.130859"/>
     <use xlink:href="#DejaVuSans-30" x="297.753906"/>
     <use xlink:href="#DejaVuSans-2c" x="361.376953"/>
     <use xlink:href="#DejaVuSans-20" x="393.164062"/>
     <use xlink:href="#DejaVuSans-2d" x="424.951172"/>
     <use xlink:href="#DejaVuSans-30" x="461.035156"/>
     <use xlink:href="#DejaVuSans-2e" x="524.658203"/>
     <use xlink:href="#DejaVuSans-38" x="556.445312"/>
     <use xlink:href="#DejaVuSans-36" x="620.068359"/>
     <use xlink:href="#DejaVuSans-31" x="683.691406"/>
     <use xlink:href="#DejaVuSans-29" x="747.314453"/>
    </g>
   </g>
   <g id="text_39">
    <!-- (0.340, -0.861) -->
    <g transform="translate(272.088819 361.945491) scale(0.1 -0.1)">
     <use xlink:href="#DejaVuSans-28"/>
     <use xlink:href="#DejaVuSans-30" x="39.013672"/>
     <use xlink:href="#DejaVuSans-2e" x="102.636719"/>
     <use xlink:href="#DejaVuSans-33" x="134.423828"/>
     <use xlink:href="#DejaVuSans-34" x="198.046875"/>
     <use xlink:href="#DejaVuSans-30" x="261.669922"/>
     <use xlink:href="#DejaVuSans-2c" x="325.292969"/>
     <use xlink:href="#DejaVuSans-20" x="357.080078"/>
     <use xlink:href="#DejaVuSans-2d" x="388.867188"/>
     <use xlink:href="#DejaVuSans-30" x="424.951172"/>
     <use xlink:href="#DejaVuSans-2e" x="488.574219"/>
     <use xlink:href="#DejaVuSans-38" x="520.361328"/>
     <use xlink:href="#DejaVuSans-36" x="583.984375"/>
     <use xlink:href="#DejaVuSans-31" x="647.607422"/>
     <use xlink:href="#DejaVuSans-29" x="711.230469"/>
    </g>
   </g>
   <g id="text_40">
    <!-- (0.861, -0.861) -->
    <g transform="translate(362.950261 361.945491) scale(0.1 -0.1)">
     <use xlink:href="#DejaVuSans-28"/>
     <use xlink:href="#DejaVuSans-30" x="39.013672"/>
     <use xlink:href="#DejaVuSans-2e" x="102.636719"/>
     <use xlink:href="#DejaVuSans-38" x="134.423828"/>
     <use xlink:href="#DejaVuSans-36" x="198.046875"/>
     <use xlink:href="#DejaVuSans-31" x="261.669922"/>
     <use xlink:href="#DejaVuSans-2c" x="325.292969"/>
     <use xlink:href="#DejaVuSans-20" x="357.080078"/>
     <use xlink:href="#DejaVuSans-2d" x="388.867188"/>
     <use xlink:href="#DejaVuSans-30" x="424.951172"/>
     <use xlink:href="#DejaVuSans-2e" x="488.574219"/>
     <use xlink:href="#DejaVuSans-38" x="520.361328"/>
     <use xlink:href="#DejaVuSans-36" x="583.984375"/>
     <use xlink:href="#DejaVuSans-31" x="647.607422"/>
     <use xlink:href="#DejaVuSans-29" x="711.230469"/>
    </g>
   </g>
   <g id="text_41">
    <!-- (-0.861, -0.340) -->
    <g transform="translate(60.874664 271.084049) scale(0.1 -0.1)">
     <use xlink:href="#DejaVuSans-28"/>
     <use xlink:href="#DejaVuSans-2d" x="39.013672"/>
     <use xlink:href="#DejaVuSans-30" x="75.097656"/>
     <use xlink:href="#DejaVuSans-2e" x="138.720703"/>
     <use xlink:href="#DejaVuSans-38" x="170.507812"/>
     <use xlink:href="#DejaVuSans-36" x="234.130859"/>
     <use xlink:href="#DejaVuSans-31" x="297.753906"/>
     <use xlink:href="#DejaVuSans-2c" x="361.376953"/>
     <use xlink:href="#DejaVuSans-20" x="393.164062"/>
     <use xlink:href="#DejaVuSans-2d" x="424.951172"/>
     <use xlink:href="#DejaVuSans-30" x="461.035156"/>
     <use xlink:href="#DejaVuSans-2e" x="524.658203"/>
     <use xlink:href="#DejaVuSans-33" x="556.445312"/>
     <use xlink:href="#DejaVuSans-34" x="620.068359"/>
     <use xlink:href="#DejaVuSans-30" x="683.691406"/>
     <use xlink:href="#DejaVuSans-29" x="747.314453"/>
    </g>
   </g>
   <g id="text_42">
    <!-- (-0.340, -0.340) -->
    <g transform="translate(151.736106 271.084049) scale(0.1 -0.1)">
     <use xlink:href="#DejaVuSans-28"/>
     <use xlink:href="#DejaVuSans-2d" x="39.013672"/>
     <use xlink:href="#DejaVuSans-30" x="75.097656"/>
     <use xlink:href="#DejaVuSans-2e" x="138.720703"/>
     <use xlink:href="#DejaVuSans-33" x="170.507812"/>
     <use xlink:href="#DejaVuSans-34" x="234.130859"/>
     <use xlink:href="#DejaVuSans-30" x="297.753906"/>
     <use xlink:href="#DejaVuSans-2c" x="361.376953"/>
     <use xlink:href="#DejaVuSans-20" x="393.164062"/>
     <use xlink:href="#DejaVuSans-2d" x="424.951172"/>
     <use xlink:href="#DejaVuSans-30" x="461.035156"/>
     <use xlink:href="#DejaVuSans-2e" x="524.658203"/>
     <use xlink:href="#DejaVuSans-33" x="556.445312"/>
     <use xlink:href="#DejaVuSans-34" x="620.068359"/>
     <use xlink:href="#DejaVuSans-30" x="683.691406"/>
     <use xlink:href="#DejaVuSans-29" x="747.314453"/>
    </g>
   </g>
   <g id="text_43">
    <!-- (0.340, -0.340) -->
    <g transform="translate(272.088819 271.084049) scale(0.1 -0.1)">
     <use xlink:href="#DejaVuSans-28"/>
     <use xlink:href="#DejaVuSans-30" x="39.013672"/>
     <use xlink:href="#DejaVuSans-2e" x="102.636719"/>
     <use xlink:href="#DejaVuSans-33" x="134.423828"/>
     <use xlink:href="#DejaVuSans-34" x="198.046875"/>
     <use xlink:href="#DejaVuSans-30" x="261.669922"/>
     <use xlink:href="#DejaVuSans-2c" x="325.292969"/>
     <use xlink:href="#DejaVuSans-20" x="357.080078"/>
     <use xlink:href="#DejaVuSans-2d" x="388.867188"/>
     <use xlink:href="#DejaVuSans-30" x="424.951172"/>
     <use xlink:href="#DejaVuSans-2e" x="488.574219"/>
     <use xlink:href="#DejaVuSans-33" x="520.361328"/>
     <use xlink:href="#DejaVuSans-34" x="583.984375"/>
     <use xlink:href="#DejaVuSans-30" x="647.607422"/>
     <use xlink:href="#DejaVuSans-29" x="711.230469"/>
    </g>
   </g>
   <g id="text_44">
    <!-- (0.861, -0.340) -->
    <g transform="translate(362.950261 271.084049) scale(0.1 -0.1)">
     <use xlink:href="#DejaVuSans-28"/>
     <use xlink:href="#DejaVuSans-30" x="39.013672"/>
     <use xlink:href="#DejaVuSans-2e" x="102.636719"/>
     <use xlink:href="#DejaVuSans-38" x="134.423828"/>
     <use xlink:href="#DejaVuSans-36" x="198.046875"/>
     <use xlink:href="#DejaVuSans-31" x="261.669922"/>
     <use xlink:href="#DejaVuSans-2c" x="325.292969"/>
     <use xlink:href="#DejaVuSans-20" x="357.080078"/>
     <use xlink:href="#DejaVuSans-2d" x="388.867188"/>
     <use xlink:href="#DejaVuSans-30" x="424.951172"/>
     <use xlink:href="#DejaVuSans-2e" x="488.574219"/>
     <use xlink:href="#DejaVuSans-33" x="520.361328"/>
     <use xlink:href="#DejaVuSans-34" x="583.984375"/>
     <use xlink:href="#DejaVuSans-30" x="647.607422"/>
     <use xlink:href="#DejaVuSans-29" x="711.230469"/>
    </g>
   </g>
   <g id="text_45">
    <!-- (-0.861, 0.340) -->
    <g transform="translate(62.678571 152.535242) scale(0.1 -0.1)">
     <use xlink:href="#DejaVuSans-28"/>
     <use xlink:href="#DejaVuSans-2d" x="39.013672"/>
     <use xlink:href="#DejaVuSans-30" x="75.097656"/>
     <use xlink:href="#DejaVuSans-2e" x="138.720703"/>
     <use xlink:href="#DejaVuSans-38" x="170.507812"/>
     <use xlink:href="#DejaVuSans-36" x="234.130859"/>
     <use xlink:href="#DejaVuSans-31" x="297.753906"/>
     <use xlink:href="#DejaVuSans-2c" x="361.376953"/>
     <use xlink:href="#DejaVuSans-20" x="393.164062"/>
     <use xlink:href="#DejaVuSans-30" x="424.951172"/>
     <use xlink:href="#DejaVuSans-2e" x="488.574219"/>
     <use xlink:href="#DejaVuSans-33" x="520.361328"/>
     <use xlink:href="#DejaVuSans-34" x="583.984375"/>
     <use xlink:href="#DejaVuSans-30" x="647.607422"/>
     <use xlink:href="#DejaVuSans-29" x="711.230469"/>
    </g>
   </g>
   <g id="text_46">
    <!-- (-0.340, 0.340) -->
    <g transform="translate(153.540012 152.535242) scale(0.1 -0.1)">
     <use xlink:href="#DejaVuSans-28"/>
     <use xlink:href="#DejaVuSans-2d" x="39.013672"/>
     <use xlink:href="#DejaVuSans-30" x="75.097656"/>
     <use xlink:href="#DejaVuSans-2e" x="138.720703"/>
     <use xlink:href="#DejaVuSans-33" x="170.507812"/>
     <use xlink:href="#DejaVuSans-34" x="234.130859"/>
     <use xlink:href="#DejaVuSans-30" x="297.753906"/>
     <use xlink:href="#DejaVuSans-2c" x="361.376953"/>
     <use xlink:href="#DejaVuSans-20" x="393.164062"/>
     <use xlink:href="#DejaVuSans-30" x="424.951172"/>
     <use xlink:href="#DejaVuSans-2e" x="488.574219"/>
     <use xlink:href="#DejaVuSans-33" x="520.361328"/>
     <use xlink:href="#DejaVuSans-34" x="583.984375"/>
     <use xlink:href="#DejaVuSans-30" x="647.607422"/>
     <use xlink:href="#DejaVuSans-29" x="711.230469"/>
    </g>
   </g>
   <g id="text_47">
    <!-- (0.340, 0.340) -->
    <g transform="translate(273.892726 152.535242) scale(0.1 -0.1)">
     <use xlink:href="#DejaVuSans-28"/>
     <use xlink:href="#DejaVuSans-30" x="39.013672"/>
     <use xlink:href="#DejaVuSans-2e" x="102.636719"/>
     <use xlink:href="#DejaVuSans-33" x="134.423828"/>
     <use xlink:href="#DejaVuSans-34" x="198.046875"/>
     <use xlink:href="#DejaVuSans-30" x="261.669922"/>
     <use xlink:href="#DejaVuSans-2c" x="325.292969"/>
     <use xlink:href="#DejaVuSans-20" x="357.080078"/>
     <use xlink:href="#DejaVuSans-30" x="388.867188"/>
     <use xlink:href="#DejaVuSans-2e" x="452.490234"/>
     <use xlink:href="#DejaVuSans-33" x="484.277344"/>
     <use xlink:href="#DejaVuSans-34" x="547.900391"/>
     <use xlink:href="#DejaVuSans-30" x="611.523438"/>
     <use xlink:href="#DejaVuSans-29" x="675.146484"/>
    </g>
   </g>
   <g id="text_48">
    <!-- (0.861, 0.340) -->
    <g transform="translate(364.754167 152.535242) scale(0.1 -0.1)">
     <use xlink:href="#DejaVuSans-28"/>
     <use xlink:href="#DejaVuSans-30" x="39.013672"/>
     <use xlink:href="#DejaVuSans-2e" x="102.636719"/>
     <use xlink:href="#DejaVuSans-38" x="134.423828"/>
     <use xlink:href="#DejaVuSans-36" x="198.046875"/>
     <use xlink:href="#DejaVuSans-31" x="261.669922"/>
     <use xlink:href="#DejaVuSans-2c" x="325.292969"/>
     <use xlink:href="#DejaVuSans-20" x="357.080078"/>
     <use xlink:href="#DejaVuSans-30" x="388.867188"/>
     <use xlink:href="#DejaVuSans-2e" x="452.490234"/>
     <use xlink:href="#DejaVuSans-33" x="484.277344"/>
     <use xlink:href="#DejaVuSans-34" x="547.900391"/>
     <use xlink:href="#DejaVuSans-30" x="611.523438"/>
     <use xlink:href="#DejaVuSans-29" x="675.146484"/>
    </g>
   </g>
   <g id="text_49">
    <!-- (-0.861, 0.861) -->
    <g transform="translate(62.678571 61.6738) scale(0.1 -0.1)">
     <use xlink:href="#DejaVuSans-28"/>
     <use xlink:href="#DejaVuSans-2d" x="39.013672"/>
     <use xlink:href="#DejaVuSans-30" x="75.097656"/>
     <use xlink:href="#DejaVuSans-2e" x="138.720703"/>
     <use xlink:href="#DejaVuSans-38" x="170.507812"/>
     <use xlink:href="#DejaVuSans-36" x="234.130859"/>
     <use xlink:href="#DejaVuSans-31" x="297.753906"/>
     <use xlink:href="#DejaVuSans-2c" x="361.376953"/>
     <use xlink:href="#DejaVuSans-20" x="393.164062"/>
     <use xlink:href="#DejaVuSans-30" x="424.951172"/>
     <use xlink:href="#DejaVuSans-2e" x="488.574219"/>
     <use xlink:href="#DejaVuSans-38" x="520.361328"/>
     <use xlink:href="#DejaVuSans-36" x="583.984375"/>
     <use xlink:href="#DejaVuSans-31" x="647.607422"/>
     <use xlink:href="#DejaVuSans-29" x="711.230469"/>
    </g>
   </g>
   <g id="text_50">
    <!-- (-0.340, 0.861) -->
    <g transform="translate(153.540012 61.6738) scale(0.1 -0.1)">
     <use xlink:href="#DejaVuSans-28"/>
     <use xlink:href="#DejaVuSans-2d" x="39.013672"/>
     <use xlink:href="#DejaVuSans-30" x="75.097656"/>
     <use xlink:href="#DejaVuSans-2e" x="138.720703"/>
     <use xlink:href="#DejaVuSans-33" x="170.507812"/>
     <use xlink:href="#DejaVuSans-34" x="234.130859"/>
     <use xlink:href="#DejaVuSans-30" x="297.753906"/>
     <use xlink:href="#DejaVuSans-2c" x="361.376953"/>
     <use xlink:href="#DejaVuSans-20" x="393.164062"/>
     <use xlink:href="#DejaVuSans-30" x="424.951172"/>
     <use xlink:href="#DejaVuSans-2e" x="488.574219"/>
     <use xlink:href="#DejaVuSans-38" x="520.361328"/>
     <use xlink:href="#DejaVuSans-36" x="583.984375"/>
     <use xlink:href="#DejaVuSans-31" x="647.607422"/>
     <use xlink:href="#DejaVuSans-29" x="711.230469"/>
    </g>
   </g>
   <g id="text_51">
    <!-- (0.340, 0.861) -->
    <g transform="translate(273.892726 61.6738) scale(0.1 -0.1)">
     <use xlink:href="#DejaVuSans-28"/>
     <use xlink:href="#DejaVuSans-30" x="39.013672"/>
     <use xlink:href="#DejaVuSans-2e" x="102.636719"/>
     <use xlink:href="#DejaVuSans-33" x="134.423828"/>
     <use xlink:href="#DejaVuSans-34" x="198.046875"/>
     <use xlink:href="#DejaVuSans-30" x="261.669922"/>
     <use xlink:href="#DejaVuSans-2c" x="325.292969"/>
     <use xlink:href="#DejaVuSans-20" x="357.080078"/>
     <use xlink:href="#DejaVuSans-30" x="388.867188"/>
     <use xlink:href="#DejaVuSans-2e" x="452.490234"/>
     <use xlink:href="#DejaVuSans-38" x="484.277344"/>
     <use xlink:href="#DejaVuSans-36" x="547.900391"/>
     <use xlink:href="#DejaVuSans-31" x="611.523438"/>
     <use xlink:href="#DejaVuSans-29" x="675.146484"/>
    </g>
   </g>
   <g id="text_52">
    <!-- (0.861, 0.861) -->
    <g transform="translate(364.754167 61.6738) scale(0.1 -0.1)">
     <use xlink:href="#DejaVuSans-28"/>
     <use xlink:href="#DejaVuSans-30" x="39.013672"/>
     <use xlink:href="#DejaVuSans-2e" x="102.636719"/>
     <use xlink:href="#DejaVuSans-38" x="134.423828"/>
     <use xlink:href="#DejaVuSans-36" x="198.046875"/>
     <use xlink:href="#DejaVuSans-31" x="261.669922"/>
     <use xlink:href="#DejaVuSans-2c" x="325.292969"/>
     <use xlink:href="#DejaVuSans-20" x="357.080078"/>
     <use xlink:href="#DejaVuSans-30" x="388.867188"/>
     <use xlink:href="#DejaVuSans-2e" x="452.490234"/>
     <use xlink:href="#DejaVuSans-38" x="484.277344"/>
     <use xlink:href="#DejaVuSans-36" x="547.900391"/>
     <use xlink:href="#DejaVuSans-31" x="611.523438"/>
     <use xlink:href="#DejaVuSans-29" x="675.146484"/>
    </g>
   </g>
  </g>
 </g>
 <defs>
  <clipPath id="pbf7c5ff098">
   <rect x="58.545313" y="7.2" width="383.561644" height="383.561644"/>
  </clipPath>
 </defs>
</svg>
