<?xml version="1.0" encoding="utf-8" standalone="no"?>
<!DOCTYPE svg PUBLIC "-//W3C//DTD SVG 1.1//EN"
  "http://www.w3.org/Graphics/SVG/1.1/DTD/svg11.dtd">
<svg xmlns:xlink="http://www.w3.org/1999/xlink" width="474.673973pt" height="481.07352pt" viewBox="0 0 474.673973 481.07352" xmlns="http://www.w3.org/2000/svg" version="1.1">
 <metadata>
  <rdf:RDF xmlns:dc="http://purl.org/dc/elements/1.1/" xmlns:cc="http://creativecommons.org/ns#" xmlns:rdf="http://www.w3.org/1999/02/22-rdf-syntax-ns#">
   <cc:Work>
    <dc:type rdf:resource="http://purl.org/dc/dcmitype/StillImage"/>
    <dc:date>2025-01-29T15:44:10.197727</dc:date>
    <dc:format>image/svg+xml</dc:format>
    <dc:creator>
     <cc:Agent>
      <dc:title>Matplotlib v3.6.3, https://matplotlib.org/</dc:title>
     </cc:Agent>
    </dc:creator>
   </cc:Work>
  </rdf:RDF>
 </metadata>
 <defs>
  <style type="text/css">*{stroke-linejoin: round; stroke-linecap: butt}</style>
 </defs>
 <g id="figure_1">
  <g id="patch_1">
   <path d="M 0 481.07352 
L 474.673973 481.07352 
L 474.673973 0 
L 0 0 
z
" style="fill: #ffffff"/>
  </g>
  <g id="patch_2">
   <path d="M 7.2 467.473973 
L 467.473973 467.473973 
L 467.473973 7.2 
L 7.2 7.2 
z
" style="fill: #ffffff"/>
  </g>
  <g id="pane3d_1">
   <g id="patch_3">
    <path d="M 58.453298 373.267233 
L 197.704516 254.043262 
L 195.273405 26.778843 
L 47.791061 133.234146 
" style="fill: #f2f2f2; opacity: 0.5; stroke: #f2f2f2; stroke-linejoin: miter"/>
   </g>
  </g>
  <g id="pane3d_2">
   <g id="patch_4">
    <path d="M 197.704516 254.043262 
L 422.482403 320.579817 
L 432.425666 86.075455 
L 195.273405 26.778843 
" style="fill: #e6e6e6; opacity: 0.5; stroke: #e6e6e6; stroke-linejoin: miter"/>
   </g>
  </g>
  <g id="pane3d_3">
   <g id="patch_5">
    <path d="M 58.453298 373.267233 
L 295.6105 451.410528 
L 422.482403 320.579817 
L 197.704516 254.043262 
" style="fill: #ececec; opacity: 0.5; stroke: #ececec; stroke-linejoin: miter"/>
   </g>
  </g>
  <g id="axis3d_1">
   <g id="line2d_1">
    <path d="M 58.453298 373.267233 
L 295.6105 451.410528 
" style="fill: none; stroke: #000000; stroke-width: 0.8; stroke-linecap: square"/>
   </g>
   <g id="text_1">
    <!-- x -->
    <g transform="translate(156.491253 452.390959) scale(0.1 -0.1)">
     <defs>
      <path id="DejaVuSans-78" d="M 3513 3500 
L 2247 1797 
L 3578 0 
L 2900 0 
L 1881 1375 
L 863 0 
L 184 0 
L 1544 1831 
L 300 3500 
L 978 3500 
L 1906 2253 
L 2834 3500 
L 3513 3500 
z
" transform="scale(0.015625)"/>
     </defs>
     <use xlink:href="#DejaVuSans-78"/>
    </g>
   </g>
   <g id="Line3DCollection_1">
    <path d="M 72.87657 378.019701 
L 211.422901 258.104045 
L 209.714151 30.38955 
" style="fill: none; stroke: #b0b0b0; stroke-width: 0.8"/>
    <path d="M 106.172422 388.990684 
L 243.06773 267.471238 
L 243.041543 38.722599 
" style="fill: none; stroke: #b0b0b0; stroke-width: 0.8"/>
    <path d="M 139.932911 400.114764 
L 275.12028 276.959121 
L 276.821477 47.1688 
" style="fill: none; stroke: #b0b0b0; stroke-width: 0.8"/>
    <path d="M 174.167831 411.39517 
L 307.588483 286.570041 
L 311.063236 55.730474 
" style="fill: none; stroke: #b0b0b0; stroke-width: 0.8"/>
    <path d="M 208.887253 422.835219 
L 340.480475 296.306407 
L 345.776355 64.410005 
" style="fill: none; stroke: #b0b0b0; stroke-width: 0.8"/>
    <path d="M 244.101536 434.438325 
L 373.804609 306.170692 
L 380.970634 73.209843 
" style="fill: none; stroke: #b0b0b0; stroke-width: 0.8"/>
    <path d="M 279.821336 446.207998 
L 407.569458 316.165433 
L 416.656148 82.132507 
" style="fill: none; stroke: #b0b0b0; stroke-width: 0.8"/>
   </g>
   <g id="xtick_1">
    <g id="line2d_2">
     <path d="M 74.074978 376.982446 
L 70.475036 380.098295 
" style="fill: none; stroke: #000000; stroke-width: 0.8; stroke-linecap: square"/>
    </g>
    <g id="text_2">
     <!-- 0.0 -->
     <g transform="translate(58.172568 402.772429) scale(0.1 -0.1)">
      <defs>
       <path id="DejaVuSans-30" d="M 2034 4250 
Q 1547 4250 1301 3770 
Q 1056 3291 1056 2328 
Q 1056 1369 1301 889 
Q 1547 409 2034 409 
Q 2525 409 2770 889 
Q 3016 1369 3016 2328 
Q 3016 3291 2770 3770 
Q 2525 4250 2034 4250 
z
M 2034 4750 
Q 2819 4750 3233 4129 
Q 3647 3509 3647 2328 
Q 3647 1150 3233 529 
Q 2819 -91 2034 -91 
Q 1250 -91 836 529 
Q 422 1150 422 2328 
Q 422 3509 836 4129 
Q 1250 4750 2034 4750 
z
" transform="scale(0.015625)"/>
       <path id="DejaVuSans-2e" d="M 684 794 
L 1344 794 
L 1344 0 
L 684 0 
L 684 794 
z
" transform="scale(0.015625)"/>
      </defs>
      <use xlink:href="#DejaVuSans-30"/>
      <use xlink:href="#DejaVuSans-2e" x="63.623047"/>
      <use xlink:href="#DejaVuSans-30" x="95.410156"/>
     </g>
    </g>
   </g>
   <g id="xtick_2">
    <g id="line2d_3">
     <path d="M 107.357165 387.93901 
L 103.798239 391.098202 
" style="fill: none; stroke: #000000; stroke-width: 0.8; stroke-linecap: square"/>
    </g>
    <g id="text_3">
     <!-- 0.5 -->
     <g transform="translate(91.465558 413.876926) scale(0.1 -0.1)">
      <defs>
       <path id="DejaVuSans-35" d="M 691 4666 
L 3169 4666 
L 3169 4134 
L 1269 4134 
L 1269 2991 
Q 1406 3038 1543 3061 
Q 1681 3084 1819 3084 
Q 2600 3084 3056 2656 
Q 3513 2228 3513 1497 
Q 3513 744 3044 326 
Q 2575 -91 1722 -91 
Q 1428 -91 1123 -41 
Q 819 9 494 109 
L 494 744 
Q 775 591 1075 516 
Q 1375 441 1709 441 
Q 2250 441 2565 725 
Q 2881 1009 2881 1497 
Q 2881 1984 2565 2268 
Q 2250 2553 1709 2553 
Q 1456 2553 1204 2497 
Q 953 2441 691 2322 
L 691 4666 
z
" transform="scale(0.015625)"/>
      </defs>
      <use xlink:href="#DejaVuSans-30"/>
      <use xlink:href="#DejaVuSans-2e" x="63.623047"/>
      <use xlink:href="#DejaVuSans-35" x="95.410156"/>
     </g>
    </g>
   </g>
   <g id="xtick_3">
    <g id="line2d_4">
     <path d="M 141.103489 399.048368 
L 137.58708 402.251815 
" style="fill: none; stroke: #000000; stroke-width: 0.8; stroke-linecap: square"/>
    </g>
    <g id="text_4">
     <!-- 1.0 -->
     <g transform="translate(125.223763 425.13659) scale(0.1 -0.1)">
      <defs>
       <path id="DejaVuSans-31" d="M 794 531 
L 1825 531 
L 1825 4091 
L 703 3866 
L 703 4441 
L 1819 4666 
L 2450 4666 
L 2450 531 
L 3481 531 
L 3481 0 
L 794 0 
L 794 531 
z
" transform="scale(0.015625)"/>
      </defs>
      <use xlink:href="#DejaVuSans-31"/>
      <use xlink:href="#DejaVuSans-2e" x="63.623047"/>
      <use xlink:href="#DejaVuSans-30" x="95.410156"/>
     </g>
    </g>
   </g>
   <g id="xtick_4">
    <g id="line2d_5">
     <path d="M 175.323728 410.31374 
L 171.851387 413.562378 
" style="fill: none; stroke: #000000; stroke-width: 0.8; stroke-linecap: square"/>
    </g>
    <g id="text_5">
     <!-- 1.5 -->
     <g transform="translate(159.457002 436.554696) scale(0.1 -0.1)">
      <use xlink:href="#DejaVuSans-31"/>
      <use xlink:href="#DejaVuSans-2e" x="63.623047"/>
      <use xlink:href="#DejaVuSans-35" x="95.410156"/>
     </g>
    </g>
   </g>
   <g id="xtick_5">
    <g id="line2d_6">
     <path d="M 210.027936 421.738436 
L 206.601268 425.033228 
" style="fill: none; stroke: #000000; stroke-width: 0.8; stroke-linecap: square"/>
    </g>
    <g id="text_6">
     <!-- 2.0 -->
     <g transform="translate(194.175374 448.134612) scale(0.1 -0.1)">
      <defs>
       <path id="DejaVuSans-32" d="M 1228 531 
L 3431 531 
L 3431 0 
L 469 0 
L 469 531 
Q 828 903 1448 1529 
Q 2069 2156 2228 2338 
Q 2531 2678 2651 2914 
Q 2772 3150 2772 3378 
Q 2772 3750 2511 3984 
Q 2250 4219 1831 4219 
Q 1534 4219 1204 4116 
Q 875 4013 500 3803 
L 500 4441 
Q 881 4594 1212 4672 
Q 1544 4750 1819 4750 
Q 2544 4750 2975 4387 
Q 3406 4025 3406 3419 
Q 3406 3131 3298 2873 
Q 3191 2616 2906 2266 
Q 2828 2175 2409 1742 
Q 1991 1309 1228 531 
z
" transform="scale(0.015625)"/>
      </defs>
      <use xlink:href="#DejaVuSans-32"/>
      <use xlink:href="#DejaVuSans-2e" x="63.623047"/>
      <use xlink:href="#DejaVuSans-30" x="95.410156"/>
     </g>
    </g>
   </g>
   <g id="xtick_6">
    <g id="line2d_7">
     <path d="M 245.226452 433.325859 
L 241.847116 436.667795 
" style="fill: none; stroke: #000000; stroke-width: 0.8; stroke-linecap: square"/>
    </g>
    <g id="text_7">
     <!-- 2.5 -->
     <g transform="translate(229.389264 459.879803) scale(0.1 -0.1)">
      <use xlink:href="#DejaVuSans-32"/>
      <use xlink:href="#DejaVuSans-2e" x="63.623047"/>
      <use xlink:href="#DejaVuSans-35" x="95.410156"/>
     </g>
    </g>
   </g>
   <g id="xtick_7">
    <g id="line2d_8">
     <path d="M 280.929914 445.07951 
L 277.599627 448.469611 
" style="fill: none; stroke: #000000; stroke-width: 0.8; stroke-linecap: square"/>
    </g>
    <g id="text_8">
     <!-- 3.0 -->
     <g transform="translate(265.109357 471.793833) scale(0.1 -0.1)">
      <defs>
       <path id="DejaVuSans-33" d="M 2597 2516 
Q 3050 2419 3304 2112 
Q 3559 1806 3559 1356 
Q 3559 666 3084 287 
Q 2609 -91 1734 -91 
Q 1441 -91 1130 -33 
Q 819 25 488 141 
L 488 750 
Q 750 597 1062 519 
Q 1375 441 1716 441 
Q 2309 441 2620 675 
Q 2931 909 2931 1356 
Q 2931 1769 2642 2001 
Q 2353 2234 1838 2234 
L 1294 2234 
L 1294 2753 
L 1863 2753 
Q 2328 2753 2575 2939 
Q 2822 3125 2822 3475 
Q 2822 3834 2567 4026 
Q 2313 4219 1838 4219 
Q 1578 4219 1281 4162 
Q 984 4106 628 3988 
L 628 4550 
Q 988 4650 1302 4700 
Q 1616 4750 1894 4750 
Q 2613 4750 3031 4423 
Q 3450 4097 3450 3541 
Q 3450 3153 3228 2886 
Q 3006 2619 2597 2516 
z
" transform="scale(0.015625)"/>
      </defs>
      <use xlink:href="#DejaVuSans-33"/>
      <use xlink:href="#DejaVuSans-2e" x="63.623047"/>
      <use xlink:href="#DejaVuSans-30" x="95.410156"/>
     </g>
    </g>
   </g>
  </g>
  <g id="axis3d_2">
   <g id="line2d_9">
    <path d="M 422.482403 320.579817 
L 295.6105 451.410528 
" style="fill: none; stroke: #000000; stroke-width: 0.8; stroke-linecap: square"/>
   </g>
   <g id="text_9">
    <!-- y -->
    <g transform="translate(383.217297 417.666991) scale(0.1 -0.1)">
     <defs>
      <path id="DejaVuSans-79" d="M 2059 -325 
Q 1816 -950 1584 -1140 
Q 1353 -1331 966 -1331 
L 506 -1331 
L 506 -850 
L 844 -850 
Q 1081 -850 1212 -737 
Q 1344 -625 1503 -206 
L 1606 56 
L 191 3500 
L 800 3500 
L 1894 763 
L 2988 3500 
L 3597 3500 
L 2059 -325 
z
" transform="scale(0.015625)"/>
     </defs>
     <use xlink:href="#DejaVuSans-79"/>
    </g>
   </g>
   <g id="Line3DCollection_2">
    <path d="M 57.931451 125.914637 
L 67.989111 365.10287 
L 304.328838 442.42015 
" style="fill: none; stroke: #b0b0b0; stroke-width: 0.8"/>
    <path d="M 80.698184 109.481216 
L 89.419188 346.754888 
L 323.905505 422.232628 
" style="fill: none; stroke: #b0b0b0; stroke-width: 0.8"/>
    <path d="M 102.90968 93.448575 
L 110.35429 328.830693 
L 343.008283 402.533783 
" style="fill: none; stroke: #b0b0b0; stroke-width: 0.8"/>
    <path d="M 124.586006 77.802228 
L 130.81137 311.31577 
L 361.654174 383.306081 
" style="fill: none; stroke: #b0b0b0; stroke-width: 0.8"/>
    <path d="M 145.746273 62.528382 
L 150.806616 294.19626 
L 379.859374 364.532821 
" style="fill: none; stroke: #b0b0b0; stroke-width: 0.8"/>
    <path d="M 166.408694 47.613889 
L 170.355493 277.458922 
L 397.639324 346.198079 
" style="fill: none; stroke: #b0b0b0; stroke-width: 0.8"/>
    <path d="M 186.590635 33.046216 
L 189.472782 261.0911 
L 415.008753 328.286669 
" style="fill: none; stroke: #b0b0b0; stroke-width: 0.8"/>
   </g>
   <g id="xtick_8">
    <g id="line2d_10">
     <path d="M 302.345814 441.771414 
L 308.299575 443.719156 
" style="fill: none; stroke: #000000; stroke-width: 0.8; stroke-linecap: square"/>
    </g>
    <g id="text_10">
     <!-- 0.0 -->
     <g transform="translate(308.102999 465.080663) scale(0.1 -0.1)">
      <use xlink:href="#DejaVuSans-30"/>
      <use xlink:href="#DejaVuSans-2e" x="63.623047"/>
      <use xlink:href="#DejaVuSans-30" x="95.410156"/>
     </g>
    </g>
   </g>
   <g id="xtick_9">
    <g id="line2d_11">
     <path d="M 321.939154 421.599689 
L 327.842801 423.499987 
" style="fill: none; stroke: #000000; stroke-width: 0.8; stroke-linecap: square"/>
    </g>
    <g id="text_11">
     <!-- 0.5 -->
     <g transform="translate(327.528995 444.715955) scale(0.1 -0.1)">
      <use xlink:href="#DejaVuSans-30"/>
      <use xlink:href="#DejaVuSans-2e" x="63.623047"/>
      <use xlink:href="#DejaVuSans-35" x="95.410156"/>
     </g>
    </g>
   </g>
   <g id="xtick_10">
    <g id="line2d_12">
     <path d="M 341.058384 401.916069 
L 346.912582 403.770636 
" style="fill: none; stroke: #000000; stroke-width: 0.8; stroke-linecap: square"/>
    </g>
    <g id="text_12">
     <!-- 1.0 -->
     <g transform="translate(346.484917 424.844036) scale(0.1 -0.1)">
      <use xlink:href="#DejaVuSans-31"/>
      <use xlink:href="#DejaVuSans-2e" x="63.623047"/>
      <use xlink:href="#DejaVuSans-30" x="95.410156"/>
     </g>
    </g>
   </g>
   <g id="xtick_11">
    <g id="line2d_13">
     <path d="M 359.720505 382.70305 
L 365.525919 384.513518 
" style="fill: none; stroke: #000000; stroke-width: 0.8; stroke-linecap: square"/>
    </g>
    <g id="text_13">
     <!-- 1.5 -->
     <g transform="translate(364.987624 405.447234) scale(0.1 -0.1)">
      <use xlink:href="#DejaVuSans-31"/>
      <use xlink:href="#DejaVuSans-2e" x="63.623047"/>
      <use xlink:href="#DejaVuSans-35" x="95.410156"/>
     </g>
    </g>
   </g>
   <g id="xtick_12">
    <g id="line2d_14">
     <path d="M 377.941719 363.943956 
L 383.699004 365.711879 
" style="fill: none; stroke: #000000; stroke-width: 0.8; stroke-linecap: square"/>
    </g>
    <g id="text_14">
     <!-- 2.0 -->
     <g transform="translate(383.053176 386.50871) scale(0.1 -0.1)">
      <use xlink:href="#DejaVuSans-32"/>
      <use xlink:href="#DejaVuSans-2e" x="63.623047"/>
      <use xlink:href="#DejaVuSans-30" x="95.410156"/>
     </g>
    </g>
   </g>
   <g id="xtick_13">
    <g id="line2d_15">
     <path d="M 395.737466 345.622886 
L 401.447275 347.349746 
" style="fill: none; stroke: #000000; stroke-width: 0.8; stroke-linecap: square"/>
    </g>
    <g id="text_15">
     <!-- 2.5 -->
     <g transform="translate(400.696886 368.012412) scale(0.1 -0.1)">
      <use xlink:href="#DejaVuSans-32"/>
      <use xlink:href="#DejaVuSans-2e" x="63.623047"/>
      <use xlink:href="#DejaVuSans-35" x="95.410156"/>
     </g>
    </g>
   </g>
   <g id="xtick_14">
    <g id="line2d_16">
     <path d="M 413.122479 327.724677 
L 418.785455 329.411889 
" style="fill: none; stroke: #000000; stroke-width: 0.8; stroke-linecap: square"/>
    </g>
    <g id="text_16">
     <!-- 3.0 -->
     <g transform="translate(417.933359 349.943031) scale(0.1 -0.1)">
      <use xlink:href="#DejaVuSans-33"/>
      <use xlink:href="#DejaVuSans-2e" x="63.623047"/>
      <use xlink:href="#DejaVuSans-30" x="95.410156"/>
     </g>
    </g>
   </g>
  </g>
  <g id="axis3d_3">
   <g id="line2d_17">
    <path d="M 422.482403 320.579817 
L 432.425666 86.075455 
" style="fill: none; stroke: #000000; stroke-width: 0.8; stroke-linecap: square"/>
   </g>
   <g id="text_17">
    <!-- z -->
    <g transform="translate(462.231963 204.227961) scale(0.1 -0.1)">
     <defs>
      <path id="DejaVuSans-7a" d="M 353 3500 
L 3084 3500 
L 3084 2975 
L 922 459 
L 3084 459 
L 3084 0 
L 275 0 
L 275 525 
L 2438 3041 
L 353 3041 
L 353 3500 
z
" transform="scale(0.015625)"/>
     </defs>
     <use xlink:href="#DejaVuSans-7a"/>
    </g>
   </g>
   <g id="Line3DCollection_3">
    <path d="M 423.083859 306.394932 
L 197.557126 240.26502 
L 57.809515 358.7741 
" style="fill: none; stroke: #b0b0b0; stroke-width: 0.8"/>
    <path d="M 424.473917 273.611462 
L 197.216651 208.436813 
L 56.321061 325.265343 
" style="fill: none; stroke: #b0b0b0; stroke-width: 0.8"/>
    <path d="M 425.885669 240.316352 
L 196.871098 176.133928 
L 54.808559 291.215215 
" style="fill: none; stroke: #b0b0b0; stroke-width: 0.8"/>
    <path d="M 427.319627 206.497531 
L 196.520353 143.345667 
L 53.271421 256.610489 
" style="fill: none; stroke: #b0b0b0; stroke-width: 0.8"/>
    <path d="M 428.776319 172.142545 
L 196.164298 110.061007 
L 51.709042 221.437503 
" style="fill: none; stroke: #b0b0b0; stroke-width: 0.8"/>
    <path d="M 430.25629 137.238541 
L 195.802811 76.268591 
L 50.120794 185.682146 
" style="fill: none; stroke: #b0b0b0; stroke-width: 0.8"/>
    <path d="M 431.760103 101.772252 
L 195.435767 41.956709 
L 48.506029 149.329832 
" style="fill: none; stroke: #b0b0b0; stroke-width: 0.8"/>
   </g>
   <g id="xtick_15">
    <g id="line2d_18">
     <path d="M 421.197799 305.841894 
L 426.860123 307.502225 
" style="fill: none; stroke: #000000; stroke-width: 0.8; stroke-linecap: square"/>
    </g>
    <g id="text_18">
     <!-- 0.0 -->
     <g transform="translate(432.041052 311.568709) scale(0.1 -0.1)">
      <use xlink:href="#DejaVuSans-30"/>
      <use xlink:href="#DejaVuSans-2e" x="63.623047"/>
      <use xlink:href="#DejaVuSans-30" x="95.410156"/>
     </g>
    </g>
   </g>
   <g id="xtick_16">
    <g id="line2d_19">
     <path d="M 422.572747 273.066229 
L 428.280468 274.703135 
" style="fill: none; stroke: #000000; stroke-width: 0.8; stroke-linecap: square"/>
    </g>
    <g id="text_19">
     <!-- 0.5 -->
     <g transform="translate(433.559574 278.819483) scale(0.1 -0.1)">
      <use xlink:href="#DejaVuSans-30"/>
      <use xlink:href="#DejaVuSans-2e" x="63.623047"/>
      <use xlink:href="#DejaVuSans-35" x="95.410156"/>
     </g>
    </g>
   </g>
   <g id="xtick_17">
    <g id="line2d_20">
     <path d="M 423.969144 239.779237 
L 429.722996 241.391781 
" style="fill: none; stroke: #000000; stroke-width: 0.8; stroke-linecap: square"/>
    </g>
    <g id="text_20">
     <!-- 1.0 -->
     <g transform="translate(435.101757 245.559986) scale(0.1 -0.1)">
      <use xlink:href="#DejaVuSans-31"/>
      <use xlink:href="#DejaVuSans-2e" x="63.623047"/>
      <use xlink:href="#DejaVuSans-30" x="95.410156"/>
     </g>
    </g>
   </g>
   <g id="xtick_18">
    <g id="line2d_21">
     <path d="M 425.387498 205.968857 
L 431.188232 207.556068 
" style="fill: none; stroke: #000000; stroke-width: 0.8; stroke-linecap: square"/>
    </g>
    <g id="text_21">
     <!-- 1.5 -->
     <g transform="translate(436.668157 211.778196) scale(0.1 -0.1)">
      <use xlink:href="#DejaVuSans-31"/>
      <use xlink:href="#DejaVuSans-2e" x="63.623047"/>
      <use xlink:href="#DejaVuSans-35" x="95.410156"/>
     </g>
    </g>
   </g>
   <g id="xtick_19">
    <g id="line2d_22">
     <path d="M 426.82833 171.622649 
L 432.676714 173.183517 
" style="fill: none; stroke: #000000; stroke-width: 0.8; stroke-linecap: square"/>
    </g>
    <g id="text_22">
     <!-- 2.0 -->
     <g transform="translate(438.25935 177.461714) scale(0.1 -0.1)">
      <use xlink:href="#DejaVuSans-32"/>
      <use xlink:href="#DejaVuSans-2e" x="63.623047"/>
      <use xlink:href="#DejaVuSans-30" x="95.410156"/>
     </g>
    </g>
   </g>
   <g id="xtick_20">
    <g id="line2d_23">
     <path d="M 428.292179 136.727771 
L 434.189002 138.261248 
" style="fill: none; stroke: #000000; stroke-width: 0.8; stroke-linecap: square"/>
    </g>
    <g id="text_23">
     <!-- 2.5 -->
     <g transform="translate(439.875929 142.597744) scale(0.1 -0.1)">
      <use xlink:href="#DejaVuSans-32"/>
      <use xlink:href="#DejaVuSans-2e" x="63.623047"/>
      <use xlink:href="#DejaVuSans-35" x="95.410156"/>
     </g>
    </g>
   </g>
   <g id="xtick_21">
    <g id="line2d_24">
     <path d="M 429.7796 101.270972 
L 435.725671 102.775969 
" style="fill: none; stroke: #000000; stroke-width: 0.8; stroke-linecap: square"/>
    </g>
    <g id="text_24">
     <!-- 3.0 -->
     <g transform="translate(441.518507 107.17308) scale(0.1 -0.1)">
      <use xlink:href="#DejaVuSans-33"/>
      <use xlink:href="#DejaVuSans-2e" x="63.623047"/>
      <use xlink:href="#DejaVuSans-30" x="95.410156"/>
     </g>
    </g>
   </g>
  </g>
  <g id="axes_1">
   <g id="line2d_25">
    <path d="M 81.806741 355.332975 
L 148.869508 377.073135 
" clip-path="url(#p9504aa3c17)" style="fill: none; stroke: #0055d4; stroke-linecap: square"/>
   </g>
   <g id="line2d_26">
    <path d="M 148.869508 377.073135 
L 190.177054 339.79302 
" clip-path="url(#p9504aa3c17)" style="fill: none; stroke: #0055d4; stroke-linecap: square"/>
   </g>
   <g id="line2d_27">
    <path d="M 190.177054 339.79302 
L 124.118719 319.058455 
" clip-path="url(#p9504aa3c17)" style="fill: none; stroke: #0055d4; stroke-linecap: square"/>
   </g>
   <g id="line2d_28">
    <path d="M 124.118719 319.058455 
L 81.806741 355.332975 
" clip-path="url(#p9504aa3c17)" style="fill: none; stroke: #0055d4; stroke-linecap: square"/>
   </g>
   <g id="line2d_29">
    <path d="M 79.199329 287.86965 
L 147.321537 309.010078 
" clip-path="url(#p9504aa3c17)" style="fill: none; stroke: #0055d4; stroke-linecap: square"/>
   </g>
   <g id="line2d_30">
    <path d="M 147.321537 309.010078 
L 189.325276 272.764204 
" clip-path="url(#p9504aa3c17)" style="fill: none; stroke: #0055d4; stroke-linecap: square"/>
   </g>
   <g id="line2d_31">
    <path d="M 189.325276 272.764204 
L 122.238832 252.616941 
" clip-path="url(#p9504aa3c17)" style="fill: none; stroke: #0055d4; stroke-linecap: square"/>
   </g>
   <g id="line2d_32">
    <path d="M 122.238832 252.616941 
L 79.199329 287.86965 
" clip-path="url(#p9504aa3c17)" style="fill: none; stroke: #0055d4; stroke-linecap: square"/>
   </g>
   <g id="line2d_33">
    <path d="M 81.806741 355.332975 
L 79.199329 287.86965 
" clip-path="url(#p9504aa3c17)" style="fill: none; stroke: #0055d4; stroke-linecap: square"/>
   </g>
   <g id="line2d_34">
    <path d="M 148.869508 377.073135 
L 147.321537 309.010078 
" clip-path="url(#p9504aa3c17)" style="fill: none; stroke: #0055d4; stroke-linecap: square"/>
   </g>
   <g id="line2d_35">
    <path d="M 190.177054 339.79302 
L 189.325276 272.764204 
" clip-path="url(#p9504aa3c17)" style="fill: none; stroke: #0055d4; stroke-linecap: square"/>
   </g>
   <g id="line2d_36">
    <path d="M 124.118719 319.058455 
L 122.238832 252.616941 
" clip-path="url(#p9504aa3c17)" style="fill: none; stroke: #0055d4; stroke-linecap: square"/>
   </g>
   <g id="line2d_37">
    <path d="M 148.869508 377.073135 
L 288.760884 422.422603 
" clip-path="url(#p9504aa3c17)" style="fill: none; stroke: #0055d4; stroke-linecap: square"/>
   </g>
   <g id="line2d_38">
    <path d="M 288.760884 422.422603 
L 327.83566 383.001669 
" clip-path="url(#p9504aa3c17)" style="fill: none; stroke: #0055d4; stroke-linecap: square"/>
   </g>
   <g id="line2d_39">
    <path d="M 327.83566 383.001669 
L 190.177054 339.79302 
" clip-path="url(#p9504aa3c17)" style="fill: none; stroke: #0055d4; stroke-linecap: square"/>
   </g>
   <g id="line2d_40">
    <path d="M 190.177054 339.79302 
L 148.869508 377.073135 
" clip-path="url(#p9504aa3c17)" style="fill: none; stroke: #0055d4; stroke-linecap: square"/>
   </g>
   <g id="line2d_41">
    <path d="M 147.321537 309.010078 
L 289.521424 353.139101 
" clip-path="url(#p9504aa3c17)" style="fill: none; stroke: #0055d4; stroke-linecap: square"/>
   </g>
   <g id="line2d_42">
    <path d="M 289.521424 353.139101 
L 329.218715 314.776714 
" clip-path="url(#p9504aa3c17)" style="fill: none; stroke: #0055d4; stroke-linecap: square"/>
   </g>
   <g id="line2d_43">
    <path d="M 329.218715 314.776714 
L 189.325276 272.764204 
" clip-path="url(#p9504aa3c17)" style="fill: none; stroke: #0055d4; stroke-linecap: square"/>
   </g>
   <g id="line2d_44">
    <path d="M 189.325276 272.764204 
L 147.321537 309.010078 
" clip-path="url(#p9504aa3c17)" style="fill: none; stroke: #0055d4; stroke-linecap: square"/>
   </g>
   <g id="line2d_45">
    <path d="M 148.869508 377.073135 
L 147.321537 309.010078 
" clip-path="url(#p9504aa3c17)" style="fill: none; stroke: #0055d4; stroke-linecap: square"/>
   </g>
   <g id="line2d_46">
    <path d="M 288.760884 422.422603 
L 289.521424 353.139101 
" clip-path="url(#p9504aa3c17)" style="fill: none; stroke: #0055d4; stroke-linecap: square"/>
   </g>
   <g id="line2d_47">
    <path d="M 327.83566 383.001669 
L 329.218715 314.776714 
" clip-path="url(#p9504aa3c17)" style="fill: none; stroke: #0055d4; stroke-linecap: square"/>
   </g>
   <g id="line2d_48">
    <path d="M 190.177054 339.79302 
L 189.325276 272.764204 
" clip-path="url(#p9504aa3c17)" style="fill: none; stroke: #0055d4; stroke-linecap: square"/>
   </g>
   <g id="line2d_49">
    <path d="M 124.118719 319.058455 
L 190.177054 339.79302 
" clip-path="url(#p9504aa3c17)" style="fill: none; stroke: #0055d4; stroke-linecap: square"/>
   </g>
   <g id="line2d_50">
    <path d="M 190.177054 339.79302 
L 267.215799 270.265452 
" clip-path="url(#p9504aa3c17)" style="fill: none; stroke: #0055d4; stroke-linecap: square"/>
   </g>
   <g id="line2d_51">
    <path d="M 267.215799 270.265452 
L 203.103981 251.34353 
" clip-path="url(#p9504aa3c17)" style="fill: none; stroke: #0055d4; stroke-linecap: square"/>
   </g>
   <g id="line2d_52">
    <path d="M 203.103981 251.34353 
L 124.118719 319.058455 
" clip-path="url(#p9504aa3c17)" style="fill: none; stroke: #0055d4; stroke-linecap: square"/>
   </g>
   <g id="line2d_53">
    <path d="M 122.238832 252.616941 
L 189.325276 272.764204 
" clip-path="url(#p9504aa3c17)" style="fill: none; stroke: #0055d4; stroke-linecap: square"/>
   </g>
   <g id="line2d_54">
    <path d="M 189.325276 272.764204 
L 267.576075 205.240008 
" clip-path="url(#p9504aa3c17)" style="fill: none; stroke: #0055d4; stroke-linecap: square"/>
   </g>
   <g id="line2d_55">
    <path d="M 267.576075 205.240008 
L 202.495984 186.880074 
" clip-path="url(#p9504aa3c17)" style="fill: none; stroke: #0055d4; stroke-linecap: square"/>
   </g>
   <g id="line2d_56">
    <path d="M 202.495984 186.880074 
L 122.238832 252.616941 
" clip-path="url(#p9504aa3c17)" style="fill: none; stroke: #0055d4; stroke-linecap: square"/>
   </g>
   <g id="line2d_57">
    <path d="M 124.118719 319.058455 
L 122.238832 252.616941 
" clip-path="url(#p9504aa3c17)" style="fill: none; stroke: #0055d4; stroke-linecap: square"/>
   </g>
   <g id="line2d_58">
    <path d="M 190.177054 339.79302 
L 189.325276 272.764204 
" clip-path="url(#p9504aa3c17)" style="fill: none; stroke: #0055d4; stroke-linecap: square"/>
   </g>
   <g id="line2d_59">
    <path d="M 267.215799 270.265452 
L 267.576075 205.240008 
" clip-path="url(#p9504aa3c17)" style="fill: none; stroke: #0055d4; stroke-linecap: square"/>
   </g>
   <g id="line2d_60">
    <path d="M 203.103981 251.34353 
L 202.495984 186.880074 
" clip-path="url(#p9504aa3c17)" style="fill: none; stroke: #0055d4; stroke-linecap: square"/>
   </g>
   <g id="line2d_61">
    <path d="M 190.177054 339.79302 
L 327.83566 383.001669 
" clip-path="url(#p9504aa3c17)" style="fill: none; stroke: #0055d4; stroke-linecap: square"/>
   </g>
   <g id="line2d_62">
    <path d="M 327.83566 383.001669 
L 400.569584 309.623407 
" clip-path="url(#p9504aa3c17)" style="fill: none; stroke: #0055d4; stroke-linecap: square"/>
   </g>
   <g id="line2d_63">
    <path d="M 400.569584 309.623407 
L 267.215799 270.265452 
" clip-path="url(#p9504aa3c17)" style="fill: none; stroke: #0055d4; stroke-linecap: square"/>
   </g>
   <g id="line2d_64">
    <path d="M 267.215799 270.265452 
L 190.177054 339.79302 
" clip-path="url(#p9504aa3c17)" style="fill: none; stroke: #0055d4; stroke-linecap: square"/>
   </g>
   <g id="line2d_65">
    <path d="M 189.325276 272.764204 
L 329.218715 314.776714 
" clip-path="url(#p9504aa3c17)" style="fill: none; stroke: #0055d4; stroke-linecap: square"/>
   </g>
   <g id="line2d_66">
    <path d="M 329.218715 314.776714 
L 403.025337 243.451994 
" clip-path="url(#p9504aa3c17)" style="fill: none; stroke: #0055d4; stroke-linecap: square"/>
   </g>
   <g id="line2d_67">
    <path d="M 403.025337 243.451994 
L 267.576075 205.240008 
" clip-path="url(#p9504aa3c17)" style="fill: none; stroke: #0055d4; stroke-linecap: square"/>
   </g>
   <g id="line2d_68">
    <path d="M 267.576075 205.240008 
L 189.325276 272.764204 
" clip-path="url(#p9504aa3c17)" style="fill: none; stroke: #0055d4; stroke-linecap: square"/>
   </g>
   <g id="line2d_69">
    <path d="M 190.177054 339.79302 
L 189.325276 272.764204 
" clip-path="url(#p9504aa3c17)" style="fill: none; stroke: #0055d4; stroke-linecap: square"/>
   </g>
   <g id="line2d_70">
    <path d="M 327.83566 383.001669 
L 329.218715 314.776714 
" clip-path="url(#p9504aa3c17)" style="fill: none; stroke: #0055d4; stroke-linecap: square"/>
   </g>
   <g id="line2d_71">
    <path d="M 400.569584 309.623407 
L 403.025337 243.451994 
" clip-path="url(#p9504aa3c17)" style="fill: none; stroke: #0055d4; stroke-linecap: square"/>
   </g>
   <g id="line2d_72">
    <path d="M 267.215799 270.265452 
L 267.576075 205.240008 
" clip-path="url(#p9504aa3c17)" style="fill: none; stroke: #0055d4; stroke-linecap: square"/>
   </g>
   <g id="line2d_73">
    <path d="M 79.199329 287.86965 
L 147.321537 309.010078 
" clip-path="url(#p9504aa3c17)" style="fill: none; stroke: #0055d4; stroke-linecap: square"/>
   </g>
   <g id="line2d_74">
    <path d="M 147.321537 309.010078 
L 189.325276 272.764204 
" clip-path="url(#p9504aa3c17)" style="fill: none; stroke: #0055d4; stroke-linecap: square"/>
   </g>
   <g id="line2d_75">
    <path d="M 189.325276 272.764204 
L 122.238832 252.616941 
" clip-path="url(#p9504aa3c17)" style="fill: none; stroke: #0055d4; stroke-linecap: square"/>
   </g>
   <g id="line2d_76">
    <path d="M 122.238832 252.616941 
L 79.199329 287.86965 
" clip-path="url(#p9504aa3c17)" style="fill: none; stroke: #0055d4; stroke-linecap: square"/>
   </g>
   <g id="line2d_77">
    <path d="M 73.723914 146.200572 
L 144.068623 165.982036 
" clip-path="url(#p9504aa3c17)" style="fill: none; stroke: #0055d4; stroke-linecap: square"/>
   </g>
   <g id="line2d_78">
    <path d="M 144.068623 165.982036 
L 187.53748 132.077571 
" clip-path="url(#p9504aa3c17)" style="fill: none; stroke: #0055d4; stroke-linecap: square"/>
   </g>
   <g id="line2d_79">
    <path d="M 187.53748 132.077571 
L 118.295756 113.255473 
" clip-path="url(#p9504aa3c17)" style="fill: none; stroke: #0055d4; stroke-linecap: square"/>
   </g>
   <g id="line2d_80">
    <path d="M 118.295756 113.255473 
L 73.723914 146.200572 
" clip-path="url(#p9504aa3c17)" style="fill: none; stroke: #0055d4; stroke-linecap: square"/>
   </g>
   <g id="line2d_81">
    <path d="M 79.199329 287.86965 
L 73.723914 146.200572 
" clip-path="url(#p9504aa3c17)" style="fill: none; stroke: #0055d4; stroke-linecap: square"/>
   </g>
   <g id="line2d_82">
    <path d="M 147.321537 309.010078 
L 144.068623 165.982036 
" clip-path="url(#p9504aa3c17)" style="fill: none; stroke: #0055d4; stroke-linecap: square"/>
   </g>
   <g id="line2d_83">
    <path d="M 189.325276 272.764204 
L 187.53748 132.077571 
" clip-path="url(#p9504aa3c17)" style="fill: none; stroke: #0055d4; stroke-linecap: square"/>
   </g>
   <g id="line2d_84">
    <path d="M 122.238832 252.616941 
L 118.295756 113.255473 
" clip-path="url(#p9504aa3c17)" style="fill: none; stroke: #0055d4; stroke-linecap: square"/>
   </g>
   <g id="line2d_85">
    <path d="M 147.321537 309.010078 
L 289.521424 353.139101 
" clip-path="url(#p9504aa3c17)" style="fill: none; stroke: #0055d4; stroke-linecap: square"/>
   </g>
   <g id="line2d_86">
    <path d="M 289.521424 353.139101 
L 329.218715 314.776714 
" clip-path="url(#p9504aa3c17)" style="fill: none; stroke: #0055d4; stroke-linecap: square"/>
   </g>
   <g id="line2d_87">
    <path d="M 329.218715 314.776714 
L 189.325276 272.764204 
" clip-path="url(#p9504aa3c17)" style="fill: none; stroke: #0055d4; stroke-linecap: square"/>
   </g>
   <g id="line2d_88">
    <path d="M 189.325276 272.764204 
L 147.321537 309.010078 
" clip-path="url(#p9504aa3c17)" style="fill: none; stroke: #0055d4; stroke-linecap: square"/>
   </g>
   <g id="line2d_89">
    <path d="M 144.068623 165.982036 
L 291.121953 207.334544 
" clip-path="url(#p9504aa3c17)" style="fill: none; stroke: #0055d4; stroke-linecap: square"/>
   </g>
   <g id="line2d_90">
    <path d="M 291.121953 207.334544 
L 332.125626 171.381218 
" clip-path="url(#p9504aa3c17)" style="fill: none; stroke: #0055d4; stroke-linecap: square"/>
   </g>
   <g id="line2d_91">
    <path d="M 332.125626 171.381218 
L 187.53748 132.077571 
" clip-path="url(#p9504aa3c17)" style="fill: none; stroke: #0055d4; stroke-linecap: square"/>
   </g>
   <g id="line2d_92">
    <path d="M 187.53748 132.077571 
L 144.068623 165.982036 
" clip-path="url(#p9504aa3c17)" style="fill: none; stroke: #0055d4; stroke-linecap: square"/>
   </g>
   <g id="line2d_93">
    <path d="M 147.321537 309.010078 
L 144.068623 165.982036 
" clip-path="url(#p9504aa3c17)" style="fill: none; stroke: #0055d4; stroke-linecap: square"/>
   </g>
   <g id="line2d_94">
    <path d="M 289.521424 353.139101 
L 291.121953 207.334544 
" clip-path="url(#p9504aa3c17)" style="fill: none; stroke: #0055d4; stroke-linecap: square"/>
   </g>
   <g id="line2d_95">
    <path d="M 329.218715 314.776714 
L 332.125626 171.381218 
" clip-path="url(#p9504aa3c17)" style="fill: none; stroke: #0055d4; stroke-linecap: square"/>
   </g>
   <g id="line2d_96">
    <path d="M 189.325276 272.764204 
L 187.53748 132.077571 
" clip-path="url(#p9504aa3c17)" style="fill: none; stroke: #0055d4; stroke-linecap: square"/>
   </g>
   <g id="line2d_97">
    <path d="M 122.238832 252.616941 
L 189.325276 272.764204 
" clip-path="url(#p9504aa3c17)" style="fill: none; stroke: #0055d4; stroke-linecap: square"/>
   </g>
   <g id="line2d_98">
    <path d="M 189.325276 272.764204 
L 267.576075 205.240008 
" clip-path="url(#p9504aa3c17)" style="fill: none; stroke: #0055d4; stroke-linecap: square"/>
   </g>
   <g id="line2d_99">
    <path d="M 267.576075 205.240008 
L 202.495984 186.880074 
" clip-path="url(#p9504aa3c17)" style="fill: none; stroke: #0055d4; stroke-linecap: square"/>
   </g>
   <g id="line2d_100">
    <path d="M 202.495984 186.880074 
L 122.238832 252.616941 
" clip-path="url(#p9504aa3c17)" style="fill: none; stroke: #0055d4; stroke-linecap: square"/>
   </g>
   <g id="line2d_101">
    <path d="M 118.295756 113.255473 
L 187.53748 132.077571 
" clip-path="url(#p9504aa3c17)" style="fill: none; stroke: #0055d4; stroke-linecap: square"/>
   </g>
   <g id="line2d_102">
    <path d="M 187.53748 132.077571 
L 268.33058 69.061264 
" clip-path="url(#p9504aa3c17)" style="fill: none; stroke: #0055d4; stroke-linecap: square"/>
   </g>
   <g id="line2d_103">
    <path d="M 268.33058 69.061264 
L 201.223463 51.95979 
" clip-path="url(#p9504aa3c17)" style="fill: none; stroke: #0055d4; stroke-linecap: square"/>
   </g>
   <g id="line2d_104">
    <path d="M 201.223463 51.95979 
L 118.295756 113.255473 
" clip-path="url(#p9504aa3c17)" style="fill: none; stroke: #0055d4; stroke-linecap: square"/>
   </g>
   <g id="line2d_105">
    <path d="M 122.238832 252.616941 
L 118.295756 113.255473 
" clip-path="url(#p9504aa3c17)" style="fill: none; stroke: #0055d4; stroke-linecap: square"/>
   </g>
   <g id="line2d_106">
    <path d="M 189.325276 272.764204 
L 187.53748 132.077571 
" clip-path="url(#p9504aa3c17)" style="fill: none; stroke: #0055d4; stroke-linecap: square"/>
   </g>
   <g id="line2d_107">
    <path d="M 267.576075 205.240008 
L 268.33058 69.061264 
" clip-path="url(#p9504aa3c17)" style="fill: none; stroke: #0055d4; stroke-linecap: square"/>
   </g>
   <g id="line2d_108">
    <path d="M 202.495984 186.880074 
L 201.223463 51.95979 
" clip-path="url(#p9504aa3c17)" style="fill: none; stroke: #0055d4; stroke-linecap: square"/>
   </g>
   <g id="line2d_109">
    <path d="M 189.325276 272.764204 
L 329.218715 314.776714 
" clip-path="url(#p9504aa3c17)" style="fill: none; stroke: #0055d4; stroke-linecap: square"/>
   </g>
   <g id="line2d_110">
    <path d="M 329.218715 314.776714 
L 403.025337 243.451994 
" clip-path="url(#p9504aa3c17)" style="fill: none; stroke: #0055d4; stroke-linecap: square"/>
   </g>
   <g id="line2d_111">
    <path d="M 403.025337 243.451994 
L 267.576075 205.240008 
" clip-path="url(#p9504aa3c17)" style="fill: none; stroke: #0055d4; stroke-linecap: square"/>
   </g>
   <g id="line2d_112">
    <path d="M 267.576075 205.240008 
L 189.325276 272.764204 
" clip-path="url(#p9504aa3c17)" style="fill: none; stroke: #0055d4; stroke-linecap: square"/>
   </g>
   <g id="line2d_113">
    <path d="M 187.53748 132.077571 
L 332.125626 171.381218 
" clip-path="url(#p9504aa3c17)" style="fill: none; stroke: #0055d4; stroke-linecap: square"/>
   </g>
   <g id="line2d_114">
    <path d="M 332.125626 171.381218 
L 408.17474 104.698934 
" clip-path="url(#p9504aa3c17)" style="fill: none; stroke: #0055d4; stroke-linecap: square"/>
   </g>
   <g id="line2d_115">
    <path d="M 408.17474 104.698934 
L 268.33058 69.061264 
" clip-path="url(#p9504aa3c17)" style="fill: none; stroke: #0055d4; stroke-linecap: square"/>
   </g>
   <g id="line2d_116">
    <path d="M 268.33058 69.061264 
L 187.53748 132.077571 
" clip-path="url(#p9504aa3c17)" style="fill: none; stroke: #0055d4; stroke-linecap: square"/>
   </g>
   <g id="line2d_117">
    <path d="M 189.325276 272.764204 
L 187.53748 132.077571 
" clip-path="url(#p9504aa3c17)" style="fill: none; stroke: #0055d4; stroke-linecap: square"/>
   </g>
   <g id="line2d_118">
    <path d="M 329.218715 314.776714 
L 332.125626 171.381218 
" clip-path="url(#p9504aa3c17)" style="fill: none; stroke: #0055d4; stroke-linecap: square"/>
   </g>
   <g id="line2d_119">
    <path d="M 403.025337 243.451994 
L 408.17474 104.698934 
" clip-path="url(#p9504aa3c17)" style="fill: none; stroke: #0055d4; stroke-linecap: square"/>
   </g>
   <g id="line2d_120">
    <path d="M 267.576075 205.240008 
L 268.33058 69.061264 
" clip-path="url(#p9504aa3c17)" style="fill: none; stroke: #0055d4; stroke-linecap: square"/>
   </g>
   <g id="text_25">
    <g id="patch_6">
     <path d="M 79.579866 359.770319 
L 84.033616 359.770319 
Q 85.083616 359.770319 85.083616 358.720319 
L 85.083616 351.945632 
Q 85.083616 350.895632 84.033616 350.895632 
L 79.579866 350.895632 
Q 78.529866 350.895632 78.529866 351.945632 
L 78.529866 358.720319 
Q 78.529866 359.770319 79.579866 359.770319 
z
" style="fill: #ffffff"/>
    </g>
    <!-- 0 -->
    <g style="fill: #ff0000" transform="translate(79.579866 357.264538) scale(0.07 -0.07)">
     <use xlink:href="#DejaVuSans-30"/>
    </g>
   </g>
   <g id="text_26">
    <g id="patch_7">
     <path d="M 146.642633 381.510478 
L 151.096383 381.510478 
Q 152.146383 381.510478 152.146383 380.460478 
L 152.146383 373.685791 
Q 152.146383 372.635791 151.096383 372.635791 
L 146.642633 372.635791 
Q 145.592633 372.635791 145.592633 373.685791 
L 145.592633 380.460478 
Q 145.592633 381.510478 146.642633 381.510478 
z
" style="fill: #ffffff"/>
    </g>
    <!-- 1 -->
    <g style="fill: #ff0000" transform="translate(146.642633 379.004697) scale(0.07 -0.07)">
     <use xlink:href="#DejaVuSans-31"/>
    </g>
   </g>
   <g id="text_27">
    <g id="patch_8">
     <path d="M 187.950179 344.230364 
L 192.403929 344.230364 
Q 193.453929 344.230364 193.453929 343.180364 
L 193.453929 336.405677 
Q 193.453929 335.355677 192.403929 335.355677 
L 187.950179 335.355677 
Q 186.900179 335.355677 186.900179 336.405677 
L 186.900179 343.180364 
Q 186.900179 344.230364 187.950179 344.230364 
z
" style="fill: #ffffff"/>
    </g>
    <!-- 2 -->
    <g style="fill: #ff0000" transform="translate(187.950179 341.724583) scale(0.07 -0.07)">
     <use xlink:href="#DejaVuSans-32"/>
    </g>
   </g>
   <g id="text_28">
    <g id="patch_9">
     <path d="M 121.891844 323.495799 
L 126.345594 323.495799 
Q 127.395594 323.495799 127.395594 322.445799 
L 127.395594 315.671111 
Q 127.395594 314.621111 126.345594 314.621111 
L 121.891844 314.621111 
Q 120.841844 314.621111 120.841844 315.671111 
L 120.841844 322.445799 
Q 120.841844 323.495799 121.891844 323.495799 
z
" style="fill: #ffffff"/>
    </g>
    <!-- 3 -->
    <g style="fill: #ff0000" transform="translate(121.891844 320.990018) scale(0.07 -0.07)">
     <use xlink:href="#DejaVuSans-33"/>
    </g>
   </g>
   <g id="text_29">
    <g id="patch_10">
     <path d="M 76.972454 292.306994 
L 81.426204 292.306994 
Q 82.476204 292.306994 82.476204 291.256994 
L 82.476204 284.482307 
Q 82.476204 283.432307 81.426204 283.432307 
L 76.972454 283.432307 
Q 75.922454 283.432307 75.922454 284.482307 
L 75.922454 291.256994 
Q 75.922454 292.306994 76.972454 292.306994 
z
" style="fill: #ffffff"/>
    </g>
    <!-- 4 -->
    <g style="fill: #ff0000" transform="translate(76.972454 289.801213) scale(0.07 -0.07)">
     <defs>
      <path id="DejaVuSans-34" d="M 2419 4116 
L 825 1625 
L 2419 1625 
L 2419 4116 
z
M 2253 4666 
L 3047 4666 
L 3047 1625 
L 3713 1625 
L 3713 1100 
L 3047 1100 
L 3047 0 
L 2419 0 
L 2419 1100 
L 313 1100 
L 313 1709 
L 2253 4666 
z
" transform="scale(0.015625)"/>
     </defs>
     <use xlink:href="#DejaVuSans-34"/>
    </g>
   </g>
   <g id="text_30">
    <g id="patch_11">
     <path d="M 145.094662 313.447422 
L 149.548412 313.447422 
Q 150.598412 313.447422 150.598412 312.397422 
L 150.598412 305.622735 
Q 150.598412 304.572735 149.548412 304.572735 
L 145.094662 304.572735 
Q 144.044662 304.572735 144.044662 305.622735 
L 144.044662 312.397422 
Q 144.044662 313.447422 145.094662 313.447422 
z
" style="fill: #ffffff"/>
    </g>
    <!-- 5 -->
    <g style="fill: #ff0000" transform="translate(145.094662 310.941641) scale(0.07 -0.07)">
     <use xlink:href="#DejaVuSans-35"/>
    </g>
   </g>
   <g id="text_31">
    <g id="patch_12">
     <path d="M 187.098401 277.201547 
L 191.552151 277.201547 
Q 192.602151 277.201547 192.602151 276.151547 
L 192.602151 269.37686 
Q 192.602151 268.32686 191.552151 268.32686 
L 187.098401 268.32686 
Q 186.048401 268.32686 186.048401 269.37686 
L 186.048401 276.151547 
Q 186.048401 277.201547 187.098401 277.201547 
z
" style="fill: #ffffff"/>
    </g>
    <!-- 6 -->
    <g style="fill: #ff0000" transform="translate(187.098401 274.695766) scale(0.07 -0.07)">
     <defs>
      <path id="DejaVuSans-36" d="M 2113 2584 
Q 1688 2584 1439 2293 
Q 1191 2003 1191 1497 
Q 1191 994 1439 701 
Q 1688 409 2113 409 
Q 2538 409 2786 701 
Q 3034 994 3034 1497 
Q 3034 2003 2786 2293 
Q 2538 2584 2113 2584 
z
M 3366 4563 
L 3366 3988 
Q 3128 4100 2886 4159 
Q 2644 4219 2406 4219 
Q 1781 4219 1451 3797 
Q 1122 3375 1075 2522 
Q 1259 2794 1537 2939 
Q 1816 3084 2150 3084 
Q 2853 3084 3261 2657 
Q 3669 2231 3669 1497 
Q 3669 778 3244 343 
Q 2819 -91 2113 -91 
Q 1303 -91 875 529 
Q 447 1150 447 2328 
Q 447 3434 972 4092 
Q 1497 4750 2381 4750 
Q 2619 4750 2861 4703 
Q 3103 4656 3366 4563 
z
" transform="scale(0.015625)"/>
     </defs>
     <use xlink:href="#DejaVuSans-36"/>
    </g>
   </g>
   <g id="text_32">
    <g id="patch_13">
     <path d="M 120.011957 257.054284 
L 124.465707 257.054284 
Q 125.515707 257.054284 125.515707 256.004284 
L 125.515707 249.229597 
Q 125.515707 248.179597 124.465707 248.179597 
L 120.011957 248.179597 
Q 118.961957 248.179597 118.961957 249.229597 
L 118.961957 256.004284 
Q 118.961957 257.054284 120.011957 257.054284 
z
" style="fill: #ffffff"/>
    </g>
    <!-- 7 -->
    <g style="fill: #ff0000" transform="translate(120.011957 254.548503) scale(0.07 -0.07)">
     <defs>
      <path id="DejaVuSans-37" d="M 525 4666 
L 3525 4666 
L 3525 4397 
L 1831 0 
L 1172 0 
L 2766 4134 
L 525 4134 
L 525 4666 
z
" transform="scale(0.015625)"/>
     </defs>
     <use xlink:href="#DejaVuSans-37"/>
    </g>
   </g>
   <g id="text_33">
    <g id="patch_14">
     <path d="M 286.534009 426.859947 
L 290.987759 426.859947 
Q 292.037759 426.859947 292.037759 425.809947 
L 292.037759 419.035259 
Q 292.037759 417.985259 290.987759 417.985259 
L 286.534009 417.985259 
Q 285.484009 417.985259 285.484009 419.035259 
L 285.484009 425.809947 
Q 285.484009 426.859947 286.534009 426.859947 
z
" style="fill: #ffffff"/>
    </g>
    <!-- 8 -->
    <g style="fill: #ff0000" transform="translate(286.534009 424.354166) scale(0.07 -0.07)">
     <defs>
      <path id="DejaVuSans-38" d="M 2034 2216 
Q 1584 2216 1326 1975 
Q 1069 1734 1069 1313 
Q 1069 891 1326 650 
Q 1584 409 2034 409 
Q 2484 409 2743 651 
Q 3003 894 3003 1313 
Q 3003 1734 2745 1975 
Q 2488 2216 2034 2216 
z
M 1403 2484 
Q 997 2584 770 2862 
Q 544 3141 544 3541 
Q 544 4100 942 4425 
Q 1341 4750 2034 4750 
Q 2731 4750 3128 4425 
Q 3525 4100 3525 3541 
Q 3525 3141 3298 2862 
Q 3072 2584 2669 2484 
Q 3125 2378 3379 2068 
Q 3634 1759 3634 1313 
Q 3634 634 3220 271 
Q 2806 -91 2034 -91 
Q 1263 -91 848 271 
Q 434 634 434 1313 
Q 434 1759 690 2068 
Q 947 2378 1403 2484 
z
M 1172 3481 
Q 1172 3119 1398 2916 
Q 1625 2713 2034 2713 
Q 2441 2713 2670 2916 
Q 2900 3119 2900 3481 
Q 2900 3844 2670 4047 
Q 2441 4250 2034 4250 
Q 1625 4250 1398 4047 
Q 1172 3844 1172 3481 
z
" transform="scale(0.015625)"/>
     </defs>
     <use xlink:href="#DejaVuSans-38"/>
    </g>
   </g>
   <g id="text_34">
    <g id="patch_15">
     <path d="M 325.608785 387.439013 
L 330.062535 387.439013 
Q 331.112535 387.439013 331.112535 386.389013 
L 331.112535 379.614325 
Q 331.112535 378.564325 330.062535 378.564325 
L 325.608785 378.564325 
Q 324.558785 378.564325 324.558785 379.614325 
L 324.558785 386.389013 
Q 324.558785 387.439013 325.608785 387.439013 
z
" style="fill: #ffffff"/>
    </g>
    <!-- 9 -->
    <g style="fill: #ff0000" transform="translate(325.608785 384.933231) scale(0.07 -0.07)">
     <defs>
      <path id="DejaVuSans-39" d="M 703 97 
L 703 672 
Q 941 559 1184 500 
Q 1428 441 1663 441 
Q 2288 441 2617 861 
Q 2947 1281 2994 2138 
Q 2813 1869 2534 1725 
Q 2256 1581 1919 1581 
Q 1219 1581 811 2004 
Q 403 2428 403 3163 
Q 403 3881 828 4315 
Q 1253 4750 1959 4750 
Q 2769 4750 3195 4129 
Q 3622 3509 3622 2328 
Q 3622 1225 3098 567 
Q 2575 -91 1691 -91 
Q 1453 -91 1209 -44 
Q 966 3 703 97 
z
M 1959 2075 
Q 2384 2075 2632 2365 
Q 2881 2656 2881 3163 
Q 2881 3666 2632 3958 
Q 2384 4250 1959 4250 
Q 1534 4250 1286 3958 
Q 1038 3666 1038 3163 
Q 1038 2656 1286 2365 
Q 1534 2075 1959 2075 
z
" transform="scale(0.015625)"/>
     </defs>
     <use xlink:href="#DejaVuSans-39"/>
    </g>
   </g>
   <g id="text_35">
    <g id="patch_16">
     <path d="M 285.067674 357.576445 
L 293.975174 357.576445 
Q 295.025174 357.576445 295.025174 356.526445 
L 295.025174 349.751758 
Q 295.025174 348.701758 293.975174 348.701758 
L 285.067674 348.701758 
Q 284.017674 348.701758 284.017674 349.751758 
L 284.017674 356.526445 
Q 284.017674 357.576445 285.067674 357.576445 
z
" style="fill: #ffffff"/>
    </g>
    <!-- 10 -->
    <g style="fill: #ff0000" transform="translate(285.067674 355.070664) scale(0.07 -0.07)">
     <use xlink:href="#DejaVuSans-31"/>
     <use xlink:href="#DejaVuSans-30" x="63.623047"/>
    </g>
   </g>
   <g id="text_36">
    <g id="patch_17">
     <path d="M 324.764965 319.214058 
L 333.672465 319.214058 
Q 334.722465 319.214058 334.722465 318.164058 
L 334.722465 311.38937 
Q 334.722465 310.33937 333.672465 310.33937 
L 324.764965 310.33937 
Q 323.714965 310.33937 323.714965 311.38937 
L 323.714965 318.164058 
Q 323.714965 319.214058 324.764965 319.214058 
z
" style="fill: #ffffff"/>
    </g>
    <!-- 11 -->
    <g style="fill: #ff0000" transform="translate(324.764965 316.708277) scale(0.07 -0.07)">
     <use xlink:href="#DejaVuSans-31"/>
     <use xlink:href="#DejaVuSans-31" x="63.623047"/>
    </g>
   </g>
   <g id="text_37">
    <g id="patch_18">
     <path d="M 262.762049 274.702796 
L 271.669549 274.702796 
Q 272.719549 274.702796 272.719549 273.652796 
L 272.719549 266.878109 
Q 272.719549 265.828109 271.669549 265.828109 
L 262.762049 265.828109 
Q 261.712049 265.828109 261.712049 266.878109 
L 261.712049 273.652796 
Q 261.712049 274.702796 262.762049 274.702796 
z
" style="fill: #ffffff"/>
    </g>
    <!-- 12 -->
    <g style="fill: #ff0000" transform="translate(262.762049 272.197015) scale(0.07 -0.07)">
     <use xlink:href="#DejaVuSans-31"/>
     <use xlink:href="#DejaVuSans-32" x="63.623047"/>
    </g>
   </g>
   <g id="text_38">
    <g id="patch_19">
     <path d="M 198.650231 255.780873 
L 207.557731 255.780873 
Q 208.607731 255.780873 208.607731 254.730873 
L 208.607731 247.956186 
Q 208.607731 246.906186 207.557731 246.906186 
L 198.650231 246.906186 
Q 197.600231 246.906186 197.600231 247.956186 
L 197.600231 254.730873 
Q 197.600231 255.780873 198.650231 255.780873 
z
" style="fill: #ffffff"/>
    </g>
    <!-- 13 -->
    <g style="fill: #ff0000" transform="translate(198.650231 253.275092) scale(0.07 -0.07)">
     <use xlink:href="#DejaVuSans-31"/>
     <use xlink:href="#DejaVuSans-33" x="63.623047"/>
    </g>
   </g>
   <g id="text_39">
    <g id="patch_20">
     <path d="M 263.122325 209.677352 
L 272.029825 209.677352 
Q 273.079825 209.677352 273.079825 208.627352 
L 273.079825 201.852664 
Q 273.079825 200.802664 272.029825 200.802664 
L 263.122325 200.802664 
Q 262.072325 200.802664 262.072325 201.852664 
L 262.072325 208.627352 
Q 262.072325 209.677352 263.122325 209.677352 
z
" style="fill: #ffffff"/>
    </g>
    <!-- 14 -->
    <g style="fill: #ff0000" transform="translate(263.122325 207.17157) scale(0.07 -0.07)">
     <use xlink:href="#DejaVuSans-31"/>
     <use xlink:href="#DejaVuSans-34" x="63.623047"/>
    </g>
   </g>
   <g id="text_40">
    <g id="patch_21">
     <path d="M 198.042234 191.317417 
L 206.949734 191.317417 
Q 207.999734 191.317417 207.999734 190.267417 
L 207.999734 183.49273 
Q 207.999734 182.44273 206.949734 182.44273 
L 198.042234 182.44273 
Q 196.992234 182.44273 196.992234 183.49273 
L 196.992234 190.267417 
Q 196.992234 191.317417 198.042234 191.317417 
z
" style="fill: #ffffff"/>
    </g>
    <!-- 15 -->
    <g style="fill: #ff0000" transform="translate(198.042234 188.811636) scale(0.07 -0.07)">
     <use xlink:href="#DejaVuSans-31"/>
     <use xlink:href="#DejaVuSans-35" x="63.623047"/>
    </g>
   </g>
   <g id="text_41">
    <g id="patch_22">
     <path d="M 396.115834 314.060751 
L 405.023334 314.060751 
Q 406.073334 314.060751 406.073334 313.010751 
L 406.073334 306.236063 
Q 406.073334 305.186063 405.023334 305.186063 
L 396.115834 305.186063 
Q 395.065834 305.186063 395.065834 306.236063 
L 395.065834 313.010751 
Q 395.065834 314.060751 396.115834 314.060751 
z
" style="fill: #ffffff"/>
    </g>
    <!-- 16 -->
    <g style="fill: #ff0000" transform="translate(396.115834 311.55497) scale(0.07 -0.07)">
     <use xlink:href="#DejaVuSans-31"/>
     <use xlink:href="#DejaVuSans-36" x="63.623047"/>
    </g>
   </g>
   <g id="text_42">
    <g id="patch_23">
     <path d="M 398.571587 247.889338 
L 407.479087 247.889338 
Q 408.529087 247.889338 408.529087 246.839338 
L 408.529087 240.06465 
Q 408.529087 239.01465 407.479087 239.01465 
L 398.571587 239.01465 
Q 397.521587 239.01465 397.521587 240.06465 
L 397.521587 246.839338 
Q 397.521587 247.889338 398.571587 247.889338 
z
" style="fill: #ffffff"/>
    </g>
    <!-- 17 -->
    <g style="fill: #ff0000" transform="translate(398.571587 245.383556) scale(0.07 -0.07)">
     <use xlink:href="#DejaVuSans-31"/>
     <use xlink:href="#DejaVuSans-37" x="63.623047"/>
    </g>
   </g>
   <g id="text_43">
    <g id="patch_24">
     <path d="M 69.270164 150.637916 
L 78.177664 150.637916 
Q 79.227664 150.637916 79.227664 149.587916 
L 79.227664 142.813228 
Q 79.227664 141.763228 78.177664 141.763228 
L 69.270164 141.763228 
Q 68.220164 141.763228 68.220164 142.813228 
L 68.220164 149.587916 
Q 68.220164 150.637916 69.270164 150.637916 
z
" style="fill: #ffffff"/>
    </g>
    <!-- 18 -->
    <g style="fill: #ff0000" transform="translate(69.270164 148.132135) scale(0.07 -0.07)">
     <use xlink:href="#DejaVuSans-31"/>
     <use xlink:href="#DejaVuSans-38" x="63.623047"/>
    </g>
   </g>
   <g id="text_44">
    <g id="patch_25">
     <path d="M 139.614873 170.41938 
L 148.522373 170.41938 
Q 149.572373 170.41938 149.572373 169.36938 
L 149.572373 162.594692 
Q 149.572373 161.544692 148.522373 161.544692 
L 139.614873 161.544692 
Q 138.564873 161.544692 138.564873 162.594692 
L 138.564873 169.36938 
Q 138.564873 170.41938 139.614873 170.41938 
z
" style="fill: #ffffff"/>
    </g>
    <!-- 19 -->
    <g style="fill: #ff0000" transform="translate(139.614873 167.913599) scale(0.07 -0.07)">
     <use xlink:href="#DejaVuSans-31"/>
     <use xlink:href="#DejaVuSans-39" x="63.623047"/>
    </g>
   </g>
   <g id="text_45">
    <g id="patch_26">
     <path d="M 183.08373 136.514915 
L 191.99123 136.514915 
Q 193.04123 136.514915 193.04123 135.464915 
L 193.04123 128.690227 
Q 193.04123 127.640227 191.99123 127.640227 
L 183.08373 127.640227 
Q 182.03373 127.640227 182.03373 128.690227 
L 182.03373 135.464915 
Q 182.03373 136.514915 183.08373 136.514915 
z
" style="fill: #ffffff"/>
    </g>
    <!-- 20 -->
    <g style="fill: #ff0000" transform="translate(183.08373 134.009133) scale(0.07 -0.07)">
     <use xlink:href="#DejaVuSans-32"/>
     <use xlink:href="#DejaVuSans-30" x="63.623047"/>
    </g>
   </g>
   <g id="text_46">
    <g id="patch_27">
     <path d="M 113.842006 117.692816 
L 122.749506 117.692816 
Q 123.799506 117.692816 123.799506 116.642816 
L 123.799506 109.868129 
Q 123.799506 108.818129 122.749506 108.818129 
L 113.842006 108.818129 
Q 112.792006 108.818129 112.792006 109.868129 
L 112.792006 116.642816 
Q 112.792006 117.692816 113.842006 117.692816 
z
" style="fill: #ffffff"/>
    </g>
    <!-- 21 -->
    <g style="fill: #ff0000" transform="translate(113.842006 115.187035) scale(0.07 -0.07)">
     <use xlink:href="#DejaVuSans-32"/>
     <use xlink:href="#DejaVuSans-31" x="63.623047"/>
    </g>
   </g>
   <g id="text_47">
    <g id="patch_28">
     <path d="M 286.668203 211.771888 
L 295.575703 211.771888 
Q 296.625703 211.771888 296.625703 210.721888 
L 296.625703 203.9472 
Q 296.625703 202.8972 295.575703 202.8972 
L 286.668203 202.8972 
Q 285.618203 202.8972 285.618203 203.9472 
L 285.618203 210.721888 
Q 285.618203 211.771888 286.668203 211.771888 
z
" style="fill: #ffffff"/>
    </g>
    <!-- 22 -->
    <g style="fill: #ff0000" transform="translate(286.668203 209.266106) scale(0.07 -0.07)">
     <use xlink:href="#DejaVuSans-32"/>
     <use xlink:href="#DejaVuSans-32" x="63.623047"/>
    </g>
   </g>
   <g id="text_48">
    <g id="patch_29">
     <path d="M 327.671876 175.818562 
L 336.579376 175.818562 
Q 337.629376 175.818562 337.629376 174.768562 
L 337.629376 167.993874 
Q 337.629376 166.943874 336.579376 166.943874 
L 327.671876 166.943874 
Q 326.621876 166.943874 326.621876 167.993874 
L 326.621876 174.768562 
Q 326.621876 175.818562 327.671876 175.818562 
z
" style="fill: #ffffff"/>
    </g>
    <!-- 23 -->
    <g style="fill: #ff0000" transform="translate(327.671876 173.312781) scale(0.07 -0.07)">
     <use xlink:href="#DejaVuSans-32"/>
     <use xlink:href="#DejaVuSans-33" x="63.623047"/>
    </g>
   </g>
   <g id="text_49">
    <g id="patch_30">
     <path d="M 263.87683 73.498608 
L 272.78433 73.498608 
Q 273.83433 73.498608 273.83433 72.448608 
L 273.83433 65.67392 
Q 273.83433 64.62392 272.78433 64.62392 
L 263.87683 64.62392 
Q 262.82683 64.62392 262.82683 65.67392 
L 262.82683 72.448608 
Q 262.82683 73.498608 263.87683 73.498608 
z
" style="fill: #ffffff"/>
    </g>
    <!-- 24 -->
    <g style="fill: #ff0000" transform="translate(263.87683 70.992827) scale(0.07 -0.07)">
     <use xlink:href="#DejaVuSans-32"/>
     <use xlink:href="#DejaVuSans-34" x="63.623047"/>
    </g>
   </g>
   <g id="text_50">
    <g id="patch_31">
     <path d="M 196.769713 56.397133 
L 205.677213 56.397133 
Q 206.727213 56.397133 206.727213 55.347133 
L 206.727213 48.572446 
Q 206.727213 47.522446 205.677213 47.522446 
L 196.769713 47.522446 
Q 195.719713 47.522446 195.719713 48.572446 
L 195.719713 55.347133 
Q 195.719713 56.397133 196.769713 56.397133 
z
" style="fill: #ffffff"/>
    </g>
    <!-- 25 -->
    <g style="fill: #ff0000" transform="translate(196.769713 53.891352) scale(0.07 -0.07)">
     <use xlink:href="#DejaVuSans-32"/>
     <use xlink:href="#DejaVuSans-35" x="63.623047"/>
    </g>
   </g>
   <g id="text_51">
    <g id="patch_32">
     <path d="M 403.72099 109.136278 
L 412.62849 109.136278 
Q 413.67849 109.136278 413.67849 108.086278 
L 413.67849 101.311591 
Q 413.67849 100.261591 412.62849 100.261591 
L 403.72099 100.261591 
Q 402.67099 100.261591 402.67099 101.311591 
L 402.67099 108.086278 
Q 402.67099 109.136278 403.72099 109.136278 
z
" style="fill: #ffffff"/>
    </g>
    <!-- 26 -->
    <g style="fill: #ff0000" transform="translate(403.72099 106.630497) scale(0.07 -0.07)">
     <use xlink:href="#DejaVuSans-32"/>
     <use xlink:href="#DejaVuSans-36" x="63.623047"/>
    </g>
   </g>
  </g>
 </g>
 <defs>
  <clipPath id="p9504aa3c17">
   <rect x="7.2" y="7.2" width="460.273973" height="460.273973"/>
  </clipPath>
 </defs>
</svg>
