<?xml version="1.0" encoding="utf-8" standalone="no"?>
<!DOCTYPE svg PUBLIC "-//W3C//DTD SVG 1.1//EN"
  "http://www.w3.org/Graphics/SVG/1.1/DTD/svg11.dtd">
<svg xmlns:xlink="http://www.w3.org/1999/xlink" width="508.517452pt" height="495.151316pt" viewBox="0 0 508.517452 495.151316" xmlns="http://www.w3.org/2000/svg" version="1.1">
 <metadata>
  <rdf:RDF xmlns:dc="http://purl.org/dc/elements/1.1/" xmlns:cc="http://creativecommons.org/ns#" xmlns:rdf="http://www.w3.org/1999/02/22-rdf-syntax-ns#">
   <cc:Work>
    <dc:type rdf:resource="http://purl.org/dc/dcmitype/StillImage"/>
    <dc:date>2025-11-19T16:21:31.127888</dc:date>
    <dc:format>image/svg+xml</dc:format>
    <dc:creator>
     <cc:Agent>
      <dc:title>Matplotlib v3.6.3, https://matplotlib.org/</dc:title>
     </cc:Agent>
    </dc:creator>
   </cc:Work>
  </rdf:RDF>
 </metadata>
 <defs>
  <style type="text/css">*{stroke-linejoin: round; stroke-linecap: butt}</style>
 </defs>
 <g id="figure_1">
  <g id="patch_1">
   <path d="M 0 495.151316 
L 508.517452 495.151316 
L 508.517452 0 
L 0 0 
z
" style="fill: #ffffff"/>
  </g>
  <g id="axes_1">
   <g id="patch_2">
    <path d="M 30.103125 471.273191 
L 493.36589 471.273191 
L 493.36589 10.999219 
L 30.103125 10.999219 
z
" style="fill: #ffffff"/>
   </g>
   <g id="patch_3">
    <path d="M 509.517452 471.273191 
L 493.36589 471.273191 
L 400.713337 471.273191 
L 308.060784 471.273191 
L 215.408231 471.273191 
L 122.755678 471.273191 
L 30.103125 471.273191 
" clip-path="url(#p69920bfe7c)" style="fill: none; stroke: #427ce5; stroke-width: 3; stroke-linejoin: miter"/>
   </g>
   <g id="patch_4">
    <path clip-path="url(#p69920bfe7c)" style="fill: none; stroke: #427ce5; stroke-width: 3; stroke-linejoin: miter"/>
   </g>
   <g id="patch_5">
    <path clip-path="url(#p69920bfe7c)" style="fill: none; stroke: #427ce5; stroke-width: 3; stroke-linejoin: miter"/>
   </g>
   <g id="patch_6">
    <path d="M 30.103125 471.273191 
L 30.103125 379.218397 
L 30.103125 287.163602 
L 30.103125 195.108808 
L 30.103125 103.054013 
L 30.103125 10.999219 
L 30.103125 -1 
" clip-path="url(#p69920bfe7c)" style="fill: none; stroke: #427ce5; stroke-width: 3; stroke-linejoin: miter"/>
   </g>
   <g id="matplotlib.axis_1">
    <g id="xtick_1">
     <g id="line2d_1">
      <defs>
       <path id="mcbe4fb0473" d="M 0 0 
L 0 3.5 
" style="stroke: #000000; stroke-width: 0.8"/>
      </defs>
      <g>
       <use xlink:href="#mcbe4fb0473" x="30.103125" y="471.273191" style="stroke: #000000; stroke-width: 0.8"/>
      </g>
     </g>
     <g id="text_1">
      <!-- 0.0 -->
      <g transform="translate(22.151563 485.871629) scale(0.1 -0.1)">
       <defs>
        <path id="DejaVuSans-30" d="M 2034 4250 
Q 1547 4250 1301 3770 
Q 1056 3291 1056 2328 
Q 1056 1369 1301 889 
Q 1547 409 2034 409 
Q 2525 409 2770 889 
Q 3016 1369 3016 2328 
Q 3016 3291 2770 3770 
Q 2525 4250 2034 4250 
z
M 2034 4750 
Q 2819 4750 3233 4129 
Q 3647 3509 3647 2328 
Q 3647 1150 3233 529 
Q 2819 -91 2034 -91 
Q 1250 -91 836 529 
Q 422 1150 422 2328 
Q 422 3509 836 4129 
Q 1250 4750 2034 4750 
z
" transform="scale(0.015625)"/>
        <path id="DejaVuSans-2e" d="M 684 794 
L 1344 794 
L 1344 0 
L 684 0 
L 684 794 
z
" transform="scale(0.015625)"/>
       </defs>
       <use xlink:href="#DejaVuSans-30"/>
       <use xlink:href="#DejaVuSans-2e" x="63.623047"/>
       <use xlink:href="#DejaVuSans-30" x="95.410156"/>
      </g>
     </g>
    </g>
    <g id="xtick_2">
     <g id="line2d_2">
      <g>
       <use xlink:href="#mcbe4fb0473" x="122.755678" y="471.273191" style="stroke: #000000; stroke-width: 0.8"/>
      </g>
     </g>
     <g id="text_2">
      <!-- 0.2 -->
      <g transform="translate(114.804115 485.871629) scale(0.1 -0.1)">
       <defs>
        <path id="DejaVuSans-32" d="M 1228 531 
L 3431 531 
L 3431 0 
L 469 0 
L 469 531 
Q 828 903 1448 1529 
Q 2069 2156 2228 2338 
Q 2531 2678 2651 2914 
Q 2772 3150 2772 3378 
Q 2772 3750 2511 3984 
Q 2250 4219 1831 4219 
Q 1534 4219 1204 4116 
Q 875 4013 500 3803 
L 500 4441 
Q 881 4594 1212 4672 
Q 1544 4750 1819 4750 
Q 2544 4750 2975 4387 
Q 3406 4025 3406 3419 
Q 3406 3131 3298 2873 
Q 3191 2616 2906 2266 
Q 2828 2175 2409 1742 
Q 1991 1309 1228 531 
z
" transform="scale(0.015625)"/>
       </defs>
       <use xlink:href="#DejaVuSans-30"/>
       <use xlink:href="#DejaVuSans-2e" x="63.623047"/>
       <use xlink:href="#DejaVuSans-32" x="95.410156"/>
      </g>
     </g>
    </g>
    <g id="xtick_3">
     <g id="line2d_3">
      <g>
       <use xlink:href="#mcbe4fb0473" x="215.408231" y="471.273191" style="stroke: #000000; stroke-width: 0.8"/>
      </g>
     </g>
     <g id="text_3">
      <!-- 0.4 -->
      <g transform="translate(207.456668 485.871629) scale(0.1 -0.1)">
       <defs>
        <path id="DejaVuSans-34" d="M 2419 4116 
L 825 1625 
L 2419 1625 
L 2419 4116 
z
M 2253 4666 
L 3047 4666 
L 3047 1625 
L 3713 1625 
L 3713 1100 
L 3047 1100 
L 3047 0 
L 2419 0 
L 2419 1100 
L 313 1100 
L 313 1709 
L 2253 4666 
z
" transform="scale(0.015625)"/>
       </defs>
       <use xlink:href="#DejaVuSans-30"/>
       <use xlink:href="#DejaVuSans-2e" x="63.623047"/>
       <use xlink:href="#DejaVuSans-34" x="95.410156"/>
      </g>
     </g>
    </g>
    <g id="xtick_4">
     <g id="line2d_4">
      <g>
       <use xlink:href="#mcbe4fb0473" x="308.060784" y="471.273191" style="stroke: #000000; stroke-width: 0.8"/>
      </g>
     </g>
     <g id="text_4">
      <!-- 0.6 -->
      <g transform="translate(300.109221 485.871629) scale(0.1 -0.1)">
       <defs>
        <path id="DejaVuSans-36" d="M 2113 2584 
Q 1688 2584 1439 2293 
Q 1191 2003 1191 1497 
Q 1191 994 1439 701 
Q 1688 409 2113 409 
Q 2538 409 2786 701 
Q 3034 994 3034 1497 
Q 3034 2003 2786 2293 
Q 2538 2584 2113 2584 
z
M 3366 4563 
L 3366 3988 
Q 3128 4100 2886 4159 
Q 2644 4219 2406 4219 
Q 1781 4219 1451 3797 
Q 1122 3375 1075 2522 
Q 1259 2794 1537 2939 
Q 1816 3084 2150 3084 
Q 2853 3084 3261 2657 
Q 3669 2231 3669 1497 
Q 3669 778 3244 343 
Q 2819 -91 2113 -91 
Q 1303 -91 875 529 
Q 447 1150 447 2328 
Q 447 3434 972 4092 
Q 1497 4750 2381 4750 
Q 2619 4750 2861 4703 
Q 3103 4656 3366 4563 
z
" transform="scale(0.015625)"/>
       </defs>
       <use xlink:href="#DejaVuSans-30"/>
       <use xlink:href="#DejaVuSans-2e" x="63.623047"/>
       <use xlink:href="#DejaVuSans-36" x="95.410156"/>
      </g>
     </g>
    </g>
    <g id="xtick_5">
     <g id="line2d_5">
      <g>
       <use xlink:href="#mcbe4fb0473" x="400.713337" y="471.273191" style="stroke: #000000; stroke-width: 0.8"/>
      </g>
     </g>
     <g id="text_5">
      <!-- 0.8 -->
      <g transform="translate(392.761774 485.871629) scale(0.1 -0.1)">
       <defs>
        <path id="DejaVuSans-38" d="M 2034 2216 
Q 1584 2216 1326 1975 
Q 1069 1734 1069 1313 
Q 1069 891 1326 650 
Q 1584 409 2034 409 
Q 2484 409 2743 651 
Q 3003 894 3003 1313 
Q 3003 1734 2745 1975 
Q 2488 2216 2034 2216 
z
M 1403 2484 
Q 997 2584 770 2862 
Q 544 3141 544 3541 
Q 544 4100 942 4425 
Q 1341 4750 2034 4750 
Q 2731 4750 3128 4425 
Q 3525 4100 3525 3541 
Q 3525 3141 3298 2862 
Q 3072 2584 2669 2484 
Q 3125 2378 3379 2068 
Q 3634 1759 3634 1313 
Q 3634 634 3220 271 
Q 2806 -91 2034 -91 
Q 1263 -91 848 271 
Q 434 634 434 1313 
Q 434 1759 690 2068 
Q 947 2378 1403 2484 
z
M 1172 3481 
Q 1172 3119 1398 2916 
Q 1625 2713 2034 2713 
Q 2441 2713 2670 2916 
Q 2900 3119 2900 3481 
Q 2900 3844 2670 4047 
Q 2441 4250 2034 4250 
Q 1625 4250 1398 4047 
Q 1172 3844 1172 3481 
z
" transform="scale(0.015625)"/>
       </defs>
       <use xlink:href="#DejaVuSans-30"/>
       <use xlink:href="#DejaVuSans-2e" x="63.623047"/>
       <use xlink:href="#DejaVuSans-38" x="95.410156"/>
      </g>
     </g>
    </g>
    <g id="xtick_6">
     <g id="line2d_6">
      <g>
       <use xlink:href="#mcbe4fb0473" x="493.36589" y="471.273191" style="stroke: #000000; stroke-width: 0.8"/>
      </g>
     </g>
     <g id="text_6">
      <!-- 1.0 -->
      <g transform="translate(485.414327 485.871629) scale(0.1 -0.1)">
       <defs>
        <path id="DejaVuSans-31" d="M 794 531 
L 1825 531 
L 1825 4091 
L 703 3866 
L 703 4441 
L 1819 4666 
L 2450 4666 
L 2450 531 
L 3481 531 
L 3481 0 
L 794 0 
L 794 531 
z
" transform="scale(0.015625)"/>
       </defs>
       <use xlink:href="#DejaVuSans-31"/>
       <use xlink:href="#DejaVuSans-2e" x="63.623047"/>
       <use xlink:href="#DejaVuSans-30" x="95.410156"/>
      </g>
     </g>
    </g>
   </g>
   <g id="matplotlib.axis_2">
    <g id="ytick_1">
     <g id="line2d_7">
      <defs>
       <path id="m50fefc4214" d="M 0 0 
L -3.5 0 
" style="stroke: #000000; stroke-width: 0.8"/>
      </defs>
      <g>
       <use xlink:href="#m50fefc4214" x="30.103125" y="471.273191" style="stroke: #000000; stroke-width: 0.8"/>
      </g>
     </g>
     <g id="text_7">
      <!-- 0.0 -->
      <g transform="translate(7.2 475.07241) scale(0.1 -0.1)">
       <use xlink:href="#DejaVuSans-30"/>
       <use xlink:href="#DejaVuSans-2e" x="63.623047"/>
       <use xlink:href="#DejaVuSans-30" x="95.410156"/>
      </g>
     </g>
    </g>
    <g id="ytick_2">
     <g id="line2d_8">
      <g>
       <use xlink:href="#m50fefc4214" x="30.103125" y="379.218397" style="stroke: #000000; stroke-width: 0.8"/>
      </g>
     </g>
     <g id="text_8">
      <!-- 0.2 -->
      <g transform="translate(7.2 383.017616) scale(0.1 -0.1)">
       <use xlink:href="#DejaVuSans-30"/>
       <use xlink:href="#DejaVuSans-2e" x="63.623047"/>
       <use xlink:href="#DejaVuSans-32" x="95.410156"/>
      </g>
     </g>
    </g>
    <g id="ytick_3">
     <g id="line2d_9">
      <g>
       <use xlink:href="#m50fefc4214" x="30.103125" y="287.163602" style="stroke: #000000; stroke-width: 0.8"/>
      </g>
     </g>
     <g id="text_9">
      <!-- 0.4 -->
      <g transform="translate(7.2 290.962821) scale(0.1 -0.1)">
       <use xlink:href="#DejaVuSans-30"/>
       <use xlink:href="#DejaVuSans-2e" x="63.623047"/>
       <use xlink:href="#DejaVuSans-34" x="95.410156"/>
      </g>
     </g>
    </g>
    <g id="ytick_4">
     <g id="line2d_10">
      <g>
       <use xlink:href="#m50fefc4214" x="30.103125" y="195.108808" style="stroke: #000000; stroke-width: 0.8"/>
      </g>
     </g>
     <g id="text_10">
      <!-- 0.6 -->
      <g transform="translate(7.2 198.908027) scale(0.1 -0.1)">
       <use xlink:href="#DejaVuSans-30"/>
       <use xlink:href="#DejaVuSans-2e" x="63.623047"/>
       <use xlink:href="#DejaVuSans-36" x="95.410156"/>
      </g>
     </g>
    </g>
    <g id="ytick_5">
     <g id="line2d_11">
      <g>
       <use xlink:href="#m50fefc4214" x="30.103125" y="103.054013" style="stroke: #000000; stroke-width: 0.8"/>
      </g>
     </g>
     <g id="text_11">
      <!-- 0.8 -->
      <g transform="translate(7.2 106.853232) scale(0.1 -0.1)">
       <use xlink:href="#DejaVuSans-30"/>
       <use xlink:href="#DejaVuSans-2e" x="63.623047"/>
       <use xlink:href="#DejaVuSans-38" x="95.410156"/>
      </g>
     </g>
    </g>
    <g id="ytick_6">
     <g id="line2d_12">
      <g>
       <use xlink:href="#m50fefc4214" x="30.103125" y="10.999219" style="stroke: #000000; stroke-width: 0.8"/>
      </g>
     </g>
     <g id="text_12">
      <!-- 1.0 -->
      <g transform="translate(7.2 14.798437) scale(0.1 -0.1)">
       <use xlink:href="#DejaVuSans-31"/>
       <use xlink:href="#DejaVuSans-2e" x="63.623047"/>
       <use xlink:href="#DejaVuSans-30" x="95.410156"/>
      </g>
     </g>
    </g>
   </g>
   <g id="patch_7">
    <path d="M 30.103125 471.273191 
L 30.103125 10.999219 
" style="fill: none; stroke: #000000; stroke-width: 0.8; stroke-linejoin: miter; stroke-linecap: square"/>
   </g>
   <g id="patch_8">
    <path d="M 493.36589 471.273191 
L 493.36589 10.999219 
" style="fill: none; stroke: #000000; stroke-width: 0.8; stroke-linejoin: miter; stroke-linecap: square"/>
   </g>
   <g id="patch_9">
    <path d="M 30.103125 471.273191 
L 493.36589 471.273191 
" style="fill: none; stroke: #000000; stroke-width: 0.8; stroke-linejoin: miter; stroke-linecap: square"/>
   </g>
   <g id="patch_10">
    <path d="M 30.103125 10.999219 
L 493.36589 10.999219 
" style="fill: none; stroke: #000000; stroke-width: 0.8; stroke-linejoin: miter; stroke-linecap: square"/>
   </g>
   <g id="text_13">
    <g id="patch_11">
     <path d="M 30.103125 479.112254 
C 32.182069 479.112254 34.176144 478.286281 35.646179 476.816246 
C 37.116214 475.34621 37.942188 473.352135 37.942188 471.273191 
C 37.942188 469.194248 37.116214 467.200172 35.646179 465.730137 
C 34.176144 464.260102 32.182069 463.434129 30.103125 463.434129 
C 28.024181 463.434129 26.030106 464.260102 24.560071 465.730137 
C 23.090036 467.200172 22.264063 469.194248 22.264063 471.273191 
C 22.264063 473.352135 23.090036 475.34621 24.560071 476.816246 
C 26.030106 478.286281 28.024181 479.112254 30.103125 479.112254 
z
" style="fill: #ffffff; stroke: #ff0000; stroke-linejoin: miter"/>
    </g>
    <!-- 0 -->
    <g transform="translate(26.921875 474.032566) scale(0.1 -0.1)">
     <use xlink:href="#DejaVuSans-30"/>
    </g>
   </g>
   <g id="text_14">
    <g id="patch_12">
     <path d="M 956.628654 479.112254 
C 958.707598 479.112254 960.701673 478.286281 962.171709 476.816246 
C 963.641744 475.34621 964.467717 473.352135 964.467717 471.273191 
C 964.467717 469.194248 963.641744 467.200172 962.171709 465.730137 
C 960.701673 464.260102 958.707598 463.434129 956.628654 463.434129 
C 954.549711 463.434129 952.555635 464.260102 951.0856 465.730137 
C 949.615565 467.200172 948.789592 469.194248 948.789592 471.273191 
C 948.789592 473.352135 949.615565 475.34621 951.0856 476.816246 
C 952.555635 478.286281 954.549711 479.112254 956.628654 479.112254 
z
" style="fill: #ffffff; stroke: #ff0000; stroke-linejoin: miter"/>
    </g>
    <!-- 1 -->
    <g transform="translate(953.447404 474.032566) scale(0.1 -0.1)">
     <use xlink:href="#DejaVuSans-31"/>
    </g>
   </g>
   <g id="text_15">
    <g id="patch_13">
     <path d="M 956.628654 -441.435691 
C 958.707598 -441.435691 960.701673 -442.261664 962.171709 -443.7317 
C 963.641744 -445.201735 964.467717 -447.19581 964.467717 -449.274754 
C 964.467717 -451.353698 963.641744 -453.347773 962.171709 -454.817808 
C 960.701673 -456.287843 958.707598 -457.113816 956.628654 -457.113816 
C 954.549711 -457.113816 952.555635 -456.287843 951.0856 -454.817808 
C 949.615565 -453.347773 948.789592 -451.353698 948.789592 -449.274754 
C 948.789592 -447.19581 949.615565 -445.201735 951.0856 -443.7317 
C 952.555635 -442.261664 954.549711 -441.435691 956.628654 -441.435691 
z
" style="fill: #ffffff; stroke: #ff0000; stroke-linejoin: miter"/>
    </g>
    <!-- 2 -->
    <g transform="translate(953.447404 -446.515379) scale(0.1 -0.1)">
     <use xlink:href="#DejaVuSans-32"/>
    </g>
   </g>
   <g id="text_16">
    <g id="patch_14">
     <path d="M 30.103125 -441.435691 
C 32.182069 -441.435691 34.176144 -442.261664 35.646179 -443.7317 
C 37.116214 -445.201735 37.942188 -447.19581 37.942188 -449.274754 
C 37.942188 -451.353698 37.116214 -453.347773 35.646179 -454.817808 
C 34.176144 -456.287843 32.182069 -457.113816 30.103125 -457.113816 
C 28.024181 -457.113816 26.030106 -456.287843 24.560071 -454.817808 
C 23.090036 -453.347773 22.264063 -451.353698 22.264063 -449.274754 
C 22.264063 -447.19581 23.090036 -445.201735 24.560071 -443.7317 
C 26.030106 -442.261664 28.024181 -441.435691 30.103125 -441.435691 
z
" style="fill: #ffffff; stroke: #ff0000; stroke-linejoin: miter"/>
    </g>
    <!-- 3 -->
    <g transform="translate(26.921875 -446.515379) scale(0.1 -0.1)">
     <defs>
      <path id="DejaVuSans-33" d="M 2597 2516 
Q 3050 2419 3304 2112 
Q 3559 1806 3559 1356 
Q 3559 666 3084 287 
Q 2609 -91 1734 -91 
Q 1441 -91 1130 -33 
Q 819 25 488 141 
L 488 750 
Q 750 597 1062 519 
Q 1375 441 1716 441 
Q 2309 441 2620 675 
Q 2931 909 2931 1356 
Q 2931 1769 2642 2001 
Q 2353 2234 1838 2234 
L 1294 2234 
L 1294 2753 
L 1863 2753 
Q 2328 2753 2575 2939 
Q 2822 3125 2822 3475 
Q 2822 3834 2567 4026 
Q 2313 4219 1838 4219 
Q 1578 4219 1281 4162 
Q 984 4106 628 3988 
L 628 4550 
Q 988 4650 1302 4700 
Q 1616 4750 1894 4750 
Q 2613 4750 3031 4423 
Q 3450 4097 3450 3541 
Q 3450 3153 3228 2886 
Q 3006 2619 2597 2516 
z
" transform="scale(0.015625)"/>
     </defs>
     <use xlink:href="#DejaVuSans-33"/>
    </g>
   </g>
   <g id="text_17">
    <g id="patch_15">
     <path d="M 493.36589 476.744441 
C 494.816882 476.744441 496.208641 476.167956 497.234648 475.141949 
C 498.260654 474.115943 498.83714 472.724184 498.83714 471.273191 
C 498.83714 469.822199 498.260654 468.43044 497.234648 467.404433 
C 496.208641 466.378427 494.816882 465.801941 493.36589 465.801941 
C 491.914897 465.801941 490.523138 466.378427 489.497132 467.404433 
C 488.471125 468.43044 487.89464 469.822199 487.89464 471.273191 
C 487.89464 472.724184 488.471125 474.115943 489.497132 475.141949 
C 490.523138 476.167956 491.914897 476.744441 493.36589 476.744441 
z
" style="fill: #ffffff; stroke: #ffd700; stroke-linejoin: miter"/>
    </g>
    <!-- 4 -->
    <g transform="translate(490.82089 473.480691) scale(0.08 -0.08)">
     <use xlink:href="#DejaVuSans-34"/>
    </g>
   </g>
   <g id="text_18">
    <g id="patch_16">
     <path d="M 956.628654 16.470469 
C 958.079647 16.470469 959.471406 15.893983 960.497412 14.867977 
C 961.523419 13.84197 962.099904 12.450211 962.099904 10.999219 
C 962.099904 9.548226 961.523419 8.156467 960.497412 7.130461 
C 959.471406 6.104454 958.079647 5.527969 956.628654 5.527969 
C 955.177662 5.527969 953.785903 6.104454 952.759896 7.130461 
C 951.73389 8.156467 951.157404 9.548226 951.157404 10.999219 
C 951.157404 12.450211 951.73389 13.84197 952.759896 14.867977 
C 953.785903 15.893983 955.177662 16.470469 956.628654 16.470469 
z
" style="fill: #ffffff; stroke: #ffd700; stroke-linejoin: miter"/>
    </g>
    <!-- 5 -->
    <g transform="translate(954.083654 13.206719) scale(0.08 -0.08)">
     <defs>
      <path id="DejaVuSans-35" d="M 691 4666 
L 3169 4666 
L 3169 4134 
L 1269 4134 
L 1269 2991 
Q 1406 3038 1543 3061 
Q 1681 3084 1819 3084 
Q 2600 3084 3056 2656 
Q 3513 2228 3513 1497 
Q 3513 744 3044 326 
Q 2575 -91 1722 -91 
Q 1428 -91 1123 -41 
Q 819 9 494 109 
L 494 744 
Q 775 591 1075 516 
Q 1375 441 1709 441 
Q 2250 441 2565 725 
Q 2881 1009 2881 1497 
Q 2881 1984 2565 2268 
Q 2250 2553 1709 2553 
Q 1456 2553 1204 2497 
Q 953 2441 691 2322 
L 691 4666 
z
" transform="scale(0.015625)"/>
     </defs>
     <use xlink:href="#DejaVuSans-35"/>
    </g>
   </g>
   <g id="text_19">
    <g id="patch_17">
     <path d="M 493.36589 -443.803504 
C 494.816882 -443.803504 496.208641 -444.379989 497.234648 -445.405996 
C 498.260654 -446.432002 498.83714 -447.823761 498.83714 -449.274754 
C 498.83714 -450.725746 498.260654 -452.117505 497.234648 -453.143512 
C 496.208641 -454.169518 494.816882 -454.746004 493.36589 -454.746004 
C 491.914897 -454.746004 490.523138 -454.169518 489.497132 -453.143512 
C 488.471125 -452.117505 487.89464 -450.725746 487.89464 -449.274754 
C 487.89464 -447.823761 488.471125 -446.432002 489.497132 -445.405996 
C 490.523138 -444.379989 491.914897 -443.803504 493.36589 -443.803504 
z
" style="fill: #ffffff; stroke: #ffd700; stroke-linejoin: miter"/>
    </g>
    <!-- 6 -->
    <g transform="translate(490.82089 -447.067254) scale(0.08 -0.08)">
     <use xlink:href="#DejaVuSans-36"/>
    </g>
   </g>
   <g id="text_20">
    <g id="patch_18">
     <path d="M 30.103125 16.470469 
C 31.554117 16.470469 32.945876 15.893983 33.971883 14.867977 
C 34.99789 13.84197 35.574375 12.450211 35.574375 10.999219 
C 35.574375 9.548226 34.99789 8.156467 33.971883 7.130461 
C 32.945876 6.104454 31.554117 5.527969 30.103125 5.527969 
C 28.652133 5.527969 27.260374 6.104454 26.234367 7.130461 
C 25.20836 8.156467 24.631875 9.548226 24.631875 10.999219 
C 24.631875 12.450211 25.20836 13.84197 26.234367 14.867977 
C 27.260374 15.893983 28.652133 16.470469 30.103125 16.470469 
z
" style="fill: #ffffff; stroke: #ffd700; stroke-linejoin: miter"/>
    </g>
    <!-- 7 -->
    <g transform="translate(27.558125 13.206719) scale(0.08 -0.08)">
     <defs>
      <path id="DejaVuSans-37" d="M 525 4666 
L 3525 4666 
L 3525 4397 
L 1831 0 
L 1172 0 
L 2766 4134 
L 525 4134 
L 525 4666 
z
" transform="scale(0.015625)"/>
     </defs>
     <use xlink:href="#DejaVuSans-37"/>
    </g>
   </g>
   <g id="text_21">
    <g id="patch_19">
     <path d="M 493.36589 16.470469 
C 494.816882 16.470469 496.208641 15.893983 497.234648 14.867977 
C 498.260654 13.84197 498.83714 12.450211 498.83714 10.999219 
C 498.83714 9.548226 498.260654 8.156467 497.234648 7.130461 
C 496.208641 6.104454 494.816882 5.527969 493.36589 5.527969 
C 491.914897 5.527969 490.523138 6.104454 489.497132 7.130461 
C 488.471125 8.156467 487.89464 9.548226 487.89464 10.999219 
C 487.89464 12.450211 488.471125 13.84197 489.497132 14.867977 
C 490.523138 15.893983 491.914897 16.470469 493.36589 16.470469 
z
" style="fill: #ffffff; stroke: #ffd700; stroke-linejoin: miter"/>
    </g>
    <!-- 8 -->
    <g transform="translate(490.82089 13.206719) scale(0.08 -0.08)">
     <use xlink:href="#DejaVuSans-38"/>
    </g>
   </g>
  </g>
  <g id="patch_20">
   <path d="M 31.597521 471.273191 
L 491.871494 471.273191 
L 491.871494 10.999219 
L 31.597521 10.999219 
z
" style="fill: #ffffff"/>
  </g>
  <g id="pane3d_1">
   <g id="patch_21">
    <path d="M 82.850819 377.066452 
L 222.102037 257.842481 
L 219.670926 30.578062 
L 72.188582 137.033365 
" style="fill: #f2f2f2; opacity: 0.5; stroke: #f2f2f2; stroke-linejoin: miter"/>
   </g>
  </g>
  <g id="pane3d_2">
   <g id="patch_22">
    <path d="M 222.102037 257.842481 
L 446.879924 324.379036 
L 456.823187 89.874674 
L 219.670926 30.578062 
" style="fill: #e6e6e6; opacity: 0.5; stroke: #e6e6e6; stroke-linejoin: miter"/>
   </g>
  </g>
  <g id="pane3d_3">
   <g id="patch_23">
    <path d="M 82.850819 377.066452 
L 320.008021 455.209746 
L 446.879924 324.379036 
L 222.102037 257.842481 
" style="fill: #ececec; opacity: 0.5; stroke: #ececec; stroke-linejoin: miter"/>
   </g>
  </g>
  <g id="axis3d_1">
   <g id="line2d_13">
    <path d="M 82.850819 377.066452 
L 320.008021 455.209746 
" style="fill: none; stroke: #000000; stroke-width: 0.8; stroke-linecap: square"/>
   </g>
   <g id="text_22">
    <!-- x -->
    <g transform="translate(180.888774 456.190178) scale(0.1 -0.1)">
     <defs>
      <path id="DejaVuSans-78" d="M 3513 3500 
L 2247 1797 
L 3578 0 
L 2900 0 
L 1881 1375 
L 863 0 
L 184 0 
L 1544 1831 
L 300 3500 
L 978 3500 
L 1906 2253 
L 2834 3500 
L 3513 3500 
z
" transform="scale(0.015625)"/>
     </defs>
     <use xlink:href="#DejaVuSans-78"/>
    </g>
   </g>
   <g id="Line3DCollection_1">
    <path d="M 97.274091 381.81892 
L 235.820422 261.903263 
L 234.111672 34.188769 
" style="fill: none; stroke: #b0b0b0; stroke-width: 0.8"/>
    <path d="M 122.202797 390.032928 
L 259.516126 268.917434 
L 259.065147 40.428037 
" style="fill: none; stroke: #b0b0b0; stroke-width: 0.8"/>
    <path d="M 147.391502 398.332606 
L 283.44007 275.999166 
L 284.271889 46.730631 
" style="fill: none; stroke: #b0b0b0; stroke-width: 0.8"/>
    <path d="M 172.844296 406.719301 
L 307.59557 283.149442 
L 309.735774 53.09752 
" style="fill: none; stroke: #b0b0b0; stroke-width: 0.8"/>
    <path d="M 198.565352 415.194389 
L 331.986004 290.36926 
L 335.460757 59.529693 
" style="fill: none; stroke: #b0b0b0; stroke-width: 0.8"/>
    <path d="M 224.558935 423.759274 
L 356.614815 297.65964 
L 361.450875 66.028159 
" style="fill: none; stroke: #b0b0b0; stroke-width: 0.8"/>
    <path d="M 250.829399 432.415392 
L 381.485515 305.021621 
L 387.710248 72.593948 
" style="fill: none; stroke: #b0b0b0; stroke-width: 0.8"/>
    <path d="M 277.381192 441.164207 
L 406.601686 312.456265 
L 414.243081 79.228113 
" style="fill: none; stroke: #b0b0b0; stroke-width: 0.8"/>
    <path d="M 304.218857 450.007217 
L 431.966979 319.964651 
L 441.053669 85.931726 
" style="fill: none; stroke: #b0b0b0; stroke-width: 0.8"/>
   </g>
   <g id="xtick_7">
    <g id="line2d_14">
     <path d="M 98.472499 380.781665 
L 94.872557 383.897514 
" style="fill: none; stroke: #000000; stroke-width: 0.8; stroke-linecap: square"/>
    </g>
    <g id="text_23">
     <!-- 0.00 -->
     <g transform="translate(79.388839 406.571648) scale(0.1 -0.1)">
      <use xlink:href="#DejaVuSans-30"/>
      <use xlink:href="#DejaVuSans-2e" x="63.623047"/>
      <use xlink:href="#DejaVuSans-30" x="95.410156"/>
      <use xlink:href="#DejaVuSans-30" x="159.033203"/>
     </g>
    </g>
   </g>
   <g id="xtick_8">
    <g id="line2d_15">
     <path d="M 123.391002 388.984887 
L 119.821684 392.133159 
" style="fill: none; stroke: #000000; stroke-width: 0.8; stroke-linecap: square"/>
    </g>
    <g id="text_24">
     <!-- 0.25 -->
     <g transform="translate(104.315345 414.8856) scale(0.1 -0.1)">
      <use xlink:href="#DejaVuSans-30"/>
      <use xlink:href="#DejaVuSans-2e" x="63.623047"/>
      <use xlink:href="#DejaVuSans-32" x="95.410156"/>
      <use xlink:href="#DejaVuSans-35" x="159.033203"/>
     </g>
    </g>
   </g>
   <g id="xtick_9">
    <g id="line2d_16">
     <path d="M 148.569226 397.273609 
L 145.031368 400.454814 
" style="fill: none; stroke: #000000; stroke-width: 0.8; stroke-linecap: square"/>
    </g>
    <g id="text_25">
     <!-- 0.50 -->
     <g transform="translate(129.502172 423.286378) scale(0.1 -0.1)">
      <use xlink:href="#DejaVuSans-30"/>
      <use xlink:href="#DejaVuSans-2e" x="63.623047"/>
      <use xlink:href="#DejaVuSans-35" x="95.410156"/>
      <use xlink:href="#DejaVuSans-30" x="159.033203"/>
     </g>
    </g>
   </g>
   <g id="xtick_10">
    <g id="line2d_17">
     <path d="M 174.011253 405.649176 
L 170.505713 408.863832 
" style="fill: none; stroke: #000000; stroke-width: 0.8; stroke-linecap: square"/>
    </g>
    <g id="text_26">
     <!-- 0.75 -->
     <g transform="translate(154.95342 431.775351) scale(0.1 -0.1)">
      <use xlink:href="#DejaVuSans-30"/>
      <use xlink:href="#DejaVuSans-2e" x="63.623047"/>
      <use xlink:href="#DejaVuSans-37" x="95.410156"/>
      <use xlink:href="#DejaVuSans-35" x="159.033203"/>
     </g>
    </g>
   </g>
   <g id="xtick_11">
    <g id="line2d_18">
     <path d="M 199.72125 414.112959 
L 196.248908 417.361597 
" style="fill: none; stroke: #000000; stroke-width: 0.8; stroke-linecap: square"/>
    </g>
    <g id="text_27">
     <!-- 1.00 -->
     <g transform="translate(180.673273 440.353915) scale(0.1 -0.1)">
      <use xlink:href="#DejaVuSans-31"/>
      <use xlink:href="#DejaVuSans-2e" x="63.623047"/>
      <use xlink:href="#DejaVuSans-30" x="95.410156"/>
      <use xlink:href="#DejaVuSans-30" x="159.033203"/>
     </g>
    </g>
   </g>
   <g id="xtick_12">
    <g id="line2d_19">
     <path d="M 225.703473 422.666359 
L 222.265233 425.949521 
" style="fill: none; stroke: #000000; stroke-width: 0.8; stroke-linecap: square"/>
    </g>
    <g id="text_28">
     <!-- 1.25 -->
     <g transform="translate(206.666008 449.023495) scale(0.1 -0.1)">
      <use xlink:href="#DejaVuSans-31"/>
      <use xlink:href="#DejaVuSans-2e" x="63.623047"/>
      <use xlink:href="#DejaVuSans-32" x="95.410156"/>
      <use xlink:href="#DejaVuSans-35" x="159.033203"/>
     </g>
    </g>
   </g>
   <g id="xtick_13">
    <g id="line2d_20">
     <path d="M 251.962269 431.310808 
L 248.559055 434.629047 
" style="fill: none; stroke: #000000; stroke-width: 0.8; stroke-linecap: square"/>
    </g>
    <g id="text_29">
     <!-- 1.50 -->
     <g transform="translate(232.93599 457.785547) scale(0.1 -0.1)">
      <use xlink:href="#DejaVuSans-31"/>
      <use xlink:href="#DejaVuSans-2e" x="63.623047"/>
      <use xlink:href="#DejaVuSans-35" x="95.410156"/>
      <use xlink:href="#DejaVuSans-30" x="159.033203"/>
     </g>
    </g>
   </g>
   <g id="xtick_14">
    <g id="line2d_21">
     <path d="M 278.502078 440.047767 
L 275.134841 443.401648 
" style="fill: none; stroke: #000000; stroke-width: 0.8; stroke-linecap: square"/>
    </g>
    <g id="text_30">
     <!-- 1.75 -->
     <g transform="translate(259.487678 466.64156) scale(0.1 -0.1)">
      <use xlink:href="#DejaVuSans-31"/>
      <use xlink:href="#DejaVuSans-2e" x="63.623047"/>
      <use xlink:href="#DejaVuSans-37" x="95.410156"/>
      <use xlink:href="#DejaVuSans-35" x="159.033203"/>
     </g>
    </g>
   </g>
   <g id="xtick_15">
    <g id="line2d_22">
     <path d="M 305.327435 448.878729 
L 301.997148 452.26883 
" style="fill: none; stroke: #000000; stroke-width: 0.8; stroke-linecap: square"/>
    </g>
    <g id="text_31">
     <!-- 2.00 -->
     <g transform="translate(286.325628 475.593052) scale(0.1 -0.1)">
      <use xlink:href="#DejaVuSans-32"/>
      <use xlink:href="#DejaVuSans-2e" x="63.623047"/>
      <use xlink:href="#DejaVuSans-30" x="95.410156"/>
      <use xlink:href="#DejaVuSans-30" x="159.033203"/>
     </g>
    </g>
   </g>
  </g>
  <g id="axis3d_2">
   <g id="line2d_23">
    <path d="M 446.879924 324.379036 
L 320.008021 455.209746 
" style="fill: none; stroke: #000000; stroke-width: 0.8; stroke-linecap: square"/>
   </g>
   <g id="text_32">
    <!-- y -->
    <g transform="translate(407.614818 421.466209) scale(0.1 -0.1)">
     <defs>
      <path id="DejaVuSans-79" d="M 2059 -325 
Q 1816 -950 1584 -1140 
Q 1353 -1331 966 -1331 
L 506 -1331 
L 506 -850 
L 844 -850 
Q 1081 -850 1212 -737 
Q 1344 -625 1503 -206 
L 1606 56 
L 191 3500 
L 800 3500 
L 1894 763 
L 2988 3500 
L 3597 3500 
L 2059 -325 
z
" transform="scale(0.015625)"/>
     </defs>
     <use xlink:href="#DejaVuSans-79"/>
    </g>
   </g>
   <g id="Line3DCollection_2">
    <path d="M 82.328972 129.713856 
L 92.386632 368.902089 
L 328.726359 446.219369 
" style="fill: none; stroke: #b0b0b0; stroke-width: 0.8"/>
    <path d="M 99.456881 117.350635 
L 108.506274 355.10079 
L 343.453969 431.03221 
" style="fill: none; stroke: #b0b0b0; stroke-width: 0.8"/>
    <path d="M 116.26958 105.214939 
L 124.345054 341.539959 
L 357.912569 416.122456 
" style="fill: none; stroke: #b0b0b0; stroke-width: 0.8"/>
    <path d="M 132.775692 93.300542 
L 139.910251 328.213364 
L 372.109464 401.482573 
" style="fill: none; stroke: #b0b0b0; stroke-width: 0.8"/>
    <path d="M 148.983527 81.601447 
L 155.208891 315.114989 
L 386.051695 387.1053 
" style="fill: none; stroke: #b0b0b0; stroke-width: 0.8"/>
    <path d="M 164.901097 70.11187 
L 170.247765 302.239021 
L 399.746052 372.983635 
" style="fill: none; stroke: #b0b0b0; stroke-width: 0.8"/>
    <path d="M 180.536131 58.826233 
L 185.033432 289.579843 
L 413.199089 359.11082 
" style="fill: none; stroke: #b0b0b0; stroke-width: 0.8"/>
    <path d="M 195.896085 47.739152 
L 199.572234 277.132025 
L 426.417129 345.480336 
" style="fill: none; stroke: #b0b0b0; stroke-width: 0.8"/>
    <path d="M 210.988156 36.845435 
L 213.870303 264.890319 
L 439.406274 332.085887 
" style="fill: none; stroke: #b0b0b0; stroke-width: 0.8"/>
   </g>
   <g id="xtick_16">
    <g id="line2d_24">
     <path d="M 326.743335 445.570633 
L 332.697096 447.518374 
" style="fill: none; stroke: #000000; stroke-width: 0.8; stroke-linecap: square"/>
    </g>
    <g id="text_33">
     <!-- 0.00 -->
     <g transform="translate(329.31927 468.879882) scale(0.1 -0.1)">
      <use xlink:href="#DejaVuSans-30"/>
      <use xlink:href="#DejaVuSans-2e" x="63.623047"/>
      <use xlink:href="#DejaVuSans-30" x="95.410156"/>
      <use xlink:href="#DejaVuSans-30" x="159.033203"/>
     </g>
    </g>
   </g>
   <g id="xtick_17">
    <g id="line2d_25">
     <path d="M 341.483471 430.395376 
L 347.399583 432.307371 
" style="fill: none; stroke: #000000; stroke-width: 0.8; stroke-linecap: square"/>
    </g>
    <g id="text_34">
     <!-- 0.25 -->
     <g transform="translate(343.933513 453.559442) scale(0.1 -0.1)">
      <use xlink:href="#DejaVuSans-30"/>
      <use xlink:href="#DejaVuSans-2e" x="63.623047"/>
      <use xlink:href="#DejaVuSans-32" x="95.410156"/>
      <use xlink:href="#DejaVuSans-35" x="159.033203"/>
     </g>
    </g>
   </g>
   <g id="xtick_18">
    <g id="line2d_26">
     <path d="M 355.954472 415.497198 
L 361.833311 417.374422 
" style="fill: none; stroke: #000000; stroke-width: 0.8; stroke-linecap: square"/>
    </g>
    <g id="text_35">
     <!-- 0.50 -->
     <g transform="translate(358.280914 438.518741) scale(0.1 -0.1)">
      <use xlink:href="#DejaVuSans-30"/>
      <use xlink:href="#DejaVuSans-2e" x="63.623047"/>
      <use xlink:href="#DejaVuSans-35" x="95.410156"/>
      <use xlink:href="#DejaVuSans-30" x="159.033203"/>
     </g>
    </g>
   </g>
   <g id="xtick_19">
    <g id="line2d_27">
     <path d="M 370.163643 400.868579 
L 376.005583 402.711972 
" style="fill: none; stroke: #000000; stroke-width: 0.8; stroke-linecap: square"/>
    </g>
    <g id="text_36">
     <!-- 0.75 -->
     <g transform="translate(372.368713 423.750184) scale(0.1 -0.1)">
      <use xlink:href="#DejaVuSans-30"/>
      <use xlink:href="#DejaVuSans-2e" x="63.623047"/>
      <use xlink:href="#DejaVuSans-37" x="95.410156"/>
      <use xlink:href="#DejaVuSans-35" x="159.033203"/>
     </g>
    </g>
   </g>
   <g id="xtick_20">
    <g id="line2d_28">
     <path d="M 384.118026 386.502269 
L 389.92344 388.312737 
" style="fill: none; stroke: #000000; stroke-width: 0.8; stroke-linecap: square"/>
    </g>
    <g id="text_37">
     <!-- 1.00 -->
     <g transform="translate(386.203895 409.246453) scale(0.1 -0.1)">
      <use xlink:href="#DejaVuSans-31"/>
      <use xlink:href="#DejaVuSans-2e" x="63.623047"/>
      <use xlink:href="#DejaVuSans-30" x="95.410156"/>
      <use xlink:href="#DejaVuSans-30" x="159.033203"/>
     </g>
    </g>
   </g>
   <g id="xtick_21">
    <g id="line2d_29">
     <path d="M 397.824415 372.391275 
L 403.593671 374.169693 
" style="fill: none; stroke: #000000; stroke-width: 0.8; stroke-linecap: square"/>
    </g>
    <g id="text_38">
     <!-- 1.25 -->
     <g transform="translate(399.793192 395.000487) scale(0.1 -0.1)">
      <use xlink:href="#DejaVuSans-31"/>
      <use xlink:href="#DejaVuSans-2e" x="63.623047"/>
      <use xlink:href="#DejaVuSans-32" x="95.410156"/>
      <use xlink:href="#DejaVuSans-35" x="159.033203"/>
     </g>
    </g>
   </g>
   <g id="xtick_22">
    <g id="line2d_30">
     <path d="M 411.28936 358.528851 
L 417.022826 360.276062 
" style="fill: none; stroke: #000000; stroke-width: 0.8; stroke-linecap: square"/>
    </g>
    <g id="text_39">
     <!-- 1.50 -->
     <g transform="translate(413.143103 381.005475) scale(0.1 -0.1)">
      <use xlink:href="#DejaVuSans-31"/>
      <use xlink:href="#DejaVuSans-2e" x="63.623047"/>
      <use xlink:href="#DejaVuSans-35" x="95.410156"/>
      <use xlink:href="#DejaVuSans-30" x="159.033203"/>
     </g>
    </g>
   </g>
   <g id="xtick_23">
    <g id="line2d_31">
     <path d="M 424.519187 344.908486 
L 430.217227 346.625304 
" style="fill: none; stroke: #000000; stroke-width: 0.8; stroke-linecap: square"/>
    </g>
    <g id="text_40">
     <!-- 1.75 -->
     <g transform="translate(426.259898 367.254845) scale(0.1 -0.1)">
      <use xlink:href="#DejaVuSans-31"/>
      <use xlink:href="#DejaVuSans-2e" x="63.623047"/>
      <use xlink:href="#DejaVuSans-37" x="95.410156"/>
      <use xlink:href="#DejaVuSans-35" x="159.033203"/>
     </g>
    </g>
   </g>
   <g id="xtick_24">
    <g id="line2d_32">
     <path d="M 437.52 331.523896 
L 443.182976 333.211107 
" style="fill: none; stroke: #000000; stroke-width: 0.8; stroke-linecap: square"/>
    </g>
    <g id="text_41">
     <!-- 2.00 -->
     <g transform="translate(439.14963 353.742249) scale(0.1 -0.1)">
      <use xlink:href="#DejaVuSans-32"/>
      <use xlink:href="#DejaVuSans-2e" x="63.623047"/>
      <use xlink:href="#DejaVuSans-30" x="95.410156"/>
      <use xlink:href="#DejaVuSans-30" x="159.033203"/>
     </g>
    </g>
   </g>
  </g>
  <g id="axis3d_3">
   <g id="line2d_33">
    <path d="M 446.879924 324.379036 
L 456.823187 89.874674 
" style="fill: none; stroke: #000000; stroke-width: 0.8; stroke-linecap: square"/>
   </g>
   <g id="text_42">
    <!-- z -->
    <g transform="translate(486.629484 208.02718) scale(0.1 -0.1)">
     <defs>
      <path id="DejaVuSans-7a" d="M 353 3500 
L 3084 3500 
L 3084 2975 
L 922 459 
L 3084 459 
L 3084 0 
L 275 0 
L 275 525 
L 2438 3041 
L 353 3041 
L 353 3500 
z
" transform="scale(0.015625)"/>
     </defs>
     <use xlink:href="#DejaVuSans-7a"/>
    </g>
   </g>
   <g id="Line3DCollection_3">
    <path d="M 447.48138 310.194151 
L 221.954647 244.064239 
L 82.207036 362.573319 
" style="fill: none; stroke: #b0b0b0; stroke-width: 0.8"/>
    <path d="M 448.52191 285.654051 
L 221.699762 220.237173 
L 81.092927 337.491998 
" style="fill: none; stroke: #b0b0b0; stroke-width: 0.8"/>
    <path d="M 449.574571 260.827826 
L 221.442037 196.144585 
L 79.965373 312.107986 
" style="fill: none; stroke: #b0b0b0; stroke-width: 0.8"/>
    <path d="M 450.639578 235.710443 
L 221.181424 171.78201 
L 78.824128 286.415772 
" style="fill: none; stroke: #b0b0b0; stroke-width: 0.8"/>
    <path d="M 451.717148 210.29675 
L 220.917874 147.144885 
L 77.668942 260.409707 
" style="fill: none; stroke: #b0b0b0; stroke-width: 0.8"/>
    <path d="M 452.807506 184.581472 
L 220.651337 122.228544 
L 76.499558 234.084007 
" style="fill: none; stroke: #b0b0b0; stroke-width: 0.8"/>
    <path d="M 453.910881 158.559208 
L 220.381762 97.028211 
L 75.315713 207.43274 
" style="fill: none; stroke: #b0b0b0; stroke-width: 0.8"/>
    <path d="M 455.027507 132.224429 
L 220.109097 71.539004 
L 74.117136 180.449831 
" style="fill: none; stroke: #b0b0b0; stroke-width: 0.8"/>
    <path d="M 456.157624 105.571471 
L 219.833288 45.755928 
L 72.90355 153.129051 
" style="fill: none; stroke: #b0b0b0; stroke-width: 0.8"/>
   </g>
   <g id="xtick_25">
    <g id="line2d_34">
     <path d="M 445.59532 309.641112 
L 451.257645 311.301443 
" style="fill: none; stroke: #000000; stroke-width: 0.8; stroke-linecap: square"/>
    </g>
    <g id="text_43">
     <!-- −1.00 -->
     <g transform="translate(449.067479 315.367927) scale(0.1 -0.1)">
      <defs>
       <path id="DejaVuSans-2212" d="M 678 2272 
L 4684 2272 
L 4684 1741 
L 678 1741 
L 678 2272 
z
" transform="scale(0.015625)"/>
      </defs>
      <use xlink:href="#DejaVuSans-2212"/>
      <use xlink:href="#DejaVuSans-31" x="83.789062"/>
      <use xlink:href="#DejaVuSans-2e" x="147.412109"/>
      <use xlink:href="#DejaVuSans-30" x="179.199219"/>
      <use xlink:href="#DejaVuSans-30" x="242.822266"/>
     </g>
    </g>
   </g>
   <g id="xtick_26">
    <g id="line2d_35">
     <path d="M 446.624539 285.106838 
L 452.320844 286.749687 
" style="fill: none; stroke: #000000; stroke-width: 0.8; stroke-linecap: square"/>
    </g>
    <g id="text_44">
     <!-- −0.75 -->
     <g transform="translate(450.204174 290.853385) scale(0.1 -0.1)">
      <use xlink:href="#DejaVuSans-2212"/>
      <use xlink:href="#DejaVuSans-30" x="83.789062"/>
      <use xlink:href="#DejaVuSans-2e" x="147.412109"/>
      <use xlink:href="#DejaVuSans-37" x="179.199219"/>
      <use xlink:href="#DejaVuSans-35" x="242.822266"/>
     </g>
    </g>
   </g>
   <g id="xtick_27">
    <g id="line2d_36">
     <path d="M 447.665754 260.286612 
L 453.396448 261.911457 
" style="fill: none; stroke: #000000; stroke-width: 0.8; stroke-linecap: square"/>
    </g>
    <g id="text_45">
     <!-- −0.50 -->
     <g transform="translate(451.354101 266.05348) scale(0.1 -0.1)">
      <use xlink:href="#DejaVuSans-2212"/>
      <use xlink:href="#DejaVuSans-30" x="83.789062"/>
      <use xlink:href="#DejaVuSans-2e" x="147.412109"/>
      <use xlink:href="#DejaVuSans-35" x="179.199219"/>
      <use xlink:href="#DejaVuSans-30" x="242.822266"/>
     </g>
    </g>
   </g>
   <g id="xtick_28">
    <g id="line2d_37">
     <path d="M 448.719175 235.175408 
L 454.484677 236.781711 
" style="fill: none; stroke: #000000; stroke-width: 0.8; stroke-linecap: square"/>
    </g>
    <g id="text_46">
     <!-- −0.25 -->
     <g transform="translate(452.517491 240.9632) scale(0.1 -0.1)">
      <use xlink:href="#DejaVuSans-2212"/>
      <use xlink:href="#DejaVuSans-30" x="83.789062"/>
      <use xlink:href="#DejaVuSans-2e" x="147.412109"/>
      <use xlink:href="#DejaVuSans-32" x="179.199219"/>
      <use xlink:href="#DejaVuSans-35" x="242.822266"/>
     </g>
    </g>
   </g>
   <g id="xtick_29">
    <g id="line2d_38">
     <path d="M 449.785019 209.768076 
L 455.585753 211.355287 
" style="fill: none; stroke: #000000; stroke-width: 0.8; stroke-linecap: square"/>
    </g>
    <g id="text_47">
     <!-- 0.00 -->
     <g transform="translate(457.884428 215.577415) scale(0.1 -0.1)">
      <use xlink:href="#DejaVuSans-30"/>
      <use xlink:href="#DejaVuSans-2e" x="63.623047"/>
      <use xlink:href="#DejaVuSans-30" x="95.410156"/>
      <use xlink:href="#DejaVuSans-30" x="159.033203"/>
     </g>
    </g>
   </g>
   <g id="xtick_30">
    <g id="line2d_39">
     <path d="M 450.863507 184.059349 
L 456.699905 185.626899 
" style="fill: none; stroke: #000000; stroke-width: 0.8; stroke-linecap: square"/>
    </g>
    <g id="text_48">
     <!-- 0.25 -->
     <g transform="translate(459.075466 189.890874) scale(0.1 -0.1)">
      <use xlink:href="#DejaVuSans-30"/>
      <use xlink:href="#DejaVuSans-2e" x="63.623047"/>
      <use xlink:href="#DejaVuSans-32" x="95.410156"/>
      <use xlink:href="#DejaVuSans-35" x="159.033203"/>
     </g>
    </g>
   </g>
   <g id="xtick_31">
    <g id="line2d_40">
     <path d="M 451.954864 158.043831 
L 457.827368 159.591137 
" style="fill: none; stroke: #000000; stroke-width: 0.8; stroke-linecap: square"/>
    </g>
    <g id="text_49">
     <!-- 0.50 -->
     <g transform="translate(460.280699 163.8982) scale(0.1 -0.1)">
      <use xlink:href="#DejaVuSans-30"/>
      <use xlink:href="#DejaVuSans-2e" x="63.623047"/>
      <use xlink:href="#DejaVuSans-35" x="95.410156"/>
      <use xlink:href="#DejaVuSans-30" x="159.033203"/>
     </g>
    </g>
   </g>
   <g id="xtick_32">
    <g id="line2d_41">
     <path d="M 453.059323 131.715997 
L 458.968382 133.242458 
" style="fill: none; stroke: #000000; stroke-width: 0.8; stroke-linecap: square"/>
    </g>
    <g id="text_50">
     <!-- 0.75 -->
     <g transform="translate(461.500383 137.593887) scale(0.1 -0.1)">
      <use xlink:href="#DejaVuSans-30"/>
      <use xlink:href="#DejaVuSans-2e" x="63.623047"/>
      <use xlink:href="#DejaVuSans-37" x="95.410156"/>
      <use xlink:href="#DejaVuSans-35" x="159.033203"/>
     </g>
    </g>
   </g>
   <g id="xtick_33">
    <g id="line2d_42">
     <path d="M 454.177121 105.07019 
L 460.123192 106.575187 
" style="fill: none; stroke: #000000; stroke-width: 0.8; stroke-linecap: square"/>
    </g>
    <g id="text_51">
     <!-- 1.00 -->
     <g transform="translate(462.734778 110.972298) scale(0.1 -0.1)">
      <use xlink:href="#DejaVuSans-31"/>
      <use xlink:href="#DejaVuSans-2e" x="63.623047"/>
      <use xlink:href="#DejaVuSans-30" x="95.410156"/>
      <use xlink:href="#DejaVuSans-30" x="159.033203"/>
     </g>
    </g>
   </g>
  </g>
  <g id="axes_2">
   <g id="Poly3DCollection_1">
    <path d="M 267.954426 234.916287 
L 325.603464 184.990755 
L 226.582601 157.715411 
z
" clip-path="url(#p6c06e4172a)" style="fill: #185b8a; stroke: #427ce5"/>
    <path d="M 166.614692 205.662025 
L 267.954426 234.916287 
L 226.582601 157.715411 
z
" clip-path="url(#p6c06e4172a)" style="fill: #185b8a; stroke: #427ce5"/>
    <path d="M 373.597195 265.412727 
L 428.679768 213.383174 
L 325.603464 184.990755 
z
" clip-path="url(#p6c06e4172a)" style="fill: #185b8a; stroke: #427ce5"/>
    <path d="M 267.954426 234.916287 
L 373.597195 265.412727 
L 325.603464 184.990755 
z
" clip-path="url(#p6c06e4172a)" style="fill: #185b8a; stroke: #427ce5"/>
    <path d="M 205.998629 288.57158 
L 267.954426 234.916287 
L 166.614692 205.662025 
z
" clip-path="url(#p6c06e4172a)" style="fill: #185b8a; stroke: #427ce5"/>
    <path d="M 102.261364 257.114948 
L 205.998629 288.57158 
L 166.614692 205.662025 
z
" clip-path="url(#p6c06e4172a)" style="fill: #185b8a; stroke: #427ce5"/>
    <path d="M 314.308893 321.414901 
L 373.597195 265.412727 
L 267.954426 234.916287 
z
" clip-path="url(#p6c06e4172a)" style="fill: #185b8a; stroke: #427ce5"/>
    <path d="M 205.998629 288.57158 
L 314.308893 321.414901 
L 267.954426 234.916287 
z
" clip-path="url(#p6c06e4172a)" style="fill: #185b8a; stroke: #427ce5"/>
   </g>
  </g>
 </g>
 <defs>
  <clipPath id="p69920bfe7c">
   <rect x="30.103125" y="10.999219" width="463.262765" height="460.273973"/>
  </clipPath>
  <clipPath id="p6c06e4172a">
   <rect x="31.597521" y="10.999219" width="460.273973" height="460.273973"/>
  </clipPath>
 </defs>
</svg>
