<?xml version="1.0" encoding="utf-8" standalone="no"?>
<!DOCTYPE svg PUBLIC "-//W3C//DTD SVG 1.1//EN"
  "http://www.w3.org/Graphics/SVG/1.1/DTD/svg11.dtd">
<svg xmlns:xlink="http://www.w3.org/1999/xlink" width="515.974811pt" height="272.135125pt" viewBox="0 0 515.974811 272.135125" xmlns="http://www.w3.org/2000/svg" version="1.1">
 <metadata>
  <rdf:RDF xmlns:dc="http://purl.org/dc/elements/1.1/" xmlns:cc="http://creativecommons.org/ns#" xmlns:rdf="http://www.w3.org/1999/02/22-rdf-syntax-ns#">
   <cc:Work>
    <dc:type rdf:resource="http://purl.org/dc/dcmitype/StillImage"/>
    <dc:date>2025-01-21T21:08:09.284710</dc:date>
    <dc:format>image/svg+xml</dc:format>
    <dc:creator>
     <cc:Agent>
      <dc:title>Matplotlib v3.6.3, https://matplotlib.org/</dc:title>
     </cc:Agent>
    </dc:creator>
   </cc:Work>
  </rdf:RDF>
 </metadata>
 <defs>
  <style type="text/css">*{stroke-linejoin: round; stroke-linecap: butt}</style>
 </defs>
 <g id="figure_1">
  <g id="patch_1">
   <path d="M 0 272.135125 
L 515.974811 272.135125 
L 515.974811 0 
L 0 0 
z
" style="fill: #ffffff"/>
  </g>
  <g id="patch_2">
   <path d="M 18 243.692109 
L 228.573984 243.692109 
L 228.573984 33.118125 
L 18 33.118125 
z
" style="fill: #ffffff"/>
  </g>
  <g id="pane3d_1">
   <g id="patch_3">
    <path d="M 33.899788 191.771313 
L 103.438195 133.482842 
L 102.471544 49.420446 
L 29.605366 102.594864 
" style="fill: #f2f2f2; opacity: 0.5; stroke: #f2f2f2; stroke-linejoin: miter"/>
   </g>
  </g>
  <g id="pane3d_2">
   <g id="patch_4">
    <path d="M 103.438195 133.482842 
L 215.022526 165.916001 
L 219.004577 78.958173 
L 102.471544 49.420446 
" style="fill: #e6e6e6; opacity: 0.5; stroke: #e6e6e6; stroke-linejoin: miter"/>
   </g>
  </g>
  <g id="pane3d_3">
   <g id="patch_5">
    <path d="M 33.899788 191.771313 
L 152.184629 230.403142 
L 215.022526 165.916001 
L 103.438195 133.482842 
" style="fill: #ececec; opacity: 0.5; stroke: #ececec; stroke-linejoin: miter"/>
   </g>
  </g>
  <g id="axis3d_1">
   <g id="line2d_1">
    <path d="M 33.899788 191.771313 
L 152.184629 230.403142 
" style="fill: none; stroke: #000000; stroke-width: 0.8; stroke-linecap: square"/>
   </g>
   <g id="text_1">
    <!-- r -->
    <g transform="translate(73.100351 248.686835) scale(0.1 -0.1)">
     <defs>
      <path id="DejaVuSans-72" d="M 2631 2963 
Q 2534 3019 2420 3045 
Q 2306 3072 2169 3072 
Q 1681 3072 1420 2755 
Q 1159 2438 1159 1844 
L 1159 0 
L 581 0 
L 581 3500 
L 1159 3500 
L 1159 2956 
Q 1341 3275 1631 3429 
Q 1922 3584 2338 3584 
Q 2397 3584 2469 3576 
Q 2541 3569 2628 3553 
L 2631 2963 
z
" transform="scale(0.015625)"/>
     </defs>
     <use xlink:href="#DejaVuSans-72"/>
    </g>
   </g>
   <g id="Line3DCollection_1">
    <path d="M 41.063739 194.111059 
L 110.224412 135.455327 
L 109.544688 51.213282 
" style="fill: none; stroke: #b0b0b0; stroke-width: 0.8"/>
    <path d="M 65.986677 202.250891 
L 133.804936 142.309254 
L 134.136327 57.446546 
" style="fill: none; stroke: #b0b0b0; stroke-width: 0.8"/>
    <path d="M 91.483035 210.578001 
L 157.882593 149.307679 
L 159.269057 63.81696 
" style="fill: none; stroke: #b0b0b0; stroke-width: 0.8"/>
    <path d="M 117.572834 219.098929 
L 182.473274 156.455219 
L 184.960934 70.329102 
" style="fill: none; stroke: #b0b0b0; stroke-width: 0.8"/>
    <path d="M 144.277036 227.820522 
L 207.59355 163.756691 
L 211.230828 76.987754 
" style="fill: none; stroke: #b0b0b0; stroke-width: 0.8"/>
   </g>
   <g id="xtick_1">
    <g id="line2d_2">
     <path d="M 41.665986 193.600288 
L 39.85666 195.134792 
" style="fill: none; stroke: #000000; stroke-width: 0.8; stroke-linecap: square"/>
    </g>
    <g id="text_2">
     <!-- −1.0 -->
     <g transform="translate(21.385894 217.435626) scale(0.1 -0.1)">
      <defs>
       <path id="DejaVuSans-2212" d="M 678 2272 
L 4684 2272 
L 4684 1741 
L 678 1741 
L 678 2272 
z
" transform="scale(0.015625)"/>
       <path id="DejaVuSans-31" d="M 794 531 
L 1825 531 
L 1825 4091 
L 703 3866 
L 703 4441 
L 1819 4666 
L 2450 4666 
L 2450 531 
L 3481 531 
L 3481 0 
L 794 0 
L 794 531 
z
" transform="scale(0.015625)"/>
       <path id="DejaVuSans-2e" d="M 684 794 
L 1344 794 
L 1344 0 
L 684 0 
L 684 794 
z
" transform="scale(0.015625)"/>
       <path id="DejaVuSans-30" d="M 2034 4250 
Q 1547 4250 1301 3770 
Q 1056 3291 1056 2328 
Q 1056 1369 1301 889 
Q 1547 409 2034 409 
Q 2525 409 2770 889 
Q 3016 1369 3016 2328 
Q 3016 3291 2770 3770 
Q 2525 4250 2034 4250 
z
M 2034 4750 
Q 2819 4750 3233 4129 
Q 3647 3509 3647 2328 
Q 3647 1150 3233 529 
Q 2819 -91 2034 -91 
Q 1250 -91 836 529 
Q 422 1150 422 2328 
Q 422 3509 836 4129 
Q 1250 4750 2034 4750 
z
" transform="scale(0.015625)"/>
      </defs>
      <use xlink:href="#DejaVuSans-2212"/>
      <use xlink:href="#DejaVuSans-31" x="83.789062"/>
      <use xlink:href="#DejaVuSans-2e" x="147.412109"/>
      <use xlink:href="#DejaVuSans-30" x="179.199219"/>
     </g>
    </g>
   </g>
   <g id="xtick_2">
    <g id="line2d_3">
     <path d="M 66.57778 201.72844 
L 64.801905 203.298059 
" style="fill: none; stroke: #000000; stroke-width: 0.8; stroke-linecap: square"/>
    </g>
    <g id="text_3">
     <!-- −0.5 -->
     <g transform="translate(46.341246 225.793875) scale(0.1 -0.1)">
      <defs>
       <path id="DejaVuSans-35" d="M 691 4666 
L 3169 4666 
L 3169 4134 
L 1269 4134 
L 1269 2991 
Q 1406 3038 1543 3061 
Q 1681 3084 1819 3084 
Q 2600 3084 3056 2656 
Q 3513 2228 3513 1497 
Q 3513 744 3044 326 
Q 2575 -91 1722 -91 
Q 1428 -91 1123 -41 
Q 819 9 494 109 
L 494 744 
Q 775 591 1075 516 
Q 1375 441 1709 441 
Q 2250 441 2565 725 
Q 2881 1009 2881 1497 
Q 2881 1984 2565 2268 
Q 2250 2553 1709 2553 
Q 1456 2553 1204 2497 
Q 953 2441 691 2322 
L 691 4666 
z
" transform="scale(0.015625)"/>
      </defs>
      <use xlink:href="#DejaVuSans-2212"/>
      <use xlink:href="#DejaVuSans-30" x="83.789062"/>
      <use xlink:href="#DejaVuSans-2e" x="147.412109"/>
      <use xlink:href="#DejaVuSans-35" x="179.199219"/>
     </g>
    </g>
   </g>
   <g id="xtick_3">
    <g id="line2d_4">
     <path d="M 92.06232 210.043466 
L 90.321924 211.649419 
" style="fill: none; stroke: #000000; stroke-width: 0.8; stroke-linecap: square"/>
    </g>
    <g id="text_4">
     <!-- 0.0 -->
     <g transform="translate(76.063371 234.345354) scale(0.1 -0.1)">
      <use xlink:href="#DejaVuSans-30"/>
      <use xlink:href="#DejaVuSans-2e" x="63.623047"/>
      <use xlink:href="#DejaVuSans-30" x="95.410156"/>
     </g>
    </g>
   </g>
   <g id="xtick_4">
    <g id="line2d_5">
     <path d="M 118.139586 218.551884 
L 116.436812 220.195449 
" style="fill: none; stroke: #000000; stroke-width: 0.8; stroke-linecap: square"/>
    </g>
    <g id="text_5">
     <!-- 0.5 -->
     <g transform="translate(102.19282 243.096841) scale(0.1 -0.1)">
      <use xlink:href="#DejaVuSans-30"/>
      <use xlink:href="#DejaVuSans-2e" x="63.623047"/>
      <use xlink:href="#DejaVuSans-35" x="95.410156"/>
     </g>
    </g>
   </g>
   <g id="xtick_5">
    <g id="line2d_6">
     <path d="M 144.830502 227.260523 
L 143.167616 228.943036 
" style="fill: none; stroke: #000000; stroke-width: 0.8; stroke-linecap: square"/>
    </g>
    <g id="text_6">
     <!-- 1.0 -->
     <g transform="translate(128.940637 252.055437) scale(0.1 -0.1)">
      <use xlink:href="#DejaVuSans-31"/>
      <use xlink:href="#DejaVuSans-2e" x="63.623047"/>
      <use xlink:href="#DejaVuSans-30" x="95.410156"/>
     </g>
    </g>
   </g>
  </g>
  <g id="axis3d_2">
   <g id="line2d_7">
    <path d="M 215.022526 165.916001 
L 152.184629 230.403142 
" style="fill: none; stroke: #000000; stroke-width: 0.8; stroke-linecap: square"/>
   </g>
   <g id="text_7">
    <!-- s -->
    <g transform="translate(209.384522 227.496037) scale(0.1 -0.1)">
     <defs>
      <path id="DejaVuSans-73" d="M 2834 3397 
L 2834 2853 
Q 2591 2978 2328 3040 
Q 2066 3103 1784 3103 
Q 1356 3103 1142 2972 
Q 928 2841 928 2578 
Q 928 2378 1081 2264 
Q 1234 2150 1697 2047 
L 1894 2003 
Q 2506 1872 2764 1633 
Q 3022 1394 3022 966 
Q 3022 478 2636 193 
Q 2250 -91 1575 -91 
Q 1294 -91 989 -36 
Q 684 19 347 128 
L 347 722 
Q 666 556 975 473 
Q 1284 391 1588 391 
Q 1994 391 2212 530 
Q 2431 669 2431 922 
Q 2431 1156 2273 1281 
Q 2116 1406 1581 1522 
L 1381 1569 
Q 847 1681 609 1914 
Q 372 2147 372 2553 
Q 372 3047 722 3315 
Q 1072 3584 1716 3584 
Q 2034 3584 2315 3537 
Q 2597 3491 2834 3397 
z
" transform="scale(0.015625)"/>
     </defs>
     <use xlink:href="#DejaVuSans-73"/>
    </g>
   </g>
   <g id="Line3DCollection_2">
    <path d="M 34.644243 98.917721 
L 38.691572 187.754745 
L 156.532525 225.941131 
" style="fill: none; stroke: #b0b0b0; stroke-width: 0.8"/>
    <path d="M 51.478603 86.632772 
L 54.718654 174.320526 
L 171.055696 211.036784 
" style="fill: none; stroke: #b0b0b0; stroke-width: 0.8"/>
    <path d="M 67.659335 74.824811 
L 70.149959 161.385701 
L 185.011069 196.715139 
" style="fill: none; stroke: #b0b0b0; stroke-width: 0.8"/>
    <path d="M 83.223783 63.466585 
L 85.018101 148.922929 
L 198.431303 182.942677 
" style="fill: none; stroke: #b0b0b0; stroke-width: 0.8"/>
    <path d="M 98.206498 52.532882 
L 99.353356 136.906834 
L 211.3466 169.688405 
" style="fill: none; stroke: #b0b0b0; stroke-width: 0.8"/>
   </g>
   <g id="xtick_6">
    <g id="line2d_8">
     <path d="M 155.539476 225.619333 
L 158.521192 226.585559 
" style="fill: none; stroke: #000000; stroke-width: 0.8; stroke-linecap: square"/>
    </g>
    <g id="text_8">
     <!-- −1.0 -->
     <g transform="translate(157.273787 246.964981) scale(0.1 -0.1)">
      <use xlink:href="#DejaVuSans-2212"/>
      <use xlink:href="#DejaVuSans-31" x="83.789062"/>
      <use xlink:href="#DejaVuSans-2e" x="147.412109"/>
      <use xlink:href="#DejaVuSans-30" x="179.199219"/>
     </g>
    </g>
   </g>
   <g id="xtick_7">
    <g id="line2d_9">
     <path d="M 170.076311 210.727688 
L 173.01695 211.655761 
" style="fill: none; stroke: #000000; stroke-width: 0.8; stroke-linecap: square"/>
    </g>
    <g id="text_9">
     <!-- −0.5 -->
     <g transform="translate(171.550688 231.781708) scale(0.1 -0.1)">
      <use xlink:href="#DejaVuSans-2212"/>
      <use xlink:href="#DejaVuSans-30" x="83.789062"/>
      <use xlink:href="#DejaVuSans-2e" x="147.412109"/>
      <use xlink:href="#DejaVuSans-35" x="179.199219"/>
     </g>
    </g>
   </g>
   <g id="xtick_8">
    <g id="line2d_10">
     <path d="M 184.045048 196.418006 
L 186.945512 197.310142 
" style="fill: none; stroke: #000000; stroke-width: 0.8; stroke-linecap: square"/>
    </g>
    <g id="text_10">
     <!-- 0.0 -->
     <g transform="translate(189.458857 217.192473) scale(0.1 -0.1)">
      <use xlink:href="#DejaVuSans-30"/>
      <use xlink:href="#DejaVuSans-2e" x="63.623047"/>
      <use xlink:href="#DejaVuSans-30" x="95.410156"/>
     </g>
    </g>
   </g>
   <g id="xtick_9">
    <g id="line2d_11">
     <path d="M 197.478351 182.656827 
L 200.339529 183.515074 
" style="fill: none; stroke: #000000; stroke-width: 0.8; stroke-linecap: square"/>
    </g>
    <g id="text_11">
     <!-- 0.5 -->
     <g transform="translate(202.650758 203.163083) scale(0.1 -0.1)">
      <use xlink:href="#DejaVuSans-30"/>
      <use xlink:href="#DejaVuSans-2e" x="63.623047"/>
      <use xlink:href="#DejaVuSans-35" x="95.410156"/>
     </g>
    </g>
   </g>
   <g id="xtick_10">
    <g id="line2d_12">
     <path d="M 210.406427 169.413207 
L 213.229194 170.23946 
" style="fill: none; stroke: #000000; stroke-width: 0.8; stroke-linecap: square"/>
    </g>
    <g id="text_12">
     <!-- 1.0 -->
     <g transform="translate(215.345965 189.661918) scale(0.1 -0.1)">
      <use xlink:href="#DejaVuSans-31"/>
      <use xlink:href="#DejaVuSans-2e" x="63.623047"/>
      <use xlink:href="#DejaVuSans-30" x="95.410156"/>
     </g>
    </g>
   </g>
  </g>
  <g id="axis3d_3">
   <g id="line2d_13">
    <path d="M 215.022526 165.916001 
L 219.004577 78.958173 
" style="fill: none; stroke: #000000; stroke-width: 0.8; stroke-linecap: square"/>
   </g>
   <g id="text_13">
    <!-- U -->
    <g transform="translate(253.615813 120.749121) scale(0.1 -0.1)">
     <defs>
      <path id="DejaVuSans-55" d="M 556 4666 
L 1191 4666 
L 1191 1831 
Q 1191 1081 1462 751 
Q 1734 422 2344 422 
Q 2950 422 3222 751 
Q 3494 1081 3494 1831 
L 3494 4666 
L 4128 4666 
L 4128 1753 
Q 4128 841 3676 375 
Q 3225 -91 2344 -91 
Q 1459 -91 1007 375 
Q 556 841 556 1753 
L 556 4666 
z
" transform="scale(0.015625)"/>
     </defs>
     <use xlink:href="#DejaVuSans-55"/>
    </g>
   </g>
   <g id="Line3DCollection_3">
    <path d="M 215.518334 155.088805 
L 103.317613 122.996798 
L 33.365874 180.684254 
" style="fill: none; stroke: #b0b0b0; stroke-width: 0.8"/>
    <path d="M 216.464909 134.418023 
L 103.087582 102.992642 
L 32.345929 159.50443 
" style="fill: none; stroke: #b0b0b0; stroke-width: 0.8"/>
    <path d="M 217.431747 113.304756 
L 102.852864 82.580993 
L 31.303307 137.853696 
" style="fill: none; stroke: #b0b0b0; stroke-width: 0.8"/>
    <path d="M 218.419505 91.734645 
L 102.613316 61.749274 
L 30.237242 115.716169 
" style="fill: none; stroke: #b0b0b0; stroke-width: 0.8"/>
   </g>
   <g id="xtick_11">
    <g id="line2d_14">
     <path d="M 214.576415 154.819394 
L 217.404425 155.628271 
" style="fill: none; stroke: #000000; stroke-width: 0.8; stroke-linecap: square"/>
    </g>
    <g id="text_14">
     <!-- 0.0 -->
     <g transform="translate(225.900424 160.11106) scale(0.1 -0.1)">
      <use xlink:href="#DejaVuSans-30"/>
      <use xlink:href="#DejaVuSans-2e" x="63.623047"/>
      <use xlink:href="#DejaVuSans-30" x="95.410156"/>
     </g>
    </g>
   </g>
   <g id="xtick_12">
    <g id="line2d_15">
     <path d="M 215.512639 134.154077 
L 218.371752 134.946552 
" style="fill: none; stroke: #000000; stroke-width: 0.8; stroke-linecap: square"/>
    </g>
    <g id="text_15">
     <!-- 0.2 -->
     <g transform="translate(227.03676 139.492625) scale(0.1 -0.1)">
      <defs>
       <path id="DejaVuSans-32" d="M 1228 531 
L 3431 531 
L 3431 0 
L 469 0 
L 469 531 
Q 828 903 1448 1529 
Q 2069 2156 2228 2338 
Q 2531 2678 2651 2914 
Q 2772 3150 2772 3378 
Q 2772 3750 2511 3984 
Q 2250 4219 1831 4219 
Q 1534 4219 1204 4116 
Q 875 4013 500 3803 
L 500 4441 
Q 881 4594 1212 4672 
Q 1544 4750 1819 4750 
Q 2544 4750 2975 4387 
Q 3406 4025 3406 3419 
Q 3406 3131 3298 2873 
Q 3191 2616 2906 2266 
Q 2828 2175 2409 1742 
Q 1991 1309 1228 531 
z
" transform="scale(0.015625)"/>
      </defs>
      <use xlink:href="#DejaVuSans-30"/>
      <use xlink:href="#DejaVuSans-2e" x="63.623047"/>
      <use xlink:href="#DejaVuSans-32" x="95.410156"/>
     </g>
    </g>
   </g>
   <g id="xtick_13">
    <g id="line2d_16">
     <path d="M 216.468896 113.046572 
L 219.359803 113.821755 
" style="fill: none; stroke: #000000; stroke-width: 0.8; stroke-linecap: square"/>
    </g>
    <g id="text_16">
     <!-- 0.4 -->
     <g transform="translate(228.197326 118.434544) scale(0.1 -0.1)">
      <defs>
       <path id="DejaVuSans-34" d="M 2419 4116 
L 825 1625 
L 2419 1625 
L 2419 4116 
z
M 2253 4666 
L 3047 4666 
L 3047 1625 
L 3713 1625 
L 3713 1100 
L 3047 1100 
L 3047 0 
L 2419 0 
L 2419 1100 
L 313 1100 
L 313 1709 
L 2253 4666 
z
" transform="scale(0.015625)"/>
      </defs>
      <use xlink:href="#DejaVuSans-30"/>
      <use xlink:href="#DejaVuSans-2e" x="63.623047"/>
      <use xlink:href="#DejaVuSans-34" x="95.410156"/>
     </g>
    </g>
   </g>
   <g id="xtick_14">
    <g id="line2d_17">
     <path d="M 217.445835 91.482535 
L 220.36925 92.239487 
" style="fill: none; stroke: #000000; stroke-width: 0.8; stroke-linecap: square"/>
    </g>
    <g id="text_17">
     <!-- 0.6 -->
     <g transform="translate(229.382905 96.922602) scale(0.1 -0.1)">
      <defs>
       <path id="DejaVuSans-36" d="M 2113 2584 
Q 1688 2584 1439 2293 
Q 1191 2003 1191 1497 
Q 1191 994 1439 701 
Q 1688 409 2113 409 
Q 2538 409 2786 701 
Q 3034 994 3034 1497 
Q 3034 2003 2786 2293 
Q 2538 2584 2113 2584 
z
M 3366 4563 
L 3366 3988 
Q 3128 4100 2886 4159 
Q 2644 4219 2406 4219 
Q 1781 4219 1451 3797 
Q 1122 3375 1075 2522 
Q 1259 2794 1537 2939 
Q 1816 3084 2150 3084 
Q 2853 3084 3261 2657 
Q 3669 2231 3669 1497 
Q 3669 778 3244 343 
Q 2819 -91 2113 -91 
Q 1303 -91 875 529 
Q 447 1150 447 2328 
Q 447 3434 972 4092 
Q 1497 4750 2381 4750 
Q 2619 4750 2861 4703 
Q 3103 4656 3366 4563 
z
" transform="scale(0.015625)"/>
      </defs>
      <use xlink:href="#DejaVuSans-30"/>
      <use xlink:href="#DejaVuSans-2e" x="63.623047"/>
      <use xlink:href="#DejaVuSans-36" x="95.410156"/>
     </g>
    </g>
   </g>
  </g>
  <g id="axes_1">
   <g id="Line3DCollection_4">
    <path d="M 43.115304 125.246318 
L 48.198209 126.745261 
L 53.304726 128.251168 
L 58.435019 129.764087 
L 63.589256 131.284066 
L 68.767605 132.811156 
L 73.970234 134.345406 
L 79.197315 135.886867 
L 84.449022 137.43559 
L 89.725527 138.991627 
L 95.027008 140.555028 
L 100.353642 142.125847 
L 105.705609 143.704137 
L 111.08309 145.289951 
L 116.486267 146.883342 
L 121.915325 148.484366 
L 127.370451 150.093077 
L 132.851833 151.709531 
L 138.35966 153.333784 
L 143.894125 154.965893 
L 149.455422 156.605914 
" clip-path="url(#pf150bf59c6)" style="fill: none; stroke: #000000; stroke-width: 0.3"/>
    <path d="M 46.472937 122.666404 
L 51.543272 124.153401 
L 56.637066 125.647278 
L 61.754482 127.148083 
L 66.895685 128.655864 
L 72.060842 130.170669 
L 77.25012 131.692549 
L 82.463689 133.221553 
L 87.701718 134.75773 
L 92.964382 136.301132 
L 98.251854 137.85181 
L 103.56431 139.409814 
L 108.901928 140.975198 
L 114.264886 142.548014 
L 119.653366 144.128314 
L 125.06755 145.716153 
L 130.507622 147.311584 
L 135.97377 148.914663 
L 141.466179 150.525443 
L 146.985042 152.143982 
L 152.530548 153.770334 
" clip-path="url(#pf150bf59c6)" style="fill: none; stroke: #000000; stroke-width: 0.3"/>
    <path d="M 49.803893 120.106989 
L 54.861696 121.582182 
L 59.942808 123.064172 
L 65.047388 124.553008 
L 70.175601 126.048736 
L 75.327611 127.551405 
L 80.503583 129.061064 
L 85.703686 130.57776 
L 90.928089 132.101544 
L 96.176961 133.632464 
L 101.450477 135.170573 
L 106.748808 136.715919 
L 112.072132 138.268555 
L 117.420625 139.828532 
L 122.794467 141.395902 
L 128.193837 142.970718 
L 133.618919 144.553033 
L 139.069896 146.142901 
L 144.546954 147.740376 
L 150.050281 149.345512 
L 155.580066 150.958366 
" clip-path="url(#pf150bf59c6)" style="fill: none; stroke: #000000; stroke-width: 0.3"/>
    <path d="M 53.108488 117.567828 
L 58.1538 119.031356 
L 63.222269 120.501602 
L 68.314055 121.978611 
L 73.429321 123.462431 
L 78.568228 124.953109 
L 83.730942 126.450692 
L 88.917627 127.955229 
L 94.128451 129.466769 
L 99.363583 130.985359 
L 104.623194 132.511051 
L 109.907456 134.043892 
L 115.216541 135.583935 
L 120.550627 137.13123 
L 125.909889 138.685827 
L 131.294506 140.24778 
L 136.704659 141.81714 
L 142.14053 143.39396 
L 147.602303 144.978294 
L 153.090162 146.570195 
L 158.604297 148.169717 
" clip-path="url(#pf150bf59c6)" style="fill: none; stroke: #000000; stroke-width: 0.3"/>
    <path d="M 56.387035 115.048683 
L 61.419894 116.500684 
L 66.475761 117.959323 
L 71.554796 119.424647 
L 76.657158 120.8967 
L 81.783008 122.375529 
L 86.932508 123.861182 
L 92.105823 125.353706 
L 97.303119 126.853148 
L 102.524561 128.359556 
L 107.77032 129.87298 
L 113.040565 131.393469 
L 118.335469 132.921071 
L 123.655204 134.455837 
L 128.999945 135.997818 
L 134.36987 137.547064 
L 139.765157 139.103628 
L 145.185986 140.66756 
L 150.632539 142.238914 
L 156.104999 143.817742 
L 161.603551 145.404098 
" clip-path="url(#pf150bf59c6)" style="fill: none; stroke: #000000; stroke-width: 0.3"/>
    <path d="M 59.639841 112.549317 
L 64.660285 113.989927 
L 69.703592 115.437097 
L 74.769917 116.890872 
L 79.859419 118.351298 
L 84.972256 119.81842 
L 90.10859 121.292285 
L 95.268584 122.772938 
L 100.4524 124.260427 
L 105.660204 125.7548 
L 110.892163 127.256104 
L 116.148446 128.764387 
L 121.429223 130.279699 
L 126.734664 131.802089 
L 132.064945 133.331606 
L 137.420238 134.8683 
L 142.800721 136.412223 
L 148.206572 137.963424 
L 153.637971 139.521957 
L 159.095099 141.087873 
L 164.578139 142.661224 
" clip-path="url(#pf150bf59c6)" style="fill: none; stroke: #000000; stroke-width: 0.3"/>
    <path d="M 62.867206 110.069497 
L 67.875277 111.49885 
L 72.906064 112.934686 
L 77.959722 114.377049 
L 83.036407 115.825985 
L 88.136277 117.281538 
L 93.259492 118.743754 
L 98.406211 120.212678 
L 103.576597 121.688357 
L 108.770814 123.170837 
L 113.989027 124.660166 
L 119.231402 126.156391 
L 124.498107 127.65956 
L 129.789313 129.169722 
L 135.10519 130.686926 
L 140.445913 132.21122 
L 145.811654 133.742656 
L 151.202591 135.281282 
L 156.618902 136.82715 
L 162.060765 138.380311 
L 167.528363 139.940817 
" clip-path="url(#pf150bf59c6)" style="fill: none; stroke: #000000; stroke-width: 0.3"/>
    <path d="M 66.069428 107.608997 
L 71.065166 109.027224 
L 76.083474 110.451858 
L 81.124508 111.882943 
L 86.188421 113.320524 
L 91.275369 114.764644 
L 96.385511 116.215349 
L 101.519004 117.672682 
L 106.67601 119.136691 
L 111.856691 120.60742 
L 117.061209 122.084917 
L 122.28973 123.569228 
L 127.54242 125.0604 
L 132.819448 126.558481 
L 138.120982 128.063519 
L 143.447193 129.575563 
L 148.798256 131.094662 
L 154.174343 132.620865 
L 159.57563 134.154222 
L 165.002296 135.694783 
L 170.45452 137.242601 
" clip-path="url(#pf150bf59c6)" style="fill: none; stroke: #000000; stroke-width: 0.3"/>
    <path d="M 69.246801 105.167591 
L 74.230245 106.574821 
L 79.236117 107.988384 
L 84.264568 109.408323 
L 89.315753 110.834682 
L 94.389825 112.267503 
L 99.48694 113.706832 
L 104.607257 115.152712 
L 109.750932 116.605188 
L 114.918128 118.064306 
L 120.109005 119.530111 
L 125.323726 121.002649 
L 130.562457 122.481967 
L 135.825363 123.968111 
L 141.112612 125.46113 
L 146.424373 126.96107 
L 151.760819 128.467981 
L 157.122119 129.98191 
L 162.50845 131.502908 
L 167.919986 133.031023 
L 173.356905 134.566305 
" clip-path="url(#pf150bf59c6)" style="fill: none; stroke: #000000; stroke-width: 0.3"/>
    <path d="M 72.399612 102.745058 
L 77.370803 104.141418 
L 82.364279 105.544039 
L 87.380192 106.952961 
L 92.418692 108.368228 
L 97.479934 109.789883 
L 102.56407 111.217969 
L 107.671257 112.65253 
L 112.801652 114.09361 
L 117.955414 115.541253 
L 123.132702 116.995504 
L 128.333678 118.456409 
L 133.558505 119.924014 
L 138.807347 121.398364 
L 144.08037 122.879506 
L 149.377742 124.367488 
L 154.699632 125.862357 
L 160.046211 127.36416 
L 165.417649 128.872947 
L 170.814123 130.388765 
L 176.235806 131.911665 
" clip-path="url(#pf150bf59c6)" style="fill: none; stroke: #000000; stroke-width: 0.3"/>
    <path d="M 75.528145 100.341179 
L 80.487123 101.726795 
L 85.468245 103.1186 
L 90.471662 104.516633 
L 95.497523 105.920938 
L 100.54598 107.331557 
L 105.617184 108.748531 
L 110.711291 110.171905 
L 115.828455 111.601722 
L 120.968834 113.038025 
L 126.132586 114.480859 
L 131.319871 115.930268 
L 136.53085 117.386298 
L 141.765685 118.848994 
L 147.024542 120.318401 
L 152.307585 121.794567 
L 157.614981 123.277537 
L 162.946901 124.76736 
L 168.303513 126.264082 
L 173.684991 127.767752 
L 179.091506 129.278417 
" clip-path="url(#pf150bf59c6)" style="fill: none; stroke: #000000; stroke-width: 0.3"/>
    <path d="M 78.632679 97.95574 
L 83.579485 99.330736 
L 88.548296 100.711849 
L 93.53926 102.09912 
L 98.552526 103.492589 
L 103.588243 104.892299 
L 108.646563 106.298291 
L 113.727637 107.710609 
L 118.831621 109.129294 
L 123.958669 110.55439 
L 129.108938 111.98594 
L 134.282585 113.423989 
L 139.479772 114.86858 
L 144.700658 116.319759 
L 149.945406 117.77757 
L 155.21418 119.24206 
L 160.507145 120.713274 
L 165.82447 122.191258 
L 171.166321 123.67606 
L 176.532869 125.167726 
L 181.924286 126.666305 
" clip-path="url(#pf150bf59c6)" style="fill: none; stroke: #000000; stroke-width: 0.3"/>
    <path d="M 81.71349 95.588529 
L 86.648164 96.953027 
L 91.604705 98.323571 
L 96.58326 99.700203 
L 101.583975 101.082961 
L 106.606999 102.471889 
L 111.652481 103.867026 
L 116.720573 105.268416 
L 121.811425 106.676099 
L 126.925194 108.090118 
L 132.062032 109.510517 
L 137.222097 110.937338 
L 142.405547 112.370625 
L 147.61254 113.810422 
L 152.843239 115.256774 
L 158.097804 116.709726 
L 163.3764 118.169322 
L 168.679192 119.635609 
L 174.006347 121.108632 
L 179.358033 122.588439 
L 184.734419 124.075076 
" clip-path="url(#pf150bf59c6)" style="fill: none; stroke: #000000; stroke-width: 0.3"/>
    <path d="M 84.770848 93.239339 
L 89.693431 94.593458 
L 94.637745 95.953555 
L 99.603934 97.319669 
L 104.592143 98.69184 
L 109.60252 100.070109 
L 114.635212 101.454517 
L 119.690368 102.845104 
L 124.76814 104.241913 
L 129.86868 105.644984 
L 134.99214 107.054361 
L 140.138677 108.470085 
L 145.308446 109.892201 
L 150.501604 111.32075 
L 155.718312 112.755777 
L 160.958728 114.197326 
L 166.223017 115.645442 
L 171.51134 117.10017 
L 176.823863 118.561555 
L 182.160753 120.029642 
L 187.522177 121.504478 
" clip-path="url(#pf150bf59c6)" style="fill: none; stroke: #000000; stroke-width: 0.3"/>
    <path d="M 87.805019 90.907965 
L 92.715553 92.251823 
L 97.647682 93.60159 
L 102.601548 94.957307 
L 107.577297 96.319012 
L 112.575072 97.686745 
L 117.595021 99.060546 
L 122.637291 100.440456 
L 127.702032 101.826516 
L 132.789395 103.218766 
L 137.899531 104.617249 
L 143.032593 106.022005 
L 148.188736 107.433079 
L 153.368117 108.850511 
L 158.570892 110.274346 
L 163.79722 111.704627 
L 169.047262 113.141398 
L 174.32118 114.584702 
L 179.619136 116.034585 
L 184.941296 117.491092 
L 190.287825 118.954268 
" clip-path="url(#pf150bf59c6)" style="fill: none; stroke: #000000; stroke-width: 0.3"/>
    <path d="M 90.816268 88.594204 
L 95.714793 89.927917 
L 100.634779 91.267473 
L 105.576367 92.612911 
L 110.539699 93.964268 
L 115.524919 95.321586 
L 120.532172 96.684902 
L 125.561605 98.054257 
L 130.613366 99.429691 
L 135.687602 100.811245 
L 140.784466 102.198959 
L 145.904108 103.592875 
L 151.046681 104.993035 
L 156.21234 106.39948 
L 161.401241 107.812253 
L 166.613541 109.231397 
L 171.849398 110.656955 
L 177.108973 112.08897 
L 182.392427 113.527487 
L 187.699923 114.97255 
L 193.031626 116.424204 
" clip-path="url(#pf150bf59c6)" style="fill: none; stroke: #000000; stroke-width: 0.3"/>
    <path d="M 93.804852 86.297858 
L 98.691411 87.621541 
L 103.599296 88.951 
L 108.528648 90.286275 
L 113.479609 91.627404 
L 118.45232 92.974424 
L 123.446925 94.327374 
L 128.463569 95.686295 
L 133.502399 97.051226 
L 138.563561 98.422206 
L 143.647205 99.799276 
L 148.753481 101.182476 
L 153.88254 102.571848 
L 159.034535 103.967433 
L 164.20962 105.369273 
L 169.407951 106.777409 
L 174.629685 108.191885 
L 179.87498 109.612743 
L 185.143996 111.040027 
L 190.436894 112.47378 
L 195.753837 113.914047 
" clip-path="url(#pf150bf59c6)" style="fill: none; stroke: #000000; stroke-width: 0.3"/>
    <path d="M 96.771027 84.01873 
L 101.645659 85.332496 
L 106.541487 86.651973 
L 111.458647 87.9772 
L 116.397281 89.308214 
L 121.357529 90.645054 
L 126.339534 91.987757 
L 131.343438 93.336362 
L 136.369387 94.690909 
L 141.417526 96.051436 
L 146.488004 97.417984 
L 151.580967 98.790591 
L 156.696567 100.1693 
L 161.834955 101.55415 
L 166.996282 102.945183 
L 172.180704 104.342439 
L 177.388376 105.745962 
L 182.619453 107.155793 
L 187.874095 108.571975 
L 193.152461 109.994551 
L 198.454713 111.423564 
" clip-path="url(#pf150bf59c6)" style="fill: none; stroke: #000000; stroke-width: 0.3"/>
    <path d="M 99.715043 81.756629 
L 104.577791 83.060588 
L 109.461603 84.370195 
L 114.366616 85.685487 
L 119.292968 87.006501 
L 124.2408 88.333275 
L 129.210251 89.665847 
L 134.201464 91.004253 
L 139.214582 92.348534 
L 144.24975 93.698728 
L 149.307113 95.054873 
L 154.386818 96.417009 
L 159.489014 97.785177 
L 164.613851 99.159415 
L 169.761479 100.539765 
L 174.932052 101.926268 
L 180.125722 103.318964 
L 185.342645 104.717896 
L 190.582977 106.123105 
L 195.846876 107.534633 
L 201.134502 108.952524 
" clip-path="url(#pf150bf59c6)" style="fill: none; stroke: #000000; stroke-width: 0.3"/>
    <path d="M 102.637149 79.511363 
L 107.488054 80.805625 
L 112.359893 82.105472 
L 117.252802 83.41094 
L 122.166917 84.722067 
L 127.102378 86.038889 
L 132.059324 87.361443 
L 137.037894 88.689766 
L 142.038231 90.023898 
L 147.060478 91.363875 
L 152.104779 92.709736 
L 157.17128 94.06152 
L 162.260128 95.419267 
L 167.371471 96.783016 
L 172.505458 98.152806 
L 177.66224 99.528678 
L 182.84197 100.910673 
L 188.0448 102.298831 
L 193.270886 103.693194 
L 198.520384 105.093803 
L 203.793452 106.500701 
" clip-path="url(#pf150bf59c6)" style="fill: none; stroke: #000000; stroke-width: 0.3"/>
    <path d="M 105.537587 77.282746 
L 110.37669 78.567418 
L 115.236599 79.857614 
L 120.117448 81.153368 
L 125.019372 82.454718 
L 129.942509 83.761699 
L 134.886996 85.074348 
L 139.852972 86.392702 
L 144.840578 87.716799 
L 149.849956 89.046675 
L 154.881248 90.382369 
L 159.934599 91.723918 
L 165.010153 93.071363 
L 170.108058 94.424741 
L 175.228461 95.784092 
L 180.371513 97.149456 
L 185.537362 98.520871 
L 190.726162 99.89838 
L 195.938066 101.282022 
L 201.173227 102.671839 
L 206.431803 104.067871 
" clip-path="url(#pf150bf59c6)" style="fill: none; stroke: #000000; stroke-width: 0.3"/>
    <path d="M 43.115304 125.246318 
L 46.472937 122.666404 
L 49.803893 120.106989 
L 53.108488 117.567828 
L 56.387035 115.048683 
L 59.639841 112.549317 
L 62.867206 110.069497 
L 66.069428 107.608997 
L 69.246801 105.167591 
L 72.399612 102.745058 
L 75.528145 100.341179 
L 78.632679 97.95574 
L 81.71349 95.588529 
L 84.770848 93.239339 
L 87.805019 90.907965 
L 90.816268 88.594204 
L 93.804852 86.297858 
L 96.771027 84.01873 
L 99.715043 81.756629 
L 102.637149 79.511363 
L 105.537587 77.282746 
" clip-path="url(#pf150bf59c6)" style="fill: none; stroke: #000000; stroke-width: 0.3"/>
    <path d="M 48.198209 126.745261 
L 51.543272 124.153401 
L 54.861696 121.582182 
L 58.1538 119.031356 
L 61.419894 116.500684 
L 64.660285 113.989927 
L 67.875277 111.49885 
L 71.065166 109.027224 
L 74.230245 106.574821 
L 77.370803 104.141418 
L 80.487123 101.726795 
L 83.579485 99.330736 
L 86.648164 96.953027 
L 89.693431 94.593458 
L 92.715553 92.251823 
L 95.714793 89.927917 
L 98.691411 87.621541 
L 101.645659 85.332496 
L 104.577791 83.060588 
L 107.488054 80.805625 
L 110.37669 78.567418 
" clip-path="url(#pf150bf59c6)" style="fill: none; stroke: #000000; stroke-width: 0.3"/>
    <path d="M 53.304726 128.251168 
L 56.637066 125.647278 
L 59.942808 123.064172 
L 63.222269 120.501602 
L 66.475761 117.959323 
L 69.703592 115.437097 
L 72.906064 112.934686 
L 76.083474 110.451858 
L 79.236117 107.988384 
L 82.364279 105.544039 
L 85.468245 103.1186 
L 88.548296 100.711849 
L 91.604705 98.323571 
L 94.637745 95.953555 
L 97.647682 93.60159 
L 100.634779 91.267473 
L 103.599296 88.951 
L 106.541487 86.651973 
L 109.461603 84.370195 
L 112.359893 82.105472 
L 115.236599 79.857614 
" clip-path="url(#pf150bf59c6)" style="fill: none; stroke: #000000; stroke-width: 0.3"/>
    <path d="M 58.435019 129.764087 
L 61.754482 127.148083 
L 65.047388 124.553008 
L 68.314055 121.978611 
L 71.554796 119.424647 
L 74.769917 116.890872 
L 77.959722 114.377049 
L 81.124508 111.882943 
L 84.264568 109.408323 
L 87.380192 106.952961 
L 90.471662 104.516633 
L 93.53926 102.09912 
L 96.58326 99.700203 
L 99.603934 97.319669 
L 102.601548 94.957307 
L 105.576367 92.612911 
L 108.528648 90.286275 
L 111.458647 87.9772 
L 114.366616 85.685487 
L 117.252802 83.41094 
L 120.117448 81.153368 
" clip-path="url(#pf150bf59c6)" style="fill: none; stroke: #000000; stroke-width: 0.3"/>
    <path d="M 63.589256 131.284066 
L 66.895685 128.655864 
L 70.175601 126.048736 
L 73.429321 123.462431 
L 76.657158 120.8967 
L 79.859419 118.351298 
L 83.036407 115.825985 
L 86.188421 113.320524 
L 89.315753 110.834682 
L 92.418692 108.368228 
L 95.497523 105.920938 
L 98.552526 103.492589 
L 101.583975 101.082961 
L 104.592143 98.69184 
L 107.577297 96.319012 
L 110.539699 93.964268 
L 113.479609 91.627404 
L 116.397281 89.308214 
L 119.292968 87.006501 
L 122.166917 84.722067 
L 125.019372 82.454718 
" clip-path="url(#pf150bf59c6)" style="fill: none; stroke: #000000; stroke-width: 0.3"/>
    <path d="M 68.767605 132.811156 
L 72.060842 130.170669 
L 75.327611 127.551405 
L 78.568228 124.953109 
L 81.783008 122.375529 
L 84.972256 119.81842 
L 88.136277 117.281538 
L 91.275369 114.764644 
L 94.389825 112.267503 
L 97.479934 109.789883 
L 100.54598 107.331557 
L 103.588243 104.892299 
L 106.606999 102.471889 
L 109.60252 100.070109 
L 112.575072 97.686745 
L 115.524919 95.321586 
L 118.45232 92.974424 
L 121.357529 90.645054 
L 124.2408 88.333275 
L 127.102378 86.038889 
L 129.942509 83.761699 
" clip-path="url(#pf150bf59c6)" style="fill: none; stroke: #000000; stroke-width: 0.3"/>
    <path d="M 73.970234 134.345406 
L 77.25012 131.692549 
L 80.503583 129.061064 
L 83.730942 126.450692 
L 86.932508 123.861182 
L 90.10859 121.292285 
L 93.259492 118.743754 
L 96.385511 116.215349 
L 99.48694 113.706832 
L 102.56407 111.217969 
L 105.617184 108.748531 
L 108.646563 106.298291 
L 111.652481 103.867026 
L 114.635212 101.454517 
L 117.595021 99.060546 
L 120.532172 96.684902 
L 123.446925 94.327374 
L 126.339534 91.987757 
L 129.210251 89.665847 
L 132.059324 87.361443 
L 134.886996 85.074348 
" clip-path="url(#pf150bf59c6)" style="fill: none; stroke: #000000; stroke-width: 0.3"/>
    <path d="M 79.197315 135.886867 
L 82.463689 133.221553 
L 85.703686 130.57776 
L 88.917627 127.955229 
L 92.105823 125.353706 
L 95.268584 122.772938 
L 98.406211 120.212678 
L 101.519004 117.672682 
L 104.607257 115.152712 
L 107.671257 112.65253 
L 110.711291 110.171905 
L 113.727637 107.710609 
L 116.720573 105.268416 
L 119.690368 102.845104 
L 122.637291 100.440456 
L 125.561605 98.054257 
L 128.463569 95.686295 
L 131.343438 93.336362 
L 134.201464 91.004253 
L 137.037894 88.689766 
L 139.852972 86.392702 
" clip-path="url(#pf150bf59c6)" style="fill: none; stroke: #000000; stroke-width: 0.3"/>
    <path d="M 84.449022 137.43559 
L 87.701718 134.75773 
L 90.928089 132.101544 
L 94.128451 129.466769 
L 97.303119 126.853148 
L 100.4524 124.260427 
L 103.576597 121.688357 
L 106.67601 119.136691 
L 109.750932 116.605188 
L 112.801652 114.09361 
L 115.828455 111.601722 
L 118.831621 109.129294 
L 121.811425 106.676099 
L 124.76814 104.241913 
L 127.702032 101.826516 
L 130.613366 99.429691 
L 133.502399 97.051226 
L 136.369387 94.690909 
L 139.214582 92.348534 
L 142.038231 90.023898 
L 144.840578 87.716799 
" clip-path="url(#pf150bf59c6)" style="fill: none; stroke: #000000; stroke-width: 0.3"/>
    <path d="M 89.725527 138.991627 
L 92.964382 136.301132 
L 96.176961 133.632464 
L 99.363583 130.985359 
L 102.524561 128.359556 
L 105.660204 125.7548 
L 108.770814 123.170837 
L 111.856691 120.60742 
L 114.918128 118.064306 
L 117.955414 115.541253 
L 120.968834 113.038025 
L 123.958669 110.55439 
L 126.925194 108.090118 
L 129.86868 105.644984 
L 132.789395 103.218766 
L 135.687602 100.811245 
L 138.563561 98.422206 
L 141.417526 96.051436 
L 144.24975 93.698728 
L 147.060478 91.363875 
L 149.849956 89.046675 
" clip-path="url(#pf150bf59c6)" style="fill: none; stroke: #000000; stroke-width: 0.3"/>
    <path d="M 95.027008 140.555028 
L 98.251854 137.85181 
L 101.450477 135.170573 
L 104.623194 132.511051 
L 107.77032 129.87298 
L 110.892163 127.256104 
L 113.989027 124.660166 
L 117.061209 122.084917 
L 120.109005 119.530111 
L 123.132702 116.995504 
L 126.132586 114.480859 
L 129.108938 111.98594 
L 132.062032 109.510517 
L 134.99214 107.054361 
L 137.899531 104.617249 
L 140.784466 102.198959 
L 143.647205 99.799276 
L 146.488004 97.417984 
L 149.307113 95.054873 
L 152.104779 92.709736 
L 154.881248 90.382369 
" clip-path="url(#pf150bf59c6)" style="fill: none; stroke: #000000; stroke-width: 0.3"/>
    <path d="M 100.353642 142.125847 
L 103.56431 139.409814 
L 106.748808 136.715919 
L 109.907456 134.043892 
L 113.040565 131.393469 
L 116.148446 128.764387 
L 119.231402 126.156391 
L 122.28973 123.569228 
L 125.323726 121.002649 
L 128.333678 118.456409 
L 131.319871 115.930268 
L 134.282585 113.423989 
L 137.222097 110.937338 
L 140.138677 108.470085 
L 143.032593 106.022005 
L 145.904108 103.592875 
L 148.753481 101.182476 
L 151.580967 98.790591 
L 154.386818 96.417009 
L 157.17128 94.06152 
L 159.934599 91.723918 
" clip-path="url(#pf150bf59c6)" style="fill: none; stroke: #000000; stroke-width: 0.3"/>
    <path d="M 105.705609 143.704137 
L 108.901928 140.975198 
L 112.072132 138.268555 
L 115.216541 135.583935 
L 118.335469 132.921071 
L 121.429223 130.279699 
L 124.498107 127.65956 
L 127.54242 125.0604 
L 130.562457 122.481967 
L 133.558505 119.924014 
L 136.53085 117.386298 
L 139.479772 114.86858 
L 142.405547 112.370625 
L 145.308446 109.892201 
L 148.188736 107.433079 
L 151.046681 104.993035 
L 153.88254 102.571848 
L 156.696567 100.1693 
L 159.489014 97.785177 
L 162.260128 95.419267 
L 165.010153 93.071363 
" clip-path="url(#pf150bf59c6)" style="fill: none; stroke: #000000; stroke-width: 0.3"/>
    <path d="M 111.08309 145.289951 
L 114.264886 142.548014 
L 117.420625 139.828532 
L 120.550627 137.13123 
L 123.655204 134.455837 
L 126.734664 131.802089 
L 129.789313 129.169722 
L 132.819448 126.558481 
L 135.825363 123.968111 
L 138.807347 121.398364 
L 141.765685 118.848994 
L 144.700658 116.319759 
L 147.61254 113.810422 
L 150.501604 111.32075 
L 153.368117 108.850511 
L 156.21234 106.39948 
L 159.034535 103.967433 
L 161.834955 101.55415 
L 164.613851 99.159415 
L 167.371471 96.783016 
L 170.108058 94.424741 
" clip-path="url(#pf150bf59c6)" style="fill: none; stroke: #000000; stroke-width: 0.3"/>
    <path d="M 116.486267 146.883342 
L 119.653366 144.128314 
L 122.794467 141.395902 
L 125.909889 138.685827 
L 128.999945 135.997818 
L 132.064945 133.331606 
L 135.10519 130.686926 
L 138.120982 128.063519 
L 141.112612 125.46113 
L 144.08037 122.879506 
L 147.024542 120.318401 
L 149.945406 117.77757 
L 152.843239 115.256774 
L 155.718312 112.755777 
L 158.570892 110.274346 
L 161.401241 107.812253 
L 164.20962 105.369273 
L 166.996282 102.945183 
L 169.761479 100.539765 
L 172.505458 98.152806 
L 175.228461 95.784092 
" clip-path="url(#pf150bf59c6)" style="fill: none; stroke: #000000; stroke-width: 0.3"/>
    <path d="M 121.915325 148.484366 
L 125.06755 145.716153 
L 128.193837 142.970718 
L 131.294506 140.24778 
L 134.36987 137.547064 
L 137.420238 134.8683 
L 140.445913 132.21122 
L 143.447193 129.575563 
L 146.424373 126.96107 
L 149.377742 124.367488 
L 152.307585 121.794567 
L 155.21418 119.24206 
L 158.097804 116.709726 
L 160.958728 114.197326 
L 163.79722 111.704627 
L 166.613541 109.231397 
L 169.407951 106.777409 
L 172.180704 104.342439 
L 174.932052 101.926268 
L 177.66224 99.528678 
L 180.371513 97.149456 
" clip-path="url(#pf150bf59c6)" style="fill: none; stroke: #000000; stroke-width: 0.3"/>
    <path d="M 127.370451 150.093077 
L 130.507622 147.311584 
L 133.618919 144.553033 
L 136.704659 141.81714 
L 139.765157 139.103628 
L 142.800721 136.412223 
L 145.811654 133.742656 
L 148.798256 131.094662 
L 151.760819 128.467981 
L 154.699632 125.862357 
L 157.614981 123.277537 
L 160.507145 120.713274 
L 163.3764 118.169322 
L 166.223017 115.645442 
L 169.047262 113.141398 
L 171.849398 110.656955 
L 174.629685 108.191885 
L 177.388376 105.745962 
L 180.125722 103.318964 
L 182.84197 100.910673 
L 185.537362 98.520871 
" clip-path="url(#pf150bf59c6)" style="fill: none; stroke: #000000; stroke-width: 0.3"/>
    <path d="M 132.851833 151.709531 
L 135.97377 148.914663 
L 139.069896 146.142901 
L 142.14053 143.39396 
L 145.185986 140.66756 
L 148.206572 137.963424 
L 151.202591 135.281282 
L 154.174343 132.620865 
L 157.122119 129.98191 
L 160.046211 127.36416 
L 162.946901 124.76736 
L 165.82447 122.191258 
L 168.679192 119.635609 
L 171.51134 117.10017 
L 174.32118 114.584702 
L 177.108973 112.08897 
L 179.87498 109.612743 
L 182.619453 107.155793 
L 185.342645 104.717896 
L 188.0448 102.298831 
L 190.726162 99.89838 
" clip-path="url(#pf150bf59c6)" style="fill: none; stroke: #000000; stroke-width: 0.3"/>
    <path d="M 138.35966 153.333784 
L 141.466179 150.525443 
L 144.546954 147.740376 
L 147.602303 144.978294 
L 150.632539 142.238914 
L 153.637971 139.521957 
L 156.618902 136.82715 
L 159.57563 134.154222 
L 162.50845 131.502908 
L 165.417649 128.872947 
L 168.303513 126.264082 
L 171.166321 123.67606 
L 174.006347 121.108632 
L 176.823863 118.561555 
L 179.619136 116.034585 
L 182.392427 113.527487 
L 185.143996 111.040027 
L 187.874095 108.571975 
L 190.582977 106.123105 
L 193.270886 103.693194 
L 195.938066 101.282022 
" clip-path="url(#pf150bf59c6)" style="fill: none; stroke: #000000; stroke-width: 0.3"/>
    <path d="M 143.894125 154.965893 
L 146.985042 152.143982 
L 150.050281 149.345512 
L 153.090162 146.570195 
L 156.104999 143.817742 
L 159.095099 141.087873 
L 162.060765 138.380311 
L 165.002296 135.694783 
L 167.919986 133.031023 
L 170.814123 130.388765 
L 173.684991 127.767752 
L 176.532869 125.167726 
L 179.358033 122.588439 
L 182.160753 120.029642 
L 184.941296 117.491092 
L 187.699923 114.97255 
L 190.436894 112.47378 
L 193.152461 109.994551 
L 195.846876 107.534633 
L 198.520384 105.093803 
L 201.173227 102.671839 
" clip-path="url(#pf150bf59c6)" style="fill: none; stroke: #000000; stroke-width: 0.3"/>
    <path d="M 149.455422 156.605914 
L 152.530548 153.770334 
L 155.580066 150.958366 
L 158.604297 148.169717 
L 161.603551 145.404098 
L 164.578139 142.661224 
L 167.528363 139.940817 
L 170.45452 137.242601 
L 173.356905 134.566305 
L 176.235806 131.911665 
L 179.091506 129.278417 
L 181.924286 126.666305 
L 184.734419 124.075076 
L 187.522177 121.504478 
L 190.287825 118.954268 
L 193.031626 116.424204 
L 195.753837 113.914047 
L 198.454713 111.423564 
L 201.134502 108.952524 
L 203.793452 106.500701 
L 206.431803 104.067871 
" clip-path="url(#pf150bf59c6)" style="fill: none; stroke: #000000; stroke-width: 0.3"/>
   </g>
   <g id="text_18">
    <!-- Corrected E matrix -->
    <g transform="translate(66.725742 27.118125) scale(0.12 -0.12)">
     <defs>
      <path id="DejaVuSans-43" d="M 4122 4306 
L 4122 3641 
Q 3803 3938 3442 4084 
Q 3081 4231 2675 4231 
Q 1875 4231 1450 3742 
Q 1025 3253 1025 2328 
Q 1025 1406 1450 917 
Q 1875 428 2675 428 
Q 3081 428 3442 575 
Q 3803 722 4122 1019 
L 4122 359 
Q 3791 134 3420 21 
Q 3050 -91 2638 -91 
Q 1578 -91 968 557 
Q 359 1206 359 2328 
Q 359 3453 968 4101 
Q 1578 4750 2638 4750 
Q 3056 4750 3426 4639 
Q 3797 4528 4122 4306 
z
" transform="scale(0.015625)"/>
      <path id="DejaVuSans-6f" d="M 1959 3097 
Q 1497 3097 1228 2736 
Q 959 2375 959 1747 
Q 959 1119 1226 758 
Q 1494 397 1959 397 
Q 2419 397 2687 759 
Q 2956 1122 2956 1747 
Q 2956 2369 2687 2733 
Q 2419 3097 1959 3097 
z
M 1959 3584 
Q 2709 3584 3137 3096 
Q 3566 2609 3566 1747 
Q 3566 888 3137 398 
Q 2709 -91 1959 -91 
Q 1206 -91 779 398 
Q 353 888 353 1747 
Q 353 2609 779 3096 
Q 1206 3584 1959 3584 
z
" transform="scale(0.015625)"/>
      <path id="DejaVuSans-65" d="M 3597 1894 
L 3597 1613 
L 953 1613 
Q 991 1019 1311 708 
Q 1631 397 2203 397 
Q 2534 397 2845 478 
Q 3156 559 3463 722 
L 3463 178 
Q 3153 47 2828 -22 
Q 2503 -91 2169 -91 
Q 1331 -91 842 396 
Q 353 884 353 1716 
Q 353 2575 817 3079 
Q 1281 3584 2069 3584 
Q 2775 3584 3186 3129 
Q 3597 2675 3597 1894 
z
M 3022 2063 
Q 3016 2534 2758 2815 
Q 2500 3097 2075 3097 
Q 1594 3097 1305 2825 
Q 1016 2553 972 2059 
L 3022 2063 
z
" transform="scale(0.015625)"/>
      <path id="DejaVuSans-63" d="M 3122 3366 
L 3122 2828 
Q 2878 2963 2633 3030 
Q 2388 3097 2138 3097 
Q 1578 3097 1268 2742 
Q 959 2388 959 1747 
Q 959 1106 1268 751 
Q 1578 397 2138 397 
Q 2388 397 2633 464 
Q 2878 531 3122 666 
L 3122 134 
Q 2881 22 2623 -34 
Q 2366 -91 2075 -91 
Q 1284 -91 818 406 
Q 353 903 353 1747 
Q 353 2603 823 3093 
Q 1294 3584 2113 3584 
Q 2378 3584 2631 3529 
Q 2884 3475 3122 3366 
z
" transform="scale(0.015625)"/>
      <path id="DejaVuSans-74" d="M 1172 4494 
L 1172 3500 
L 2356 3500 
L 2356 3053 
L 1172 3053 
L 1172 1153 
Q 1172 725 1289 603 
Q 1406 481 1766 481 
L 2356 481 
L 2356 0 
L 1766 0 
Q 1100 0 847 248 
Q 594 497 594 1153 
L 594 3053 
L 172 3053 
L 172 3500 
L 594 3500 
L 594 4494 
L 1172 4494 
z
" transform="scale(0.015625)"/>
      <path id="DejaVuSans-64" d="M 2906 2969 
L 2906 4863 
L 3481 4863 
L 3481 0 
L 2906 0 
L 2906 525 
Q 2725 213 2448 61 
Q 2172 -91 1784 -91 
Q 1150 -91 751 415 
Q 353 922 353 1747 
Q 353 2572 751 3078 
Q 1150 3584 1784 3584 
Q 2172 3584 2448 3432 
Q 2725 3281 2906 2969 
z
M 947 1747 
Q 947 1113 1208 752 
Q 1469 391 1925 391 
Q 2381 391 2643 752 
Q 2906 1113 2906 1747 
Q 2906 2381 2643 2742 
Q 2381 3103 1925 3103 
Q 1469 3103 1208 2742 
Q 947 2381 947 1747 
z
" transform="scale(0.015625)"/>
      <path id="DejaVuSans-20" transform="scale(0.015625)"/>
      <path id="DejaVuSans-45" d="M 628 4666 
L 3578 4666 
L 3578 4134 
L 1259 4134 
L 1259 2753 
L 3481 2753 
L 3481 2222 
L 1259 2222 
L 1259 531 
L 3634 531 
L 3634 0 
L 628 0 
L 628 4666 
z
" transform="scale(0.015625)"/>
      <path id="DejaVuSans-6d" d="M 3328 2828 
Q 3544 3216 3844 3400 
Q 4144 3584 4550 3584 
Q 5097 3584 5394 3201 
Q 5691 2819 5691 2113 
L 5691 0 
L 5113 0 
L 5113 2094 
Q 5113 2597 4934 2840 
Q 4756 3084 4391 3084 
Q 3944 3084 3684 2787 
Q 3425 2491 3425 1978 
L 3425 0 
L 2847 0 
L 2847 2094 
Q 2847 2600 2669 2842 
Q 2491 3084 2119 3084 
Q 1678 3084 1418 2786 
Q 1159 2488 1159 1978 
L 1159 0 
L 581 0 
L 581 3500 
L 1159 3500 
L 1159 2956 
Q 1356 3278 1631 3431 
Q 1906 3584 2284 3584 
Q 2666 3584 2933 3390 
Q 3200 3197 3328 2828 
z
" transform="scale(0.015625)"/>
      <path id="DejaVuSans-61" d="M 2194 1759 
Q 1497 1759 1228 1600 
Q 959 1441 959 1056 
Q 959 750 1161 570 
Q 1363 391 1709 391 
Q 2188 391 2477 730 
Q 2766 1069 2766 1631 
L 2766 1759 
L 2194 1759 
z
M 3341 1997 
L 3341 0 
L 2766 0 
L 2766 531 
Q 2569 213 2275 61 
Q 1981 -91 1556 -91 
Q 1019 -91 701 211 
Q 384 513 384 1019 
Q 384 1609 779 1909 
Q 1175 2209 1959 2209 
L 2766 2209 
L 2766 2266 
Q 2766 2663 2505 2880 
Q 2244 3097 1772 3097 
Q 1472 3097 1187 3025 
Q 903 2953 641 2809 
L 641 3341 
Q 956 3463 1253 3523 
Q 1550 3584 1831 3584 
Q 2591 3584 2966 3190 
Q 3341 2797 3341 1997 
z
" transform="scale(0.015625)"/>
      <path id="DejaVuSans-69" d="M 603 3500 
L 1178 3500 
L 1178 0 
L 603 0 
L 603 3500 
z
M 603 4863 
L 1178 4863 
L 1178 4134 
L 603 4134 
L 603 4863 
z
" transform="scale(0.015625)"/>
      <path id="DejaVuSans-78" d="M 3513 3500 
L 2247 1797 
L 3578 0 
L 2900 0 
L 1881 1375 
L 863 0 
L 184 0 
L 1544 1831 
L 300 3500 
L 978 3500 
L 1906 2253 
L 2834 3500 
L 3513 3500 
z
" transform="scale(0.015625)"/>
     </defs>
     <use xlink:href="#DejaVuSans-43"/>
     <use xlink:href="#DejaVuSans-6f" x="69.824219"/>
     <use xlink:href="#DejaVuSans-72" x="131.005859"/>
     <use xlink:href="#DejaVuSans-72" x="170.369141"/>
     <use xlink:href="#DejaVuSans-65" x="209.232422"/>
     <use xlink:href="#DejaVuSans-63" x="270.755859"/>
     <use xlink:href="#DejaVuSans-74" x="325.736328"/>
     <use xlink:href="#DejaVuSans-65" x="364.945312"/>
     <use xlink:href="#DejaVuSans-64" x="426.46875"/>
     <use xlink:href="#DejaVuSans-20" x="489.945312"/>
     <use xlink:href="#DejaVuSans-45" x="521.732422"/>
     <use xlink:href="#DejaVuSans-20" x="584.916016"/>
     <use xlink:href="#DejaVuSans-6d" x="616.703125"/>
     <use xlink:href="#DejaVuSans-61" x="714.115234"/>
     <use xlink:href="#DejaVuSans-74" x="775.394531"/>
     <use xlink:href="#DejaVuSans-72" x="814.603516"/>
     <use xlink:href="#DejaVuSans-69" x="855.716797"/>
     <use xlink:href="#DejaVuSans-78" x="883.5"/>
    </g>
   </g>
  </g>
  <g id="patch_6">
   <path d="M 270.688781 243.692109 
L 481.262765 243.692109 
L 481.262765 33.118125 
L 270.688781 33.118125 
z
" style="fill: #ffffff"/>
  </g>
  <g id="pane3d_4">
   <g id="patch_7">
    <path d="M 286.588569 191.771313 
L 356.126975 133.482842 
L 355.160325 49.420446 
L 282.294147 102.594864 
" style="fill: #f2f2f2; opacity: 0.5; stroke: #f2f2f2; stroke-linejoin: miter"/>
   </g>
  </g>
  <g id="pane3d_5">
   <g id="patch_8">
    <path d="M 356.126975 133.482842 
L 467.711306 165.916001 
L 471.693358 78.958173 
L 355.160325 49.420446 
" style="fill: #e6e6e6; opacity: 0.5; stroke: #e6e6e6; stroke-linejoin: miter"/>
   </g>
  </g>
  <g id="pane3d_6">
   <g id="patch_9">
    <path d="M 286.588569 191.771313 
L 404.87341 230.403142 
L 467.711306 165.916001 
L 356.126975 133.482842 
" style="fill: #ececec; opacity: 0.5; stroke: #ececec; stroke-linejoin: miter"/>
   </g>
  </g>
  <g id="axis3d_4">
   <g id="line2d_18">
    <path d="M 286.588569 191.771313 
L 404.87341 230.403142 
" style="fill: none; stroke: #000000; stroke-width: 0.8; stroke-linecap: square"/>
   </g>
   <g id="text_19">
    <!-- r -->
    <g transform="translate(325.789132 248.686835) scale(0.1 -0.1)">
     <use xlink:href="#DejaVuSans-72"/>
    </g>
   </g>
   <g id="Line3DCollection_5">
    <path d="M 293.752519 194.111059 
L 362.913193 135.455327 
L 362.233469 51.213282 
" style="fill: none; stroke: #b0b0b0; stroke-width: 0.8"/>
    <path d="M 318.675457 202.250891 
L 386.493716 142.309254 
L 386.825108 57.446546 
" style="fill: none; stroke: #b0b0b0; stroke-width: 0.8"/>
    <path d="M 344.171816 210.578001 
L 410.571374 149.307679 
L 411.957837 63.81696 
" style="fill: none; stroke: #b0b0b0; stroke-width: 0.8"/>
    <path d="M 370.261615 219.098929 
L 435.162055 156.455219 
L 437.649715 70.329102 
" style="fill: none; stroke: #b0b0b0; stroke-width: 0.8"/>
    <path d="M 396.965816 227.820522 
L 460.282331 163.756691 
L 463.919609 76.987754 
" style="fill: none; stroke: #b0b0b0; stroke-width: 0.8"/>
   </g>
   <g id="xtick_15">
    <g id="line2d_19">
     <path d="M 294.354767 193.600288 
L 292.545441 195.134792 
" style="fill: none; stroke: #000000; stroke-width: 0.8; stroke-linecap: square"/>
    </g>
    <g id="text_20">
     <!-- −1.0 -->
     <g transform="translate(274.074675 217.435626) scale(0.1 -0.1)">
      <use xlink:href="#DejaVuSans-2212"/>
      <use xlink:href="#DejaVuSans-31" x="83.789062"/>
      <use xlink:href="#DejaVuSans-2e" x="147.412109"/>
      <use xlink:href="#DejaVuSans-30" x="179.199219"/>
     </g>
    </g>
   </g>
   <g id="xtick_16">
    <g id="line2d_20">
     <path d="M 319.266561 201.72844 
L 317.490686 203.298059 
" style="fill: none; stroke: #000000; stroke-width: 0.8; stroke-linecap: square"/>
    </g>
    <g id="text_21">
     <!-- −0.5 -->
     <g transform="translate(299.030027 225.793875) scale(0.1 -0.1)">
      <use xlink:href="#DejaVuSans-2212"/>
      <use xlink:href="#DejaVuSans-30" x="83.789062"/>
      <use xlink:href="#DejaVuSans-2e" x="147.412109"/>
      <use xlink:href="#DejaVuSans-35" x="179.199219"/>
     </g>
    </g>
   </g>
   <g id="xtick_17">
    <g id="line2d_21">
     <path d="M 344.7511 210.043466 
L 343.010704 211.649419 
" style="fill: none; stroke: #000000; stroke-width: 0.8; stroke-linecap: square"/>
    </g>
    <g id="text_22">
     <!-- 0.0 -->
     <g transform="translate(328.752151 234.345354) scale(0.1 -0.1)">
      <use xlink:href="#DejaVuSans-30"/>
      <use xlink:href="#DejaVuSans-2e" x="63.623047"/>
      <use xlink:href="#DejaVuSans-30" x="95.410156"/>
     </g>
    </g>
   </g>
   <g id="xtick_18">
    <g id="line2d_22">
     <path d="M 370.828367 218.551884 
L 369.125593 220.195449 
" style="fill: none; stroke: #000000; stroke-width: 0.8; stroke-linecap: square"/>
    </g>
    <g id="text_23">
     <!-- 0.5 -->
     <g transform="translate(354.881601 243.096841) scale(0.1 -0.1)">
      <use xlink:href="#DejaVuSans-30"/>
      <use xlink:href="#DejaVuSans-2e" x="63.623047"/>
      <use xlink:href="#DejaVuSans-35" x="95.410156"/>
     </g>
    </g>
   </g>
   <g id="xtick_19">
    <g id="line2d_23">
     <path d="M 397.519283 227.260523 
L 395.856397 228.943036 
" style="fill: none; stroke: #000000; stroke-width: 0.8; stroke-linecap: square"/>
    </g>
    <g id="text_24">
     <!-- 1.0 -->
     <g transform="translate(381.629418 252.055437) scale(0.1 -0.1)">
      <use xlink:href="#DejaVuSans-31"/>
      <use xlink:href="#DejaVuSans-2e" x="63.623047"/>
      <use xlink:href="#DejaVuSans-30" x="95.410156"/>
     </g>
    </g>
   </g>
  </g>
  <g id="axis3d_5">
   <g id="line2d_24">
    <path d="M 467.711306 165.916001 
L 404.87341 230.403142 
" style="fill: none; stroke: #000000; stroke-width: 0.8; stroke-linecap: square"/>
   </g>
   <g id="text_25">
    <!-- s -->
    <g transform="translate(462.073303 227.496037) scale(0.1 -0.1)">
     <use xlink:href="#DejaVuSans-73"/>
    </g>
   </g>
   <g id="Line3DCollection_6">
    <path d="M 287.333024 98.917721 
L 291.380353 187.754745 
L 409.221306 225.941131 
" style="fill: none; stroke: #b0b0b0; stroke-width: 0.8"/>
    <path d="M 304.167383 86.632772 
L 307.407435 174.320526 
L 423.744477 211.036784 
" style="fill: none; stroke: #b0b0b0; stroke-width: 0.8"/>
    <path d="M 320.348116 74.824811 
L 322.83874 161.385701 
L 437.69985 196.715139 
" style="fill: none; stroke: #b0b0b0; stroke-width: 0.8"/>
    <path d="M 335.912564 63.466585 
L 337.706882 148.922929 
L 451.120084 182.942677 
" style="fill: none; stroke: #b0b0b0; stroke-width: 0.8"/>
    <path d="M 350.895279 52.532882 
L 352.042137 136.906834 
L 464.03538 169.688405 
" style="fill: none; stroke: #b0b0b0; stroke-width: 0.8"/>
   </g>
   <g id="xtick_20">
    <g id="line2d_25">
     <path d="M 408.228256 225.619333 
L 411.209972 226.585559 
" style="fill: none; stroke: #000000; stroke-width: 0.8; stroke-linecap: square"/>
    </g>
    <g id="text_26">
     <!-- −1.0 -->
     <g transform="translate(409.962568 246.964981) scale(0.1 -0.1)">
      <use xlink:href="#DejaVuSans-2212"/>
      <use xlink:href="#DejaVuSans-31" x="83.789062"/>
      <use xlink:href="#DejaVuSans-2e" x="147.412109"/>
      <use xlink:href="#DejaVuSans-30" x="179.199219"/>
     </g>
    </g>
   </g>
   <g id="xtick_21">
    <g id="line2d_26">
     <path d="M 422.765091 210.727688 
L 425.705731 211.655761 
" style="fill: none; stroke: #000000; stroke-width: 0.8; stroke-linecap: square"/>
    </g>
    <g id="text_27">
     <!-- −0.5 -->
     <g transform="translate(424.239469 231.781708) scale(0.1 -0.1)">
      <use xlink:href="#DejaVuSans-2212"/>
      <use xlink:href="#DejaVuSans-30" x="83.789062"/>
      <use xlink:href="#DejaVuSans-2e" x="147.412109"/>
      <use xlink:href="#DejaVuSans-35" x="179.199219"/>
     </g>
    </g>
   </g>
   <g id="xtick_22">
    <g id="line2d_27">
     <path d="M 436.733829 196.418006 
L 439.634293 197.310142 
" style="fill: none; stroke: #000000; stroke-width: 0.8; stroke-linecap: square"/>
    </g>
    <g id="text_28">
     <!-- 0.0 -->
     <g transform="translate(442.147638 217.192473) scale(0.1 -0.1)">
      <use xlink:href="#DejaVuSans-30"/>
      <use xlink:href="#DejaVuSans-2e" x="63.623047"/>
      <use xlink:href="#DejaVuSans-30" x="95.410156"/>
     </g>
    </g>
   </g>
   <g id="xtick_23">
    <g id="line2d_28">
     <path d="M 450.167132 182.656827 
L 453.02831 183.515074 
" style="fill: none; stroke: #000000; stroke-width: 0.8; stroke-linecap: square"/>
    </g>
    <g id="text_29">
     <!-- 0.5 -->
     <g transform="translate(455.339539 203.163083) scale(0.1 -0.1)">
      <use xlink:href="#DejaVuSans-30"/>
      <use xlink:href="#DejaVuSans-2e" x="63.623047"/>
      <use xlink:href="#DejaVuSans-35" x="95.410156"/>
     </g>
    </g>
   </g>
   <g id="xtick_24">
    <g id="line2d_29">
     <path d="M 463.095207 169.413207 
L 465.917975 170.23946 
" style="fill: none; stroke: #000000; stroke-width: 0.8; stroke-linecap: square"/>
    </g>
    <g id="text_30">
     <!-- 1.0 -->
     <g transform="translate(468.034746 189.661918) scale(0.1 -0.1)">
      <use xlink:href="#DejaVuSans-31"/>
      <use xlink:href="#DejaVuSans-2e" x="63.623047"/>
      <use xlink:href="#DejaVuSans-30" x="95.410156"/>
     </g>
    </g>
   </g>
  </g>
  <g id="axis3d_6">
   <g id="line2d_30">
    <path d="M 467.711306 165.916001 
L 471.693358 78.958173 
" style="fill: none; stroke: #000000; stroke-width: 0.8; stroke-linecap: square"/>
   </g>
   <g id="text_31">
    <!-- U -->
    <g transform="translate(506.304593 120.749121) scale(0.1 -0.1)">
     <use xlink:href="#DejaVuSans-55"/>
    </g>
   </g>
   <g id="Line3DCollection_7">
    <path d="M 468.207115 155.088805 
L 356.006394 122.996798 
L 286.054655 180.684254 
" style="fill: none; stroke: #b0b0b0; stroke-width: 0.8"/>
    <path d="M 469.15369 134.418023 
L 355.776362 102.992642 
L 285.03471 159.50443 
" style="fill: none; stroke: #b0b0b0; stroke-width: 0.8"/>
    <path d="M 470.120528 113.304756 
L 355.541645 82.580993 
L 283.992087 137.853696 
" style="fill: none; stroke: #b0b0b0; stroke-width: 0.8"/>
    <path d="M 471.108286 91.734645 
L 355.302096 61.749274 
L 282.926022 115.716169 
" style="fill: none; stroke: #b0b0b0; stroke-width: 0.8"/>
   </g>
   <g id="xtick_25">
    <g id="line2d_31">
     <path d="M 467.265196 154.819394 
L 470.093205 155.628271 
" style="fill: none; stroke: #000000; stroke-width: 0.8; stroke-linecap: square"/>
    </g>
    <g id="text_32">
     <!-- 0.0 -->
     <g transform="translate(478.589204 160.11106) scale(0.1 -0.1)">
      <use xlink:href="#DejaVuSans-30"/>
      <use xlink:href="#DejaVuSans-2e" x="63.623047"/>
      <use xlink:href="#DejaVuSans-30" x="95.410156"/>
     </g>
    </g>
   </g>
   <g id="xtick_26">
    <g id="line2d_32">
     <path d="M 468.20142 134.154077 
L 471.060532 134.946552 
" style="fill: none; stroke: #000000; stroke-width: 0.8; stroke-linecap: square"/>
    </g>
    <g id="text_33">
     <!-- 0.2 -->
     <g transform="translate(479.72554 139.492625) scale(0.1 -0.1)">
      <use xlink:href="#DejaVuSans-30"/>
      <use xlink:href="#DejaVuSans-2e" x="63.623047"/>
      <use xlink:href="#DejaVuSans-32" x="95.410156"/>
     </g>
    </g>
   </g>
   <g id="xtick_27">
    <g id="line2d_33">
     <path d="M 469.157676 113.046572 
L 472.048583 113.821755 
" style="fill: none; stroke: #000000; stroke-width: 0.8; stroke-linecap: square"/>
    </g>
    <g id="text_34">
     <!-- 0.4 -->
     <g transform="translate(480.886106 118.434544) scale(0.1 -0.1)">
      <use xlink:href="#DejaVuSans-30"/>
      <use xlink:href="#DejaVuSans-2e" x="63.623047"/>
      <use xlink:href="#DejaVuSans-34" x="95.410156"/>
     </g>
    </g>
   </g>
   <g id="xtick_28">
    <g id="line2d_34">
     <path d="M 470.134616 91.482535 
L 473.058031 92.239487 
" style="fill: none; stroke: #000000; stroke-width: 0.8; stroke-linecap: square"/>
    </g>
    <g id="text_35">
     <!-- 0.6 -->
     <g transform="translate(482.071686 96.922602) scale(0.1 -0.1)">
      <use xlink:href="#DejaVuSans-30"/>
      <use xlink:href="#DejaVuSans-2e" x="63.623047"/>
      <use xlink:href="#DejaVuSans-36" x="95.410156"/>
     </g>
    </g>
   </g>
  </g>
  <g id="axes_2">
   <g id="Line3DCollection_8">
    <path d="M 298.440462 188.182244 
L 303.02372 181.039238 
L 307.704171 174.731367 
L 312.476867 169.283875 
L 317.336465 164.72011 
L 322.277247 161.061356 
L 327.29313 158.32667 
L 332.377695 156.532732 
L 337.524206 155.693705 
L 342.725637 155.821117 
L 347.974707 156.923754 
L 353.263905 159.007573 
L 358.585531 162.075636 
L 363.931729 166.128065 
L 369.294527 171.162017 
L 374.665876 177.171681 
L 380.03769 184.1483 
L 385.401885 192.080211 
L 390.750422 200.952914 
L 396.075347 210.749149 
L 401.368826 221.449011 
" clip-path="url(#pa15dc0bc4b)" style="fill: none; stroke: #000000; stroke-width: 0.3"/>
    <path d="M 301.332384 176.739263 
L 305.938342 169.513616 
L 310.640449 163.128126 
L 315.433702 157.608262 
L 320.312707 152.977589 
L 325.271691 149.257594 
L 330.304525 146.467522 
L 335.404742 144.624227 
L 340.565562 143.742029 
L 345.77992 143.832595 
L 351.040495 144.90483 
L 356.339745 146.964792 
L 361.669939 150.015622 
L 367.023196 154.057501 
L 372.391524 159.08762 
L 377.766856 165.100184 
L 383.141094 172.086427 
L 388.506147 180.034656 
L 393.853974 188.930316 
L 399.176623 198.756076 
L 404.466267 209.491934 
" clip-path="url(#pa15dc0bc4b)" style="fill: none; stroke: #000000; stroke-width: 0.3"/>
    <path d="M 304.263622 166.207157 
L 308.890355 158.908476 
L 313.612103 152.454255 
L 318.423812 146.870151 
L 323.320037 142.179906 
L 328.294961 138.405177 
L 333.342408 135.565366 
L 338.455872 133.677471 
L 343.628534 132.755944 
L 348.853296 132.812571 
L 354.122807 133.856359 
L 359.429498 135.893453 
L 364.765616 138.927064 
L 370.123263 142.957426 
L 375.494432 147.981767 
L 380.871049 153.994309 
L 386.245012 160.986285 
L 391.60823 168.945986 
L 396.952669 177.858821 
L 402.270385 187.707407 
L 407.553569 198.471671 
" clip-path="url(#pa15dc0bc4b)" style="fill: none; stroke: #000000; stroke-width: 0.3"/>
    <path d="M 307.230005 156.601453 
L 311.87553 149.239564 
L 316.614847 142.725706 
L 321.442856 137.085684 
L 326.354066 132.343383 
L 331.342618 128.520592 
L 336.402299 125.636838 
L 341.526565 123.709236 
L 346.708569 122.752346 
L 351.941182 122.778046 
L 357.217032 123.79543 
L 362.52853 125.810715 
L 367.86791 128.827175 
L 373.227262 132.84509 
L 378.598576 137.861724 
L 383.973777 143.87132 
L 389.344766 150.865122 
L 394.703463 158.831415 
L 400.041845 167.75559 
L 405.351989 177.620231 
L 410.626105 188.405223 
" clip-path="url(#pa15dc0bc4b)" style="fill: none; stroke: #000000; stroke-width: 0.3"/>
    <path d="M 310.227262 147.93503 
L 314.889541 140.519925 
L 319.644306 133.955685 
L 324.486411 128.268221 
L 329.410327 123.481522 
L 334.410157 119.617473 
L 339.479654 116.695695 
L 344.612247 114.73339 
L 349.801062 113.745196 
L 355.03895 113.743068 
L 360.318523 114.736165 
L 365.632181 116.730764 
L 370.97215 119.730187 
L 376.33052 123.73476 
L 381.699282 128.741781 
L 387.070368 134.745519 
L 392.435694 141.737234 
L 397.787196 149.70522 
L 403.116872 158.634867 
L 408.416824 168.50875 
L 413.679295 179.306734 
" clip-path="url(#pa15dc0bc4b)" style="fill: none; stroke: #000000; stroke-width: 0.3"/>
    <path d="M 313.251045 140.218056 
L 317.927992 132.759852 
L 322.696036 126.1546 
L 327.549993 120.42828 
L 332.484297 115.604943 
L 337.49302 111.706538 
L 342.569889 108.752746 
L 347.708307 106.760823 
L 352.901382 105.745465 
L 358.141954 105.718675 
L 363.422623 106.689661 
L 368.735786 108.664745 
L 374.073671 111.647292 
L 379.428372 115.637662 
L 384.791893 120.633189 
L 390.156181 126.628172 
L 395.513171 133.613896 
L 400.854825 141.578675 
L 406.173171 150.507918 
L 411.460344 160.384211 
L 416.708625 171.187425 
" clip-path="url(#pa15dc0bc4b)" style="fill: none; stroke: #000000; stroke-width: 0.3"/>
    <path d="M 316.296947 133.457954 
L 320.986431 125.966839 
L 325.765548 119.330018 
L 330.629077 113.573495 
L 335.571421 108.721348 
L 340.586627 104.795551 
L 345.668399 101.815811 
L 350.810123 99.799414 
L 356.004897 98.76108 
L 361.245552 98.712844 
L 366.524687 99.663942 
L 371.834703 101.620725 
L 377.167835 104.58659 
L 382.516194 108.561932 
L 387.871799 113.544114 
L 393.226624 119.527471 
L 398.57263 126.50332 
L 403.901814 134.460011 
L 409.20624 143.382985 
L 414.478085 153.254862 
L 419.709673 164.055546 
" clip-path="url(#pa15dc0bc4b)" style="fill: none; stroke: #000000; stroke-width: 0.3"/>
    <path d="M 319.360524 127.659382 
L 324.06038 120.145573 
L 328.848329 113.48665 
L 333.719121 107.708604 
L 338.667135 102.835499 
L 343.686393 98.8893 
L 348.770585 95.889709 
L 353.913088 93.854006 
L 359.106992 92.796916 
L 364.345129 92.730477 
L 369.620104 93.663938 
L 374.924329 95.603665 
L 380.250056 98.553078 
L 385.589416 102.512596 
L 390.934457 107.479617 
L 396.277182 113.448509 
L 401.60959 120.410635 
L 406.923718 128.35439 
L 412.211675 137.265264 
L 417.465686 147.125934 
L 422.678127 157.916361 
" clip-path="url(#pa15dc0bc4b)" style="fill: none; stroke: #000000; stroke-width: 0.3"/>
    <path d="M 322.437317 122.824237 
L 327.145347 115.297925 
L 331.939864 108.626349 
L 336.815589 102.835443 
L 341.766882 97.949221 
L 346.787751 93.989603 
L 351.871874 90.97625 
L 357.012624 88.926413 
L 362.203092 87.854789 
L 367.436119 87.773403 
L 372.704322 88.691494 
L 378.000131 90.615432 
L 383.315821 93.548646 
L 388.643554 97.491578 
L 393.975411 102.441655 
L 399.303436 108.393287 
L 404.619671 115.337887 
L 409.916202 123.263907 
L 415.185188 132.156908 
L 420.418912 141.999639 
L 425.609809 152.772146 
" clip-path="url(#pa15dc0bc4b)" style="fill: none; stroke: #000000; stroke-width: 0.3"/>
    <path d="M 325.522874 118.951674 
L 330.236857 111.422982 
L 335.035655 104.748137 
L 339.91397 98.952976 
L 344.866144 94.061427 
L 349.886176 90.095329 
L 354.96774 87.074271 
L 360.104212 85.015442 
L 365.288691 83.933492 
L 370.51403 83.840403 
L 375.772868 84.745393 
L 381.057659 86.654817 
L 386.360711 89.572107 
L 391.674223 93.497719 
L 396.990317 98.42911 
L 402.301085 104.360736 
L 407.59862 111.284064 
L 412.875062 119.187621 
L 418.122633 128.057049 
L 423.333676 137.875194 
L 428.50069 148.62221 
" clip-path="url(#pa15dc0bc4b)" style="fill: none; stroke: #000000; stroke-width: 0.3"/>
    <path d="M 328.612767 116.038146 
L 333.330465 108.517083 
L 338.131248 101.848245 
L 343.0098 96.057338 
L 347.960455 91.168164 
L 352.977206 87.202447 
L 358.05373 84.179674 
L 363.183411 82.116945 
L 368.359363 81.028832 
L 373.57446 80.927261 
L 378.821367 81.821403 
L 384.092573 83.71759 
L 389.380424 86.619243 
L 394.677162 90.52683 
L 399.974961 95.437837 
L 405.265964 101.346765 
L 410.542326 108.245148 
L 415.796248 116.121594 
L 421.020019 124.961847 
L 426.206049 134.748868 
L 431.346912 145.462942 
" clip-path="url(#pa15dc0bc4b)" style="fill: none; stroke: #000000; stroke-width: 0.3"/>
    <path d="M 331.702618 114.077465 
L 336.421782 106.573877 
L 341.222246 99.920175 
L 346.098684 94.141894 
L 351.045423 89.262673 
L 356.056459 85.30409 
L 361.125478 82.285498 
L 366.245876 80.22388 
L 371.410789 79.133709 
L 376.61312 79.026828 
L 381.845568 79.91235 
L 387.10066 81.796565 
L 392.370791 84.682879 
L 397.648252 88.571764 
L 402.925275 93.460732 
L 408.194065 99.344335 
L 413.446841 106.214179 
L 418.675875 114.058966 
L 423.873527 122.864557 
L 429.032285 132.614047 
L 434.1448 143.287876 
" clip-path="url(#pa15dc0bc4b)" style="fill: none; stroke: #000000; stroke-width: 0.3"/>
    <path d="M 334.788113 113.060877 
L 339.506491 105.584409 
L 344.304336 98.954783 
L 349.176314 93.197324 
L 354.116755 88.335477 
L 359.119659 84.390641 
L 364.178728 81.382004 
L 369.287378 79.326406 
L 374.438775 78.238196 
L 379.625854 78.129118 
L 384.841355 79.008205 
L 390.077854 80.881697 
L 395.327796 83.752971 
L 400.583533 87.6225 
L 405.83736 92.487822 
L 411.08155 98.343542 
L 416.308395 105.181345 
L 421.510242 112.990039 
L 426.679531 121.755614 
L 431.808832 131.46132 
L 436.890879 142.087773 
" clip-path="url(#pa15dc0bc4b)" style="fill: none; stroke: #000000; stroke-width: 0.3"/>
    <path d="M 337.865025 112.977151 
L 342.580368 105.537207 
L 347.373301 98.940369 
L 352.238489 93.211722 
L 357.170266 88.374481 
L 362.162647 84.449833 
L 367.209352 81.456778 
L 372.303826 79.411982 
L 377.439268 78.329652 
L 382.608653 78.221409 
L 387.80477 79.096194 
L 393.020248 80.960182 
L 398.247593 83.816715 
L 403.479221 87.666258 
L 408.707497 92.506377 
L 413.924769 98.331731 
L 419.12341 105.134093 
L 424.295847 112.902385 
L 429.434607 121.62274 
L 434.532345 131.278584 
L 439.581886 141.850728 
" clip-path="url(#pa15dc0bc4b)" style="fill: none; stroke: #000000; stroke-width: 0.3"/>
    <path d="M 340.929228 113.81269 
L 345.639298 106.418392 
L 350.425042 99.862796 
L 355.28113 94.170707 
L 360.201905 89.365084 
L 365.181403 85.466871 
L 370.213367 82.49485 
L 375.291278 80.465494 
L 380.408372 79.39284 
L 385.557674 79.288373 
L 390.732025 80.160924 
L 395.924116 82.016591 
L 401.126517 84.858672 
L 406.331719 88.687623 
L 411.532161 93.501034 
L 416.720274 99.293622 
L 421.888514 106.05725 
L 427.029399 113.780969 
L 432.135544 122.45107 
L 437.199699 132.051164 
L 442.214781 142.562284 
" clip-path="url(#pa15dc0bc4b)" style="fill: none; stroke: #000000; stroke-width: 0.3"/>
    <path d="M 343.976716 115.551647 
L 348.679292 108.211805 
L 353.455593 101.705609 
L 358.300298 96.057557 
L 363.207768 91.290316 
L 368.172059 87.424562 
L 373.186949 84.478834 
L 378.245956 82.469387 
L 383.342364 81.41007 
L 388.46925 81.312211 
L 393.619517 82.184519 
L 398.78592 84.033005 
L 403.961103 86.860913 
L 409.137634 90.668687 
L 414.308036 95.453938 
L 419.464827 101.211443 
L 424.600553 107.933167 
L 429.707826 115.608292 
L 434.779358 124.223281 
L 439.807996 133.761951 
L 444.786755 144.205571 
" clip-path="url(#pa15dc0bc4b)" style="fill: none; stroke: #000000; stroke-width: 0.3"/>
    <path d="M 347.003618 118.176061 
L 351.696502 110.89914 
L 356.461135 104.450181 
L 361.292209 98.853344 
L 366.184107 94.130978 
L 371.130915 90.303464 
L 376.126447 87.389071 
L 381.164266 85.403818 
L 386.237708 84.361346 
L 391.33991 84.272809 
L 396.463839 85.146782 
L 401.602325 86.989174 
L 406.74809 89.803174 
L 411.893785 93.589204 
L 417.032022 98.344897 
L 422.155412 104.065096 
L 427.256597 110.741867 
L 432.328287 118.364538 
L 437.363296 126.919752 
L 442.354574 136.391548 
L 447.295239 146.761449 
" clip-path="url(#pa15dc0bc4b)" style="fill: none; stroke: #000000; stroke-width: 0.3"/>
    <path d="M 350.006208 121.665993 
L 354.687233 114.460085 
L 359.438008 108.075853 
L 364.253245 102.537089 
L 369.127351 97.865796 
L 374.054449 94.082037 
L 379.028395 91.203792 
L 384.042801 89.246818 
L 389.091062 88.224532 
L 394.166379 88.147902 
L 399.261793 89.025351 
L 404.370209 90.862682 
L 409.484436 93.663016 
L 414.597213 97.426755 
L 419.701245 102.151551 
L 424.789242 107.832313 
L 429.853948 114.461216 
L 434.888176 122.027739 
L 439.884846 130.518721 
L 444.837014 139.918433 
L 449.737905 150.20867 
" clip-path="url(#pa15dc0bc4b)" style="fill: none; stroke: #000000; stroke-width: 0.3"/>
    <path d="M 352.980924 125.999681 
L 357.647957 118.872484 
L 362.382726 112.560096 
L 367.179965 107.085918 
L 372.034112 102.471585 
L 376.93933 98.736816 
L 381.889522 95.899281 
L 386.878357 93.974458 
L 391.899291 92.975524 
L 396.945598 92.913243 
L 402.010395 93.79588 
L 407.08667 95.629119 
L 412.167322 98.41601 
L 417.245184 102.156926 
L 422.313062 106.849543 
L 427.363766 112.488836 
L 432.390148 119.067092 
L 437.385128 126.573952 
L 442.341737 134.996457 
L 447.253141 144.319126 
L 452.112676 154.524041 
" clip-path="url(#pa15dc0bc4b)" style="fill: none; stroke: #000000; stroke-width: 0.3"/>
    <path d="M 355.924371 131.153695 
L 360.575325 124.112487 
L 365.291986 117.878673 
L 370.069118 112.475235 
L 374.901195 107.923417 
L 379.782424 104.242577 
L 384.706761 101.450052 
L 389.667936 99.561027 
L 394.659474 98.588423 
L 399.674723 98.542788 
L 404.706883 99.432216 
L 409.749031 101.262265 
L 414.79416 104.035909 
L 419.835201 107.75349 
L 424.865066 112.412704 
L 429.876672 118.008594 
L 434.862979 124.533568 
L 439.817022 131.97743 
L 444.731944 140.327437 
L 449.601026 149.568366 
L 454.417718 159.6826 
" clip-path="url(#pa15dc0bc4b)" style="fill: none; stroke: #000000; stroke-width: 0.3"/>
    <path d="M 358.833335 137.103097 
L 363.466168 130.154723 
L 368.162673 124.005805 
L 372.917647 118.678885 
L 377.725605 114.194797 
L 382.580804 110.572516 
L 387.477257 107.829031 
L 392.408759 105.979217 
L 397.368908 105.035725 
L 402.351134 105.008878 
L 407.348722 105.906587 
L 412.354845 107.734279 
L 417.362592 110.494844 
L 422.365001 114.188592 
L 427.355089 118.813239 
L 432.325886 124.363898 
L 437.270466 130.833097 
L 442.18198 138.210817 
L 447.053688 146.484534 
L 451.878988 155.639294 
L 456.651448 165.657797 
" clip-path="url(#pa15dc0bc4b)" style="fill: none; stroke: #000000; stroke-width: 0.3"/>
    <path d="M 298.440462 188.182244 
L 301.332384 176.739263 
L 304.263622 166.207157 
L 307.230005 156.601453 
L 310.227262 147.93503 
L 313.251045 140.218056 
L 316.296947 133.457954 
L 319.360524 127.659382 
L 322.437317 122.824237 
L 325.522874 118.951674 
L 328.612767 116.038146 
L 331.702618 114.077465 
L 334.788113 113.060877 
L 337.865025 112.977151 
L 340.929228 113.81269 
L 343.976716 115.551647 
L 347.003618 118.176061 
L 350.006208 121.665993 
L 352.980924 125.999681 
L 355.924371 131.153695 
L 358.833335 137.103097 
" clip-path="url(#pa15dc0bc4b)" style="fill: none; stroke: #000000; stroke-width: 0.3"/>
    <path d="M 303.02372 181.039238 
L 305.938342 169.513616 
L 308.890355 158.908476 
L 311.87553 149.239564 
L 314.889541 140.519925 
L 317.927992 132.759852 
L 320.986431 125.966839 
L 324.06038 120.145573 
L 327.145347 115.297925 
L 330.236857 111.422982 
L 333.330465 108.517083 
L 336.421782 106.573877 
L 339.506491 105.584409 
L 342.580368 105.537207 
L 345.639298 106.418392 
L 348.679292 108.211805 
L 351.696502 110.89914 
L 354.687233 114.460085 
L 357.647957 118.872484 
L 360.575325 124.112487 
L 363.466168 130.154723 
" clip-path="url(#pa15dc0bc4b)" style="fill: none; stroke: #000000; stroke-width: 0.3"/>
    <path d="M 307.704171 174.731367 
L 310.640449 163.128126 
L 313.612103 152.454255 
L 316.614847 142.725706 
L 319.644306 133.955685 
L 322.696036 126.1546 
L 325.765548 119.330018 
L 328.848329 113.48665 
L 331.939864 108.626349 
L 335.035655 104.748137 
L 338.131248 101.848245 
L 341.222246 99.920175 
L 344.304336 98.954783 
L 347.373301 98.940369 
L 350.425042 99.862796 
L 353.455593 101.705609 
L 356.461135 104.450181 
L 359.438008 108.075853 
L 362.382726 112.560096 
L 365.291986 117.878673 
L 368.162673 124.005805 
" clip-path="url(#pa15dc0bc4b)" style="fill: none; stroke: #000000; stroke-width: 0.3"/>
    <path d="M 312.476867 169.283875 
L 315.433702 157.608262 
L 318.423812 146.870151 
L 321.442856 137.085684 
L 324.486411 128.268221 
L 327.549993 120.42828 
L 330.629077 113.573495 
L 333.719121 107.708604 
L 336.815589 102.835443 
L 339.91397 98.952976 
L 343.0098 96.057338 
L 346.098684 94.141894 
L 349.176314 93.197324 
L 352.238489 93.211722 
L 355.28113 94.170707 
L 358.300298 96.057557 
L 361.292209 98.853344 
L 364.253245 102.537089 
L 367.179965 107.085918 
L 370.069118 112.475235 
L 372.917647 118.678885 
" clip-path="url(#pa15dc0bc4b)" style="fill: none; stroke: #000000; stroke-width: 0.3"/>
    <path d="M 317.336465 164.72011 
L 320.312707 152.977589 
L 323.320037 142.179906 
L 326.354066 132.343383 
L 329.410327 123.481522 
L 332.484297 115.604943 
L 335.571421 108.721348 
L 338.667135 102.835499 
L 341.766882 97.949221 
L 344.866144 94.061427 
L 347.960455 91.168164 
L 351.045423 89.262673 
L 354.116755 88.335477 
L 357.170266 88.374481 
L 360.201905 89.365084 
L 363.207768 91.290316 
L 366.184107 94.130978 
L 369.127351 97.865796 
L 372.034112 102.471585 
L 374.901195 107.923417 
L 377.725605 114.194797 
" clip-path="url(#pa15dc0bc4b)" style="fill: none; stroke: #000000; stroke-width: 0.3"/>
    <path d="M 322.277247 161.061356 
L 325.271691 149.257594 
L 328.294961 138.405177 
L 331.342618 128.520592 
L 334.410157 119.617473 
L 337.49302 111.706538 
L 340.586627 104.795551 
L 343.686393 98.8893 
L 346.787751 93.989603 
L 349.886176 90.095329 
L 352.977206 87.202447 
L 356.056459 85.30409 
L 359.119659 84.390641 
L 362.162647 84.449833 
L 365.181403 85.466871 
L 368.172059 87.424562 
L 371.130915 90.303464 
L 374.054449 94.082037 
L 376.93933 98.736816 
L 379.782424 104.242577 
L 382.580804 110.572516 
" clip-path="url(#pa15dc0bc4b)" style="fill: none; stroke: #000000; stroke-width: 0.3"/>
    <path d="M 327.29313 158.32667 
L 330.304525 146.467522 
L 333.342408 135.565366 
L 336.402299 125.636838 
L 339.479654 116.695695 
L 342.569889 108.752746 
L 345.668399 101.815811 
L 348.770585 95.889709 
L 351.871874 90.97625 
L 354.96774 87.074271 
L 358.05373 84.179674 
L 361.125478 82.285498 
L 364.178728 81.382004 
L 367.209352 81.456778 
L 370.213367 82.49485 
L 373.186949 84.478834 
L 376.126447 87.389071 
L 379.028395 91.203792 
L 381.889522 95.899281 
L 384.706761 101.450052 
L 387.477257 107.829031 
" clip-path="url(#pa15dc0bc4b)" style="fill: none; stroke: #000000; stroke-width: 0.3"/>
    <path d="M 332.377695 156.532732 
L 335.404742 144.624227 
L 338.455872 133.677471 
L 341.526565 123.709236 
L 344.612247 114.73339 
L 347.708307 106.760823 
L 350.810123 99.799414 
L 353.913088 93.854006 
L 357.012624 88.926413 
L 360.104212 85.015442 
L 363.183411 82.116945 
L 366.245876 80.22388 
L 369.287378 79.326406 
L 372.303826 79.411982 
L 375.291278 80.465494 
L 378.245956 82.469387 
L 381.164266 85.403818 
L 384.042801 89.246818 
L 386.878357 93.974458 
L 389.667936 99.561027 
L 392.408759 105.979217 
" clip-path="url(#pa15dc0bc4b)" style="fill: none; stroke: #000000; stroke-width: 0.3"/>
    <path d="M 337.524206 155.693705 
L 340.565562 143.742029 
L 343.628534 132.755944 
L 346.708569 122.752346 
L 349.801062 113.745196 
L 352.901382 105.745465 
L 356.004897 98.76108 
L 359.106992 92.796916 
L 362.203092 87.854789 
L 365.288691 83.933492 
L 368.359363 81.028832 
L 371.410789 79.133709 
L 374.438775 78.238196 
L 377.439268 78.329652 
L 380.408372 79.39284 
L 383.342364 81.41007 
L 386.237708 84.361346 
L 389.091062 88.224532 
L 391.899291 92.975524 
L 394.659474 98.588423 
L 397.368908 105.035725 
" clip-path="url(#pa15dc0bc4b)" style="fill: none; stroke: #000000; stroke-width: 0.3"/>
    <path d="M 342.725637 155.821117 
L 345.77992 143.832595 
L 348.853296 132.812571 
L 351.941182 122.778046 
L 355.03895 113.743068 
L 358.141954 105.718675 
L 361.245552 98.712844 
L 364.345129 92.730477 
L 367.436119 87.773403 
L 370.51403 83.840403 
L 373.57446 80.927261 
L 376.61312 79.026828 
L 379.625854 78.129118 
L 382.608653 78.221409 
L 385.557674 79.288373 
L 388.46925 81.312211 
L 391.33991 84.272809 
L 394.166379 88.147902 
L 396.945598 92.913243 
L 399.674723 98.542788 
L 402.351134 105.008878 
" clip-path="url(#pa15dc0bc4b)" style="fill: none; stroke: #000000; stroke-width: 0.3"/>
    <path d="M 347.974707 156.923754 
L 351.040495 144.90483 
L 354.122807 133.856359 
L 357.217032 123.79543 
L 360.318523 114.736165 
L 363.422623 106.689661 
L 366.524687 99.663942 
L 369.620104 93.663938 
L 372.704322 88.691494 
L 375.772868 84.745393 
L 378.821367 81.821403 
L 381.845568 79.91235 
L 384.841355 79.008205 
L 387.80477 79.096194 
L 390.732025 80.160924 
L 393.619517 82.184519 
L 396.463839 85.146782 
L 399.261793 89.025351 
L 402.010395 93.79588 
L 404.706883 99.432216 
L 407.348722 105.906587 
" clip-path="url(#pa15dc0bc4b)" style="fill: none; stroke: #000000; stroke-width: 0.3"/>
    <path d="M 353.263905 159.007573 
L 356.339745 146.964792 
L 359.429498 135.893453 
L 362.52853 125.810715 
L 365.632181 116.730764 
L 368.735786 108.664745 
L 371.834703 101.620725 
L 374.924329 95.603665 
L 378.000131 90.615432 
L 381.057659 86.654817 
L 384.092573 83.71759 
L 387.10066 81.796565 
L 390.077854 80.881697 
L 393.020248 80.960182 
L 395.924116 82.016591 
L 398.78592 84.033005 
L 401.602325 86.989174 
L 404.370209 90.862682 
L 407.08667 95.629119 
L 409.749031 101.262265 
L 412.354845 107.734279 
" clip-path="url(#pa15dc0bc4b)" style="fill: none; stroke: #000000; stroke-width: 0.3"/>
    <path d="M 358.585531 162.075636 
L 361.669939 150.015622 
L 364.765616 138.927064 
L 367.86791 128.827175 
L 370.97215 119.730187 
L 374.073671 111.647292 
L 377.167835 104.58659 
L 380.250056 98.553078 
L 383.315821 93.548646 
L 386.360711 89.572107 
L 389.380424 86.619243 
L 392.370791 84.682879 
L 395.327796 83.752971 
L 398.247593 83.816715 
L 401.126517 84.858672 
L 403.961103 86.860913 
L 406.74809 89.803174 
L 409.484436 93.663016 
L 412.167322 98.41601 
L 414.79416 104.035909 
L 417.362592 110.494844 
" clip-path="url(#pa15dc0bc4b)" style="fill: none; stroke: #000000; stroke-width: 0.3"/>
    <path d="M 363.931729 166.128065 
L 367.023196 154.057501 
L 370.123263 142.957426 
L 373.227262 132.84509 
L 376.33052 123.73476 
L 379.428372 115.637662 
L 382.516194 108.561932 
L 385.589416 102.512596 
L 388.643554 97.491578 
L 391.674223 93.497719 
L 394.677162 90.52683 
L 397.648252 88.571764 
L 400.583533 87.6225 
L 403.479221 87.666258 
L 406.331719 88.687623 
L 409.137634 90.668687 
L 411.893785 93.589204 
L 414.597213 97.426755 
L 417.245184 102.156926 
L 419.835201 107.75349 
L 422.365001 114.188592 
" clip-path="url(#pa15dc0bc4b)" style="fill: none; stroke: #000000; stroke-width: 0.3"/>
    <path d="M 369.294527 171.162017 
L 372.391524 159.08762 
L 375.494432 147.981767 
L 378.598576 137.861724 
L 381.699282 128.741781 
L 384.791893 120.633189 
L 387.871799 113.544114 
L 390.934457 107.479617 
L 393.975411 102.441655 
L 396.990317 98.42911 
L 399.974961 95.437837 
L 402.925275 93.460732 
L 405.83736 92.487822 
L 408.707497 92.506377 
L 411.532161 93.501034 
L 414.308036 95.453938 
L 417.032022 98.344897 
L 419.701245 102.151551 
L 422.313062 106.849543 
L 424.865066 112.412704 
L 427.355089 118.813239 
" clip-path="url(#pa15dc0bc4b)" style="fill: none; stroke: #000000; stroke-width: 0.3"/>
    <path d="M 374.665876 177.171681 
L 377.766856 165.100184 
L 380.871049 153.994309 
L 383.973777 143.87132 
L 387.070368 134.745519 
L 390.156181 126.628172 
L 393.226624 119.527471 
L 396.277182 113.448509 
L 399.303436 108.393287 
L 402.301085 104.360736 
L 405.265964 101.346765 
L 408.194065 99.344335 
L 411.08155 98.343542 
L 413.924769 98.331731 
L 416.720274 99.293622 
L 419.464827 101.211443 
L 422.155412 104.065096 
L 424.789242 107.832313 
L 427.363766 112.488836 
L 429.876672 118.008594 
L 432.325886 124.363898 
" clip-path="url(#pa15dc0bc4b)" style="fill: none; stroke: #000000; stroke-width: 0.3"/>
    <path d="M 380.03769 184.1483 
L 383.141094 172.086427 
L 386.245012 160.986285 
L 389.344766 150.865122 
L 392.435694 141.737234 
L 395.513171 133.613896 
L 398.57263 126.50332 
L 401.60959 120.410635 
L 404.619671 115.337887 
L 407.59862 111.284064 
L 410.542326 108.245148 
L 413.446841 106.214179 
L 416.308395 105.181345 
L 419.12341 105.134093 
L 421.888514 106.05725 
L 424.600553 107.933167 
L 427.256597 110.741867 
L 429.853948 114.461216 
L 432.390148 119.067092 
L 434.862979 124.533568 
L 437.270466 130.833097 
" clip-path="url(#pa15dc0bc4b)" style="fill: none; stroke: #000000; stroke-width: 0.3"/>
    <path d="M 385.401885 192.080211 
L 388.506147 180.034656 
L 391.60823 168.945986 
L 394.703463 158.831415 
L 397.787196 149.70522 
L 400.854825 141.578675 
L 403.901814 134.460011 
L 406.923718 128.35439 
L 409.916202 123.263907 
L 412.875062 119.187621 
L 415.796248 116.121594 
L 418.675875 114.058966 
L 421.510242 112.990039 
L 424.295847 112.902385 
L 427.029399 113.780969 
L 429.707826 115.608292 
L 432.328287 118.364538 
L 434.888176 122.027739 
L 437.385128 126.573952 
L 439.817022 131.97743 
L 442.18198 138.210817 
" clip-path="url(#pa15dc0bc4b)" style="fill: none; stroke: #000000; stroke-width: 0.3"/>
    <path d="M 390.750422 200.952914 
L 393.853974 188.930316 
L 396.952669 177.858821 
L 400.041845 167.75559 
L 403.116872 158.634867 
L 406.173171 150.507918 
L 409.20624 143.382985 
L 412.211675 137.265264 
L 415.185188 132.156908 
L 418.122633 128.057049 
L 421.020019 124.961847 
L 423.873527 122.864557 
L 426.679531 121.755614 
L 429.434607 121.62274 
L 432.135544 122.45107 
L 434.779358 124.223281 
L 437.363296 126.919752 
L 439.884846 130.518721 
L 442.341737 134.996457 
L 444.731944 140.327437 
L 447.053688 146.484534 
" clip-path="url(#pa15dc0bc4b)" style="fill: none; stroke: #000000; stroke-width: 0.3"/>
    <path d="M 396.075347 210.749149 
L 399.176623 198.756076 
L 402.270385 187.707407 
L 405.351989 177.620231 
L 408.416824 168.50875 
L 411.460344 160.384211 
L 414.478085 153.254862 
L 417.465686 147.125934 
L 420.418912 141.999639 
L 423.333676 137.875194 
L 426.206049 134.748868 
L 429.032285 132.614047 
L 431.808832 131.46132 
L 434.532345 131.278584 
L 437.199699 132.051164 
L 439.807996 133.761951 
L 442.354574 136.391548 
L 444.837014 139.918433 
L 447.253141 144.319126 
L 449.601026 149.568366 
L 451.878988 155.639294 
" clip-path="url(#pa15dc0bc4b)" style="fill: none; stroke: #000000; stroke-width: 0.3"/>
    <path d="M 401.368826 221.449011 
L 404.466267 209.491934 
L 407.553569 198.471671 
L 410.626105 188.405223 
L 413.679295 179.306734 
L 416.708625 171.187425 
L 419.709673 164.055546 
L 422.678127 157.916361 
L 425.609809 152.772146 
L 428.50069 148.62221 
L 431.346912 145.462942 
L 434.1448 143.287876 
L 436.890879 142.087773 
L 439.581886 141.850728 
L 442.214781 142.562284 
L 444.786755 144.205571 
L 447.295239 146.761449 
L 449.737905 150.20867 
L 452.112676 154.524041 
L 454.417718 159.6826 
L 456.651448 165.657797 
" clip-path="url(#pa15dc0bc4b)" style="fill: none; stroke: #000000; stroke-width: 0.3"/>
   </g>
   <g id="text_36">
    <!-- Uncorrected E matrix -->
    <g transform="translate(312.111398 27.118125) scale(0.12 -0.12)">
     <defs>
      <path id="DejaVuSans-6e" d="M 3513 2113 
L 3513 0 
L 2938 0 
L 2938 2094 
Q 2938 2591 2744 2837 
Q 2550 3084 2163 3084 
Q 1697 3084 1428 2787 
Q 1159 2491 1159 1978 
L 1159 0 
L 581 0 
L 581 3500 
L 1159 3500 
L 1159 2956 
Q 1366 3272 1645 3428 
Q 1925 3584 2291 3584 
Q 2894 3584 3203 3211 
Q 3513 2838 3513 2113 
z
" transform="scale(0.015625)"/>
     </defs>
     <use xlink:href="#DejaVuSans-55"/>
     <use xlink:href="#DejaVuSans-6e" x="73.193359"/>
     <use xlink:href="#DejaVuSans-63" x="136.572266"/>
     <use xlink:href="#DejaVuSans-6f" x="191.552734"/>
     <use xlink:href="#DejaVuSans-72" x="252.734375"/>
     <use xlink:href="#DejaVuSans-72" x="292.097656"/>
     <use xlink:href="#DejaVuSans-65" x="330.960938"/>
     <use xlink:href="#DejaVuSans-63" x="392.484375"/>
     <use xlink:href="#DejaVuSans-74" x="447.464844"/>
     <use xlink:href="#DejaVuSans-65" x="486.673828"/>
     <use xlink:href="#DejaVuSans-64" x="548.197266"/>
     <use xlink:href="#DejaVuSans-20" x="611.673828"/>
     <use xlink:href="#DejaVuSans-45" x="643.460938"/>
     <use xlink:href="#DejaVuSans-20" x="706.644531"/>
     <use xlink:href="#DejaVuSans-6d" x="738.431641"/>
     <use xlink:href="#DejaVuSans-61" x="835.84375"/>
     <use xlink:href="#DejaVuSans-74" x="897.123047"/>
     <use xlink:href="#DejaVuSans-72" x="936.332031"/>
     <use xlink:href="#DejaVuSans-69" x="977.445312"/>
     <use xlink:href="#DejaVuSans-78" x="1005.228516"/>
    </g>
   </g>
  </g>
 </g>
 <defs>
  <clipPath id="pf150bf59c6">
   <rect x="18" y="33.118125" width="210.573984" height="210.573984"/>
  </clipPath>
  <clipPath id="pa15dc0bc4b">
   <rect x="270.688781" y="33.118125" width="210.573984" height="210.573984"/>
  </clipPath>
 </defs>
</svg>
