<?xml version="1.0" encoding="utf-8" standalone="no"?>
<!DOCTYPE svg PUBLIC "-//W3C//DTD SVG 1.1//EN"
  "http://www.w3.org/Graphics/SVG/1.1/DTD/svg11.dtd">
<svg xmlns:xlink="http://www.w3.org/1999/xlink" width="474.673973pt" height="474.673973pt" viewBox="0 0 474.673973 474.673973" xmlns="http://www.w3.org/2000/svg" version="1.1">
 <metadata>
  <rdf:RDF xmlns:dc="http://purl.org/dc/elements/1.1/" xmlns:cc="http://creativecommons.org/ns#" xmlns:rdf="http://www.w3.org/1999/02/22-rdf-syntax-ns#">
   <cc:Work>
    <dc:type rdf:resource="http://purl.org/dc/dcmitype/StillImage"/>
    <dc:date>2025-11-19T16:20:18.445229</dc:date>
    <dc:format>image/svg+xml</dc:format>
    <dc:creator>
     <cc:Agent>
      <dc:title>Matplotlib v3.6.3, https://matplotlib.org/</dc:title>
     </cc:Agent>
    </dc:creator>
   </cc:Work>
  </rdf:RDF>
 </metadata>
 <defs>
  <style type="text/css">*{stroke-linejoin: round; stroke-linecap: butt}</style>
 </defs>
 <g id="figure_1">
  <g id="patch_1">
   <path d="M 0 474.673973 
L 474.673973 474.673973 
L 474.673973 0 
L 0 0 
z
" style="fill: #ffffff"/>
  </g>
  <g id="patch_2">
   <path d="M 7.2 467.473973 
L 467.473973 467.473973 
L 467.473973 7.2 
L 7.2 7.2 
z
" style="fill: #ffffff"/>
  </g>
  <g id="pane3d_1">
   <g id="patch_3">
    <path d="M 58.453298 373.267233 
L 197.704516 254.043262 
L 195.273405 26.778843 
L 47.791061 133.234146 
" style="fill: #f2f2f2; opacity: 0.5; stroke: #f2f2f2; stroke-linejoin: miter"/>
   </g>
  </g>
  <g id="pane3d_2">
   <g id="patch_4">
    <path d="M 197.704516 254.043262 
L 422.482403 320.579817 
L 432.425666 86.075455 
L 195.273405 26.778843 
" style="fill: #e6e6e6; opacity: 0.5; stroke: #e6e6e6; stroke-linejoin: miter"/>
   </g>
  </g>
  <g id="pane3d_3">
   <g id="patch_5">
    <path d="M 58.453298 373.267233 
L 295.6105 451.410528 
L 422.482403 320.579817 
L 197.704516 254.043262 
" style="fill: #ececec; opacity: 0.5; stroke: #ececec; stroke-linejoin: miter"/>
   </g>
  </g>
  <g id="axis3d_1">
   <g id="line2d_1">
    <path d="M 58.453298 373.267233 
L 295.6105 451.410528 
" style="fill: none; stroke: #000000; stroke-width: 0.8; stroke-linecap: square"/>
   </g>
   <g id="text_1">
    <!-- x -->
    <g transform="translate(156.491253 452.390959) scale(0.1 -0.1)">
     <defs>
      <path id="DejaVuSans-78" d="M 3513 3500 
L 2247 1797 
L 3578 0 
L 2900 0 
L 1881 1375 
L 863 0 
L 184 0 
L 1544 1831 
L 300 3500 
L 978 3500 
L 1906 2253 
L 2834 3500 
L 3513 3500 
z
" transform="scale(0.015625)"/>
     </defs>
     <use xlink:href="#DejaVuSans-78"/>
    </g>
   </g>
   <g id="Line3DCollection_1">
    <path d="M 89.03398 383.343567 
L 226.783269 262.650871 
L 225.8884 34.433695 
" style="fill: none; stroke: #b0b0b0; stroke-width: 0.8"/>
    <path d="M 121.676977 394.099434 
L 257.792144 271.829815 
L 258.556594 42.601921 
" style="fill: none; stroke: #b0b0b0; stroke-width: 0.8"/>
    <path d="M 154.765 405.001938 
L 289.191245 281.12427 
L 291.658122 50.878496 
" style="fill: none; stroke: #b0b0b0; stroke-width: 0.8"/>
    <path d="M 188.307214 416.054096 
L 320.987987 290.536431 
L 325.201661 59.26559 
" style="fill: none; stroke: #b0b0b0; stroke-width: 0.8"/>
    <path d="M 222.313034 427.259014 
L 353.189971 300.068548 
L 359.196126 67.765431 
" style="fill: none; stroke: #b0b0b0; stroke-width: 0.8"/>
    <path d="M 256.792139 438.619878 
L 385.804994 309.722929 
L 393.650669 76.380309 
" style="fill: none; stroke: #b0b0b0; stroke-width: 0.8"/>
   </g>
   <g id="xtick_1">
    <g id="line2d_2">
     <path d="M 90.225794 382.299328 
L 86.645642 385.436173 
" style="fill: none; stroke: #000000; stroke-width: 0.8; stroke-linecap: square"/>
    </g>
    <g id="text_2">
     <!-- 3 -->
     <g transform="translate(79.098826 408.16106) scale(0.1 -0.1)">
      <defs>
       <path id="DejaVuSans-33" d="M 2597 2516 
Q 3050 2419 3304 2112 
Q 3559 1806 3559 1356 
Q 3559 666 3084 287 
Q 2609 -91 1734 -91 
Q 1441 -91 1130 -33 
Q 819 25 488 141 
L 488 750 
Q 750 597 1062 519 
Q 1375 441 1716 441 
Q 2309 441 2620 675 
Q 2931 909 2931 1356 
Q 2931 1769 2642 2001 
Q 2353 2234 1838 2234 
L 1294 2234 
L 1294 2753 
L 1863 2753 
Q 2328 2753 2575 2939 
Q 2822 3125 2822 3475 
Q 2822 3834 2567 4026 
Q 2313 4219 1838 4219 
Q 1578 4219 1281 4162 
Q 984 4106 628 3988 
L 628 4550 
Q 988 4650 1302 4700 
Q 1616 4750 1894 4750 
Q 2613 4750 3031 4423 
Q 3450 4097 3450 3541 
Q 3450 3153 3228 2886 
Q 3006 2619 2597 2516 
z
" transform="scale(0.015625)"/>
      </defs>
      <use xlink:href="#DejaVuSans-33"/>
     </g>
    </g>
   </g>
   <g id="xtick_2">
    <g id="line2d_3">
     <path d="M 122.855253 393.041012 
L 119.315737 396.22049 
" style="fill: none; stroke: #000000; stroke-width: 0.8; stroke-linecap: square"/>
    </g>
    <g id="text_3">
     <!-- 4 -->
     <g transform="translate(111.739299 419.047917) scale(0.1 -0.1)">
      <defs>
       <path id="DejaVuSans-34" d="M 2419 4116 
L 825 1625 
L 2419 1625 
L 2419 4116 
z
M 2253 4666 
L 3047 4666 
L 3047 1625 
L 3713 1625 
L 3713 1100 
L 3047 1100 
L 3047 0 
L 2419 0 
L 2419 1100 
L 313 1100 
L 313 1709 
L 2253 4666 
z
" transform="scale(0.015625)"/>
      </defs>
      <use xlink:href="#DejaVuSans-34"/>
     </g>
    </g>
   </g>
   <g id="xtick_3">
    <g id="line2d_4">
     <path d="M 155.929258 403.929041 
L 152.431823 407.152028 
" style="fill: none; stroke: #000000; stroke-width: 0.8; stroke-linecap: square"/>
    </g>
    <g id="text_4">
     <!-- 5 -->
     <g transform="translate(144.825358 430.083395) scale(0.1 -0.1)">
      <defs>
       <path id="DejaVuSans-35" d="M 691 4666 
L 3169 4666 
L 3169 4134 
L 1269 4134 
L 1269 2991 
Q 1406 3038 1543 3061 
Q 1681 3084 1819 3084 
Q 2600 3084 3056 2656 
Q 3513 2228 3513 1497 
Q 3513 744 3044 326 
Q 2575 -91 1722 -91 
Q 1428 -91 1123 -41 
Q 819 9 494 109 
L 494 744 
Q 775 591 1075 516 
Q 1375 441 1709 441 
Q 2250 441 2565 725 
Q 2881 1009 2881 1497 
Q 2881 1984 2565 2268 
Q 2250 2553 1709 2553 
Q 1456 2553 1204 2497 
Q 953 2441 691 2322 
L 691 4666 
z
" transform="scale(0.015625)"/>
      </defs>
      <use xlink:href="#DejaVuSans-35"/>
     </g>
    </g>
   </g>
   <g id="xtick_4">
    <g id="line2d_5">
     <path d="M 189.456955 414.966427 
L 186.003095 418.233822 
" style="fill: none; stroke: #000000; stroke-width: 0.8; stroke-linecap: square"/>
    </g>
    <g id="text_5">
     <!-- 6 -->
     <g transform="translate(178.366191 441.270557) scale(0.1 -0.1)">
      <defs>
       <path id="DejaVuSans-36" d="M 2113 2584 
Q 1688 2584 1439 2293 
Q 1191 2003 1191 1497 
Q 1191 994 1439 701 
Q 1688 409 2113 409 
Q 2538 409 2786 701 
Q 3034 994 3034 1497 
Q 3034 2003 2786 2293 
Q 2538 2584 2113 2584 
z
M 3366 4563 
L 3366 3988 
Q 3128 4100 2886 4159 
Q 2644 4219 2406 4219 
Q 1781 4219 1451 3797 
Q 1122 3375 1075 2522 
Q 1259 2794 1537 2939 
Q 1816 3084 2150 3084 
Q 2853 3084 3261 2657 
Q 3669 2231 3669 1497 
Q 3669 778 3244 343 
Q 2819 -91 2113 -91 
Q 1303 -91 875 529 
Q 447 1150 447 2328 
Q 447 3434 972 4092 
Q 1497 4750 2381 4750 
Q 2619 4750 2861 4703 
Q 3103 4656 3366 4563 
z
" transform="scale(0.015625)"/>
      </defs>
      <use xlink:href="#DejaVuSans-36"/>
     </g>
    </g>
   </g>
   <g id="xtick_5">
    <g id="line2d_6">
     <path d="M 223.447745 426.156264 
L 220.039003 429.468991 
" style="fill: none; stroke: #000000; stroke-width: 0.8; stroke-linecap: square"/>
    </g>
    <g id="text_6">
     <!-- 7 -->
     <g transform="translate(212.371238 452.612552) scale(0.1 -0.1)">
      <defs>
       <path id="DejaVuSans-37" d="M 525 4666 
L 3525 4666 
L 3525 4397 
L 1831 0 
L 1172 0 
L 2766 4134 
L 525 4134 
L 525 4666 
z
" transform="scale(0.015625)"/>
      </defs>
      <use xlink:href="#DejaVuSans-37"/>
     </g>
    </g>
   </g>
   <g id="xtick_6">
    <g id="line2d_7">
     <path d="M 257.91129 437.501733 
L 254.54926 440.860742 
" style="fill: none; stroke: #000000; stroke-width: 0.8; stroke-linecap: square"/>
    </g>
    <g id="text_7">
     <!-- 8 -->
     <g transform="translate(246.850203 464.112617) scale(0.1 -0.1)">
      <defs>
       <path id="DejaVuSans-38" d="M 2034 2216 
Q 1584 2216 1326 1975 
Q 1069 1734 1069 1313 
Q 1069 891 1326 650 
Q 1584 409 2034 409 
Q 2484 409 2743 651 
Q 3003 894 3003 1313 
Q 3003 1734 2745 1975 
Q 2488 2216 2034 2216 
z
M 1403 2484 
Q 997 2584 770 2862 
Q 544 3141 544 3541 
Q 544 4100 942 4425 
Q 1341 4750 2034 4750 
Q 2731 4750 3128 4425 
Q 3525 4100 3525 3541 
Q 3525 3141 3298 2862 
Q 3072 2584 2669 2484 
Q 3125 2378 3379 2068 
Q 3634 1759 3634 1313 
Q 3634 634 3220 271 
Q 2806 -91 2034 -91 
Q 1263 -91 848 271 
Q 434 634 434 1313 
Q 434 1759 690 2068 
Q 947 2378 1403 2484 
z
M 1172 3481 
Q 1172 3119 1398 2916 
Q 1625 2713 2034 2713 
Q 2441 2713 2670 2916 
Q 2900 3119 2900 3481 
Q 2900 3844 2670 4047 
Q 2441 4250 2034 4250 
Q 1625 4250 1398 4047 
Q 1172 3844 1172 3481 
z
" transform="scale(0.015625)"/>
      </defs>
      <use xlink:href="#DejaVuSans-38"/>
     </g>
    </g>
   </g>
  </g>
  <g id="axis3d_2">
   <g id="line2d_8">
    <path d="M 422.482403 320.579817 
L 295.6105 451.410528 
" style="fill: none; stroke: #000000; stroke-width: 0.8; stroke-linecap: square"/>
   </g>
   <g id="text_8">
    <!-- y -->
    <g transform="translate(383.217297 417.666991) scale(0.1 -0.1)">
     <defs>
      <path id="DejaVuSans-79" d="M 2059 -325 
Q 1816 -950 1584 -1140 
Q 1353 -1331 966 -1331 
L 506 -1331 
L 506 -850 
L 844 -850 
Q 1081 -850 1212 -737 
Q 1344 -625 1503 -206 
L 1606 56 
L 191 3500 
L 800 3500 
L 1894 763 
L 2988 3500 
L 3597 3500 
L 2059 -325 
z
" transform="scale(0.015625)"/>
     </defs>
     <use xlink:href="#DejaVuSans-79"/>
    </g>
   </g>
   <g id="Line3DCollection_2">
    <path d="M 61.334336 123.458376 
L 71.190387 362.362005 
L 307.254678 439.403015 
" style="fill: none; stroke: #b0b0b0; stroke-width: 0.8"/>
    <path d="M 83.434645 107.505992 
L 91.99692 344.547888 
L 326.258782 419.805922 
" style="fill: none; stroke: #b0b0b0; stroke-width: 0.8"/>
    <path d="M 105.010604 91.932092 
L 112.335899 327.13408 
L 344.815343 400.670337 
" style="fill: none; stroke: #b0b0b0; stroke-width: 0.8"/>
    <path d="M 126.080655 76.723365 
L 132.22291 310.107239 
L 362.939988 381.980146 
" style="fill: none; stroke: #b0b0b0; stroke-width: 0.8"/>
    <path d="M 146.662385 61.867116 
L 151.672853 293.454606 
L 380.647621 363.719978 
" style="fill: none; stroke: #b0b0b0; stroke-width: 0.8"/>
    <path d="M 166.772577 47.351233 
L 170.699978 277.163981 
L 397.952471 345.875161 
" style="fill: none; stroke: #b0b0b0; stroke-width: 0.8"/>
    <path d="M 186.427251 33.164149 
L 189.317926 261.223685 
L 414.868127 328.431683 
" style="fill: none; stroke: #b0b0b0; stroke-width: 0.8"/>
   </g>
   <g id="xtick_7">
    <g id="line2d_9">
     <path d="M 305.274134 438.756652 
L 311.220441 440.697266 
" style="fill: none; stroke: #000000; stroke-width: 0.8; stroke-linecap: square"/>
    </g>
    <g id="text_9">
     <!-- 1 -->
     <g transform="translate(315.776621 462.037058) scale(0.1 -0.1)">
      <defs>
       <path id="DejaVuSans-31" d="M 794 531 
L 1825 531 
L 1825 4091 
L 703 3866 
L 703 4441 
L 1819 4666 
L 2450 4666 
L 2450 531 
L 3481 531 
L 3481 0 
L 794 0 
L 794 531 
z
" transform="scale(0.015625)"/>
      </defs>
      <use xlink:href="#DejaVuSans-31"/>
     </g>
    </g>
   </g>
   <g id="xtick_8">
    <g id="line2d_10">
     <path d="M 324.294448 419.174868 
L 330.192032 421.069502 
" style="fill: none; stroke: #000000; stroke-width: 0.8; stroke-linecap: square"/>
    </g>
    <g id="text_10">
     <!-- 2 -->
     <g transform="translate(334.634484 442.267937) scale(0.1 -0.1)">
      <defs>
       <path id="DejaVuSans-32" d="M 1228 531 
L 3431 531 
L 3431 0 
L 469 0 
L 469 531 
Q 828 903 1448 1529 
Q 2069 2156 2228 2338 
Q 2531 2678 2651 2914 
Q 2772 3150 2772 3378 
Q 2772 3750 2511 3984 
Q 2250 4219 1831 4219 
Q 1534 4219 1204 4116 
Q 875 4013 500 3803 
L 500 4441 
Q 881 4594 1212 4672 
Q 1544 4750 1819 4750 
Q 2544 4750 2975 4387 
Q 3406 4025 3406 3419 
Q 3406 3131 3298 2873 
Q 3191 2616 2906 2266 
Q 2828 2175 2409 1742 
Q 1991 1309 1228 531 
z
" transform="scale(0.015625)"/>
      </defs>
      <use xlink:href="#DejaVuSans-32"/>
     </g>
    </g>
   </g>
   <g id="xtick_9">
    <g id="line2d_11">
     <path d="M 342.867009 400.054053 
L 348.716503 401.904324 
" style="fill: none; stroke: #000000; stroke-width: 0.8; stroke-linecap: square"/>
    </g>
    <g id="text_11">
     <!-- 3 -->
     <g transform="translate(353.048406 422.964209) scale(0.1 -0.1)">
      <use xlink:href="#DejaVuSans-33"/>
     </g>
    </g>
   </g>
   <g id="xtick_10">
    <g id="line2d_12">
     <path d="M 361.007445 381.378121 
L 366.809475 383.185567 
" style="fill: none; stroke: #000000; stroke-width: 0.8; stroke-linecap: square"/>
    </g>
    <g id="text_12">
     <!-- 4 -->
     <g transform="translate(371.033882 404.109631) scale(0.1 -0.1)">
      <use xlink:href="#DejaVuSans-34"/>
     </g>
    </g>
   </g>
   <g id="xtick_11">
    <g id="line2d_13">
     <path d="M 378.730663 363.131722 
L 384.485854 364.897814 
" style="fill: none; stroke: #000000; stroke-width: 0.8; stroke-linecap: square"/>
    </g>
    <g id="text_13">
     <!-- 5 -->
     <g transform="translate(388.605693 385.688707) scale(0.1 -0.1)">
      <use xlink:href="#DejaVuSans-35"/>
     </g>
    </g>
   </g>
   <g id="xtick_12">
    <g id="line2d_14">
     <path d="M 396.050893 345.300207 
L 401.759861 347.026349 
" style="fill: none; stroke: #000000; stroke-width: 0.8; stroke-linecap: square"/>
    </g>
    <g id="text_14">
     <!-- 6 -->
     <g transform="translate(405.777947 367.686647) scale(0.1 -0.1)">
      <use xlink:href="#DejaVuSans-36"/>
     </g>
    </g>
   </g>
   <g id="xtick_13">
    <g id="line2d_15">
     <path d="M 412.981726 327.869585 
L 418.645083 329.557116 
" style="fill: none; stroke: #000000; stroke-width: 0.8; stroke-linecap: square"/>
    </g>
    <g id="text_15">
     <!-- 7 -->
     <g transform="translate(422.564121 350.089325) scale(0.1 -0.1)">
      <use xlink:href="#DejaVuSans-37"/>
     </g>
    </g>
   </g>
  </g>
  <g id="axis3d_3">
   <g id="line2d_16">
    <path d="M 422.482403 320.579817 
L 432.425666 86.075455 
" style="fill: none; stroke: #000000; stroke-width: 0.8; stroke-linecap: square"/>
   </g>
   <g id="text_16">
    <!-- z -->
    <g transform="translate(462.231963 204.227961) scale(0.1 -0.1)">
     <defs>
      <path id="DejaVuSans-7a" d="M 353 3500 
L 3084 3500 
L 3084 2975 
L 922 459 
L 3084 459 
L 3084 0 
L 275 0 
L 275 525 
L 2438 3041 
L 353 3041 
L 353 3500 
z
" transform="scale(0.015625)"/>
     </defs>
     <use xlink:href="#DejaVuSans-7a"/>
    </g>
   </g>
   <g id="Line3DCollection_3">
    <path d="M 423.191574 303.85456 
L 197.530735 237.797901 
L 57.694204 356.178169 
" style="fill: none; stroke: #b0b0b0; stroke-width: 0.8"/>
    <path d="M 424.546829 271.891891 
L 197.198799 206.767943 
L 56.242966 323.507233 
" style="fill: none; stroke: #b0b0b0; stroke-width: 0.8"/>
    <path d="M 425.922689 239.443271 
L 196.86204 175.287164 
L 54.768886 290.322085 
" style="fill: none; stroke: #b0b0b0; stroke-width: 0.8"/>
    <path d="M 427.319627 206.497531 
L 196.520353 143.345667 
L 53.271421 256.610489 
" style="fill: none; stroke: #b0b0b0; stroke-width: 0.8"/>
    <path d="M 428.738132 173.043161 
L 196.173628 110.933264 
L 51.750011 222.359816 
" style="fill: none; stroke: #b0b0b0; stroke-width: 0.8"/>
    <path d="M 430.178707 139.06829 
L 195.821754 78.039463 
L 50.204076 187.557033 
" style="fill: none; stroke: #b0b0b0; stroke-width: 0.8"/>
    <path d="M 431.641871 104.560675 
L 195.464615 44.653461 
L 48.633019 152.188681 
" style="fill: none; stroke: #b0b0b0; stroke-width: 0.8"/>
   </g>
   <g id="xtick_14">
    <g id="line2d_17">
     <path d="M 421.304343 303.30212 
L 426.970185 304.960656 
" style="fill: none; stroke: #000000; stroke-width: 0.8; stroke-linecap: square"/>
    </g>
    <g id="text_17">
     <!-- 1 -->
     <g transform="translate(436.929035 309.030961) scale(0.1 -0.1)">
      <use xlink:href="#DejaVuSans-31"/>
     </g>
    </g>
   </g>
   <g id="xtick_15">
    <g id="line2d_18">
     <path d="M 422.644866 271.347073 
L 428.354969 272.982735 
" style="fill: none; stroke: #000000; stroke-width: 0.8; stroke-linecap: square"/>
    </g>
    <g id="text_18">
     <!-- 2 -->
     <g transform="translate(438.409535 277.101731) scale(0.1 -0.1)">
      <use xlink:href="#DejaVuSans-32"/>
     </g>
    </g>
   </g>
   <g id="xtick_16">
    <g id="line2d_19">
     <path d="M 424.005761 238.906371 
L 429.760823 240.518269 
" style="fill: none; stroke: #000000; stroke-width: 0.8; stroke-linecap: square"/>
    </g>
    <g id="text_19">
     <!-- 3 -->
     <g transform="translate(439.912508 244.687849) scale(0.1 -0.1)">
      <use xlink:href="#DejaVuSans-33"/>
     </g>
    </g>
   </g>
   <g id="xtick_17">
    <g id="line2d_20">
     <path d="M 425.387498 205.968857 
L 431.188232 207.556068 
" style="fill: none; stroke: #000000; stroke-width: 0.8; stroke-linecap: square"/>
    </g>
    <g id="text_20">
     <!-- 4 -->
     <g transform="translate(441.438469 211.778196) scale(0.1 -0.1)">
      <use xlink:href="#DejaVuSans-34"/>
     </g>
    </g>
   </g>
   <g id="xtick_18">
    <g id="line2d_21">
     <path d="M 426.790559 172.523032 
L 432.637693 174.084598 
" style="fill: none; stroke: #000000; stroke-width: 0.8; stroke-linecap: square"/>
    </g>
    <g id="text_21">
     <!-- 5 -->
     <g transform="translate(442.98795 178.361309) scale(0.1 -0.1)">
      <use xlink:href="#DejaVuSans-35"/>
     </g>
    </g>
   </g>
   <g id="xtick_19">
    <g id="line2d_22">
     <path d="M 428.215441 138.557036 
L 434.109724 140.091965 
" style="fill: none; stroke: #000000; stroke-width: 0.8; stroke-linecap: square"/>
    </g>
    <g id="text_22">
     <!-- 6 -->
     <g transform="translate(444.561498 144.425372) scale(0.1 -0.1)">
      <use xlink:href="#DejaVuSans-36"/>
     </g>
    </g>
   </g>
   <g id="xtick_20">
    <g id="line2d_23">
     <path d="M 429.662657 104.05864 
L 435.604854 105.5659 
" style="fill: none; stroke: #000000; stroke-width: 0.8; stroke-linecap: square"/>
    </g>
    <g id="text_23">
     <!-- 7 -->
     <g transform="translate(446.159678 109.958195) scale(0.1 -0.1)">
      <use xlink:href="#DejaVuSans-37"/>
     </g>
    </g>
   </g>
  </g>
  <g id="axes_1">
   <g id="line2d_24">
    <path d="M 368.81919 243.081429 
L 349.267288 243.081429 
L 329.715386 243.081429 
L 310.163484 243.081429 
L 290.611583 243.081429 
L 271.059681 243.081429 
L 251.507779 243.081429 
L 231.955877 243.081429 
L 212.403976 243.081429 
L 192.852074 243.081429 
L 173.300172 243.081429 
" clip-path="url(#p8696cdd80d)" style="fill: none; stroke: #427ce5; stroke-width: 3; stroke-linecap: square"/>
   </g>
   <g id="line2d_25">
    <path d="M 150.27969 195.416517 
L 171.842773 195.446413 
L 193.769383 196.49379 
L 215.948057 198.563622 
L 238.267963 201.665378 
L 260.618096 205.813133 
L 282.886456 211.025722 
L 304.959213 217.326955 
L 326.719822 224.74589 
L 348.048093 233.317168 
L 368.81919 243.081429 
" clip-path="url(#p8696cdd80d)" style="fill: none; stroke: #427ce5; stroke-width: 3; stroke-linecap: square"/>
   </g>
   <g id="line2d_26">
    <path d="M 173.300172 243.081429 
L 173.289629 237.939993 
L 172.738845 232.849756 
L 171.659992 227.823352 
L 170.064977 222.873058 
L 167.965407 218.01081 
L 165.372547 213.248223 
L 162.297287 208.596603 
L 158.750108 204.066977 
L 154.741051 199.670107 
L 150.27969 195.416517 
" clip-path="url(#p8696cdd80d)" style="fill: none; stroke: #427ce5; stroke-width: 3; stroke-linecap: square"/>
   </g>
   <g id="Poly3DCollection_1">
    <path d="M 163.375318 210.134127 
L 223.377803 199.482283 
L 150.27969 195.416517 
z
" clip-path="url(#p8696cdd80d)" style="fill: #185b8a; stroke: #427ce5"/>
    <path d="M 234.652983 220.612604 
L 223.377803 199.482283 
L 163.375318 210.134127 
z
" clip-path="url(#p8696cdd80d)" style="fill: #185b8a; stroke: #427ce5"/>
    <path d="M 234.652983 220.612604 
L 297.630489 215.103901 
L 223.377803 199.482283 
z
" clip-path="url(#p8696cdd80d)" style="fill: #185b8a; stroke: #427ce5"/>
    <path d="M 171.185092 226.164201 
L 234.652983 220.612604 
L 163.375318 210.134127 
z
" clip-path="url(#p8696cdd80d)" style="fill: #185b8a; stroke: #427ce5"/>
    <path d="M 303.646184 243.081429 
L 297.630489 215.103901 
L 234.652983 220.612604 
z
" clip-path="url(#p8696cdd80d)" style="fill: #185b8a; stroke: #427ce5"/>
    <path d="M 238.473178 243.081429 
L 234.652983 220.612604 
L 171.185092 226.164201 
z
" clip-path="url(#p8696cdd80d)" style="fill: #185b8a; stroke: #427ce5"/>
    <path d="M 303.646184 243.081429 
L 368.81919 243.081429 
L 297.630489 215.103901 
z
" clip-path="url(#p8696cdd80d)" style="fill: #185b8a; stroke: #427ce5"/>
    <path d="M 238.473178 243.081429 
L 303.646184 243.081429 
L 234.652983 220.612604 
z
" clip-path="url(#p8696cdd80d)" style="fill: #185b8a; stroke: #427ce5"/>
    <path d="M 173.300172 243.081429 
L 238.473178 243.081429 
L 171.185092 226.164201 
z
" clip-path="url(#p8696cdd80d)" style="fill: #185b8a; stroke: #427ce5"/>
   </g>
   <g id="text_24">
    <g id="patch_6">
     <path d="M 173.300172 248.552679 
C 174.751165 248.552679 176.142924 247.976193 177.16893 246.950187 
C 178.194937 245.92418 178.771422 244.532421 178.771422 243.081429 
C 178.771422 241.630436 178.194937 240.238677 177.16893 239.212671 
C 176.142924 238.186664 174.751165 237.610179 173.300172 237.610179 
C 171.84918 237.610179 170.457421 238.186664 169.431414 239.212671 
C 168.405408 240.238677 167.828922 241.630436 167.828922 243.081429 
C 167.828922 244.532421 168.405408 245.92418 169.431414 246.950187 
C 170.457421 247.976193 171.84918 248.552679 173.300172 248.552679 
z
" style="fill: #ffffff; stroke: #ffd700; stroke-linejoin: miter"/>
    </g>
    <!-- 0 -->
    <g transform="translate(170.755172 245.288929) scale(0.08 -0.08)">
     <defs>
      <path id="DejaVuSans-30" d="M 2034 4250 
Q 1547 4250 1301 3770 
Q 1056 3291 1056 2328 
Q 1056 1369 1301 889 
Q 1547 409 2034 409 
Q 2525 409 2770 889 
Q 3016 1369 3016 2328 
Q 3016 3291 2770 3770 
Q 2525 4250 2034 4250 
z
M 2034 4750 
Q 2819 4750 3233 4129 
Q 3647 3509 3647 2328 
Q 3647 1150 3233 529 
Q 2819 -91 2034 -91 
Q 1250 -91 836 529 
Q 422 1150 422 2328 
Q 422 3509 836 4129 
Q 1250 4750 2034 4750 
z
" transform="scale(0.015625)"/>
     </defs>
     <use xlink:href="#DejaVuSans-30"/>
    </g>
   </g>
   <g id="text_25">
    <g id="patch_7">
     <path d="M 368.81919 248.552679 
C 370.270182 248.552679 371.661941 247.976193 372.687947 246.950187 
C 373.713954 245.92418 374.29044 244.532421 374.29044 243.081429 
C 374.29044 241.630436 373.713954 240.238677 372.687947 239.212671 
C 371.661941 238.186664 370.270182 237.610179 368.81919 237.610179 
C 367.368197 237.610179 365.976438 238.186664 364.950432 239.212671 
C 363.924425 240.238677 363.34794 241.630436 363.34794 243.081429 
C 363.34794 244.532421 363.924425 245.92418 364.950432 246.950187 
C 365.976438 247.976193 367.368197 248.552679 368.81919 248.552679 
z
" style="fill: #ffffff; stroke: #ffd700; stroke-linejoin: miter"/>
    </g>
    <!-- 1 -->
    <g transform="translate(366.27419 245.288929) scale(0.08 -0.08)">
     <use xlink:href="#DejaVuSans-31"/>
    </g>
   </g>
   <g id="text_26">
    <g id="patch_8">
     <path d="M 150.27969 200.887767 
C 151.730683 200.887767 153.122442 200.311281 154.148448 199.285274 
C 155.174455 198.259268 155.75094 196.867509 155.75094 195.416517 
C 155.75094 193.965524 155.174455 192.573765 154.148448 191.547759 
C 153.122442 190.521752 151.730683 189.945267 150.27969 189.945267 
C 148.828698 189.945267 147.436939 190.521752 146.410932 191.547759 
C 145.384926 192.573765 144.80844 193.965524 144.80844 195.416517 
C 144.80844 196.867509 145.384926 198.259268 146.410932 199.285274 
C 147.436939 200.311281 148.828698 200.887767 150.27969 200.887767 
z
" style="fill: #ffffff; stroke: #ffd700; stroke-linejoin: miter"/>
    </g>
    <!-- 2 -->
    <g transform="translate(147.73469 197.624017) scale(0.08 -0.08)">
     <use xlink:href="#DejaVuSans-32"/>
    </g>
   </g>
   <g id="text_27">
    <g id="patch_9">
     <path d="M 238.473178 248.552679 
C 239.924171 248.552679 241.315929 247.976193 242.341936 246.950187 
C 243.367943 245.92418 243.944428 244.532421 243.944428 243.081429 
C 243.944428 241.630436 243.367943 240.238677 242.341936 239.212671 
C 241.315929 238.186664 239.924171 237.610179 238.473178 237.610179 
C 237.022186 237.610179 235.630427 238.186664 234.60442 239.212671 
C 233.578413 240.238677 233.001928 241.630436 233.001928 243.081429 
C 233.001928 244.532421 233.578413 245.92418 234.60442 246.950187 
C 235.630427 247.976193 237.022186 248.552679 238.473178 248.552679 
z
" style="fill: #ffffff; stroke: #ffd700; stroke-linejoin: miter"/>
    </g>
    <!-- 3 -->
    <g transform="translate(235.928178 245.288929) scale(0.08 -0.08)">
     <use xlink:href="#DejaVuSans-33"/>
    </g>
   </g>
   <g id="text_28">
    <g id="patch_10">
     <path d="M 297.630489 220.575151 
C 299.081482 220.575151 300.473241 219.998666 301.499247 218.972659 
C 302.525254 217.946653 303.101739 216.554894 303.101739 215.103901 
C 303.101739 213.652909 302.525254 212.26115 301.499247 211.235143 
C 300.473241 210.209137 299.081482 209.632651 297.630489 209.632651 
C 296.179497 209.632651 294.787738 210.209137 293.761732 211.235143 
C 292.735725 212.26115 292.159239 213.652909 292.159239 215.103901 
C 292.159239 216.554894 292.735725 217.946653 293.761732 218.972659 
C 294.787738 219.998666 296.179497 220.575151 297.630489 220.575151 
z
" style="fill: #ffffff; stroke: #ffd700; stroke-linejoin: miter"/>
    </g>
    <!-- 4 -->
    <g transform="translate(295.085489 217.311401) scale(0.08 -0.08)">
     <use xlink:href="#DejaVuSans-34"/>
    </g>
   </g>
   <g id="text_29">
    <g id="patch_11">
     <path d="M 163.375318 215.605377 
C 164.82631 215.605377 166.218069 215.028892 167.244076 214.002885 
C 168.270083 212.976878 168.846568 211.585119 168.846568 210.134127 
C 168.846568 208.683134 168.270083 207.291376 167.244076 206.265369 
C 166.218069 205.239362 164.82631 204.662877 163.375318 204.662877 
C 161.924326 204.662877 160.532567 205.239362 159.50656 206.265369 
C 158.480553 207.291376 157.904068 208.683134 157.904068 210.134127 
C 157.904068 211.585119 158.480553 212.976878 159.50656 214.002885 
C 160.532567 215.028892 161.924326 215.605377 163.375318 215.605377 
z
" style="fill: #ffffff; stroke: #ffd700; stroke-linejoin: miter"/>
    </g>
    <!-- 5 -->
    <g transform="translate(160.830318 212.341627) scale(0.08 -0.08)">
     <use xlink:href="#DejaVuSans-35"/>
    </g>
   </g>
   <g id="text_30">
    <g id="patch_12">
     <path d="M 303.646184 248.552679 
C 305.097176 248.552679 306.488935 247.976193 307.514942 246.950187 
C 308.540948 245.92418 309.117434 244.532421 309.117434 243.081429 
C 309.117434 241.630436 308.540948 240.238677 307.514942 239.212671 
C 306.488935 238.186664 305.097176 237.610179 303.646184 237.610179 
C 302.195191 237.610179 300.803432 238.186664 299.777426 239.212671 
C 298.751419 240.238677 298.174934 241.630436 298.174934 243.081429 
C 298.174934 244.532421 298.751419 245.92418 299.777426 246.950187 
C 300.803432 247.976193 302.195191 248.552679 303.646184 248.552679 
z
" style="fill: #ffffff; stroke: #ffd700; stroke-linejoin: miter"/>
    </g>
    <!-- 6 -->
    <g transform="translate(301.101184 245.288929) scale(0.08 -0.08)">
     <use xlink:href="#DejaVuSans-36"/>
    </g>
   </g>
   <g id="text_31">
    <g id="patch_13">
     <path d="M 223.377803 204.953533 
C 224.828796 204.953533 226.220555 204.377048 227.246561 203.351041 
C 228.272568 202.325035 228.849053 200.933276 228.849053 199.482283 
C 228.849053 198.031291 228.272568 196.639532 227.246561 195.613525 
C 226.220555 194.587519 224.828796 194.011033 223.377803 194.011033 
C 221.926811 194.011033 220.535052 194.587519 219.509045 195.613525 
C 218.483039 196.639532 217.906553 198.031291 217.906553 199.482283 
C 217.906553 200.933276 218.483039 202.325035 219.509045 203.351041 
C 220.535052 204.377048 221.926811 204.953533 223.377803 204.953533 
z
" style="fill: #ffffff; stroke: #ffd700; stroke-linejoin: miter"/>
    </g>
    <!-- 7 -->
    <g transform="translate(220.832803 201.689783) scale(0.08 -0.08)">
     <use xlink:href="#DejaVuSans-37"/>
    </g>
   </g>
   <g id="text_32">
    <g id="patch_14">
     <path d="M 171.185092 231.635451 
C 172.636084 231.635451 174.027843 231.058966 175.05385 230.032959 
C 176.079856 229.006953 176.656342 227.615194 176.656342 226.164201 
C 176.656342 224.713209 176.079856 223.32145 175.05385 222.295443 
C 174.027843 221.269437 172.636084 220.692951 171.185092 220.692951 
C 169.734099 220.692951 168.34234 221.269437 167.316334 222.295443 
C 166.290327 223.32145 165.713842 224.713209 165.713842 226.164201 
C 165.713842 227.615194 166.290327 229.006953 167.316334 230.032959 
C 168.34234 231.058966 169.734099 231.635451 171.185092 231.635451 
z
" style="fill: #ffffff; stroke: #ffd700; stroke-linejoin: miter"/>
    </g>
    <!-- 8 -->
    <g transform="translate(168.640092 228.371701) scale(0.08 -0.08)">
     <use xlink:href="#DejaVuSans-38"/>
    </g>
   </g>
   <g id="text_33">
    <g id="patch_15">
     <path d="M 234.652983 226.083854 
C 236.103975 226.083854 237.495734 225.507369 238.521741 224.481362 
C 239.547748 223.455355 240.124233 222.063596 240.124233 220.612604 
C 240.124233 219.161612 239.547748 217.769853 238.521741 216.743846 
C 237.495734 215.717839 236.103975 215.141354 234.652983 215.141354 
C 233.20199 215.141354 231.810232 215.717839 230.784225 216.743846 
C 229.758218 217.769853 229.181733 219.161612 229.181733 220.612604 
C 229.181733 222.063596 229.758218 223.455355 230.784225 224.481362 
C 231.810232 225.507369 233.20199 226.083854 234.652983 226.083854 
z
" style="fill: #ffffff; stroke: #ffd700; stroke-linejoin: miter"/>
    </g>
    <!-- 9 -->
    <g transform="translate(232.107983 222.820104) scale(0.08 -0.08)">
     <defs>
      <path id="DejaVuSans-39" d="M 703 97 
L 703 672 
Q 941 559 1184 500 
Q 1428 441 1663 441 
Q 2288 441 2617 861 
Q 2947 1281 2994 2138 
Q 2813 1869 2534 1725 
Q 2256 1581 1919 1581 
Q 1219 1581 811 2004 
Q 403 2428 403 3163 
Q 403 3881 828 4315 
Q 1253 4750 1959 4750 
Q 2769 4750 3195 4129 
Q 3622 3509 3622 2328 
Q 3622 1225 3098 567 
Q 2575 -91 1691 -91 
Q 1453 -91 1209 -44 
Q 966 3 703 97 
z
M 1959 2075 
Q 2384 2075 2632 2365 
Q 2881 2656 2881 3163 
Q 2881 3666 2632 3958 
Q 2384 4250 1959 4250 
Q 1534 4250 1286 3958 
Q 1038 3666 1038 3163 
Q 1038 2656 1286 2365 
Q 1534 2075 1959 2075 
z
" transform="scale(0.015625)"/>
     </defs>
     <use xlink:href="#DejaVuSans-39"/>
    </g>
   </g>
  </g>
 </g>
 <defs>
  <clipPath id="p8696cdd80d">
   <rect x="7.2" y="7.2" width="460.273973" height="460.273973"/>
  </clipPath>
 </defs>
</svg>
