<?xml version="1.0" encoding="utf-8" standalone="no"?>
<!DOCTYPE svg PUBLIC "-//W3C//DTD SVG 1.1//EN"
  "http://www.w3.org/Graphics/SVG/1.1/DTD/svg11.dtd">
<svg xmlns:xlink="http://www.w3.org/1999/xlink" width="474.680401pt" height="483.06543pt" viewBox="0 0 474.680401 483.06543" xmlns="http://www.w3.org/2000/svg" version="1.1">
 <metadata>
  <rdf:RDF xmlns:dc="http://purl.org/dc/elements/1.1/" xmlns:cc="http://creativecommons.org/ns#" xmlns:rdf="http://www.w3.org/1999/02/22-rdf-syntax-ns#">
   <cc:Work>
    <dc:type rdf:resource="http://purl.org/dc/dcmitype/StillImage"/>
    <dc:date>2026-09-24T07:00:16.200401</dc:date>
    <dc:format>image/svg+xml</dc:format>
    <dc:creator>
     <cc:Agent>
      <dc:title>Matplotlib v3.11.1, https://matplotlib.org/</dc:title>
     </cc:Agent>
    </dc:creator>
   </cc:Work>
  </rdf:RDF>
 </metadata>
 <defs>
  <style type="text/css">*{stroke-linejoin: round; stroke-linecap: butt}</style>
 </defs>
 <g id="figure_1">
  <g id="patch_1">
   <path d="M 0 483.06543 
L 474.680401 483.06543 
L 474.680401 0 
L 0 0 
z
" style="fill: #ffffff"/>
  </g>
  <g id="patch_2">
   <path d="M 7.2 467.473973 
L 467.473973 467.473973 
L 467.473973 7.2 
L 7.2 7.2 
z
" style="fill: #ffffff"/>
  </g>
  <g id="pane3d_1">
   <g id="patch_3">
    <path d="M 58.453298 373.267233 
L 197.704516 254.043262 
L 195.273405 26.778843 
L 47.791061 133.234146 
" style="fill: #f2f2f2; opacity: 0.5; stroke: #f2f2f2; stroke-linejoin: miter"/>
   </g>
  </g>
  <g id="pane3d_2">
   <g id="patch_4">
    <path d="M 197.704516 254.043262 
L 422.482403 320.579817 
L 432.425666 86.075455 
L 195.273405 26.778843 
" style="fill: #e6e6e6; opacity: 0.5; stroke: #e6e6e6; stroke-linejoin: miter"/>
   </g>
  </g>
  <g id="pane3d_3">
   <g id="patch_5">
    <path d="M 58.453298 373.267233 
L 295.6105 451.410528 
L 422.482403 320.579817 
L 197.704516 254.043262 
" style="fill: #ececec; opacity: 0.5; stroke: #ececec; stroke-linejoin: miter"/>
   </g>
  </g>
  <g id="grid3d_1">
   <g id="Line3DCollection_1">
    <path d="M 86.848197 382.623352 
L 224.705768 262.035909 
L 223.700507 33.886643 
" style="fill: none; stroke: #b0b0b0; stroke-width: 0.8"/>
    <path d="M 134.863805 398.444494 
L 270.309794 275.535167 
L 271.750257 45.900812 
" style="fill: none; stroke: #b0b0b0; stroke-width: 0.8"/>
    <path d="M 183.845835 414.584072 
L 316.760705 289.285112 
L 320.740823 58.150219 
" style="fill: none; stroke: #b0b0b0; stroke-width: 0.8"/>
    <path d="M 233.823759 431.051797 
L 364.082311 303.292792 
L 370.700111 70.641842 
" style="fill: none; stroke: #b0b0b0; stroke-width: 0.8"/>
    <path d="M 284.828262 447.85778 
L 412.299325 317.565522 
L 421.657141 83.382936 
" style="fill: none; stroke: #b0b0b0; stroke-width: 0.8"/>
   </g>
  </g>
  <g id="grid3d_2">
   <g id="Line3DCollection_2">
    <path d="M 67.592163 118.941368 
L 77.079132 357.320185 
L 312.635445 433.85435 
" style="fill: none; stroke: #b0b0b0; stroke-width: 0.8"/>
    <path d="M 99.62876 95.816799 
L 107.260188 331.479798 
L 340.18634 405.44378 
" style="fill: none; stroke: #b0b0b0; stroke-width: 0.8"/>
    <path d="M 130.565691 73.485988 
L 136.459306 306.480126 
L 366.798463 378.001274 
" style="fill: none; stroke: #b0b0b0; stroke-width: 0.8"/>
    <path d="M 160.458621 51.908755 
L 164.723641 282.280795 
L 392.518993 351.478182 
" style="fill: none; stroke: #b0b0b0; stroke-width: 0.8"/>
    <path d="M 189.359518 31.047588 
L 192.097375 258.843979 
L 417.391998 325.82906 
" style="fill: none; stroke: #b0b0b0; stroke-width: 0.8"/>
   </g>
  </g>
  <g id="grid3d_3">
   <g id="Line3DCollection_3">
    <path d="M 423.666883 292.644762 
L 197.414295 226.912885 
L 57.185319 344.721917 
" style="fill: none; stroke: #b0b0b0; stroke-width: 0.8"/>
    <path d="M 425.673548 245.319066 
L 196.923003 180.986138 
L 55.03587 296.332558 
" style="fill: none; stroke: #b0b0b0; stroke-width: 0.8"/>
    <path d="M 427.725431 196.926946 
L 196.421138 134.070881 
L 52.836263 246.814015 
" style="fill: none; stroke: #b0b0b0; stroke-width: 0.8"/>
    <path d="M 429.824078 147.431945 
L 195.908353 86.13485 
L 50.584722 196.126295 
" style="fill: none; stroke: #b0b0b0; stroke-width: 0.8"/>
    <path d="M 431.971105 96.795926 
L 195.384288 37.144367 
L 48.279384 144.227495 
" style="fill: none; stroke: #b0b0b0; stroke-width: 0.8"/>
   </g>
  </g>
  <g id="axis3d_1">
   <g id="line2d_1">
    <path d="M 58.453298 373.267233 
L 295.6105 451.410528 
" style="fill: none; stroke: #000000; stroke-width: 0.8; stroke-linecap: square"/>
   </g>
   <g id="xtick_1">
    <g id="line2d_2">
     <path d="M 88.040907 381.580058 
L 84.458065 384.714059 
" style="fill: none; stroke: #000000; stroke-width: 0.8; stroke-linecap: square"/>
    </g>
    <g id="text_1">
     <!-- 0.0 -->
     <g transform="translate(72.14292 407.431299) scale(0.1 -0.1)">
      <defs>
       <path id="DejaVuSans-13" d="M 2034 4250 
Q 1547 4250 1301 3770 
Q 1056 3291 1056 2328 
Q 1056 1369 1301 889 
Q 1547 409 2034 409 
Q 2525 409 2770 889 
Q 3016 1369 3016 2328 
Q 3016 3291 2770 3770 
Q 2525 4250 2034 4250 
z
M 2034 4750 
Q 2819 4750 3233 4129 
Q 3647 3509 3647 2328 
Q 3647 1150 3233 529 
Q 2819 -91 2034 -91 
Q 1250 -91 836 529 
Q 422 1150 422 2328 
Q 422 3509 836 4129 
Q 1250 4750 2034 4750 
z
" transform="scale(0.015625)"/>
       <path id="DejaVuSans-11" d="M 684 794 
L 1344 794 
L 1344 0 
L 684 0 
L 684 794 
z
" transform="scale(0.015625)"/>
      </defs>
      <use xlink:href="#DejaVuSans-13"/>
      <use xlink:href="#DejaVuSans-11" transform="translate(63.625 0)"/>
      <use xlink:href="#DejaVuSans-13" transform="translate(95.40625 0)"/>
     </g>
    </g>
   </g>
   <g id="xtick_2">
    <g id="line2d_3">
     <path d="M 136.03653 397.380315 
L 132.513678 400.577098 
" style="fill: none; stroke: #000000; stroke-width: 0.8; stroke-linecap: square"/>
    </g>
    <g id="text_2">
     <!-- 0.5 -->
     <g transform="translate(120.15496 423.445167) scale(0.1 -0.1)">
      <defs>
       <path id="DejaVuSans-18" d="M 691 4666 
L 3169 4666 
L 3169 4134 
L 1269 4134 
L 1269 2991 
Q 1406 3038 1543 3061 
Q 1681 3084 1819 3084 
Q 2600 3084 3056 2656 
Q 3513 2228 3513 1497 
Q 3513 744 3044 326 
Q 2575 -91 1722 -91 
Q 1428 -91 1123 -41 
Q 819 9 494 109 
L 494 744 
Q 775 591 1075 516 
Q 1375 441 1709 441 
Q 2250 441 2565 725 
Q 2881 1009 2881 1497 
Q 2881 1984 2565 2268 
Q 2250 2553 1709 2553 
Q 1456 2553 1204 2497 
Q 953 2441 691 2322 
L 691 4666 
z
" transform="scale(0.015625)"/>
      </defs>
      <use xlink:href="#DejaVuSans-13"/>
      <use xlink:href="#DejaVuSans-11" transform="translate(63.625 0)"/>
      <use xlink:href="#DejaVuSans-18" transform="translate(95.40625 0)"/>
     </g>
    </g>
   </g>
   <g id="xtick_3">
    <g id="line2d_4">
     <path d="M 184.997524 413.498373 
L 181.537815 416.759844 
" style="fill: none; stroke: #000000; stroke-width: 0.8; stroke-linecap: square"/>
    </g>
    <g id="text_3">
     <!-- 1.0 -->
     <g transform="translate(169.134647 439.781783) scale(0.1 -0.1)">
      <defs>
       <path id="DejaVuSans-14" d="M 794 531 
L 1825 531 
L 1825 4091 
L 703 3866 
L 703 4441 
L 1819 4666 
L 2450 4666 
L 2450 531 
L 3481 531 
L 3481 0 
L 794 0 
L 794 531 
z
" transform="scale(0.015625)"/>
      </defs>
      <use xlink:href="#DejaVuSans-14"/>
      <use xlink:href="#DejaVuSans-11" transform="translate(63.625 0)"/>
      <use xlink:href="#DejaVuSans-13" transform="translate(95.40625 0)"/>
     </g>
    </g>
   </g>
   <g id="xtick_4">
    <g id="line2d_5">
     <path d="M 234.953311 429.94392 
L 231.560056 433.272062 
" style="fill: none; stroke: #000000; stroke-width: 0.8; stroke-linecap: square"/>
    </g>
    <g id="text_4">
     <!-- 1.5 -->
     <g transform="translate(219.111531 456.451002) scale(0.1 -0.1)">
      <use xlink:href="#DejaVuSans-14"/>
      <use xlink:href="#DejaVuSans-11" transform="translate(63.625 0)"/>
      <use xlink:href="#DejaVuSans-18" transform="translate(95.40625 0)"/>
     </g>
    </g>
   </g>
   <g id="xtick_5">
    <g id="line2d_6">
     <path d="M 285.934521 446.727037 
L 282.611194 450.123916 
" style="fill: none; stroke: #000000; stroke-width: 0.8; stroke-linecap: square"/>
    </g>
    <g id="text_5">
     <!-- 2.0 -->
     <g transform="translate(270.116379 473.463087) scale(0.1 -0.1)">
      <defs>
       <path id="DejaVuSans-15" d="M 1228 531 
L 3431 531 
L 3431 0 
L 469 0 
L 469 531 
Q 828 903 1448 1529 
Q 2069 2156 2228 2338 
Q 2531 2678 2651 2914 
Q 2772 3150 2772 3378 
Q 2772 3750 2511 3984 
Q 2250 4219 1831 4219 
Q 1534 4219 1204 4116 
Q 875 4013 500 3803 
L 500 4441 
Q 881 4594 1212 4672 
Q 1544 4750 1819 4750 
Q 2544 4750 2975 4387 
Q 3406 4025 3406 3419 
Q 3406 3131 3298 2873 
Q 3191 2616 2906 2266 
Q 2828 2175 2409 1742 
Q 1991 1309 1228 531 
z
" transform="scale(0.015625)"/>
      </defs>
      <use xlink:href="#DejaVuSans-15"/>
      <use xlink:href="#DejaVuSans-11" transform="translate(63.625 0)"/>
      <use xlink:href="#DejaVuSans-13" transform="translate(95.40625 0)"/>
     </g>
    </g>
   </g>
   <g id="text_6">
    <!-- x -->
    <g transform="translate(156.491253 452.22924) scale(0.1 -0.1)">
     <defs>
      <path id="DejaVuSans-5b" d="M 3513 3500 
L 2247 1797 
L 3578 0 
L 2900 0 
L 1881 1375 
L 863 0 
L 184 0 
L 1544 1831 
L 300 3500 
L 978 3500 
L 1906 2253 
L 2834 3500 
L 3513 3500 
z
" transform="scale(0.015625)"/>
     </defs>
     <use xlink:href="#DejaVuSans-5b"/>
    </g>
   </g>
  </g>
  <g id="axis3d_2">
   <g id="line2d_7">
    <path d="M 422.482403 320.579817 
L 295.6105 451.410528 
" style="fill: none; stroke: #000000; stroke-width: 0.8; stroke-linecap: square"/>
   </g>
   <g id="xtick_6">
    <g id="line2d_8">
     <path d="M 310.659473 433.212341 
L 316.592039 435.13988 
" style="fill: none; stroke: #000000; stroke-width: 0.8; stroke-linecap: square"/>
    </g>
    <g id="text_7">
     <!-- 0.0 -->
     <g transform="translate(316.345653 456.438922) scale(0.1 -0.1)">
      <use xlink:href="#DejaVuSans-13"/>
      <use xlink:href="#DejaVuSans-11" transform="translate(63.625 0)"/>
      <use xlink:href="#DejaVuSans-13" transform="translate(95.40625 0)"/>
     </g>
    </g>
   </g>
   <g id="xtick_7">
    <g id="line2d_9">
     <path d="M 338.233999 404.823828 
L 344.095536 406.685116 
" style="fill: none; stroke: #000000; stroke-width: 0.8; stroke-linecap: square"/>
    </g>
    <g id="text_8">
     <!-- 0.5 -->
     <g transform="translate(343.684657 427.77883) scale(0.1 -0.1)">
      <use xlink:href="#DejaVuSans-13"/>
      <use xlink:href="#DejaVuSans-11" transform="translate(63.625 0)"/>
      <use xlink:href="#DejaVuSans-18" transform="translate(95.40625 0)"/>
     </g>
    </g>
   </g>
   <g id="xtick_8">
    <g id="line2d_10">
     <path d="M 364.869303 377.402262 
L 370.661167 379.200657 
" style="fill: none; stroke: #000000; stroke-width: 0.8; stroke-linecap: square"/>
    </g>
    <g id="text_9">
     <!-- 1.0 -->
     <g transform="translate(370.092437 400.094962) scale(0.1 -0.1)">
      <use xlink:href="#DejaVuSans-14"/>
      <use xlink:href="#DejaVuSans-11" transform="translate(63.625 0)"/>
      <use xlink:href="#DejaVuSans-13" transform="translate(95.40625 0)"/>
     </g>
    </g>
   </g>
   <g id="xtick_9">
    <g id="line2d_11">
     <path d="M 390.61257 350.899067 
L 396.336099 352.637704 
" style="fill: none; stroke: #000000; stroke-width: 0.8; stroke-linecap: square"/>
    </g>
    <g id="text_10">
     <!-- 1.5 -->
     <g transform="translate(395.615775 373.338274) scale(0.1 -0.1)">
      <use xlink:href="#DejaVuSans-14"/>
      <use xlink:href="#DejaVuSans-11" transform="translate(63.625 0)"/>
      <use xlink:href="#DejaVuSans-18" transform="translate(95.40625 0)"/>
     </g>
    </g>
   </g>
   <g id="xtick_10">
    <g id="line2d_12">
     <path d="M 415.507872 325.268868 
L 421.164388 326.950675 
" style="fill: none; stroke: #000000; stroke-width: 0.8; stroke-linecap: square"/>
    </g>
    <g id="text_11">
     <!-- 2.0 -->
     <g transform="translate(420.298371 347.462954) scale(0.1 -0.1)">
      <use xlink:href="#DejaVuSans-15"/>
      <use xlink:href="#DejaVuSans-11" transform="translate(63.625 0)"/>
      <use xlink:href="#DejaVuSans-13" transform="translate(95.40625 0)"/>
     </g>
    </g>
   </g>
   <g id="text_12">
    <!-- y -->
    <g transform="translate(383.217297 417.505272) scale(0.1 -0.1)">
     <defs>
      <path id="DejaVuSans-5c" d="M 2059 -325 
Q 1816 -950 1584 -1140 
Q 1353 -1331 966 -1331 
L 506 -1331 
L 506 -850 
L 844 -850 
Q 1081 -850 1212 -737 
Q 1344 -625 1503 -206 
L 1606 56 
L 191 3500 
L 800 3500 
L 1894 763 
L 2988 3500 
L 3597 3500 
L 2059 -325 
z
" transform="scale(0.015625)"/>
     </defs>
     <use xlink:href="#DejaVuSans-5c"/>
    </g>
   </g>
  </g>
  <g id="axis3d_3">
   <g id="line2d_13">
    <path d="M 422.482403 320.579817 
L 432.425666 86.075455 
" style="fill: none; stroke: #000000; stroke-width: 0.8; stroke-linecap: square"/>
   </g>
   <g id="xtick_11">
    <g id="line2d_14">
     <path d="M 421.774486 292.094975 
L 427.455848 293.745548 
" style="fill: none; stroke: #000000; stroke-width: 0.8; stroke-linecap: square"/>
    </g>
    <g id="text_13">
     <!-- 0.0 -->
     <g transform="translate(432.677961 297.832021) scale(0.1 -0.1)">
      <use xlink:href="#DejaVuSans-13"/>
      <use xlink:href="#DejaVuSans-11" transform="translate(63.625 0)"/>
      <use xlink:href="#DejaVuSans-13" transform="translate(95.40625 0)"/>
     </g>
    </g>
   </g>
   <g id="xtick_12">
    <g id="line2d_15">
     <path d="M 423.759331 244.780719 
L 429.50625 246.39696 
" style="fill: none; stroke: #000000; stroke-width: 0.8; stroke-linecap: square"/>
    </g>
    <g id="text_14">
     <!-- 0.5 -->
     <g transform="translate(434.87004 250.556514) scale(0.1 -0.1)">
      <use xlink:href="#DejaVuSans-13"/>
      <use xlink:href="#DejaVuSans-11" transform="translate(63.625 0)"/>
      <use xlink:href="#DejaVuSans-18" transform="translate(95.40625 0)"/>
     </g>
    </g>
   </g>
   <g id="xtick_13">
    <g id="line2d_16">
     <path d="M 425.788885 196.400697 
L 431.60289 197.980631 
" style="fill: none; stroke: #000000; stroke-width: 0.8; stroke-linecap: square"/>
    </g>
    <g id="text_15">
     <!-- 1.0 -->
     <g transform="translate(437.111434 202.217466) scale(0.1 -0.1)">
      <use xlink:href="#DejaVuSans-14"/>
      <use xlink:href="#DejaVuSans-11" transform="translate(63.625 0)"/>
      <use xlink:href="#DejaVuSans-13" transform="translate(95.40625 0)"/>
     </g>
    </g>
   </g>
   <g id="xtick_14">
    <g id="line2d_17">
     <path d="M 427.864676 146.918488 
L 433.74735 148.46003 
" style="fill: none; stroke: #000000; stroke-width: 0.8; stroke-linecap: square"/>
    </g>
    <g id="text_16">
     <!-- 1.5 -->
     <g transform="translate(439.403826 152.77858) scale(0.1 -0.1)">
      <use xlink:href="#DejaVuSans-14"/>
      <use xlink:href="#DejaVuSans-11" transform="translate(63.625 0)"/>
      <use xlink:href="#DejaVuSans-18" transform="translate(95.40625 0)"/>
     </g>
    </g>
   </g>
   <g id="xtick_15">
    <g id="line2d_18">
     <path d="M 429.988302 96.295994 
L 435.941284 97.796943 
" style="fill: none; stroke: #000000; stroke-width: 0.8; stroke-linecap: square"/>
    </g>
    <g id="text_17">
     <!-- 2.0 -->
     <g transform="translate(441.748975 102.201888) scale(0.1 -0.1)">
      <use xlink:href="#DejaVuSans-15"/>
      <use xlink:href="#DejaVuSans-11" transform="translate(63.625 0)"/>
      <use xlink:href="#DejaVuSans-13" transform="translate(95.40625 0)"/>
     </g>
    </g>
   </g>
   <g id="text_18">
    <!-- z -->
    <g transform="translate(462.231963 204.066243) scale(0.1 -0.1)">
     <defs>
      <path id="DejaVuSans-5d" d="M 353 3500 
L 3084 3500 
L 3084 2975 
L 922 459 
L 3084 459 
L 3084 0 
L 275 0 
L 275 525 
L 2438 3041 
L 353 3041 
L 353 3500 
z
" transform="scale(0.015625)"/>
     </defs>
     <use xlink:href="#DejaVuSans-5d"/>
    </g>
   </g>
  </g>
  <g id="axes_1">
   <g id="line2d_19">
    <path d="M 104.351755 338.01955 
L 201.363045 368.974463 
" clip-path="url(#p7301bef2bb)" style="fill: none; stroke: #fcb827; stroke-width: 1.5; stroke-linecap: square"/>
   </g>
   <g id="line2d_20">
    <path d="M 201.363045 368.974463 
L 163.564549 287.189423 
" clip-path="url(#p7301bef2bb)" style="fill: none; stroke: #fcb827; stroke-width: 1.5; stroke-linecap: square"/>
   </g>
   <g id="line2d_21">
    <path d="M 163.564549 287.189423 
L 104.351755 338.01955 
" clip-path="url(#p7301bef2bb)" style="fill: none; stroke: #fcb827; stroke-width: 1.5; stroke-linecap: square"/>
   </g>
   <g id="line2d_22">
    <path d="M 104.351755 338.01955 
L 101.117719 240.389128 
" clip-path="url(#p7301bef2bb)" style="fill: none; stroke: #fcb827; stroke-width: 1.5; stroke-linecap: square"/>
   </g>
   <g id="line2d_23">
    <path d="M 201.363045 368.974463 
L 101.117719 240.389128 
" clip-path="url(#p7301bef2bb)" style="fill: none; stroke: #fcb827; stroke-width: 1.5; stroke-linecap: square"/>
   </g>
   <g id="line2d_24">
    <path d="M 163.564549 287.189423 
L 101.117719 240.389128 
" clip-path="url(#p7301bef2bb)" style="fill: none; stroke: #fcb827; stroke-width: 1.5; stroke-linecap: square"/>
   </g>
   <g id="line2d_25">
    <path d="M 104.351755 338.01955 
L 201.363045 368.974463 
" clip-path="url(#p7301bef2bb)" style="fill: none; stroke: #fcb827; stroke-width: 1.5; stroke-linecap: square"/>
   </g>
   <g id="line2d_26">
    <path d="M 201.363045 368.974463 
L 163.564549 287.189423 
" clip-path="url(#p7301bef2bb)" style="fill: none; stroke: #fcb827; stroke-width: 1.5; stroke-linecap: square"/>
   </g>
   <g id="line2d_27">
    <path d="M 163.564549 287.189423 
L 104.351755 338.01955 
" clip-path="url(#p7301bef2bb)" style="fill: none; stroke: #fcb827; stroke-width: 1.5; stroke-linecap: square"/>
   </g>
   <g id="line2d_28">
    <path d="M 104.351755 338.01955 
L 101.117719 240.389128 
" clip-path="url(#p7301bef2bb)" style="fill: none; stroke: #fcb827; stroke-width: 1.5; stroke-linecap: square"/>
   </g>
   <g id="line2d_29">
    <path d="M 201.363045 368.974463 
L 101.117719 240.389128 
" clip-path="url(#p7301bef2bb)" style="fill: none; stroke: #fcb827; stroke-width: 1.5; stroke-linecap: square"/>
   </g>
   <g id="line2d_30">
    <path d="M 163.564549 287.189423 
L 101.117719 240.389128 
" clip-path="url(#p7301bef2bb)" style="fill: none; stroke: #fcb827; stroke-width: 1.5; stroke-linecap: square"/>
   </g>
   <g id="line2d_31">
    <path d="M 104.351755 338.01955 
L 201.363045 368.974463 
" clip-path="url(#p7301bef2bb)" style="fill: none; stroke: #fcb827; stroke-width: 1.5; stroke-linecap: square"/>
   </g>
   <g id="line2d_32">
    <path d="M 201.363045 368.974463 
L 163.564549 287.189423 
" clip-path="url(#p7301bef2bb)" style="fill: none; stroke: #fcb827; stroke-width: 1.5; stroke-linecap: square"/>
   </g>
   <g id="line2d_33">
    <path d="M 163.564549 287.189423 
L 104.351755 338.01955 
" clip-path="url(#p7301bef2bb)" style="fill: none; stroke: #fcb827; stroke-width: 1.5; stroke-linecap: square"/>
   </g>
   <g id="line2d_34">
    <path d="M 104.351755 338.01955 
L 101.117719 240.389128 
" clip-path="url(#p7301bef2bb)" style="fill: none; stroke: #fcb827; stroke-width: 1.5; stroke-linecap: square"/>
   </g>
   <g id="line2d_35">
    <path d="M 201.363045 368.974463 
L 101.117719 240.389128 
" clip-path="url(#p7301bef2bb)" style="fill: none; stroke: #fcb827; stroke-width: 1.5; stroke-linecap: square"/>
   </g>
   <g id="line2d_36">
    <path d="M 163.564549 287.189423 
L 101.117719 240.389128 
" clip-path="url(#p7301bef2bb)" style="fill: none; stroke: #fcb827; stroke-width: 1.5; stroke-linecap: square"/>
   </g>
   <g id="line2d_37">
    <path d="M 104.351755 338.01955 
L 201.363045 368.974463 
" clip-path="url(#p7301bef2bb)" style="fill: none; stroke: #fcb827; stroke-width: 1.5; stroke-linecap: square"/>
   </g>
   <g id="line2d_38">
    <path d="M 201.363045 368.974463 
L 163.564549 287.189423 
" clip-path="url(#p7301bef2bb)" style="fill: none; stroke: #fcb827; stroke-width: 1.5; stroke-linecap: square"/>
   </g>
   <g id="line2d_39">
    <path d="M 163.564549 287.189423 
L 104.351755 338.01955 
" clip-path="url(#p7301bef2bb)" style="fill: none; stroke: #fcb827; stroke-width: 1.5; stroke-linecap: square"/>
   </g>
   <g id="line2d_40">
    <path d="M 104.351755 338.01955 
L 101.117719 240.389128 
" clip-path="url(#p7301bef2bb)" style="fill: none; stroke: #fcb827; stroke-width: 1.5; stroke-linecap: square"/>
   </g>
   <g id="line2d_41">
    <path d="M 201.363045 368.974463 
L 101.117719 240.389128 
" clip-path="url(#p7301bef2bb)" style="fill: none; stroke: #fcb827; stroke-width: 1.5; stroke-linecap: square"/>
   </g>
   <g id="line2d_42">
    <path d="M 163.564549 287.189423 
L 101.117719 240.389128 
" clip-path="url(#p7301bef2bb)" style="fill: none; stroke: #fcb827; stroke-width: 1.5; stroke-linecap: square"/>
   </g>
   <g id="line2d_43">
    <path d="M 104.351755 338.01955 
L 201.363045 368.974463 
" clip-path="url(#p7301bef2bb)" style="fill: none; stroke: #fcb827; stroke-width: 1.5; stroke-linecap: square"/>
   </g>
   <g id="line2d_44">
    <path d="M 201.363045 368.974463 
L 163.564549 287.189423 
" clip-path="url(#p7301bef2bb)" style="fill: none; stroke: #fcb827; stroke-width: 1.5; stroke-linecap: square"/>
   </g>
   <g id="line2d_45">
    <path d="M 163.564549 287.189423 
L 104.351755 338.01955 
" clip-path="url(#p7301bef2bb)" style="fill: none; stroke: #fcb827; stroke-width: 1.5; stroke-linecap: square"/>
   </g>
   <g id="line2d_46">
    <path d="M 104.351755 338.01955 
L 101.117719 240.389128 
" clip-path="url(#p7301bef2bb)" style="fill: none; stroke: #fcb827; stroke-width: 1.5; stroke-linecap: square"/>
   </g>
   <g id="line2d_47">
    <path d="M 201.363045 368.974463 
L 101.117719 240.389128 
" clip-path="url(#p7301bef2bb)" style="fill: none; stroke: #fcb827; stroke-width: 1.5; stroke-linecap: square"/>
   </g>
   <g id="line2d_48">
    <path d="M 163.564549 287.189423 
L 101.117719 240.389128 
" clip-path="url(#p7301bef2bb)" style="fill: none; stroke: #fcb827; stroke-width: 1.5; stroke-linecap: square"/>
   </g>
   <g id="line2d_49">
    <path d="M 104.351755 338.01955 
L 201.363045 368.974463 
" clip-path="url(#p7301bef2bb)" style="fill: none; stroke: #fcb827; stroke-width: 1.5; stroke-linecap: square"/>
   </g>
   <g id="line2d_50">
    <path d="M 201.363045 368.974463 
L 163.564549 287.189423 
" clip-path="url(#p7301bef2bb)" style="fill: none; stroke: #fcb827; stroke-width: 1.5; stroke-linecap: square"/>
   </g>
   <g id="line2d_51">
    <path d="M 163.564549 287.189423 
L 104.351755 338.01955 
" clip-path="url(#p7301bef2bb)" style="fill: none; stroke: #fcb827; stroke-width: 1.5; stroke-linecap: square"/>
   </g>
   <g id="line2d_52">
    <path d="M 104.351755 338.01955 
L 101.117719 240.389128 
" clip-path="url(#p7301bef2bb)" style="fill: none; stroke: #fcb827; stroke-width: 1.5; stroke-linecap: square"/>
   </g>
   <g id="line2d_53">
    <path d="M 201.363045 368.974463 
L 101.117719 240.389128 
" clip-path="url(#p7301bef2bb)" style="fill: none; stroke: #fcb827; stroke-width: 1.5; stroke-linecap: square"/>
   </g>
   <g id="line2d_54">
    <path d="M 163.564549 287.189423 
L 101.117719 240.389128 
" clip-path="url(#p7301bef2bb)" style="fill: none; stroke: #fcb827; stroke-width: 1.5; stroke-linecap: square"/>
   </g>
   <g id="line2d_55">
    <path d="M 104.351755 338.01955 
L 201.363045 368.974463 
" clip-path="url(#p7301bef2bb)" style="fill: none; stroke: #fcb827; stroke-width: 1.5; stroke-linecap: square"/>
   </g>
   <g id="line2d_56">
    <path d="M 201.363045 368.974463 
L 163.564549 287.189423 
" clip-path="url(#p7301bef2bb)" style="fill: none; stroke: #fcb827; stroke-width: 1.5; stroke-linecap: square"/>
   </g>
   <g id="line2d_57">
    <path d="M 163.564549 287.189423 
L 104.351755 338.01955 
" clip-path="url(#p7301bef2bb)" style="fill: none; stroke: #fcb827; stroke-width: 1.5; stroke-linecap: square"/>
   </g>
   <g id="line2d_58">
    <path d="M 104.351755 338.01955 
L 101.117719 240.389128 
" clip-path="url(#p7301bef2bb)" style="fill: none; stroke: #fcb827; stroke-width: 1.5; stroke-linecap: square"/>
   </g>
   <g id="line2d_59">
    <path d="M 201.363045 368.974463 
L 101.117719 240.389128 
" clip-path="url(#p7301bef2bb)" style="fill: none; stroke: #fcb827; stroke-width: 1.5; stroke-linecap: square"/>
   </g>
   <g id="line2d_60">
    <path d="M 163.564549 287.189423 
L 101.117719 240.389128 
" clip-path="url(#p7301bef2bb)" style="fill: none; stroke: #fcb827; stroke-width: 1.5; stroke-linecap: square"/>
   </g>
   <g id="line2d_61">
    <path d="M 104.351755 338.01955 
L 201.363045 368.974463 
" clip-path="url(#p7301bef2bb)" style="fill: none; stroke: #fcb827; stroke-width: 1.5; stroke-linecap: square"/>
   </g>
   <g id="line2d_62">
    <path d="M 201.363045 368.974463 
L 163.564549 287.189423 
" clip-path="url(#p7301bef2bb)" style="fill: none; stroke: #fcb827; stroke-width: 1.5; stroke-linecap: square"/>
   </g>
   <g id="line2d_63">
    <path d="M 163.564549 287.189423 
L 104.351755 338.01955 
" clip-path="url(#p7301bef2bb)" style="fill: none; stroke: #fcb827; stroke-width: 1.5; stroke-linecap: square"/>
   </g>
   <g id="line2d_64">
    <path d="M 104.351755 338.01955 
L 101.117719 240.389128 
" clip-path="url(#p7301bef2bb)" style="fill: none; stroke: #fcb827; stroke-width: 1.5; stroke-linecap: square"/>
   </g>
   <g id="line2d_65">
    <path d="M 201.363045 368.974463 
L 101.117719 240.389128 
" clip-path="url(#p7301bef2bb)" style="fill: none; stroke: #fcb827; stroke-width: 1.5; stroke-linecap: square"/>
   </g>
   <g id="line2d_66">
    <path d="M 163.564549 287.189423 
L 101.117719 240.389128 
" clip-path="url(#p7301bef2bb)" style="fill: none; stroke: #fcb827; stroke-width: 1.5; stroke-linecap: square"/>
   </g>
   <g id="line2d_67">
    <path d="M 89.047216 349.772658 
L 204.799186 250.495927 
" clip-path="url(#p7301bef2bb)" style="fill: none; stroke: #427ce5; stroke-width: 1.5; stroke-linecap: square"/>
   </g>
   <g id="line2d_68">
    <path d="M 185.866757 381.000467 
L 297.49496 277.828794 
" clip-path="url(#p7301bef2bb)" style="fill: none; stroke: #427ce5; stroke-width: 1.5; stroke-linecap: square"/>
   </g>
   <g id="line2d_69">
    <path d="M 286.654471 413.508155 
L 393.738072 306.207651 
" clip-path="url(#p7301bef2bb)" style="fill: none; stroke: #427ce5; stroke-width: 1.5; stroke-linecap: square"/>
   </g>
   <g id="line2d_70">
    <path d="M 89.047216 349.772658 
L 286.654471 413.508155 
" clip-path="url(#p7301bef2bb)" style="fill: none; stroke: #427ce5; stroke-width: 1.5; stroke-linecap: square"/>
   </g>
   <g id="line2d_71">
    <path d="M 148.831519 298.49759 
L 342.031556 358.018901 
" clip-path="url(#p7301bef2bb)" style="fill: none; stroke: #427ce5; stroke-width: 1.5; stroke-linecap: square"/>
   </g>
   <g id="line2d_72">
    <path d="M 204.799186 250.495927 
L 393.738072 306.207651 
" clip-path="url(#p7301bef2bb)" style="fill: none; stroke: #427ce5; stroke-width: 1.5; stroke-linecap: square"/>
   </g>
   <g id="line2d_73">
    <path d="M 85.453333 252.29893 
L 203.956488 157.221684 
" clip-path="url(#p7301bef2bb)" style="fill: none; stroke: #427ce5; stroke-width: 1.5; stroke-linecap: square"/>
   </g>
   <g id="line2d_74">
    <path d="M 184.497303 282.264183 
L 298.690227 183.370211 
" clip-path="url(#p7301bef2bb)" style="fill: none; stroke: #427ce5; stroke-width: 1.5; stroke-linecap: square"/>
   </g>
   <g id="line2d_75">
    <path d="M 287.698998 313.487334 
L 397.131202 210.542013 
" clip-path="url(#p7301bef2bb)" style="fill: none; stroke: #427ce5; stroke-width: 1.5; stroke-linecap: square"/>
   </g>
   <g id="line2d_76">
    <path d="M 85.453333 252.29893 
L 287.698998 313.487334 
" clip-path="url(#p7301bef2bb)" style="fill: none; stroke: #427ce5; stroke-width: 1.5; stroke-linecap: square"/>
   </g>
   <g id="line2d_77">
    <path d="M 146.702496 203.157608 
L 344.334498 260.209053 
" clip-path="url(#p7301bef2bb)" style="fill: none; stroke: #427ce5; stroke-width: 1.5; stroke-linecap: square"/>
   </g>
   <g id="line2d_78">
    <path d="M 203.956488 157.221684 
L 397.131202 210.542013 
" clip-path="url(#p7301bef2bb)" style="fill: none; stroke: #427ce5; stroke-width: 1.5; stroke-linecap: square"/>
   </g>
   <g id="line2d_79">
    <path d="M 81.688282 150.182756 
L 203.07633 59.80122 
" clip-path="url(#p7301bef2bb)" style="fill: none; stroke: #427ce5; stroke-width: 1.5; stroke-linecap: square"/>
   </g>
   <g id="line2d_80">
    <path d="M 183.061252 178.726296 
L 299.939668 84.630353 
" clip-path="url(#p7301bef2bb)" style="fill: none; stroke: #427ce5; stroke-width: 1.5; stroke-linecap: square"/>
   </g>
   <g id="line2d_81">
    <path d="M 288.795414 208.497813 
L 400.681203 110.45359 
" clip-path="url(#p7301bef2bb)" style="fill: none; stroke: #427ce5; stroke-width: 1.5; stroke-linecap: square"/>
   </g>
   <g id="line2d_82">
    <path d="M 81.688282 150.182756 
L 288.795414 208.497813 
" clip-path="url(#p7301bef2bb)" style="fill: none; stroke: #427ce5; stroke-width: 1.5; stroke-linecap: square"/>
   </g>
   <g id="line2d_83">
    <path d="M 144.475569 103.433414 
L 346.747734 157.714865 
" clip-path="url(#p7301bef2bb)" style="fill: none; stroke: #427ce5; stroke-width: 1.5; stroke-linecap: square"/>
   </g>
   <g id="line2d_84">
    <path d="M 203.07633 59.80122 
L 400.681203 110.45359 
" clip-path="url(#p7301bef2bb)" style="fill: none; stroke: #427ce5; stroke-width: 1.5; stroke-linecap: square"/>
   </g>
   <g id="line2d_85">
    <path d="M 89.047216 349.772658 
L 81.688282 150.182756 
" clip-path="url(#p7301bef2bb)" style="fill: none; stroke: #427ce5; stroke-width: 1.5; stroke-linecap: square"/>
   </g>
   <g id="line2d_86">
    <path d="M 185.866757 381.000467 
L 183.061252 178.726296 
" clip-path="url(#p7301bef2bb)" style="fill: none; stroke: #427ce5; stroke-width: 1.5; stroke-linecap: square"/>
   </g>
   <g id="line2d_87">
    <path d="M 286.654471 413.508155 
L 288.795414 208.497813 
" clip-path="url(#p7301bef2bb)" style="fill: none; stroke: #427ce5; stroke-width: 1.5; stroke-linecap: square"/>
   </g>
   <g id="line2d_88">
    <path d="M 148.831519 298.49759 
L 144.475569 103.433414 
" clip-path="url(#p7301bef2bb)" style="fill: none; stroke: #427ce5; stroke-width: 1.5; stroke-linecap: square"/>
   </g>
   <g id="line2d_89">
    <path d="M 243.556905 327.680707 
L 243.556905 130.022731 
" clip-path="url(#p7301bef2bb)" style="fill: none; stroke: #427ce5; stroke-width: 1.5; stroke-linecap: square"/>
   </g>
   <g id="line2d_90">
    <path d="M 342.031556 358.018901 
L 346.747734 157.714865 
" clip-path="url(#p7301bef2bb)" style="fill: none; stroke: #427ce5; stroke-width: 1.5; stroke-linecap: square"/>
   </g>
   <g id="line2d_91">
    <path d="M 204.799186 250.495927 
L 203.07633 59.80122 
" clip-path="url(#p7301bef2bb)" style="fill: none; stroke: #427ce5; stroke-width: 1.5; stroke-linecap: square"/>
   </g>
   <g id="line2d_92">
    <path d="M 297.49496 277.828794 
L 299.939668 84.630353 
" clip-path="url(#p7301bef2bb)" style="fill: none; stroke: #427ce5; stroke-width: 1.5; stroke-linecap: square"/>
   </g>
   <g id="line2d_93">
    <path d="M 393.738072 306.207651 
L 400.681203 110.45359 
" clip-path="url(#p7301bef2bb)" style="fill: none; stroke: #427ce5; stroke-width: 1.5; stroke-linecap: square"/>
   </g>
   <g id="line2d_94">
    <path d="M 104.351755 338.01955 
L 201.363045 368.974463 
L 258.466577 316.119782 
L 163.564549 287.189423 
L 104.351755 338.01955 
" clip-path="url(#p7301bef2bb)" style="fill: none; stroke: #3aff79; stroke-width: 0.75; stroke-linecap: square"/>
   </g>
   <g id="line2d_95">
    <path d="M 101.117719 240.389128 
L 200.362664 270.073336 
L 258.807933 219.405053 
L 161.768735 191.705552 
L 101.117719 240.389128 
" clip-path="url(#p7301bef2bb)" style="fill: none; stroke: #3aff79; stroke-width: 0.75; stroke-linecap: square"/>
   </g>
   <g id="line2d_96">
    <path d="M 104.351755 338.01955 
L 101.117719 240.389128 
" clip-path="url(#p7301bef2bb)" style="fill: none; stroke: #3aff79; stroke-width: 0.75; stroke-linecap: square"/>
   </g>
   <g id="line2d_97">
    <path d="M 201.363045 368.974463 
L 200.362664 270.073336 
" clip-path="url(#p7301bef2bb)" style="fill: none; stroke: #3aff79; stroke-width: 0.75; stroke-linecap: square"/>
   </g>
   <g id="line2d_98">
    <path d="M 258.466577 316.119782 
L 258.807933 219.405053 
" clip-path="url(#p7301bef2bb)" style="fill: none; stroke: #3aff79; stroke-width: 0.75; stroke-linecap: square"/>
   </g>
   <g id="line2d_99">
    <path d="M 163.564549 287.189423 
L 161.768735 191.705552 
" clip-path="url(#p7301bef2bb)" style="fill: none; stroke: #3aff79; stroke-width: 0.75; stroke-linecap: square"/>
   </g>
   <g id="text_19">
    <!-- 0 -->
    <g style="fill: #f16100" transform="translate(142.724622 308.551138) scale(0.1 -0.1)">
     <use xlink:href="#DejaVuSans-13"/>
    </g>
   </g>
   <g id="text_20">
    <!-- 0 -->
    <g style="fill: #f16100" transform="translate(142.724622 308.551138) scale(0.1 -0.1)">
     <use xlink:href="#DejaVuSans-13"/>
    </g>
   </g>
   <g id="text_21">
    <!-- 0 -->
    <g style="fill: #f16100" transform="translate(142.724622 308.551138) scale(0.1 -0.1)">
     <use xlink:href="#DejaVuSans-13"/>
    </g>
   </g>
   <g id="text_22">
    <!-- 0 -->
    <g style="fill: #f16100" transform="translate(142.724622 308.551138) scale(0.1 -0.1)">
     <use xlink:href="#DejaVuSans-13"/>
    </g>
   </g>
   <g id="text_23">
    <!-- 0 -->
    <g style="fill: #f16100" transform="translate(142.724622 308.551138) scale(0.1 -0.1)">
     <use xlink:href="#DejaVuSans-13"/>
    </g>
   </g>
   <g id="text_24">
    <!-- 0 -->
    <g style="fill: #f16100" transform="translate(142.724622 308.551138) scale(0.1 -0.1)">
     <use xlink:href="#DejaVuSans-13"/>
    </g>
   </g>
   <g id="text_25">
    <!-- 0 -->
    <g style="fill: #f16100" transform="translate(142.724622 308.551138) scale(0.1 -0.1)">
     <use xlink:href="#DejaVuSans-13"/>
    </g>
   </g>
   <g id="text_26">
    <!-- 0 -->
    <g style="fill: #f16100" transform="translate(142.724622 308.551138) scale(0.1 -0.1)">
     <use xlink:href="#DejaVuSans-13"/>
    </g>
   </g>
   <g id="text_27">
    <!-- 0 -->
    <g style="fill: #343434" transform="translate(162.79808 293.29036) scale(0.1 -0.1)">
     <use xlink:href="#DejaVuSans-13"/>
    </g>
   </g>
   <g id="text_28">
    <!-- 1 -->
    <g style="fill: #343434" transform="translate(261.581705 323.459806) scale(0.1 -0.1)">
     <use xlink:href="#DejaVuSans-14"/>
    </g>
   </g>
   <g id="text_29">
    <!-- 2 -->
    <g style="fill: #343434" transform="translate(220.27697 243.764066) scale(0.1 -0.1)">
     <use xlink:href="#DejaVuSans-15"/>
    </g>
   </g>
   <g id="text_30">
    <!-- 3 -->
    <g style="fill: #343434" transform="translate(316.846603 271.950198) scale(0.1 -0.1)">
     <defs>
      <path id="DejaVuSans-16" d="M 2597 2516 
Q 3050 2419 3304 2112 
Q 3559 1806 3559 1356 
Q 3559 666 3084 287 
Q 2609 -91 1734 -91 
Q 1441 -91 1130 -33 
Q 819 25 488 141 
L 488 750 
Q 750 597 1062 519 
Q 1375 441 1716 441 
Q 2309 441 2620 675 
Q 2931 909 2931 1356 
Q 2931 1769 2642 2001 
Q 2353 2234 1838 2234 
L 1294 2234 
L 1294 2753 
L 1863 2753 
Q 2328 2753 2575 2939 
Q 2822 3125 2822 3475 
Q 2822 3834 2567 4026 
Q 2313 4219 1838 4219 
Q 1578 4219 1281 4162 
Q 984 4106 628 3988 
L 628 4550 
Q 988 4650 1302 4700 
Q 1616 4750 1894 4750 
Q 2613 4750 3031 4423 
Q 3450 4097 3450 3541 
Q 3450 3153 3228 2886 
Q 3006 2619 2597 2516 
z
" transform="scale(0.015625)"/>
     </defs>
     <use xlink:href="#DejaVuSans-16"/>
    </g>
   </g>
   <g id="text_31">
    <!-- 4 -->
    <g style="fill: #343434" transform="translate(160.985918 194.019856) scale(0.1 -0.1)">
     <defs>
      <path id="DejaVuSans-17" d="M 2419 4116 
L 825 1625 
L 2419 1625 
L 2419 4116 
z
M 2253 4666 
L 3047 4666 
L 3047 1625 
L 3713 1625 
L 3713 1100 
L 3047 1100 
L 3047 0 
L 2419 0 
L 2419 1100 
L 313 1100 
L 313 1709 
L 2253 4666 
z
" transform="scale(0.015625)"/>
     </defs>
     <use xlink:href="#DejaVuSans-17"/>
    </g>
   </g>
   <g id="text_32">
    <!-- 5 -->
    <g style="fill: #343434" transform="translate(262.087293 222.858905) scale(0.1 -0.1)">
     <use xlink:href="#DejaVuSans-18"/>
    </g>
   </g>
   <g id="text_33">
    <!-- 6 -->
    <g style="fill: #343434" transform="translate(219.823371 146.736415) scale(0.1 -0.1)">
     <defs>
      <path id="DejaVuSans-19" d="M 2113 2584 
Q 1688 2584 1439 2293 
Q 1191 2003 1191 1497 
Q 1191 994 1439 701 
Q 1688 409 2113 409 
Q 2538 409 2786 701 
Q 3034 994 3034 1497 
Q 3034 2003 2786 2293 
Q 2538 2584 2113 2584 
z
M 3366 4563 
L 3366 3988 
Q 3128 4100 2886 4159 
Q 2644 4219 2406 4219 
Q 1781 4219 1451 3797 
Q 1122 3375 1075 2522 
Q 1259 2794 1537 2939 
Q 1816 3084 2150 3084 
Q 2853 3084 3261 2657 
Q 3669 2231 3669 1497 
Q 3669 778 3244 343 
Q 2819 -91 2113 -91 
Q 1303 -91 875 529 
Q 447 1150 447 2328 
Q 447 3434 972 4092 
Q 1497 4750 2381 4750 
Q 2619 4750 2861 4703 
Q 3103 4656 3366 4563 
z
" transform="scale(0.015625)"/>
     </defs>
     <use xlink:href="#DejaVuSans-19"/>
    </g>
   </g>
   <g id="text_34">
    <!-- 7 -->
    <g style="fill: #343434" transform="translate(318.606847 173.637143) scale(0.1 -0.1)">
     <defs>
      <path id="DejaVuSans-1a" d="M 525 4666 
L 3525 4666 
L 3525 4397 
L 1831 0 
L 1172 0 
L 2766 4134 
L 525 4134 
L 525 4666 
z
" transform="scale(0.015625)"/>
     </defs>
     <use xlink:href="#DejaVuSans-1a"/>
    </g>
   </g>
  </g>
 </g>
 <defs>
  <clipPath id="p7301bef2bb">
   <rect x="7.2" y="7.2" width="460.273973" height="460.273973"/>
  </clipPath>
 </defs>
</svg>
