<?xml version="1.0" encoding="utf-8" standalone="no"?>
<!DOCTYPE svg PUBLIC "-//W3C//DTD SVG 1.1//EN"
  "http://www.w3.org/Graphics/SVG/1.1/DTD/svg11.dtd">
<svg xmlns:xlink="http://www.w3.org/1999/xlink" width="303.415125pt" height="297.512pt" viewBox="0 0 303.415125 297.512" xmlns="http://www.w3.org/2000/svg" version="1.1">
 <metadata>
  <rdf:RDF xmlns:dc="http://purl.org/dc/elements/1.1/" xmlns:cc="http://creativecommons.org/ns#" xmlns:rdf="http://www.w3.org/1999/02/22-rdf-syntax-ns#">
   <cc:Work>
    <dc:type rdf:resource="http://purl.org/dc/dcmitype/StillImage"/>
    <dc:date>2026-09-24T07:35:23.192580</dc:date>
    <dc:format>image/svg+xml</dc:format>
    <dc:creator>
     <cc:Agent>
      <dc:title>Matplotlib v3.11.1, https://matplotlib.org/</dc:title>
     </cc:Agent>
    </dc:creator>
   </cc:Work>
  </rdf:RDF>
 </metadata>
 <defs>
  <style type="text/css">*{stroke-linejoin: round; stroke-linecap: butt}</style>
 </defs>
 <g id="figure_1">
  <g id="patch_1">
   <path d="M 0 297.512 
L 303.415125 297.512 
L 303.415125 0 
L 0 0 
z
" style="fill: #ffffff"/>
  </g>
  <g id="axes_1">
   <g id="patch_2">
    <path d="M 30.103125 273.312 
L 296.215125 273.312 
L 296.215125 7.2 
L 30.103125 7.2 
z
" style="fill: #ffffff"/>
   </g>
   <g id="line2d_1">
    <path d="M 82.519125 261.216 
L 42.199125 261.216 
M 42.199125 220.896 
L 42.199125 261.216 
M 42.199125 220.896 
L 82.519125 261.216 
M 82.519125 220.896 
L 82.519125 261.216 
M 82.519125 220.896 
L 42.199125 220.896 
M 122.839125 261.216 
L 82.519125 261.216 
M 122.839125 261.216 
L 82.519125 220.896 
M 122.839125 220.896 
L 82.519125 220.896 
M 122.839125 220.896 
L 122.839125 261.216 
M 163.159125 261.216 
L 122.839125 261.216 
M 163.159125 261.216 
L 122.839125 220.896 
M 163.159125 220.896 
L 122.839125 220.896 
M 163.159125 220.896 
L 163.159125 261.216 
M 42.199125 180.576 
L 42.199125 220.896 
M 42.199125 180.576 
L 82.519125 220.896 
M 82.519125 180.576 
L 82.519125 220.896 
M 82.519125 180.576 
L 122.839125 220.896 
M 82.519125 180.576 
L 42.199125 180.576 
M 122.839125 180.576 
L 122.839125 220.896 
M 122.839125 180.576 
L 163.159125 220.896 
M 122.839125 180.576 
L 82.519125 180.576 
M 163.159125 180.576 
L 163.159125 220.896 
M 163.159125 180.576 
L 122.839125 180.576 
M 42.199125 140.256 
L 42.199125 180.576 
M 42.199125 140.256 
L 82.519125 180.576 
M 82.519125 140.256 
L 82.519125 180.576 
M 82.519125 140.256 
L 122.839125 180.576 
M 82.519125 140.256 
L 42.199125 140.256 
M 122.839125 140.256 
L 122.839125 180.576 
M 122.839125 140.256 
L 163.159125 180.576 
M 122.839125 140.256 
L 82.519125 140.256 
M 163.159125 140.256 
L 163.159125 180.576 
M 163.159125 140.256 
L 122.839125 140.256 
M 203.479125 261.216 
L 163.159125 261.216 
M 203.479125 261.216 
L 163.159125 220.896 
M 203.479125 220.896 
L 163.159125 220.896 
M 203.479125 220.896 
L 163.159125 180.576 
M 203.479125 220.896 
L 203.479125 261.216 
M 243.799125 261.216 
L 203.479125 261.216 
M 243.799125 261.216 
L 203.479125 220.896 
M 243.799125 220.896 
L 203.479125 220.896 
M 243.799125 220.896 
L 243.799125 261.216 
M 284.119125 261.216 
L 243.799125 261.216 
M 284.119125 261.216 
L 243.799125 220.896 
M 284.119125 220.896 
L 243.799125 220.896 
M 284.119125 220.896 
L 284.119125 261.216 
M 203.479125 180.576 
L 163.159125 180.576 
M 203.479125 180.576 
L 163.159125 140.256 
M 203.479125 180.576 
L 203.479125 220.896 
M 203.479125 180.576 
L 243.799125 220.896 
M 243.799125 180.576 
L 243.799125 220.896 
M 243.799125 180.576 
L 284.119125 220.896 
M 243.799125 180.576 
L 203.479125 180.576 
M 284.119125 180.576 
L 284.119125 220.896 
M 284.119125 180.576 
L 243.799125 180.576 
M 203.479125 140.256 
L 163.159125 140.256 
M 203.479125 140.256 
L 203.479125 180.576 
M 203.479125 140.256 
L 243.799125 180.576 
M 243.799125 140.256 
L 243.799125 180.576 
M 243.799125 140.256 
L 284.119125 180.576 
M 243.799125 140.256 
L 203.479125 140.256 
M 284.119125 140.256 
L 284.119125 180.576 
M 284.119125 140.256 
L 243.799125 140.256 
M 42.199125 99.936 
L 42.199125 140.256 
M 42.199125 99.936 
L 82.519125 140.256 
M 82.519125 99.936 
L 82.519125 140.256 
M 82.519125 99.936 
L 122.839125 140.256 
M 82.519125 99.936 
L 42.199125 99.936 
M 122.839125 99.936 
L 122.839125 140.256 
M 122.839125 99.936 
L 163.159125 140.256 
M 122.839125 99.936 
L 82.519125 99.936 
M 163.159125 99.936 
L 163.159125 140.256 
M 163.159125 99.936 
L 203.479125 140.256 
M 163.159125 99.936 
L 122.839125 99.936 
M 42.199125 59.616 
L 42.199125 99.936 
M 42.199125 59.616 
L 82.519125 99.936 
M 82.519125 59.616 
L 82.519125 99.936 
M 82.519125 59.616 
L 122.839125 99.936 
M 82.519125 59.616 
L 42.199125 59.616 
M 122.839125 59.616 
L 122.839125 99.936 
M 122.839125 59.616 
L 163.159125 99.936 
M 122.839125 59.616 
L 82.519125 59.616 
M 163.159125 59.616 
L 163.159125 99.936 
M 163.159125 59.616 
L 122.839125 59.616 
M 42.199125 19.296 
L 42.199125 59.616 
M 42.199125 19.296 
L 82.519125 59.616 
M 82.519125 19.296 
L 82.519125 59.616 
M 82.519125 19.296 
L 122.839125 59.616 
M 82.519125 19.296 
L 42.199125 19.296 
M 122.839125 19.296 
L 122.839125 59.616 
M 122.839125 19.296 
L 163.159125 59.616 
M 122.839125 19.296 
L 82.519125 19.296 
M 163.159125 19.296 
L 163.159125 59.616 
M 163.159125 19.296 
L 122.839125 19.296 
M 203.479125 99.936 
L 203.479125 140.256 
M 203.479125 99.936 
L 243.799125 140.256 
M 203.479125 99.936 
L 163.159125 99.936 
M 203.479125 99.936 
L 163.159125 59.616 
M 243.799125 99.936 
L 243.799125 140.256 
M 243.799125 99.936 
L 284.119125 140.256 
M 243.799125 99.936 
L 203.479125 99.936 
M 284.119125 99.936 
L 284.119125 140.256 
M 284.119125 99.936 
L 243.799125 99.936 
M 203.479125 59.616 
L 163.159125 59.616 
M 203.479125 59.616 
L 163.159125 19.296 
M 203.479125 59.616 
L 203.479125 99.936 
M 203.479125 59.616 
L 243.799125 99.936 
M 243.799125 59.616 
L 243.799125 99.936 
M 243.799125 59.616 
L 284.119125 99.936 
M 243.799125 59.616 
L 203.479125 59.616 
M 284.119125 59.616 
L 284.119125 99.936 
M 284.119125 59.616 
L 243.799125 59.616 
M 203.479125 19.296 
L 163.159125 19.296 
M 203.479125 19.296 
L 203.479125 59.616 
M 203.479125 19.296 
L 243.799125 59.616 
M 243.799125 19.296 
L 243.799125 59.616 
M 243.799125 19.296 
L 284.119125 59.616 
M 243.799125 19.296 
L 203.479125 19.296 
M 284.119125 19.296 
L 284.119125 59.616 
M 284.119125 19.296 
L 243.799125 19.296 
L 243.799125 19.296 
" clip-path="url(#p8f408d6f1a)" style="fill: none; stroke: #427ce5; stroke-width: 1.5; stroke-linecap: square"/>
   </g>
   <g id="matplotlib.axis_1">
    <g id="xtick_1">
     <g id="line2d_2">
      <defs>
       <path id="mde63c1c596" d="M 0 0 
L 0 3.5 
" style="stroke: #000000; stroke-width: 0.8"/>
      </defs>
      <g>
       <use xlink:href="#mde63c1c596" x="42.199125" y="273.312" style="stroke: #000000; stroke-width: 0.8"/>
      </g>
     </g>
     <g id="text_1">
      <!-- 0.0 -->
      <g transform="translate(34.247563 287.909656) scale(0.1 -0.1)">
       <defs>
        <path id="DejaVuSans-13" d="M 2034 4250 
Q 1547 4250 1301 3770 
Q 1056 3291 1056 2328 
Q 1056 1369 1301 889 
Q 1547 409 2034 409 
Q 2525 409 2770 889 
Q 3016 1369 3016 2328 
Q 3016 3291 2770 3770 
Q 2525 4250 2034 4250 
z
M 2034 4750 
Q 2819 4750 3233 4129 
Q 3647 3509 3647 2328 
Q 3647 1150 3233 529 
Q 2819 -91 2034 -91 
Q 1250 -91 836 529 
Q 422 1150 422 2328 
Q 422 3509 836 4129 
Q 1250 4750 2034 4750 
z
" transform="scale(0.015625)"/>
        <path id="DejaVuSans-11" d="M 684 794 
L 1344 794 
L 1344 0 
L 684 0 
L 684 794 
z
" transform="scale(0.015625)"/>
       </defs>
       <use xlink:href="#DejaVuSans-13"/>
       <use xlink:href="#DejaVuSans-11" transform="translate(63.625 0)"/>
       <use xlink:href="#DejaVuSans-13" transform="translate(95.40625 0)"/>
      </g>
     </g>
    </g>
    <g id="xtick_2">
     <g id="line2d_3">
      <g>
       <use xlink:href="#mde63c1c596" x="82.519125" y="273.312" style="stroke: #000000; stroke-width: 0.8"/>
      </g>
     </g>
     <g id="text_2">
      <!-- 0.5 -->
      <g transform="translate(74.567563 287.909656) scale(0.1 -0.1)">
       <defs>
        <path id="DejaVuSans-18" d="M 691 4666 
L 3169 4666 
L 3169 4134 
L 1269 4134 
L 1269 2991 
Q 1406 3038 1543 3061 
Q 1681 3084 1819 3084 
Q 2600 3084 3056 2656 
Q 3513 2228 3513 1497 
Q 3513 744 3044 326 
Q 2575 -91 1722 -91 
Q 1428 -91 1123 -41 
Q 819 9 494 109 
L 494 744 
Q 775 591 1075 516 
Q 1375 441 1709 441 
Q 2250 441 2565 725 
Q 2881 1009 2881 1497 
Q 2881 1984 2565 2268 
Q 2250 2553 1709 2553 
Q 1456 2553 1204 2497 
Q 953 2441 691 2322 
L 691 4666 
z
" transform="scale(0.015625)"/>
       </defs>
       <use xlink:href="#DejaVuSans-13"/>
       <use xlink:href="#DejaVuSans-11" transform="translate(63.625 0)"/>
       <use xlink:href="#DejaVuSans-18" transform="translate(95.40625 0)"/>
      </g>
     </g>
    </g>
    <g id="xtick_3">
     <g id="line2d_4">
      <g>
       <use xlink:href="#mde63c1c596" x="122.839125" y="273.312" style="stroke: #000000; stroke-width: 0.8"/>
      </g>
     </g>
     <g id="text_3">
      <!-- 1.0 -->
      <g transform="translate(114.887563 287.909656) scale(0.1 -0.1)">
       <defs>
        <path id="DejaVuSans-14" d="M 794 531 
L 1825 531 
L 1825 4091 
L 703 3866 
L 703 4441 
L 1819 4666 
L 2450 4666 
L 2450 531 
L 3481 531 
L 3481 0 
L 794 0 
L 794 531 
z
" transform="scale(0.015625)"/>
       </defs>
       <use xlink:href="#DejaVuSans-14"/>
       <use xlink:href="#DejaVuSans-11" transform="translate(63.625 0)"/>
       <use xlink:href="#DejaVuSans-13" transform="translate(95.40625 0)"/>
      </g>
     </g>
    </g>
    <g id="xtick_4">
     <g id="line2d_5">
      <g>
       <use xlink:href="#mde63c1c596" x="163.159125" y="273.312" style="stroke: #000000; stroke-width: 0.8"/>
      </g>
     </g>
     <g id="text_4">
      <!-- 1.5 -->
      <g transform="translate(155.207562 287.909656) scale(0.1 -0.1)">
       <use xlink:href="#DejaVuSans-14"/>
       <use xlink:href="#DejaVuSans-11" transform="translate(63.625 0)"/>
       <use xlink:href="#DejaVuSans-18" transform="translate(95.40625 0)"/>
      </g>
     </g>
    </g>
    <g id="xtick_5">
     <g id="line2d_6">
      <g>
       <use xlink:href="#mde63c1c596" x="203.479125" y="273.312" style="stroke: #000000; stroke-width: 0.8"/>
      </g>
     </g>
     <g id="text_5">
      <!-- 2.0 -->
      <g transform="translate(195.527562 287.909656) scale(0.1 -0.1)">
       <defs>
        <path id="DejaVuSans-15" d="M 1228 531 
L 3431 531 
L 3431 0 
L 469 0 
L 469 531 
Q 828 903 1448 1529 
Q 2069 2156 2228 2338 
Q 2531 2678 2651 2914 
Q 2772 3150 2772 3378 
Q 2772 3750 2511 3984 
Q 2250 4219 1831 4219 
Q 1534 4219 1204 4116 
Q 875 4013 500 3803 
L 500 4441 
Q 881 4594 1212 4672 
Q 1544 4750 1819 4750 
Q 2544 4750 2975 4387 
Q 3406 4025 3406 3419 
Q 3406 3131 3298 2873 
Q 3191 2616 2906 2266 
Q 2828 2175 2409 1742 
Q 1991 1309 1228 531 
z
" transform="scale(0.015625)"/>
       </defs>
       <use xlink:href="#DejaVuSans-15"/>
       <use xlink:href="#DejaVuSans-11" transform="translate(63.625 0)"/>
       <use xlink:href="#DejaVuSans-13" transform="translate(95.40625 0)"/>
      </g>
     </g>
    </g>
    <g id="xtick_6">
     <g id="line2d_7">
      <g>
       <use xlink:href="#mde63c1c596" x="243.799125" y="273.312" style="stroke: #000000; stroke-width: 0.8"/>
      </g>
     </g>
     <g id="text_6">
      <!-- 2.5 -->
      <g transform="translate(235.847562 287.909656) scale(0.1 -0.1)">
       <use xlink:href="#DejaVuSans-15"/>
       <use xlink:href="#DejaVuSans-11" transform="translate(63.625 0)"/>
       <use xlink:href="#DejaVuSans-18" transform="translate(95.40625 0)"/>
      </g>
     </g>
    </g>
    <g id="xtick_7">
     <g id="line2d_8">
      <g>
       <use xlink:href="#mde63c1c596" x="284.119125" y="273.312" style="stroke: #000000; stroke-width: 0.8"/>
      </g>
     </g>
     <g id="text_7">
      <!-- 3.0 -->
      <g transform="translate(276.167562 287.909656) scale(0.1 -0.1)">
       <defs>
        <path id="DejaVuSans-16" d="M 2597 2516 
Q 3050 2419 3304 2112 
Q 3559 1806 3559 1356 
Q 3559 666 3084 287 
Q 2609 -91 1734 -91 
Q 1441 -91 1130 -33 
Q 819 25 488 141 
L 488 750 
Q 750 597 1062 519 
Q 1375 441 1716 441 
Q 2309 441 2620 675 
Q 2931 909 2931 1356 
Q 2931 1769 2642 2001 
Q 2353 2234 1838 2234 
L 1294 2234 
L 1294 2753 
L 1863 2753 
Q 2328 2753 2575 2939 
Q 2822 3125 2822 3475 
Q 2822 3834 2567 4026 
Q 2313 4219 1838 4219 
Q 1578 4219 1281 4162 
Q 984 4106 628 3988 
L 628 4550 
Q 988 4650 1302 4700 
Q 1616 4750 1894 4750 
Q 2613 4750 3031 4423 
Q 3450 4097 3450 3541 
Q 3450 3153 3228 2886 
Q 3006 2619 2597 2516 
z
" transform="scale(0.015625)"/>
       </defs>
       <use xlink:href="#DejaVuSans-16"/>
       <use xlink:href="#DejaVuSans-11" transform="translate(63.625 0)"/>
       <use xlink:href="#DejaVuSans-13" transform="translate(95.40625 0)"/>
      </g>
     </g>
    </g>
   </g>
   <g id="matplotlib.axis_2">
    <g id="ytick_1">
     <g id="line2d_9">
      <defs>
       <path id="m29ce756d00" d="M 0 0 
L -3.5 0 
" style="stroke: #000000; stroke-width: 0.8"/>
      </defs>
      <g>
       <use xlink:href="#m29ce756d00" x="30.103125" y="261.216" style="stroke: #000000; stroke-width: 0.8"/>
      </g>
     </g>
     <g id="text_8">
      <!-- 0.0 -->
      <g transform="translate(7.2 265.014828) scale(0.1 -0.1)">
       <use xlink:href="#DejaVuSans-13"/>
       <use xlink:href="#DejaVuSans-11" transform="translate(63.625 0)"/>
       <use xlink:href="#DejaVuSans-13" transform="translate(95.40625 0)"/>
      </g>
     </g>
    </g>
    <g id="ytick_2">
     <g id="line2d_10">
      <g>
       <use xlink:href="#m29ce756d00" x="30.103125" y="220.896" style="stroke: #000000; stroke-width: 0.8"/>
      </g>
     </g>
     <g id="text_9">
      <!-- 0.5 -->
      <g transform="translate(7.2 224.694828) scale(0.1 -0.1)">
       <use xlink:href="#DejaVuSans-13"/>
       <use xlink:href="#DejaVuSans-11" transform="translate(63.625 0)"/>
       <use xlink:href="#DejaVuSans-18" transform="translate(95.40625 0)"/>
      </g>
     </g>
    </g>
    <g id="ytick_3">
     <g id="line2d_11">
      <g>
       <use xlink:href="#m29ce756d00" x="30.103125" y="180.576" style="stroke: #000000; stroke-width: 0.8"/>
      </g>
     </g>
     <g id="text_10">
      <!-- 1.0 -->
      <g transform="translate(7.2 184.374828) scale(0.1 -0.1)">
       <use xlink:href="#DejaVuSans-14"/>
       <use xlink:href="#DejaVuSans-11" transform="translate(63.625 0)"/>
       <use xlink:href="#DejaVuSans-13" transform="translate(95.40625 0)"/>
      </g>
     </g>
    </g>
    <g id="ytick_4">
     <g id="line2d_12">
      <g>
       <use xlink:href="#m29ce756d00" x="30.103125" y="140.256" style="stroke: #000000; stroke-width: 0.8"/>
      </g>
     </g>
     <g id="text_11">
      <!-- 1.5 -->
      <g transform="translate(7.2 144.054828) scale(0.1 -0.1)">
       <use xlink:href="#DejaVuSans-14"/>
       <use xlink:href="#DejaVuSans-11" transform="translate(63.625 0)"/>
       <use xlink:href="#DejaVuSans-18" transform="translate(95.40625 0)"/>
      </g>
     </g>
    </g>
    <g id="ytick_5">
     <g id="line2d_13">
      <g>
       <use xlink:href="#m29ce756d00" x="30.103125" y="99.936" style="stroke: #000000; stroke-width: 0.8"/>
      </g>
     </g>
     <g id="text_12">
      <!-- 2.0 -->
      <g transform="translate(7.2 103.734828) scale(0.1 -0.1)">
       <use xlink:href="#DejaVuSans-15"/>
       <use xlink:href="#DejaVuSans-11" transform="translate(63.625 0)"/>
       <use xlink:href="#DejaVuSans-13" transform="translate(95.40625 0)"/>
      </g>
     </g>
    </g>
    <g id="ytick_6">
     <g id="line2d_14">
      <g>
       <use xlink:href="#m29ce756d00" x="30.103125" y="59.616" style="stroke: #000000; stroke-width: 0.8"/>
      </g>
     </g>
     <g id="text_13">
      <!-- 2.5 -->
      <g transform="translate(7.2 63.414828) scale(0.1 -0.1)">
       <use xlink:href="#DejaVuSans-15"/>
       <use xlink:href="#DejaVuSans-11" transform="translate(63.625 0)"/>
       <use xlink:href="#DejaVuSans-18" transform="translate(95.40625 0)"/>
      </g>
     </g>
    </g>
    <g id="ytick_7">
     <g id="line2d_15">
      <g>
       <use xlink:href="#m29ce756d00" x="30.103125" y="19.296" style="stroke: #000000; stroke-width: 0.8"/>
      </g>
     </g>
     <g id="text_14">
      <!-- 3.0 -->
      <g transform="translate(7.2 23.094828) scale(0.1 -0.1)">
       <use xlink:href="#DejaVuSans-16"/>
       <use xlink:href="#DejaVuSans-11" transform="translate(63.625 0)"/>
       <use xlink:href="#DejaVuSans-13" transform="translate(95.40625 0)"/>
      </g>
     </g>
    </g>
   </g>
   <g id="line2d_16"/>
   <g id="patch_3">
    <path d="M 30.103125 273.312 
L 30.103125 7.2 
" style="fill: none; stroke: #000000; stroke-width: 0.8; stroke-linejoin: miter; stroke-linecap: square"/>
   </g>
   <g id="patch_4">
    <path d="M 296.215125 273.312 
L 296.215125 7.2 
" style="fill: none; stroke: #000000; stroke-width: 0.8; stroke-linejoin: miter; stroke-linecap: square"/>
   </g>
   <g id="patch_5">
    <path d="M 30.103125 273.312 
L 296.215125 273.312 
" style="fill: none; stroke: #000000; stroke-width: 0.8; stroke-linejoin: miter; stroke-linecap: square"/>
   </g>
   <g id="patch_6">
    <path d="M 30.103125 7.2 
L 296.215125 7.2 
" style="fill: none; stroke: #000000; stroke-width: 0.8; stroke-linejoin: miter; stroke-linecap: square"/>
   </g>
  </g>
 </g>
 <defs>
  <clipPath id="p8f408d6f1a">
   <rect x="30.103125" y="7.2" width="266.112" height="266.112"/>
  </clipPath>
 </defs>
</svg>
